<svg width="70" height="70" viewBox="0 0 70 70" fill="none" xmlns="http://www.w3.org/2000/svg">
<g clip-path="url(#clip0_1116_296)">
<path d="M1.54633 36.4474L10.4928 39.8687C11.0891 40.096 11.7512 40.0775 12.3338 39.8172C12.9165 39.5569 13.3721 39.0761 13.6007 38.4803L13.7631 38.0557C13.846 38.1011 13.9285 38.1471 14.0114 38.1924C14.4956 39.127 15.0744 40.0095 15.7388 40.8259C15.437 41.3324 15.2748 41.91 15.2687 42.4996C15.2627 43.0893 15.413 43.67 15.7044 44.1827C15.9957 44.6954 16.4178 45.1217 16.9275 45.4182C17.4372 45.7147 18.0164 45.8709 18.6061 45.8708C18.6252 45.8708 18.6445 45.8697 18.6638 45.8693C18.754 46.6853 19.1421 47.4392 19.7539 47.9867C20.3656 48.5342 21.1579 48.8366 21.9788 48.8361C21.9985 48.8361 22.018 48.8348 22.0376 48.8346C22.1269 49.6499 22.514 50.4035 23.1248 50.951C23.7355 51.4984 24.5268 51.8012 25.347 51.8011C25.3679 51.8011 25.389 51.7994 25.41 51.799C25.4815 52.442 25.7383 53.0503 26.1492 53.5501C26.56 54.0498 27.1072 54.4194 27.7242 54.6139C28.3412 54.8084 29.0014 54.8194 29.6246 54.6456C30.2477 54.4719 30.807 54.1208 31.2343 53.635L31.8306 52.9569L35.0785 55.7129C35.679 56.2244 36.4425 56.5047 37.2313 56.5033C37.3243 56.5033 37.4177 56.4994 37.5116 56.4918C38.3182 56.4273 39.0738 56.0711 39.6369 55.4899C40.1999 54.9087 40.532 54.1423 40.5709 53.334C41.3528 53.3069 42.1001 53.0054 42.6819 52.4824C43.2637 51.9593 43.6427 51.2481 43.7525 50.4736C43.8438 50.4811 43.9354 50.4853 44.0269 50.4853C44.813 50.4869 45.5743 50.2106 46.1764 49.7053C46.7785 49.1999 47.1826 48.498 47.3173 47.7236C47.4591 47.7428 47.602 47.7529 47.7451 47.7539C47.8381 47.7539 47.9315 47.7501 48.0254 47.7425C48.5595 47.7016 49.0756 47.5314 49.5293 47.2467C49.983 46.9619 50.3607 46.5711 50.6297 46.108C50.8988 45.6448 51.0513 45.1232 51.0739 44.588C51.0966 44.0528 50.9887 43.5202 50.7597 43.0359C51.9708 42.1922 53.1943 40.9674 54.4719 39.3202C54.479 39.3111 54.4858 39.3019 54.4924 39.2928C54.9312 38.7008 55.5151 38.2318 56.1878 37.931L56.3982 38.481C56.511 38.7763 56.6809 39.0464 56.8982 39.276C57.1154 39.5056 57.3758 39.6901 57.6644 39.819C57.953 39.948 58.2642 40.0188 58.5802 40.0274C58.8961 40.0361 59.2107 39.9823 59.5059 39.8694L68.4525 36.4481C69.0483 36.2195 69.529 35.7639 69.7893 35.1812C70.0496 34.5986 70.0681 33.9365 69.8409 33.3402L62.8444 15.0445C62.6159 14.4488 62.1603 13.968 61.5777 13.7077C60.995 13.4474 60.333 13.4289 59.7367 13.6562L50.7904 17.0773C50.1945 17.3058 49.7137 17.7614 49.4534 18.3441C49.1931 18.9267 49.1746 19.5888 49.4019 20.1852L49.5129 20.4751C48.8886 20.6918 48.17 20.9434 47.3626 21.2279C43.7122 20.1931 40.1744 19.601 35.948 19.3162C34.8252 19.2275 33.7113 19.5745 32.8374 20.2852L30.1525 22.418C28.6191 22.3696 26.7337 22.3103 24.4962 22.2403L20.5263 20.37L20.597 20.1852C20.8242 19.5888 20.8056 18.9268 20.5453 18.3441C20.2849 17.7615 19.8041 17.306 19.2083 17.0774L10.2619 13.6562C9.66562 13.429 9.00359 13.4476 8.42102 13.7078C7.83844 13.9681 7.38288 14.4488 7.15426 15.0445L0.157949 33.3397C-0.0692725 33.936 -0.0507081 34.598 0.20957 35.1806C0.469848 35.7632 0.950586 36.2188 1.54633 36.4474ZM17.8474 43.3979C17.6183 43.196 17.4787 42.9115 17.4591 42.6067C17.4396 42.302 17.5417 42.0019 17.7431 41.7724L19.5605 39.7054C19.7631 39.4792 20.0467 39.3421 20.3498 39.3239C20.653 39.3057 20.951 39.408 21.1791 39.6084C21.4072 39.8089 21.5469 40.0913 21.5679 40.3942C21.5888 40.6971 21.4893 40.9961 21.291 41.226L19.4726 43.2936C19.2699 43.5214 18.9856 43.66 18.6813 43.6795C18.3771 43.699 18.0774 43.5977 17.8473 43.3977L17.8474 43.3979ZM21.2202 46.3637C20.9911 46.1618 20.8515 45.8774 20.8318 45.5728C20.8122 45.2682 20.9141 44.9682 21.1153 44.7386L23.9276 41.5404C24.1299 41.3131 24.4139 41.1751 24.7176 41.1566C25.0213 41.138 25.32 41.2403 25.5485 41.4412C25.777 41.6421 25.9167 41.9253 25.9372 42.2289C25.9576 42.5324 25.8571 42.8317 25.6576 43.0615L24.8849 43.9403L24.8839 43.9414L22.8453 46.2597C22.6434 46.4887 22.3589 46.6282 22.0542 46.6476C21.7496 46.6671 21.4496 46.565 21.2202 46.3637ZM24.5929 49.3294C24.3638 49.1274 24.2242 48.8429 24.2046 48.5381C24.1851 48.2334 24.2872 47.9333 24.4886 47.7038L26.5273 45.385C26.7298 45.1584 27.0137 45.0209 27.3171 45.0026C27.6205 44.9844 27.9188 45.0868 28.147 45.2875C28.3753 45.4882 28.5149 45.7711 28.5355 46.0743C28.5561 46.3775 28.456 46.6767 28.2571 46.9064L27.1892 48.121L26.2185 49.2248C26.0166 49.4539 25.732 49.5936 25.4273 49.6132C25.1225 49.6328 24.8225 49.5307 24.5929 49.3294ZM29.5912 52.1905C29.3884 52.4159 29.1049 52.5523 28.8021 52.57C28.4994 52.5877 28.2019 52.4854 27.9742 52.2851C27.7465 52.0849 27.6069 51.8029 27.5858 51.5004C27.5646 51.1979 27.6636 50.8993 27.8613 50.6693L28.832 49.5657C29.0343 49.3385 29.3183 49.2005 29.622 49.182C29.9257 49.1634 30.2244 49.2657 30.4529 49.4666C30.6814 49.6675 30.8211 49.9507 30.8415 50.2542C30.862 50.5578 30.7615 50.8571 30.562 51.0869L29.5912 52.1905ZM51.4504 19.2363C51.4618 19.2099 51.4784 19.1861 51.4992 19.1662C51.52 19.1463 51.5446 19.1308 51.5714 19.1205L60.518 15.6993C60.5423 15.6902 60.5681 15.6855 60.5941 15.6856C60.6387 15.6856 60.6823 15.699 60.7193 15.724C60.7563 15.7491 60.7848 15.7847 60.8013 15.8262L67.7982 34.1209C67.8181 34.1753 67.8161 34.2354 67.7924 34.2883C67.7688 34.3412 67.7254 34.3828 67.6716 34.4042L58.725 37.8254C58.6706 37.8454 58.6105 37.8434 58.5576 37.8198C58.5047 37.7962 58.4631 37.7528 58.4417 37.699L51.445 19.4038C51.4347 19.3769 51.4298 19.3483 51.4308 19.3195C51.4317 19.2908 51.4384 19.2625 51.4504 19.2363ZM34.198 21.998C34.6453 21.6265 35.2214 21.4471 35.8005 21.4989C39.9946 21.782 43.477 22.3765 47.0917 23.4266C47.3112 23.4903 47.5452 23.4837 47.7607 23.4076C48.7282 23.0658 49.5763 22.7691 50.2944 22.52L55.405 35.8843C54.3439 36.339 53.4219 37.0664 52.7329 37.9926C51.5523 39.5127 50.42 40.6357 49.3559 41.3444L36.7064 29.4238C36.3849 29.1208 36.0032 28.889 35.5862 28.7434C35.1691 28.5978 34.726 28.5418 34.2859 28.5788C33.8457 28.6159 33.4182 28.7453 33.0314 28.9587C32.6446 29.172 32.307 29.4644 32.0408 29.8169C31.7067 30.2638 31.4537 30.7659 31.2932 31.3003C31.2801 31.3429 31.2696 31.3863 31.2619 31.4303C30.8138 33.9596 29.7198 35.4895 28.1815 35.7369C28.0766 35.7537 27.9748 35.7857 27.8792 35.8319C27.7538 35.8926 27.6156 35.9223 27.4764 35.9187C27.3371 35.915 27.2007 35.8781 27.0787 35.811C26.9566 35.7439 26.8523 35.6486 26.7746 35.533C26.6969 35.4174 26.6479 35.2848 26.6319 35.1464L26.7276 28.3827C26.7248 28.2401 26.7562 28.0989 26.8191 27.9709C26.882 27.8429 26.9745 27.7318 27.0891 27.6469L34.198 21.998ZM23.7689 24.3162C23.9042 24.3801 24.0513 24.4154 24.2009 24.42C25.4013 24.4576 26.502 24.4921 27.5031 24.5237L25.7283 25.9338C25.3608 26.221 25.0631 26.5877 24.8574 27.0064C24.6517 27.425 24.5434 27.8848 24.5406 28.3512L24.4443 35.1717C24.4437 35.2033 24.4446 35.2347 24.447 35.2662C24.482 35.7505 24.6318 36.2194 24.8838 36.6344C25.1359 37.0493 25.4831 37.3984 25.8967 37.6527C26.3103 37.9069 26.7785 38.0592 27.2626 38.0968C27.7466 38.1344 28.2327 38.0563 28.6806 37.8689C29.9287 37.6228 32.5528 36.5457 33.4032 31.8835C33.4889 31.6145 33.6185 31.3616 33.7867 31.1348C33.8677 31.0276 33.9704 30.9386 34.0882 30.8736C34.2059 30.8087 34.336 30.7693 34.4699 30.7581C34.6039 30.7468 34.7387 30.7638 34.8657 30.8081C34.9926 30.8524 35.1088 30.923 35.2066 31.0152L48.4547 43.5002C48.957 43.9735 49.0326 44.6878 48.6306 45.1618C48.432 45.3932 48.1502 45.537 47.8462 45.5619C47.5423 45.5868 47.2407 45.4909 47.0071 45.2949L46.2948 44.6908L46.2926 44.6934C46.2587 44.6622 46.2242 44.6313 46.1894 44.6012L40.6956 39.9409C40.4741 39.756 40.1885 39.6661 39.901 39.6909C39.6135 39.7156 39.3474 39.853 39.1608 40.073C38.9741 40.293 38.8819 40.5779 38.9043 40.8656C38.9267 41.1532 39.0619 41.4204 39.2804 41.6088L44.7747 46.2693C44.8914 46.3668 44.9876 46.4863 45.0578 46.6211C45.128 46.7559 45.1708 46.9033 45.1838 47.0547C45.1968 47.2062 45.1797 47.3587 45.1335 47.5034C45.0873 47.6482 45.0129 47.7824 44.9145 47.8983C44.8162 48.0142 44.6959 48.1095 44.5606 48.1787C44.4253 48.2479 44.2776 48.2897 44.1261 48.3015C43.9746 48.3134 43.8222 48.2952 43.6778 48.2479C43.5333 48.2006 43.3997 48.1252 43.2845 48.026L42.6177 47.4604L42.615 47.4582L42.6093 47.453L37.313 42.9603C37.0914 42.7768 36.8063 42.6881 36.5196 42.7133C36.2329 42.7386 35.9678 42.8758 35.7816 43.0953C35.5954 43.3147 35.5032 43.5987 35.525 43.8857C35.5468 44.1727 35.6808 44.4395 35.898 44.6283L41.1941 49.1209C41.3094 49.2187 41.4044 49.3383 41.4735 49.4729C41.5426 49.6074 41.5846 49.7543 41.597 49.905C41.6094 50.0558 41.5919 50.2075 41.5457 50.3515C41.4994 50.4955 41.4252 50.629 41.3274 50.7444C41.2295 50.8597 41.1099 50.9547 40.9754 51.0238C40.8408 51.093 40.694 51.1349 40.5432 51.1473C40.3925 51.1597 40.2407 51.1422 40.0967 51.096C39.9527 51.0497 39.8192 50.9755 39.7038 50.8777L39.4002 50.6201L39.3991 50.619L34.5267 46.4859C34.305 46.3024 34.0199 46.2136 33.7333 46.2389C33.4466 46.2642 33.1814 46.4014 32.9952 46.6209C32.8091 46.8403 32.7169 47.1243 32.7387 47.4113C32.7605 47.6982 32.8945 47.965 33.1117 48.1538L37.7802 52.1143L37.9842 52.2873C38.2129 52.4861 38.3541 52.7671 38.377 53.0693C38.4 53.3715 38.3029 53.6706 38.1068 53.9017C37.9107 54.1328 37.6315 54.2774 37.3296 54.304C37.0277 54.3306 36.7274 54.2371 36.494 54.0438L32.9568 51.0438C33.0232 50.7381 33.0466 50.4246 33.0265 50.1123C32.9832 49.4202 32.725 48.7589 32.288 48.2205C31.851 47.6821 31.2568 47.2934 30.5884 47.1088C30.7222 46.6663 30.7626 46.2008 30.7069 45.7419C30.6512 45.283 30.5007 44.8406 30.265 44.443C30.0292 44.0453 29.7134 43.701 29.3375 43.4319C28.9616 43.1629 28.5338 42.9749 28.0814 42.8799C28.1808 42.3157 28.1335 41.7353 27.9439 41.1947C27.7543 40.654 27.4288 40.1712 26.9987 39.7927L26.2763 40.6139L26.9986 39.7925C26.5303 39.3817 25.9566 39.1098 25.342 39.0076C24.7275 38.9054 24.0966 38.977 23.5206 39.2142C23.3074 38.6859 22.9626 38.221 22.5188 37.8637C22.0751 37.5064 21.5473 37.2686 20.9857 37.1731C20.4241 37.0775 19.8473 37.1273 19.3104 37.3178C18.7735 37.5082 18.2943 37.8329 17.9184 38.261L17.1711 39.1107C16.649 38.4161 16.1916 37.6751 15.8047 36.897C15.704 36.698 15.5448 36.5347 15.3486 36.4287C15.0834 36.2854 14.818 36.1403 14.5524 35.9933L19.7433 22.419L23.7689 24.3162ZM2.20053 34.121L9.19738 15.8259C9.21387 15.7844 9.24245 15.7488 9.27941 15.7237C9.31636 15.6987 9.36 15.6853 9.40465 15.6853C9.43061 15.6852 9.45637 15.6899 9.48066 15.699L18.4273 19.1203C18.4811 19.1417 18.5245 19.1833 18.5481 19.2362C18.5717 19.2891 18.5737 19.3491 18.5537 19.4035L11.5576 37.6988C11.5362 37.7528 11.4947 37.7962 11.4417 37.8199C11.3888 37.8436 11.3287 37.8456 11.2743 37.8256L2.32781 34.4043C2.27384 34.383 2.23033 34.3415 2.20655 34.2886C2.18277 34.2356 2.18061 34.1755 2.20053 34.121ZM34.9994 0C35.143 0 35.2852 0.0282907 35.4179 0.0832568C35.5506 0.138223 35.6712 0.218788 35.7728 0.320352C35.8743 0.421916 35.9549 0.54249 36.0098 0.67519C36.0648 0.80789 36.0931 0.950117 36.0931 1.09375V11.9492C36.0931 12.2393 35.9779 12.5175 35.7728 12.7226C35.5676 12.9277 35.2894 13.043 34.9994 13.043C34.7093 13.043 34.4311 12.9277 34.226 12.7226C34.0208 12.5175 33.9056 12.2393 33.9056 11.9492V1.09375C33.9056 0.803669 34.0208 0.52547 34.226 0.320352C34.4311 0.115234 34.7093 0 34.9994 0V0ZM52.5022 4.68412C52.7534 4.82917 52.9367 5.06806 53.0118 5.34825C53.0869 5.62844 53.0476 5.92697 52.9025 6.17818L47.4736 15.5814C47.3275 15.8306 47.0888 16.0119 46.8096 16.0857C46.5303 16.1595 46.2332 16.1199 45.9831 15.9755C45.733 15.8311 45.5501 15.5936 45.4745 15.3148C45.3988 15.0361 45.4364 14.7388 45.5792 14.4877L51.008 5.08443C51.0798 4.96003 51.1755 4.85099 51.2894 4.76355C51.4034 4.6761 51.5335 4.61196 51.6722 4.57479C51.811 4.53762 51.9557 4.52814 52.0981 4.5469C52.2405 4.56566 52.3778 4.61229 52.5022 4.68412ZM56.3909 48.6134C56.1397 48.4683 55.9564 48.2294 55.8813 47.9492C55.8062 47.669 55.8455 47.3705 55.9905 47.1192C56.1356 46.868 56.3745 46.6847 56.6547 46.6096C56.9349 46.5345 57.2334 46.5738 57.4847 46.7188L64.9148 51.0087C65.166 51.1537 65.3493 51.3926 65.4244 51.6728C65.4995 51.953 65.4602 52.2516 65.3152 52.5028C65.1701 52.754 64.9312 52.9374 64.651 53.0124C64.3708 53.0875 64.0723 53.0482 63.821 52.9032L56.3909 48.6134ZM52.9025 63.8217C52.9755 63.9461 53.0231 64.0838 53.0426 64.2267C53.0622 64.3696 53.0533 64.5149 53.0164 64.6544C52.9795 64.7939 52.9154 64.9246 52.8278 65.0392C52.7402 65.1538 52.6308 65.2499 52.5059 65.322C52.3809 65.3942 52.243 65.4409 52.1 65.4595C51.9569 65.4781 51.8116 65.4682 51.6724 65.4304C51.5332 65.3926 51.4028 65.3276 51.2888 65.2393C51.1748 65.1509 51.0795 65.0408 51.0082 64.9154L46.7183 57.4853C46.6454 57.3609 46.5978 57.2232 46.5782 57.0803C46.5587 56.9374 46.5676 56.792 46.6045 56.6526C46.6413 56.5131 46.7054 56.3824 46.7931 56.2678C46.8807 56.1532 46.9901 56.0571 47.115 55.9849C47.2399 55.9128 47.3779 55.8661 47.5209 55.8475C47.664 55.8289 47.8093 55.8388 47.9485 55.8766C48.0877 55.9144 48.218 55.9794 48.332 56.0677C48.446 56.1561 48.5414 56.2662 48.6127 56.3916L52.9025 63.8217ZM33.9056 68.9062V60.3281C33.9056 60.038 34.0208 59.7598 34.226 59.5547C34.4311 59.3496 34.7093 59.2344 34.9994 59.2344C35.2894 59.2344 35.5676 59.3496 35.7728 59.5547C35.9779 59.7598 36.0931 60.038 36.0931 60.3281V68.9062C36.0931 69.1963 35.9779 69.4745 35.7728 69.6796C35.5676 69.8848 35.2894 70 34.9994 70C34.7093 70 34.4311 69.8848 34.226 69.6796C34.0208 69.4745 33.9056 69.1963 33.9056 68.9062ZM18.0424 65.4626C17.8505 65.4624 17.662 65.4117 17.4959 65.3157C17.3297 65.2196 17.1918 65.0815 17.0959 64.9153C17 64.749 16.9496 64.5605 16.9496 64.3686C16.9497 64.1767 17.0002 63.9882 17.0962 63.822L21.386 56.3917C21.4578 56.2673 21.5534 56.1583 21.6674 56.0708C21.7813 55.9834 21.9114 55.9192 22.0501 55.8821C22.1889 55.8449 22.3336 55.8354 22.476 55.8541C22.6184 55.8729 22.7557 55.9195 22.8801 55.9913C23.0045 56.0631 23.1136 56.1587 23.201 56.2727C23.2884 56.3867 23.3526 56.5167 23.3898 56.6555C23.4269 56.7942 23.4364 56.9389 23.4177 57.0813C23.3989 57.2237 23.3523 57.3611 23.2805 57.4854L18.9907 64.9157C18.8946 65.0821 18.7564 65.2203 18.5899 65.3163C18.4234 65.4123 18.2346 65.4628 18.0424 65.4626ZM13.6078 48.6134L6.17768 52.9032C5.9266 53.0459 5.62925 53.0836 5.35051 53.0079C5.07178 52.9322 4.83429 52.7494 4.68988 52.4993C4.54546 52.2491 4.50584 51.952 4.57967 51.6728C4.65349 51.3936 4.83476 51.1549 5.08393 51.0088L12.514 46.719C12.6385 46.646 12.7761 46.5984 12.919 46.5789C13.0619 46.5593 13.2073 46.5683 13.3468 46.6051C13.4862 46.642 13.617 46.7061 13.7316 46.7937C13.8462 46.8813 13.9423 46.9907 14.0144 47.1157C14.0865 47.2406 14.1332 47.3785 14.1518 47.5216C14.1704 47.6646 14.1605 47.8099 14.1227 47.9491C14.0849 48.0883 14.02 48.2187 13.9316 48.3327C13.8432 48.4467 13.7332 48.5421 13.6078 48.6134ZM18.9905 5.08457L24.4195 14.4877C24.4913 14.6121 24.5379 14.7494 24.5567 14.8918C24.5754 15.0342 24.5659 15.1789 24.5288 15.3177C24.4916 15.4564 24.4274 15.5865 24.34 15.7004C24.2526 15.8144 24.1435 15.91 24.0191 15.9818C23.8947 16.0536 23.7574 16.1002 23.615 16.119C23.4726 16.1377 23.3279 16.1282 23.1891 16.0911C23.0504 16.0539 22.9203 15.9897 22.8064 15.9023C22.6924 15.8149 22.5968 15.7058 22.525 15.5814L17.0962 6.17832C17.0232 6.05388 16.9756 5.91625 16.9561 5.77333C16.9365 5.63042 16.9454 5.48505 16.9823 5.3456C17.0192 5.20615 17.0833 5.07536 17.1709 4.96078C17.2585 4.8462 17.3679 4.75008 17.4928 4.67795C17.6178 4.60583 17.7557 4.55913 17.8988 4.54054C18.0418 4.52194 18.1871 4.53183 18.3263 4.56962C18.4655 4.60741 18.5959 4.67237 18.7099 4.76075C18.8239 4.84912 18.9193 4.95918 18.9905 5.08457Z" fill="white"/>
</g>
<defs>
<clipPath id="clip0_1116_296">
<rect width="70" height="70" fill="white"/>
</clipPath>
</defs>
</svg>
