<svg width="70" height="70" viewBox="0 0 70 70" fill="none" xmlns="http://www.w3.org/2000/svg">
<path d="M58.129 27.8778H47.0312V10.4238C47.003 8.79095 46.3285 7.23597 45.1556 6.0997C43.9827 4.96343 42.4071 4.3386 40.7742 4.36219H11.871C10.2191 4.32019 8.61786 4.9345 7.4179 6.0706C6.21794 7.2067 5.51707 8.772 5.46875 10.4238V28.9256C5.51707 30.5774 6.21794 32.1427 7.4179 33.2788C8.61786 34.4149 10.2191 35.0292 11.871 34.9872H12.0312V40.8025C12.0314 41.0508 12.1015 41.294 12.2336 41.5042C12.3657 41.7144 12.5544 41.883 12.7781 41.9908C13.0017 42.0986 13.2513 42.141 13.498 42.1134C13.7447 42.0857 13.9786 41.989 14.1728 41.8344L22.7647 34.9872H22.9688V52.3697C22.9973 54.0219 23.6799 55.5954 24.8669 56.7451C26.0538 57.8948 27.6482 58.5269 29.3005 58.5028H47.2353L55.8283 65.3505C56.0225 65.505 56.2564 65.6015 56.503 65.6291C56.7496 65.6566 56.999 65.614 57.2226 65.5062C57.4461 65.3984 57.6347 65.2298 57.7667 65.0196C57.8987 64.8095 57.9687 64.5663 57.9688 64.3182V58.5028H58.129C59.7809 58.5448 61.3821 57.9305 62.5821 56.7944C63.7821 55.6583 64.4829 54.093 64.5312 52.4413V33.9394C64.4829 32.2876 63.7821 30.7223 62.5821 29.5862C61.3821 28.4501 59.7809 27.8358 58.129 27.8778ZM22.5223 32.7997C22.1846 32.8012 21.857 32.9157 21.5919 33.1249L14.2188 39.0006V34.2529C14.2156 33.865 14.0587 33.4943 13.7826 33.2218C13.5065 32.9494 13.1337 32.7976 12.7458 32.7997H11.871C10.7992 32.8418 9.75429 32.4579 8.96455 31.732C8.17482 31.0062 7.70447 29.9972 7.65625 28.9256V10.4238C7.70446 9.35218 8.17481 8.34323 8.96455 7.61734C9.75428 6.89145 10.7992 6.50762 11.871 6.54969H40.7742C41.8271 6.52557 42.8466 6.91977 43.6094 7.64592C44.3722 8.37207 44.8161 9.37096 44.8438 10.4238V28.9256C44.8158 29.9785 44.3717 30.9774 43.6088 31.7036C42.8458 32.4297 41.8262 32.8238 40.7732 32.7997L22.5223 32.7997ZM62.3438 52.4413C62.2955 53.5128 61.8252 54.5218 61.0354 55.2477C60.2457 55.9736 59.2008 56.3574 58.129 56.3153H57.2542C56.8663 56.3133 56.4935 56.4651 56.2174 56.7375C55.9413 57.0099 55.7844 57.3806 55.7812 57.7685V62.5163L48.4048 56.6385C48.1408 56.4298 47.8143 56.316 47.4777 56.3153H29.3005C28.2283 56.3398 27.1901 55.9382 26.4133 55.1987C25.6365 54.4591 25.1845 53.4419 25.1562 52.3697V34.9872H40.7732C42.2079 35.0018 43.6035 34.5197 44.7232 33.6226C45.8429 32.7255 46.6179 31.4687 46.9166 30.0653H58.129C59.2008 30.0233 60.2457 30.4071 61.0354 31.133C61.8252 31.8589 62.2955 32.8678 62.3438 33.9394V52.4413Z" fill="black"/>
<path d="M31.9771 24.6075C33.2627 23.1529 33.9496 21.2654 33.8995 19.3247C33.8493 17.3841 33.0659 15.5345 31.7069 14.1483C30.3479 12.762 28.5142 11.9421 26.5749 11.8535C24.6357 11.7649 22.7348 12.4142 21.2551 13.6707C19.7753 14.9272 18.8264 16.6976 18.5995 18.6256C18.3726 20.5536 18.8845 22.4959 20.0321 24.0617C21.1797 25.6274 22.8778 26.7003 24.7846 27.0644C26.6915 27.4284 28.6654 27.0566 30.3092 26.0238L30.9289 26.7264C31.1214 26.942 31.3914 27.0728 31.6799 27.09C31.9684 27.1073 32.252 27.0096 32.4688 26.8184C32.6856 26.6272 32.8178 26.3579 32.8367 26.0695C32.8556 25.7811 32.7595 25.4969 32.5696 25.2791L31.9771 24.6075ZM26.2496 25.0131C25.168 25.0131 24.1106 24.6924 23.2113 24.0915C22.312 23.4906 21.611 22.6365 21.1971 21.6372C20.7832 20.6379 20.6749 19.5383 20.8859 18.4775C21.0969 17.4166 21.6178 16.4422 22.3826 15.6774C23.1474 14.9126 24.1218 14.3917 25.1827 14.1807C26.2435 13.9697 27.3431 14.078 28.3424 14.4919C29.3417 14.9058 30.1958 15.6068 30.7967 16.5061C31.3976 17.4054 31.7183 18.4628 31.7183 19.5444C31.713 20.781 31.2844 21.9785 30.504 22.9378L28.1327 20.2499C27.94 20.0349 27.6702 19.9047 27.3821 19.8878C27.0939 19.8708 26.8107 19.9685 26.5942 20.1595C26.3778 20.3504 26.2455 20.6192 26.2264 20.9073C26.2073 21.1953 26.3027 21.4792 26.492 21.6972L28.8233 24.3397C28.035 24.7753 27.1502 25.0068 26.2496 25.0131Z" fill="black"/>
<path d="M50.2277 49.277C48.2456 44.5581 49.2997 47.0676 44.7633 36.267L44.7629 36.2662L44.7589 36.2567C44.675 36.0587 44.5346 35.8897 44.3553 35.771C44.176 35.6523 43.9657 35.5889 43.7506 35.5889C43.5356 35.5889 43.3253 35.6523 43.146 35.771C42.9667 35.8897 42.8263 36.0587 42.7423 36.2567L42.7383 36.2662L42.738 36.267C40.6681 41.1951 39.0584 45.0276 37.2736 49.277C37.1638 49.5439 37.164 49.8435 37.2741 50.1103C37.3843 50.3771 37.5954 50.5896 37.8615 50.7014C38.1277 50.8131 38.4272 50.8152 38.6948 50.707C38.9625 50.5989 39.1765 50.3893 39.2902 50.124L40.8092 46.5074H46.692L48.2111 50.124C48.3241 50.3903 48.5381 50.601 48.8062 50.7099C49.0742 50.8187 49.3745 50.817 49.6412 50.7049C49.908 50.5929 50.1195 50.3797 50.2294 50.1121C50.3393 49.8444 50.3387 49.5442 50.2277 49.277ZM41.728 44.3199L43.7506 39.5043L45.7732 44.3199H41.728Z" fill="#3FA9F5"/>
</svg>
