<svg width="70" height="70" viewBox="0 0 70 70" fill="none" xmlns="http://www.w3.org/2000/svg">
<path d="M64.5312 2.1875H39.375C38.5051 2.1885 37.671 2.53452 37.0559 3.14965C36.4408 3.76479 36.0947 4.59881 36.0938 5.46875V16.4103H33.9062V5.46875C33.9053 4.59881 33.5592 3.76479 32.9441 3.14965C32.329 2.53452 31.4949 2.1885 30.625 2.1875H5.46875C4.59881 2.1885 3.76479 2.53452 3.14965 3.14965C2.53452 3.76479 2.1885 4.59881 2.1875 5.46875V20.7812C2.1885 21.6512 2.53452 22.4852 3.14965 23.1003C3.76479 23.7155 4.59881 24.0615 5.46875 24.0625H6.10941L12.0312 29.9843V24.0625H15.3125V21.875H9.84375V24.7032L7.01559 21.875H5.46875C5.17877 21.8747 4.90076 21.7593 4.69572 21.5543C4.49067 21.3492 4.37533 21.0712 4.375 20.7812V5.46875C4.37533 5.17877 4.49067 4.90076 4.69572 4.69572C4.90076 4.49067 5.17877 4.37533 5.46875 4.375H30.625C30.915 4.37533 31.193 4.49067 31.398 4.69572C31.6031 4.90076 31.7184 5.17877 31.7188 5.46875V16.4103H31.4922L29.1248 21.9096L26.0356 23.1897L20.4646 20.9734L15.5046 25.9332L17.7209 31.5043L16.4409 34.5936L10.9415 36.9611V42.6562H13.129V38.4009L18.1217 36.2516L20.0818 31.5211L18.0692 26.4622L20.9934 23.5379L26.0525 25.5505L30.7828 23.5905L32.9322 18.5978H37.0678L39.2172 23.5905L43.9476 25.5505L49.0066 23.5379L51.9308 26.4623L49.9182 31.5212L51.8783 36.2516L56.871 38.4009V42.6562H59.0585V36.9611L53.5591 34.5936L52.2791 31.5043L54.4955 25.9333L49.5355 20.9734L43.9644 23.1897L40.8752 21.9096L38.5078 16.4103H38.2812V5.46875C38.2816 5.17877 38.3969 4.90076 38.602 4.69572C38.807 4.49067 39.085 4.37533 39.375 4.375H64.5312C64.8212 4.37533 65.0992 4.49067 65.3043 4.69572C65.5093 4.90076 65.6247 5.17877 65.625 5.46875V20.7812C65.6247 21.0712 65.5093 21.3492 65.3043 21.5543C65.0992 21.7593 64.8212 21.8747 64.5312 21.875H62.9844L60.1562 24.7032V21.875H54.6875V24.0625H57.9688V29.9843L63.8906 24.0625H64.5312C65.4012 24.0615 66.2352 23.7155 66.8503 23.1003C67.4655 22.4852 67.8115 21.6512 67.8125 20.7812V5.46875C67.8115 4.59881 67.4655 3.76479 66.8503 3.14965C66.2352 2.53452 65.4012 2.1885 64.5312 2.1875Z" fill="black"/>
<path d="M63.4375 7.65625H40.4688V9.84375H63.4375V7.65625Z" fill="#3FA9F5"/>
<path d="M63.4375 12.0312H40.4688V14.2188H63.4375V12.0312Z" fill="#3FA9F5"/>
<path d="M54.6875 16.4062H42.6562V18.5938H54.6875V16.4062Z" fill="#3FA9F5"/>
<path d="M51.0708 40.4688H50.2731C49.9964 36.6068 48.2671 32.993 45.4331 30.3549C42.5992 27.7167 38.8711 26.25 34.9993 26.25C31.1274 26.25 27.3993 27.7167 24.5654 30.3549C21.7315 32.993 20.0021 36.6068 19.7254 40.4688H18.9277C18.4576 40.4688 17.993 40.5698 17.5653 40.765C17.1377 40.9602 16.7569 41.245 16.4489 41.6002C16.1409 41.9553 15.9128 42.3725 15.78 42.8235C15.6473 43.2745 15.613 43.7487 15.6795 44.2141L16.2253 48.035C16.3095 48.639 16.5612 49.2073 16.9519 49.6755C17.3426 50.1437 17.8567 50.4931 18.4359 50.6839L19.1068 50.9076C19.3048 50.974 19.4797 51.0955 19.611 51.2579C19.7423 51.4204 19.8245 51.6169 19.848 51.8244L20.3456 56.3028C20.496 57.6882 21.085 58.9894 22.0267 60.0165C22.9685 61.0437 24.2138 61.7432 25.581 62.013L26.2493 62.1467V67.8125H28.4368V62.1467C28.4356 61.6413 28.26 61.1518 27.9396 60.7609C27.6192 60.3701 27.1736 60.1019 26.6782 60.0016L26.0099 59.868C25.0985 59.6881 24.2683 59.2218 23.6404 58.537C23.0126 57.8522 22.62 56.9847 22.5197 56.0611L22.0221 51.5829C21.9518 50.9603 21.7052 50.3707 21.3113 49.8835C20.9174 49.3962 20.3926 49.0315 19.7986 48.8322L19.1276 48.6086C18.9346 48.545 18.7632 48.4285 18.633 48.2725C18.5028 48.1164 18.4189 47.927 18.3908 47.7257L17.8449 43.9046C17.8228 43.7495 17.8342 43.5914 17.8785 43.4411C17.9228 43.2908 17.9988 43.1517 18.1015 43.0334C18.2042 42.915 18.3311 42.82 18.4736 42.755C18.6162 42.6899 18.771 42.6563 18.9277 42.6562H20.7805L21.8743 42.652V41.5582C21.8748 38.0773 23.2582 34.7391 25.72 32.2781C28.1818 29.8171 31.5204 28.4348 35.0014 28.4354C38.4824 28.4359 41.8205 29.8193 44.2816 32.2811C46.7426 34.7429 48.1248 38.0815 48.1243 41.5625V42.6562H51.0708C51.2275 42.6563 51.3824 42.6899 51.5249 42.755C51.6675 42.82 51.7944 42.915 51.897 43.0334C51.9997 43.1517 52.0758 43.2908 52.12 43.4411C52.1643 43.5914 52.1757 43.7495 52.1536 43.9046L51.6077 47.7258C51.5796 47.9271 51.4957 48.1165 51.3655 48.2725C51.2352 48.4286 51.0639 48.545 50.8709 48.6086L50.1999 48.8322C49.6059 49.0315 49.0812 49.3962 48.6873 49.8834C48.2934 50.3706 48.0468 50.9602 47.9764 51.5828L47.4788 56.0611C47.3786 56.9847 46.9859 57.8522 46.3581 58.537C45.7302 59.2218 44.9001 59.6881 43.9886 59.868L43.3202 60.0016C42.8249 60.1019 42.3793 60.3701 42.0589 60.761C41.7385 61.1518 41.5629 61.6413 41.5618 62.1467V67.8125H43.7493V62.1467L44.4176 62.013C45.7848 61.7432 47.03 61.0437 47.9718 60.0165C48.9136 58.9894 49.5026 57.6882 49.6529 56.3028L50.1506 51.8243C50.174 51.6168 50.2562 51.4203 50.3875 51.2579C50.5188 51.0955 50.6937 50.974 50.8917 50.9076L51.5625 50.6839C52.1417 50.4931 52.6558 50.1438 53.0466 49.6756C53.4373 49.2074 53.689 48.6391 53.7732 48.0351L54.3191 44.2141C54.3856 43.7487 54.3513 43.2745 54.2185 42.8235C54.0858 42.3725 53.8577 41.9553 53.5496 41.6002C53.2416 41.245 52.8609 40.9602 52.4332 40.765C52.0055 40.5698 51.5409 40.4688 51.0708 40.4688Z" fill="black"/>
<path d="M29.5312 7.65625H6.5625V9.84375H29.5312V7.65625Z" fill="#3FA9F5"/>
<path d="M29.5312 12.0312H6.5625V14.2188H29.5312V12.0312Z" fill="#3FA9F5"/>
<path d="M22.9688 16.4062H6.5625V18.5938H22.9688V16.4062Z" fill="#3FA9F5"/>
</svg>
