<svg width="70" height="70" viewBox="0 0 70 70" fill="none" xmlns="http://www.w3.org/2000/svg">
<g clip-path="url(#clip0_1116_357)">
<path d="M44.1331 35.0002C44.1331 27.9236 41.4158 21.2759 36.4608 16.1453L38.8057 14.8329C39.9272 14.1875 40.7315 13.1406 41.0702 11.8842C41.4088 10.6284 41.2401 9.31851 40.5954 8.19714C40.3349 7.74446 39.7571 7.58806 39.3039 7.84919C38.851 8.10909 38.6948 8.68741 38.9553 9.14064C39.3485 9.82423 39.4507 10.6236 39.2435 11.3921C39.0362 12.1601 38.5461 12.7999 37.8723 13.1874L0.484121 34.1115C0.185391 34.2784 0.000683898 34.5937 3.04073e-07 34.9355C-0.000273133 35.2773 0.183887 35.5933 0.481934 35.7607L37.8628 56.808C38.5461 57.2003 39.0362 57.8403 39.2435 58.6082C39.4507 59.3768 39.3485 60.1761 38.9553 60.8597C38.6948 61.3129 38.8508 61.8912 39.3039 62.1511C39.4524 62.2367 39.6147 62.2773 39.7744 62.2773C40.1019 62.2773 40.4204 62.1074 40.5954 61.8032C41.2401 60.6817 41.4088 59.3718 41.0702 58.1162C40.7315 56.8599 39.9272 55.8129 38.7983 55.1637L36.4656 53.8504C41.4176 48.7202 44.1331 42.0744 44.1331 35.0002ZM40.7276 43.5929C39.5649 41.0229 38.9272 38.0214 38.9272 34.933C38.9272 31.8714 39.5548 28.891 40.6995 26.3342C41.7102 29.077 42.2412 31.9967 42.2412 35.0002C42.2412 37.9768 41.7207 40.8714 40.7276 43.5929ZM39.7279 24.0558C37.9948 27.1588 37.0355 30.9935 37.0355 34.933C37.0355 38.9014 38.0077 42.7583 39.7638 45.8727C38.564 48.3605 36.9477 50.6677 34.9416 52.7096C30.2267 47.9109 27.6417 41.657 27.6417 35.0002C27.6417 28.3433 30.2267 22.0895 34.9416 17.2907C36.9281 19.3129 38.5316 21.5957 39.7279 24.0558ZM2.87848 34.9392L30.771 19.3293C27.5082 23.8994 25.7497 29.3102 25.7497 35C25.7497 40.6704 27.4956 46.0645 30.737 50.6248L2.87848 34.9392Z" fill="black"/>
<path d="M61.9335 38.5781C62.456 38.5781 62.8794 38.1544 62.8794 37.6321C62.8794 37.1099 62.456 36.6862 61.9335 36.6862H58.1496C57.6271 36.6862 57.2037 37.1099 57.2037 37.6321C57.2037 38.1544 57.6271 38.5781 58.1496 38.5781H61.9335Z" fill="#3FA9F5"/>
<path d="M69.0536 38.5781C69.5762 38.5781 69.9996 38.1544 69.9996 37.6321C69.9996 37.1099 69.5762 36.6862 69.0536 36.6862H67.6088C67.0863 36.6862 66.6628 37.1099 66.6628 37.6321C66.6628 38.1544 67.0863 38.5781 67.6088 38.5781H69.0536Z" fill="#3FA9F5"/>
<path d="M52.4743 38.5781C52.9968 38.5781 53.4203 38.1544 53.4203 37.6321C53.4203 37.1099 52.9968 36.6862 52.4744 36.6862H48.6906C48.1681 36.6862 47.7447 37.1099 47.7447 37.6321C47.7447 38.1544 48.1681 38.5781 48.6906 38.5781H52.4743Z" fill="#3FA9F5"/>
<path d="M56.4093 23.3629C55.9569 23.6239 55.8018 24.2023 56.0632 24.6549C56.2385 24.9586 56.5562 25.1278 56.8831 25.128C57.0436 25.128 57.2061 25.0874 57.3552 25.0011L60.6318 23.1092C61.0842 22.8482 61.2393 22.2699 60.9779 21.8172C60.7169 21.3651 60.1389 21.2094 59.6859 21.471L56.4093 23.3629Z" fill="#3FA9F5"/>
<path d="M64.6011 18.6332C64.1487 18.8942 63.9935 19.4725 64.2549 19.9252C64.4302 20.2288 64.748 20.3982 65.0749 20.3982C65.2354 20.3982 65.3979 20.3576 65.5469 20.2713L66.7983 19.5489C67.2507 19.2879 67.4059 18.7096 67.1445 18.2569C66.8835 17.8048 66.3055 17.6496 65.8525 17.9107L64.6011 18.6332Z" fill="#3FA9F5"/>
<path d="M48.2173 28.092C47.7649 28.353 47.6097 28.9314 47.8711 29.384C48.0464 29.6877 48.3641 29.857 48.691 29.8571C48.8515 29.8571 49.0141 29.8165 49.1631 29.7302L52.4397 27.8383C52.8921 27.5773 53.0473 26.999 52.7859 26.5463C52.5249 26.0942 51.9468 25.939 51.4939 26.2001L48.2173 28.092Z" fill="#3FA9F5"/>
<path d="M51.966 48.8454C52.293 48.8454 52.6108 48.6762 52.786 48.3725C53.0474 47.92 52.8923 47.3416 52.4397 47.0804L49.1631 45.1885C48.7106 44.9268 48.1325 45.0826 47.8711 45.5346C47.6097 45.9872 47.7649 46.5655 48.2173 46.8266L51.4939 48.7185C51.6429 48.8048 51.8056 48.8454 51.966 48.8454Z" fill="#3FA9F5"/>
<path d="M60.158 53.5745C60.4851 53.5745 60.8028 53.4053 60.9781 53.1016C61.2395 52.6491 61.0843 52.0707 60.6318 51.8095L57.3552 49.9176C56.9026 49.6559 56.3243 49.8111 56.0632 50.2637C55.8018 50.7163 55.9569 51.2946 56.4093 51.5557L59.6859 53.4476C59.835 53.5339 59.9977 53.5745 60.158 53.5745Z" fill="#3FA9F5"/>
<path d="M66.3245 57.1348C66.6515 57.1348 66.9692 56.9655 67.1445 56.6619C67.4059 56.2092 67.2507 55.6309 66.7982 55.3698L65.5468 54.6473C65.0945 54.3857 64.5159 54.5415 64.2548 54.9935C63.9934 55.4461 64.1486 56.0244 64.601 56.2855L65.8524 57.0079C66.0014 57.0942 66.1641 57.1348 66.3245 57.1348Z" fill="#3FA9F5"/>
</g>
<defs>
<clipPath id="clip0_1116_357">
<rect width="70" height="70" fill="white"/>
</clipPath>
</defs>
</svg>
