<svg width="70" height="70" viewBox="0 0 70 70" fill="none" xmlns="http://www.w3.org/2000/svg">
<path d="M13.0799 39.3838C10.9615 39.3838 9.24414 41.1013 9.24414 43.2196C9.24414 45.3382 10.9615 47.0555 13.0799 47.0555H13.6279C13.6279 56.74 21.4787 64.5908 31.1632 64.5908C40.8476 64.5908 48.6984 56.74 48.6984 47.0555H49.2464C51.3649 47.0555 53.0823 45.3382 53.0823 43.2196C53.0823 41.1013 51.3649 39.3838 49.2464 39.3838" stroke="black" stroke-width="2" stroke-miterlimit="10" stroke-linecap="round" stroke-linejoin="round"/>
<path d="M23.491 17.242C16.4902 19.5431 11.4355 26.1332 11.4355 33.904V39.3839" stroke="black" stroke-width="2" stroke-miterlimit="10" stroke-linecap="round" stroke-linejoin="round"/>
<path d="M18.0117 68.9746V58.8371" stroke="black" stroke-width="2" stroke-miterlimit="10" stroke-linecap="round" stroke-linejoin="round"/>
<path d="M44.3145 68.9746V58.8371" stroke="black" stroke-width="2" stroke-miterlimit="10" stroke-linecap="round" stroke-linejoin="round"/>
<path d="M44.8023 7.60114C45.1789 6.95405 45.4104 6.21181 45.4104 5.40927C45.4104 2.98812 43.4477 1.02538 41.0265 1.02538C38.6054 1.02538 36.6428 2.98812 36.6428 5.40927C36.6428 6.21181 36.8742 6.95405 37.2508 7.60114H30.067C28.8565 7.60114 27.875 8.58251 27.875 9.79302V16.9768C28.5221 16.6002 29.2643 16.3688 30.067 16.3688C32.4882 16.3688 34.4508 18.3315 34.4508 20.7527C34.4508 23.1737 32.4882 25.1364 30.067 25.1364C29.2643 25.1364 28.5221 24.905 27.875 24.5284V31.7122C27.875 32.9227 28.8565 33.9041 30.067 33.9041H37.2508C36.8742 33.2571 36.6428 32.5147 36.6428 31.7122C36.6428 29.291 38.6054 27.3284 41.0265 27.3284C43.4477 27.3284 45.4104 29.291 45.4104 31.7122C45.4104 32.5147 45.1789 33.2571 44.8023 33.9041H51.986C53.1965 33.9041 54.178 32.9227 54.178 31.7122V24.5284C54.8251 24.905 55.5672 25.1364 56.3699 25.1364C58.7911 25.1364 60.7537 23.1737 60.7537 20.7527C60.7537 18.3315 58.7911 16.3688 56.3699 16.3688C55.5672 16.3688 54.8251 16.6002 54.178 16.9768V9.79302C54.178 8.58251 53.1965 7.60114 51.986 7.60114H49.7942" stroke="#3FA9F5" stroke-width="2" stroke-miterlimit="10" stroke-linecap="round" stroke-linejoin="round"/>
</svg>
