<svg width="54" height="54" viewBox="0 0 54 54" fill="none" xmlns="http://www.w3.org/2000/svg">
<path fill-rule="evenodd" clip-rule="evenodd" d="M5.4757 21.9359L16.0617 12.624C15.915 12.2212 15.835 11.7864 15.835 11.3326C15.835 9.25806 17.5083 7.57639 19.5724 7.57639C21.597 7.57639 23.2455 9.1944 23.3079 11.214L31.6748 14.1581C32.3602 13.3493 33.3808 12.8363 34.5207 12.8363C35.1638 12.8363 35.769 12.9996 36.2974 13.2871L45.943 5.0043C45.8062 4.61377 45.7315 4.19383 45.7315 3.75625C45.7315 1.68178 47.4048 0 49.4688 0C51.5331 0 53.2064 1.68178 53.2064 3.75625C53.2064 5.83095 51.5331 7.51273 49.4688 7.51273C48.8258 7.51273 48.2206 7.34946 47.6923 7.06193L38.0466 15.3448C38.1834 15.7353 38.2581 16.1552 38.2581 16.5928C38.2581 18.6673 36.5848 20.3491 34.5206 20.3491C32.496 20.3491 30.8477 18.7311 30.7852 16.7115L22.4184 13.7675C21.7328 14.5762 20.7123 15.0892 19.5724 15.0892C18.9447 15.0892 18.3534 14.9335 17.8341 14.6588L7.24814 23.9707C7.39483 24.3733 7.47482 24.8083 7.47482 25.262C7.47482 27.3367 5.8015 29.0183 3.73724 29.0183C1.67332 29.018 0 27.3365 0 25.2618C0 23.1871 1.67332 21.5055 3.73735 21.5055C4.36499 21.5055 4.9564 21.6611 5.4757 21.9359ZM46.6258 14.9308C45.6964 14.9308 44.9383 15.6927 44.9383 16.6269V51.2403C44.9383 52.1745 45.6964 52.9364 46.6258 52.9364H52.3124C53.242 52.9364 54 52.1745 54 51.2403V16.6269C54 15.6927 53.2421 14.9308 52.3124 14.9308H46.6258ZM31.6773 28.7625C30.7479 28.7625 29.99 29.5244 29.99 30.4585V51.5949C29.99 52.5292 30.748 53.2909 31.6773 53.2909H37.3642C38.2937 53.2909 39.0516 52.5291 39.0516 51.5949C39.0516 44.5496 39.0516 37.5041 39.0516 30.4585C39.0516 29.5244 38.2937 28.7625 37.3642 28.7625C35.4685 28.7625 33.5731 28.7625 31.6773 28.7625ZM16.7292 23.7969C15.7996 23.7969 15.0416 24.5587 15.0416 25.4929V51.9495C15.0416 52.8837 15.7995 53.6455 16.7292 53.6455H22.4158C23.3452 53.6455 24.1033 52.8837 24.1033 51.9495V25.4929C24.1033 24.5587 23.3452 23.7969 22.4158 23.7969H16.7292ZM1.78087 38.396H7.4674C8.39687 38.396 9.15501 39.1578 9.15501 40.092V52.304C9.15501 53.2381 8.39687 54 7.4674 54H1.78087C0.851398 54 0.0932624 53.2381 0.0932624 52.304V40.092C0.0933749 39.1577 0.851511 38.396 1.78087 38.396Z" fill="black"/>
</svg>
