<svg width="86" height="70" viewBox="0 0 86 70" fill="none" xmlns="http://www.w3.org/2000/svg">
<path d="M49.666 22.666L56.3327 29.3327M52.9993 14.3327C52.9993 20.776 47.776 25.9993 41.3327 25.9993C34.8894 25.9993 29.666 20.776 29.666 14.3327C29.666 7.88936 34.8894 2.66602 41.3327 2.66602C47.776 2.66602 52.9993 7.88936 52.9993 14.3327Z" stroke="white" stroke-width="1.3" stroke-linecap="round" stroke-linejoin="round"/>
<path d="M1.30078 51.2734H5.83594C6.79688 51.2734 7.6084 51.4404 8.27051 51.7744C8.93262 52.1084 9.42773 52.5742 9.75586 53.1719C10.084 53.7695 10.248 54.4668 10.248 55.2637C10.248 56.1309 10.0518 56.875 9.65918 57.4961C9.2666 58.1113 8.68945 58.5654 7.92773 58.8584L10.7402 64H8.54297L5.95898 59.2012H5.83594H3.23438V64H1.30078V51.2734ZM5.64258 57.5312C6.55664 57.5254 7.22754 57.332 7.65527 56.9512C8.08301 56.5645 8.29688 56.002 8.29688 55.2637C8.29688 54.5195 8.08008 53.9453 7.64648 53.541C7.21875 53.1367 6.55078 52.9316 5.64258 52.9258H3.23438V57.5312H5.64258ZM15.8646 64.1934C14.9388 64.1934 14.1332 63.9912 13.4476 63.5869C12.7621 63.1826 12.2377 62.6113 11.8744 61.873C11.5111 61.1348 11.3295 60.2734 11.3295 59.2891C11.3295 58.3164 11.5111 57.4551 11.8744 56.7051C12.2377 55.9551 12.7533 55.3721 13.4213 54.9561C14.0892 54.54 14.8627 54.332 15.7416 54.332C16.5091 54.332 17.2123 54.499 17.8509 54.833C18.4896 55.167 19.0023 55.6943 19.389 56.415C19.7816 57.1299 19.9779 58.0352 19.9779 59.1309V59.7988H13.1927C13.2103 60.3965 13.3334 60.9092 13.5619 61.3369C13.7904 61.7646 14.1039 62.0898 14.5023 62.3125C14.9007 62.5352 15.3607 62.6465 15.8822 62.6465C16.3861 62.6465 16.8138 62.5527 17.1654 62.3652C17.5228 62.1719 17.7865 61.9199 17.9564 61.6094H19.8548C19.7142 62.125 19.4623 62.5791 19.099 62.9717C18.7357 63.3584 18.2787 63.6602 17.7279 63.877C17.1771 64.0879 16.556 64.1934 15.8646 64.1934ZM18.1322 58.3926C18.1322 57.9121 18.0326 57.4814 17.8334 57.1006C17.64 56.7139 17.3617 56.415 16.9984 56.2041C16.641 55.9873 16.2279 55.8789 15.7591 55.8789C15.2728 55.8789 14.8392 55.9932 14.4584 56.2217C14.0834 56.4443 13.7875 56.749 13.5707 57.1357C13.3539 57.5225 13.2308 57.9414 13.2015 58.3926H18.1322ZM21.0417 61.3105C21.0359 60.3203 21.3669 59.6143 22.0349 59.1924C22.7087 58.7705 23.5671 58.5215 24.6101 58.4453C25.9636 58.3691 26.7986 58.3252 27.115 58.3135L27.1062 57.5488C27.112 57.0039 26.948 56.585 26.614 56.292C26.2859 55.9932 25.8054 55.8438 25.1726 55.8438C24.6394 55.8438 24.2029 55.9551 23.863 56.1777C23.5232 56.3945 23.3034 56.6875 23.2038 57.0566H21.3405C21.3991 56.5293 21.5954 56.0605 21.9294 55.6504C22.2634 55.2344 22.7146 54.9121 23.2829 54.6836C23.8513 54.4492 24.5046 54.332 25.2429 54.332C25.8464 54.332 26.4265 54.4258 26.9831 54.6133C27.5456 54.7949 28.0202 55.1348 28.407 55.6328C28.7937 56.125 28.987 56.7988 28.987 57.6543V64H27.1589V62.6992H27.0886C26.8718 63.1152 26.5261 63.4727 26.0515 63.7715C25.5769 64.0645 24.9792 64.2109 24.2585 64.2109C23.6491 64.2109 23.0984 64.0967 22.6062 63.8682C22.1198 63.6396 21.7361 63.3086 21.4548 62.875C21.1794 62.4355 21.0417 61.9141 21.0417 61.3105ZM22.8698 61.3281C22.8698 61.7734 23.0339 62.1162 23.362 62.3564C23.696 62.5908 24.1355 62.7109 24.6804 62.7168C25.1726 62.7168 25.6032 62.6172 25.9724 62.418C26.3415 62.2188 26.6257 61.9551 26.8249 61.627C27.0241 61.293 27.1238 60.9355 27.1238 60.5547L27.115 59.6846L24.8738 59.834C24.2351 59.8809 23.74 60.0273 23.3884 60.2734C23.0427 60.5195 22.8698 60.8711 22.8698 61.3281ZM34.463 64.1934C33.6954 64.1875 33.0098 63.9883 32.4063 63.5957C31.8028 63.1973 31.3282 62.626 30.9825 61.8818C30.6427 61.1318 30.4727 60.2559 30.4727 59.2539C30.4727 58.2402 30.6456 57.3643 30.9913 56.626C31.337 55.8818 31.8116 55.3135 32.4151 54.9209C33.0245 54.5283 33.713 54.332 34.4805 54.332C35.0255 54.332 35.4796 54.4229 35.8429 54.6045C36.212 54.7803 36.4932 54.9854 36.6866 55.2197C36.8858 55.4482 37.0704 55.709 37.2403 56.002H37.3282V51.2734H39.2091V64H37.3809V62.5059H37.2403C37.0763 62.793 36.8888 63.0566 36.6778 63.2969C36.4727 63.5312 36.1856 63.7393 35.8165 63.9209C35.4473 64.1025 34.9962 64.1934 34.463 64.1934ZM32.3888 59.2188C32.3829 59.8691 32.4766 60.4492 32.67 60.959C32.8634 61.4629 33.1475 61.8613 33.5225 62.1543C33.8975 62.4473 34.3516 62.5938 34.8848 62.5938C35.4063 62.5938 35.8546 62.4531 36.2296 62.1719C36.6046 61.8906 36.8888 61.4951 37.0821 60.9854C37.2813 60.4756 37.3809 59.8867 37.3809 59.2188C37.3809 58.5508 37.2843 57.9707 37.0909 57.4785C36.8975 56.9863 36.6134 56.6055 36.2384 56.3359C35.8634 56.0664 35.4122 55.9316 34.8848 55.9316C34.3458 55.9316 33.8888 56.0723 33.5138 56.3535C33.1388 56.6348 32.8546 57.0244 32.6612 57.5225C32.4737 58.0146 32.3829 58.5801 32.3888 59.2188ZM45.327 54.4551H47.1375V56.0195H47.243C47.448 55.4863 47.7762 55.0732 48.2273 54.7803C48.6785 54.4814 49.2176 54.332 49.8445 54.332C50.4715 54.332 51.0047 54.4785 51.4441 54.7715C51.8836 55.0645 52.2059 55.4805 52.4109 56.0195H52.5164C52.7449 55.498 53.1082 55.0879 53.6063 54.7891C54.1102 54.4844 54.702 54.332 55.3816 54.332C55.9676 54.332 56.4803 54.4551 56.9197 54.7012C57.365 54.9414 57.7107 55.3076 57.9568 55.7998C58.2088 56.292 58.3348 56.8926 58.3348 57.6016V64H56.4539V57.7773C56.4539 57.1621 56.2869 56.7051 55.9529 56.4062C55.6189 56.1016 55.1883 55.9492 54.6609 55.9492C54.2684 55.9492 53.9285 56.0342 53.6414 56.2041C53.3543 56.3682 53.1346 56.5996 52.9822 56.8984C52.8357 57.1973 52.7625 57.5371 52.7625 57.918V64H50.8992V57.6719C50.8992 57.3262 50.826 57.0244 50.6795 56.7666C50.533 56.5029 50.3279 56.3008 50.0643 56.1602C49.8006 56.0195 49.4988 55.9492 49.159 55.9492C48.8074 55.9492 48.4822 56.043 48.1834 56.2305C47.8846 56.4121 47.6473 56.667 47.4715 56.9951C47.2957 57.3232 47.2078 57.6953 47.2078 58.1113V64H45.327V54.4551ZM64.2853 64.1934C63.3947 64.1934 62.6095 63.9883 61.9298 63.5781C61.256 63.168 60.7345 62.5938 60.3654 61.8555C60.0021 61.1113 59.8205 60.25 59.8205 59.2715C59.8205 58.293 60.0021 57.4316 60.3654 56.6875C60.7345 55.9375 61.256 55.3574 61.9298 54.9473C62.6095 54.5371 63.3947 54.332 64.2853 54.332C65.1701 54.332 65.9494 54.5371 66.6232 54.9473C67.297 55.3574 67.8156 55.9375 68.1789 56.6875C68.548 57.4316 68.7326 58.293 68.7326 59.2715C68.7326 60.25 68.548 61.1113 68.1789 61.8555C67.8156 62.5938 67.297 63.168 66.6232 63.5781C65.9494 63.9883 65.1701 64.1934 64.2853 64.1934ZM61.7013 59.2715C61.7013 59.8984 61.798 60.4668 61.9914 60.9766C62.1847 61.4805 62.4748 61.8818 62.8615 62.1807C63.2482 62.4795 63.7228 62.6289 64.2853 62.6289C64.8361 62.6289 65.3019 62.4795 65.6828 62.1807C66.0695 61.8818 66.3566 61.4805 66.5441 60.9766C66.7375 60.4668 66.8341 59.8984 66.8341 59.2715C66.8341 58.6445 66.7375 58.0762 66.5441 57.5664C66.3566 57.0508 66.0695 56.6406 65.6828 56.3359C65.3019 56.0312 64.8361 55.8789 64.2853 55.8789C63.7228 55.8789 63.2482 56.0312 62.8615 56.3359C62.4748 56.6406 62.1847 57.0508 61.9914 57.5664C61.798 58.0762 61.7013 58.6445 61.7013 59.2715ZM70.2183 54.4551H72.0288V55.9668H72.1343C72.3101 55.4629 72.6148 55.0615 73.0484 54.7627C73.4878 54.4639 73.9829 54.3145 74.5337 54.3145C74.8091 54.3145 75.0816 54.3262 75.3511 54.3496V56.1426C75.2456 56.1191 75.0933 56.0957 74.8941 56.0723C74.7007 56.0488 74.5191 56.0371 74.3491 56.0371C73.9214 56.0371 73.5376 56.1309 73.1978 56.3184C72.8579 56.5 72.5884 56.7549 72.3892 57.083C72.1958 57.4053 72.0991 57.7715 72.0991 58.1816V64H70.2183V54.4551ZM80.1942 64.1934C79.2684 64.1934 78.4628 63.9912 77.7772 63.5869C77.0917 63.1826 76.5673 62.6113 76.204 61.873C75.8407 61.1348 75.6591 60.2734 75.6591 59.2891C75.6591 58.3164 75.8407 57.4551 76.204 56.7051C76.5673 55.9551 77.0829 55.3721 77.7509 54.9561C78.4188 54.54 79.1923 54.332 80.0712 54.332C80.8388 54.332 81.5419 54.499 82.1805 54.833C82.8192 55.167 83.3319 55.6943 83.7186 56.415C84.1112 57.1299 84.3075 58.0352 84.3075 59.1309V59.7988H77.5223C77.5399 60.3965 77.663 60.9092 77.8915 61.3369C78.12 61.7646 78.4335 62.0898 78.8319 62.3125C79.2304 62.5352 79.6903 62.6465 80.2118 62.6465C80.7157 62.6465 81.1434 62.5527 81.495 62.3652C81.8524 62.1719 82.1161 61.9199 82.286 61.6094H84.1845C84.0438 62.125 83.7919 62.5791 83.4286 62.9717C83.0653 63.3584 82.6083 63.6602 82.0575 63.877C81.5067 64.0879 80.8856 64.1934 80.1942 64.1934ZM82.4618 58.3926C82.4618 57.9121 82.3622 57.4814 82.163 57.1006C81.9696 56.7139 81.6913 56.415 81.328 56.2041C80.9706 55.9873 80.5575 55.8789 80.0888 55.8789C79.6024 55.8789 79.1688 55.9932 78.788 56.2217C78.413 56.4443 78.1171 56.749 77.9003 57.1357C77.6835 57.5225 77.5604 57.9414 77.5311 58.3926H82.4618Z" fill="white"/>
</svg>
