<svg width="70" height="70" viewBox="0 0 70 70" fill="none" xmlns="http://www.w3.org/2000/svg">
<g clip-path="url(#clip0_1116_359)">
<path d="M31.7167 49.2019C28.4668 51.9645 24.2564 53.6312 19.6567 53.6312C9.36687 53.6312 1.02539 45.2897 1.02539 35C1.02539 24.7103 9.36687 16.3688 19.6567 16.3688C29.9465 16.3688 38.2879 24.7103 38.2879 35C38.2879 38.8362 37.1286 42.4016 35.141 45.3649" stroke="black" stroke-width="2.4" stroke-miterlimit="10" stroke-linecap="round" stroke-linejoin="round"/>
<path d="M13.0801 31.7122V32.8081" stroke="black" stroke-width="2.4" stroke-miterlimit="10" stroke-linecap="round" stroke-linejoin="round"/>
<path d="M26.2324 31.7122V32.8081" stroke="black" stroke-width="2.4" stroke-miterlimit="10" stroke-linecap="round" stroke-linejoin="round"/>
<path d="M12.791 39.3838C13.5037 42.5203 16.3036 44.8636 19.6558 44.8636C23.008 44.8636 25.8079 42.5203 26.5207 39.3838H12.791Z" stroke="black" stroke-width="2.4" stroke-miterlimit="10" stroke-linecap="round" stroke-linejoin="round"/>
<path d="M38.2631 20.816C41.5159 18.0428 45.7345 16.3688 50.3441 16.3688C60.6338 16.3688 68.9754 24.7103 68.9754 35C68.9754 45.2897 60.6338 53.6313 50.3441 53.6313C40.0544 53.6313 31.7129 45.2897 31.7129 35C31.7129 31.1414 32.8858 27.5566 34.8947 24.5831" stroke="#3FA9F5" stroke-width="2.4" stroke-miterlimit="10" stroke-linecap="round" stroke-linejoin="round"/>
<path d="M43.7676 31.7122V32.8081" stroke="#3FA9F5" stroke-width="2.4" stroke-miterlimit="10" stroke-linecap="round" stroke-linejoin="round"/>
<path d="M56.9199 31.7122V32.8081" stroke="#3FA9F5" stroke-width="2.4" stroke-miterlimit="10" stroke-linecap="round" stroke-linejoin="round"/>
<path d="M56.2976 42.6717C55.0509 41.3552 52.8526 40.4798 50.3442 40.4798C47.8355 40.4798 45.6374 41.3552 44.3906 42.6717" stroke="#3FA9F5" stroke-width="2.4" stroke-miterlimit="10" stroke-linecap="round" stroke-linejoin="round"/>
</g>
<defs>
<clipPath id="clip0_1116_359">
<rect width="70" height="70" fill="white"/>
</clipPath>
</defs>
</svg>
