<svg width="124" height="24" viewBox="0 0 124 24" fill="none" xmlns="http://www.w3.org/2000/svg">
<g clip-path="url(#clip0_1108_204)">
<path d="M41.1636 21.8637C41.1636 22.5796 40.5119 22.7972 39.9187 22.7972C39.2367 22.7972 38.6739 22.5796 38.6739 21.7396V15.8885H35.266C34.584 15.8885 34.2285 15.3292 34.2285 14.7069C34.2285 13.9903 34.584 13.5246 35.3245 13.5246H45.3417C46.0829 13.5246 46.4384 13.991 46.4384 14.7069C46.4384 15.3292 46.0829 15.8885 45.4009 15.8885H41.1636V21.8637ZM39.9187 11.9681C36.2146 11.9681 35.0579 9.54117 35.0579 7.51896C35.0579 5.77602 35.8881 3.0684 39.1183 2.66438C39.2064 1.6997 39.5033 1.38925 39.9477 1.38925C40.392 1.38925 40.7482 1.66852 40.837 2.66438C43.3556 3.03863 44.8677 4.96727 44.7789 7.67489C44.6893 10.9113 41.9627 11.9688 39.9181 11.9688M39.9766 4.84394C39.236 4.84394 37.3988 5.1544 37.3988 7.30206C37.3988 9.04359 38.5844 9.69781 39.8877 9.69781C41.3999 9.69781 42.4366 8.8267 42.4366 7.23969C42.4366 5.77673 41.3709 4.84465 39.9766 4.84465M49.6679 21.8651C49.6679 22.581 49.1347 22.9538 48.4527 22.924C47.8306 22.8921 47.2671 22.581 47.2671 21.9594V2.63319C46.8221 2.3844 46.468 1.9173 46.468 1.45091C46.468 0.735734 47.0012 0.175781 47.6825 0.175781C48.7785 0.175781 49.4309 1.01642 49.6686 2.04276V21.8637L49.6679 21.8651Z" fill="#4D98D2"/>
<path d="M67.7481 17.5082C68.4886 17.5082 68.8448 17.9746 68.8448 18.6905C68.8448 19.3128 68.4886 19.8728 67.8073 19.8728H53.8187C53.1367 19.8728 52.7812 19.3128 52.7812 18.6905C52.7812 17.9739 53.1367 17.5082 53.8773 17.5082H67.7467H67.7481ZM64.9029 10.9724C65.4072 10.9724 65.8212 11.2843 65.8212 12.1242C65.8212 12.8401 65.4361 13.3384 64.8726 13.3384H58.2345C56.2774 13.3384 55.7449 12.2496 55.7449 11.0659V6.49205C55.7449 5.15383 56.1892 3.90918 58.4412 3.90918H64.7245C65.4355 3.90918 65.8205 4.34438 65.8205 4.96742C65.8205 5.93139 65.4058 6.27374 64.7245 6.27374H59.1824C58.4715 6.27374 58.1746 6.77203 58.1746 7.48721V9.72773C58.1746 10.5684 58.5011 10.9724 59.1528 10.9724H64.9023H64.9029Z" fill="#4D98D2"/>
<path d="M70.8887 8.26613C70.8887 7.23907 71.5707 6.74149 72.252 6.74149H78.3569C79.0389 6.74149 79.7202 7.23907 79.7202 8.26613V15.0494C79.7202 16.0757 79.0382 16.6052 78.3569 16.6052H72.252C71.6299 16.6052 70.8887 16.1381 70.8887 15.0494V8.26613ZM74.2973 9.04297C73.7042 9.04297 73.2598 9.2308 73.2598 10.1324V13.4616C73.2598 14.0528 73.7042 14.3016 74.2973 14.3016H76.3116C76.9047 14.3016 77.3491 14.0528 77.3491 13.4616V10.1324C77.3491 9.2308 76.9047 9.04297 76.3116 9.04297H74.2973ZM85.2327 20.028C85.2327 20.7439 84.7002 21.1167 84.0175 21.0869C83.3954 21.055 82.8326 20.7439 82.8326 20.1215V5.21615C82.3883 4.96737 82.0321 4.50027 82.0321 4.03387C82.0321 3.31799 82.5653 2.75732 83.248 2.75732C84.344 2.75732 84.9964 3.59725 85.2327 4.62431V10.1636C85.9733 10.0388 87.1299 9.91409 87.8112 10.0388C88.2852 10.1324 88.4629 10.5683 88.4629 11.0659C88.4629 11.533 88.3437 12.0306 87.9586 12.1546C87.515 12.3729 86.2695 12.4658 85.232 12.4977V20.028H85.2327Z" fill="#4D98D2"/>
<path d="M94.7481 13.0265C91.0439 13.0265 89.8887 10.5996 89.8887 8.5774C89.8887 6.83517 90.7181 4.12826 93.9483 3.72353C94.0372 2.75815 94.3334 2.44769 94.7777 2.44769C95.2221 2.44769 95.5775 2.72838 95.6671 3.72353C98.1857 4.09707 99.6971 6.02643 99.6082 8.73334C99.5193 11.969 96.7927 13.0273 94.7474 13.0273M94.8073 5.90168C94.0654 5.90168 92.2288 6.21284 92.2288 8.36051C92.2288 10.1027 93.4137 10.7555 94.7192 10.7555C96.2299 10.7555 97.2667 9.88443 97.2667 8.29813C97.2667 6.83517 96.1996 5.90168 94.8073 5.90168ZM96.2885 23.8882C95.3109 23.8882 94.5993 23.2652 94.5993 21.866V16.9802C94.5993 16.1403 95.014 15.7356 95.8448 15.7356C96.6756 15.7356 97.0297 16.1403 97.0297 16.9802V20.5895C97.0297 21.2125 97.2963 21.5237 97.8302 21.5237H103.343C103.817 21.5237 104.498 21.7108 104.498 22.6747C104.498 23.4537 104.054 23.8889 103.372 23.8889H96.2885V23.8882ZM104.824 13.3703C104.824 14.0855 104.291 14.459 103.609 14.4293C102.986 14.3974 102.423 14.0862 102.423 13.4632V2.75744C101.979 2.50865 101.623 2.04155 101.623 1.57516C101.623 0.859269 102.156 0.299316 102.839 0.299316C103.935 0.299316 104.587 1.13995 104.824 2.16701V13.3689V13.3703Z" fill="#4D98D2"/>
<path d="M122.904 17.5082C123.645 17.5082 124 17.9746 124 18.6905C124 19.3128 123.645 19.8728 122.963 19.8728H108.974C108.292 19.8728 107.938 19.3128 107.938 18.6905C107.938 17.9739 108.292 17.5082 109.034 17.5082H122.903H122.904ZM120.059 10.9724C120.563 10.9724 120.978 11.2843 120.978 12.1242C120.978 12.8401 120.592 13.3384 120.03 13.3384H113.391C111.435 13.3384 110.902 12.2496 110.902 11.0659V6.49205C110.902 5.15383 111.346 3.90918 113.598 3.90918H119.881C120.592 3.90918 120.978 4.34438 120.978 4.96742C120.978 5.93139 120.563 6.27374 119.881 6.27374H114.34C113.628 6.27374 113.332 6.77203 113.332 7.48721V9.72773C113.332 10.5684 113.659 10.9724 114.31 10.9724H120.059Z" fill="#4D98D2"/>
<path d="M19.4328 6.75645C19.2592 6.72101 19.0876 6.83512 19.0518 7.01445C19.0153 7.19378 19.1276 7.36956 19.3019 7.40642C20.6011 7.68285 21.2259 9.01894 21.2321 9.03241C21.2969 9.17488 21.4478 9.24788 21.5917 9.21599C21.6152 9.21102 21.6386 9.20323 21.6606 9.19189C21.8218 9.11392 21.8914 8.91758 21.817 8.75172C21.7867 8.68439 21.0544 7.10234 19.4321 6.75574" fill="#4C99D3"/>
<path d="M27.3401 6.76074C25.4456 6.88266 24.3668 8.55614 24.3213 8.62702C24.2104 8.80351 24.2587 9.03812 24.4295 9.15295C24.4536 9.16925 24.4784 9.18201 24.5039 9.19193C24.6623 9.25147 24.8449 9.19406 24.9413 9.04379C24.9503 9.02891 25.8686 7.61768 27.3862 7.51987C27.5901 7.50711 27.7451 7.32707 27.7327 7.11727C27.7196 6.90746 27.544 6.7494 27.3407 6.76145" fill="#4C99D3"/>
<path d="M10.0979 10.4081C9.84717 10.7235 9.4552 11.4479 9.36013 11.6392C9.15071 11.4947 8.62577 10.9772 8.31715 10.7795C8.0478 10.5682 7.43193 10.486 7.15568 10.788C6.82571 11.1998 7.21011 12.4366 7.63171 13.0377C8.06571 13.6111 9.14657 14.4567 9.55302 14.3944C9.93122 14.3873 10.8571 13.2199 11.1747 12.4565C11.517 11.7066 11.6438 10.2571 11.2387 9.93954C10.9053 9.72974 10.3253 10.0792 10.0986 10.4074" fill="#4C99D3"/>
<path d="M30.0462 6.37288C30.0048 6.21482 29.8912 6.09715 29.7375 6.04541C29.2284 5.88593 24.9456 4.67601 23.2337 8.31216C21.94 4.71145 17.6985 5.2636 17.1825 5.34582C17.0234 5.37418 16.8953 5.47483 16.8319 5.62509C16.7692 5.77465 16.7857 5.94334 16.876 6.07589C17.0482 6.33318 17.4719 7.03561 17.651 8.0017C17.8108 8.8636 18.5824 9.98847 19.7486 10.4712C20.2192 10.6661 20.8598 10.7993 21.6272 10.6299C21.9538 10.5576 22.3051 10.4237 22.673 10.2238C22.8769 11.4266 23.3412 14.2555 23.3577 14.5723C23.5362 18.5416 21.1264 22.0062 17.7522 22.6328C15.4093 23.0666 13.0988 22.0785 11.4916 20.2214L11.3304 20.2512C13.3399 19.782 15.5209 18.7329 15.9467 17.0495L15.9666 16.9687L15.8385 2.44258L15.8309 2.34689C15.8247 2.30507 15.8075 2.2675 15.7979 2.22639C15.7951 2.1789 15.7979 2.13354 15.791 2.08605C15.4968 0.200639 12.2914 -0.470596 7.42855 0.335311C2.5643 1.14051 -0.273917 2.81257 0.0209271 4.69798C0.0278159 4.74547 0.0450382 4.788 0.0567493 4.83407C0.0601937 4.87518 0.0546826 4.917 0.0615715 4.95882L4.55933 18.7819L4.61237 18.9009C5.46935 20.405 7.76266 20.7204 9.85068 20.5021L10.9791 20.3164L10.1104 20.4766C11.9918 23.0247 14.956 24.4381 17.9713 23.8788C21.9503 23.1403 24.7941 19.1143 24.5874 14.5156C24.5702 14.125 24.1465 11.5663 23.9323 10.2869C24.1644 10.4329 24.3931 10.5491 24.6122 10.6314C25.3493 10.9106 26.0024 10.8723 26.4942 10.7476C27.715 10.4393 28.6326 9.43773 28.9095 8.60702C29.2202 7.67707 29.7348 7.04199 29.9421 6.81304C30.0482 6.69609 30.0875 6.53094 30.0462 6.37288ZM22.6833 9.34133C21.7609 9.95657 20.8447 10.1054 20.0249 9.76591C19.0584 9.36614 18.4797 8.41068 18.3778 7.85923C18.2331 7.08097 17.95 6.45085 17.7247 6.03974C21.5942 5.62438 22.5297 8.35327 22.7336 9.26975C22.7157 9.29243 22.6978 9.31582 22.6833 9.34133ZM1.23957 4.49668C1.14106 3.86868 2.91288 2.36957 7.62419 1.58918C12.3348 0.80879 14.4752 1.66006 14.5737 2.28877C14.6722 2.91747 12.9004 4.41659 8.18908 5.19698C3.47708 5.97737 1.33739 5.1261 1.23957 4.49739M10.3694 19.1547C9.93473 19.2263 9.51795 19.2631 9.11426 19.2808C7.46988 19.3553 6.15066 19.0023 5.70633 18.3098L1.82513 6.40194H1.82444C3.28419 6.88392 5.54926 6.91936 8.38473 6.45014C11.2381 5.97737 13.3868 5.20548 14.6219 4.26845L14.7315 16.8015C14.4104 17.7924 12.6379 18.7578 10.448 19.137C10.4204 19.1412 10.3956 19.1483 10.3687 19.1533M28.2103 8.36035C28.0339 8.89054 27.3299 9.75315 26.3179 10.009C25.4409 10.2302 24.535 9.93602 23.6912 9.15705C23.9991 8.31003 25.288 5.66975 29.1065 6.65498C28.8268 7.02781 28.4596 7.61115 28.2103 8.36035Z" fill="#4C99D3"/>
</g>
<defs>
<clipPath id="clip0_1108_204">
<rect width="124" height="24" fill="white"/>
</clipPath>
</defs>
</svg>
