<svg width="70" height="70" viewBox="0 0 70 70" fill="none" xmlns="http://www.w3.org/2000/svg">
<g clip-path="url(#clip0_1116_270)">
<path d="M5.4448 52.3418C6.05506 52.3418 6.54977 51.8471 6.54977 51.2368C6.54977 50.6265 6.05506 50.1318 5.4448 50.1318C4.83455 50.1318 4.33984 50.6265 4.33984 51.2368C4.33984 51.8471 4.83455 52.3418 5.4448 52.3418Z" fill="white"/>
<path d="M5.4448 56.7614C6.05506 56.7614 6.54977 56.2667 6.54977 55.6565C6.54977 55.0462 6.05506 54.5515 5.4448 54.5515C4.83455 54.5515 4.33984 55.0462 4.33984 55.6565C4.33984 56.2667 4.83455 56.7614 5.4448 56.7614Z" fill="white"/>
<path d="M38.236 16.692C38.236 14.9081 36.7846 13.4568 35.0008 13.4568C33.2169 13.4568 31.7656 14.9082 31.7656 16.692C31.7656 18.4757 33.217 19.9271 35.0008 19.9271C36.7847 19.9271 38.236 18.4759 38.236 16.692ZM35.0009 17.8764C34.348 17.8764 33.8165 17.3451 33.8165 16.692C33.8165 16.0389 34.3478 15.5076 35.0009 15.5076C35.654 15.5076 36.1852 16.0389 36.1852 16.692C36.1852 17.3451 35.6539 17.8764 35.0009 17.8764Z" fill="white"/>
<path d="M68.7307 44.5118C67.9109 43.6919 66.8209 43.2403 65.6615 43.2403C64.5021 43.2403 63.4122 43.6919 62.5923 44.5118L55.6391 51.466V48.0916C55.6391 47.5253 55.18 47.0662 54.6137 47.0662C54.0472 47.0662 53.5883 47.5253 53.5883 48.0916V53.5171L52.4744 54.6311H46.9733C47.3875 53.9663 47.6271 53.1819 47.6271 52.3423C47.6271 51.1824 47.1756 50.0922 46.3561 49.2724C45.8534 48.7697 45.2488 48.4062 44.5892 48.1997V42.5468C44.5892 41.0365 44.0269 39.6559 43.1021 38.6003H49.6424C51.8182 38.6003 53.5883 40.3711 53.5883 42.5475V43.3063C53.5883 43.8726 54.0474 44.3317 54.6137 44.3317C55.1801 44.3317 55.6391 43.8726 55.6391 43.3063V42.5475C55.6391 39.6053 53.5094 37.1527 50.7113 36.6469C51.8786 35.4636 52.6006 33.8399 52.6006 32.0504C52.6006 29.3942 51.0105 27.104 48.7329 26.0773C50.6114 23.3253 51.6329 20.045 51.6329 16.6921C51.6329 12.1731 49.8531 7.94838 46.6216 4.79605C46.216 4.40039 45.5667 4.40859 45.1715 4.8141C44.7761 5.21947 44.7841 5.86875 45.1895 6.26414C48.022 9.02723 49.5821 12.7305 49.5821 16.6921C49.5821 19.882 48.527 22.9965 46.602 25.5255C46.42 25.5102 46.2364 25.5006 46.0506 25.5006C43.7303 25.5006 41.6895 26.7144 40.5256 28.5393C39.9576 27.6486 39.1806 26.9042 38.2638 26.3749C38.3575 26.2162 38.4351 26.0452 38.4921 25.8628L39.1255 23.8362L41.1971 24.301C42.2294 24.5328 43.279 24.0727 43.808 23.1562L45.0023 21.0876C45.5316 20.1712 45.4054 19.0323 44.6884 18.2538L43.25 16.6922L44.6884 15.1306C45.4054 14.3521 45.5316 13.2133 45.0023 12.297L43.808 10.2283C43.279 9.31174 42.2295 8.85168 41.1971 9.08328L39.1254 9.54813L38.4921 7.52154C38.1763 6.5116 37.2533 5.83293 36.1952 5.83293H33.8063C32.7481 5.83293 31.8248 6.5116 31.5093 7.52168L30.8762 9.54813L28.8046 9.08328C27.772 8.85141 26.7228 9.31174 26.1935 10.2282L24.9992 12.2969C24.4701 13.2133 24.5963 14.3521 25.3131 15.1305L26.7515 16.6921L25.3131 18.2537C24.5963 19.0322 24.4701 20.1708 24.9992 21.0873L26.1935 23.156C26.7226 24.0724 27.7715 24.5325 28.8046 24.3009L30.8762 23.8361L31.5093 25.8625C31.5663 26.0449 31.6437 26.2161 31.7376 26.3748C30.8208 26.904 30.0438 27.6483 29.4757 28.5392C28.3119 26.7143 26.2711 25.5005 23.9508 25.5005C23.765 25.5005 23.5814 25.5102 23.3994 25.5254C21.4746 22.9963 20.4194 19.882 20.4194 16.692C20.4194 8.65166 26.9605 2.11049 35.0008 2.11049C37.3088 2.11049 39.5172 2.63467 41.5648 3.6684C42.0703 3.92365 42.6869 3.72076 42.9423 3.21518C43.1974 2.70959 42.9946 2.09285 42.489 1.83773C40.1524 0.657851 37.6328 0.0595703 35.0008 0.0595703C25.8297 0.0595703 18.3686 7.52072 18.3686 16.6918C18.3686 20.0447 19.3901 23.3251 21.2687 26.077C18.9911 27.1038 17.4009 29.3941 17.4009 32.0503C17.4009 33.8398 18.1229 35.4633 19.2902 36.6467C16.4918 37.1527 14.3622 39.6049 14.3622 42.5468V48.0016H10.8899V46.8172C10.8899 46.251 10.4308 45.7919 9.86453 45.7919H1.02539C0.459102 45.7919 0 46.251 0 46.8172V68.9151C0 69.4814 0.459102 69.9405 1.02539 69.9405H9.86453C10.4308 69.9405 10.8899 69.4814 10.8899 68.9151V67.7307H14.8112L28.2592 68.5747C28.8239 68.6086 29.3114 68.1806 29.3468 67.6154C29.3822 67.0503 28.9528 66.5633 28.3876 66.5279L15.8625 65.7419V49.5237L17.7708 48.0172C18.6301 47.3386 19.5917 46.8119 20.6284 46.4517C21.6653 46.092 22.7469 45.9096 23.8429 45.9096C26.084 45.9096 28.276 46.6867 30.0158 48.0983L32.1459 49.8237C32.3284 49.9716 32.5563 50.0523 32.7913 50.0523H43.2876C43.8989 50.0523 44.4737 50.2903 44.9058 50.7226C45.3381 51.1549 45.5762 51.7301 45.5762 52.3423C45.5762 53.6044 44.5495 54.6311 43.2875 54.6311C42.0254 54.6311 43.2875 54.6311 43.2875 54.6311H31.4099C31.138 54.6311 30.8771 54.7391 30.6849 54.9315L29.2347 56.3817C28.8343 56.7821 28.8343 57.4313 29.2347 57.8319C29.4349 58.0321 29.6974 58.1322 29.9597 58.1322C30.2221 58.1322 30.4846 58.0321 30.6847 57.8319L31.8346 56.6821H52.8992C53.1712 56.6821 53.4321 56.5739 53.6244 56.3817L64.0426 45.9622C64.4751 45.5296 65.05 45.2915 65.6615 45.2915C66.273 45.2915 66.8481 45.5296 67.2805 45.9622C68.1732 46.8548 68.1732 48.3075 67.2805 49.2003L55.8876 60.5933C55.3721 61.1087 54.7311 61.4948 54.0336 61.71L38.4904 66.5105C37.3298 66.8697 36.124 67.0132 34.9063 66.937L33.1632 66.8277C32.5976 66.792 32.111 67.2216 32.0756 67.7869C32.0402 68.3521 32.4696 68.8391 33.0348 68.8745L34.7782 68.9839C35.0328 68.9997 35.2867 69.0077 35.5403 69.0077C36.7474 69.0077 37.9405 68.8275 39.0962 68.4698L54.6384 63.6696C55.6536 63.3565 56.5869 62.7942 57.3379 62.0435L68.731 50.6504C70.423 48.9577 70.423 46.2041 68.7307 44.5118ZM46.0508 27.5513C48.5317 27.5513 50.55 29.5695 50.55 32.0504C50.55 34.5312 48.5317 36.5494 46.0508 36.5494C43.5701 36.5494 41.5518 34.5312 41.5518 32.0504C41.5518 29.5695 43.5701 27.5513 46.0508 27.5513ZM33.8066 25.5005C33.6502 25.5005 33.5137 25.4003 33.4671 25.251L32.5741 22.393C32.4972 22.1473 32.331 21.9395 32.1081 21.8108L32.0156 21.7574C31.8583 21.6663 31.681 21.6196 31.5021 21.6196C31.4271 21.6196 31.3518 21.6278 31.2776 21.6445L28.3559 22.3C28.203 22.3341 28.0481 22.2661 27.9699 22.1308L26.7755 20.0621C26.6973 19.9266 26.7159 19.7581 26.8219 19.6432L28.8511 17.4401C29.0254 17.2507 29.1222 17.0029 29.1222 16.7454V16.6388C29.1222 16.3813 29.0254 16.1335 28.8511 15.9441L26.8219 13.741C26.7159 13.626 26.6973 13.4576 26.7755 13.3221L27.9699 11.2534C28.0483 11.1179 28.2037 11.0503 28.3559 11.0842L31.2776 11.7397C31.5288 11.7962 31.7924 11.756 32.0156 11.6268L32.1081 11.5733C32.331 11.4447 32.4974 11.2369 32.5741 10.9912L33.4671 8.13322C33.5137 7.98393 33.6502 7.88371 33.8066 7.88371H36.1955C36.3519 7.88371 36.4883 7.98406 36.5349 8.13322L37.428 10.9912C37.5047 11.2366 37.6705 11.4443 37.8931 11.5729L37.9865 11.6268C38.2097 11.7559 38.4736 11.7963 38.7245 11.7397L41.6462 11.0842C41.7988 11.0498 41.9539 11.1181 42.0321 11.2534L43.2266 13.3222C43.3047 13.4576 43.2861 13.6259 43.1802 13.741L41.151 15.9441C40.9767 16.1335 40.8799 16.3813 40.8799 16.6388V16.7451C40.8799 17.0026 40.9767 17.2505 41.151 17.4398L43.1802 19.6429C43.286 19.7579 43.3047 19.9262 43.2265 20.0618L42.0321 22.1306C41.9539 22.2661 41.7988 22.3335 41.6462 22.2997L38.7242 21.6442C38.4733 21.5877 38.2104 21.6278 37.9876 21.7564L37.8932 21.8108C37.6708 21.9396 37.5048 22.1472 37.4283 22.3924L36.5351 25.2507C36.4883 25.4 36.3519 25.5003 36.1956 25.5003H33.8066V25.5005ZM35.001 27.5513C37.4817 27.5513 39.5 29.5695 39.5 32.0504C39.5 34.5312 37.4817 36.5494 35.001 36.5494C32.5202 36.5494 30.5018 34.5312 30.5018 32.0504C30.5018 29.5695 32.5201 27.5513 35.001 27.5513ZM23.9509 27.5513C26.4317 27.5513 28.4501 29.5695 28.4501 32.0504C28.4501 34.5312 26.4318 36.5494 23.9509 36.5494C21.4702 36.5494 19.4519 34.5312 19.4519 32.0504C19.4519 29.5695 21.4702 27.5513 23.9509 27.5513ZM8.83914 67.8897H2.05078V47.8426H8.83914V67.8897ZM10.8899 50.0524H13.8116V65.6799H10.8899V50.0524ZM19.9557 44.5142C18.7019 44.9498 17.5392 45.5868 16.5 46.4075L16.4131 46.4761V42.5467C16.4131 40.3705 18.1836 38.6002 20.3596 38.6002H26.8997C25.9749 39.6558 25.4125 41.0364 25.4125 42.5467V43.9649C24.8939 43.8952 24.3696 43.8587 23.8429 43.8587C22.5176 43.8587 21.2097 44.0792 19.9557 44.5142ZM31.3074 46.505C30.1622 45.576 28.8542 44.8761 27.4634 44.4295V42.5467C27.4634 40.3705 29.2339 38.6002 31.4099 38.6002H38.5917C40.7678 38.6002 42.5383 40.3707 42.5383 42.5467V48.0012H33.1544L31.3074 46.505Z" fill="white"/>
</g>
<defs>
<clipPath id="clip0_1116_270">
<rect width="70" height="70" fill="white"/>
</clipPath>
</defs>
</svg>
