<svg width="70" height="70" viewBox="0 0 70 70" fill="none" xmlns="http://www.w3.org/2000/svg">
<path fill-rule="evenodd" clip-rule="evenodd" d="M22.8531 10.7753C22.3475 10.7683 21.8404 10.7839 21.3379 10.8197C15.3148 11.242 9.70394 14.6035 6.56017 20.0612C2.38428 27.3163 3.49028 36.3292 9.50561 42.4705C12.2597 45.2822 12.7217 47.9834 12.0894 51.6063L10.9422 58.184C10.7236 59.3592 12.4946 59.6633 12.6805 58.4834L13.8231 51.9058C14.5122 47.9554 13.8682 44.4072 10.7648 41.2385C5.27139 35.6284 4.29916 27.5357 8.09394 20.9401C11.8895 14.35 19.6922 10.9138 26.9714 13.1094C30.3143 14.1182 33.2317 16.0183 35.1598 18.1284C37.6059 20.8024 39.3311 24.4767 39.2385 29.1923C39.2385 29.3137 39.2626 29.4319 39.3116 29.5408L42.6172 37.569C42.8606 38.1578 42.8038 38.5295 42.4958 38.647L39.5232 39.7857C39.2268 39.8992 39.0161 40.1621 38.9671 40.4748L37.5935 49.2613C37.4838 49.9691 36.6057 50.1433 36.0107 50.3339C35.0144 50.6504 33.6852 50.6948 32.6562 50.5485L23.5204 47.9391C21.8038 47.4499 21.2081 46.7849 20.2802 45.1811C20.1223 44.8933 19.8104 44.7152 19.4783 44.7277C18.8102 44.7557 18.4135 45.4844 18.7581 46.06C19.7699 47.8178 20.9366 49.0373 23.0358 49.637L31.4576 52.0427L30.2816 58.1684C30.0631 59.3265 31.7967 59.6586 32.0199 58.4998L33.2099 52.2371C34.3043 52.3017 35.4507 52.346 36.4914 52.031C37.7841 51.6421 39.1327 50.82 39.3303 49.5273L40.6229 41.251L43.1266 40.2943C43.7512 40.0602 44.2489 39.5251 44.4317 38.8935C44.6137 38.2604 44.5243 37.5807 44.2451 36.9048L40.9519 28.8999C40.9566 23.8972 39.1366 19.8061 36.4673 16.9415C32.8187 13.0161 27.8565 10.864 22.8531 10.7753Z" fill="black"/>
<path fill-rule="evenodd" clip-rule="evenodd" d="M60.9562 23.6413H63.1192C63.7189 23.6413 64.1723 24.0901 64.1723 24.6898V46.6861C64.1723 47.2827 63.7196 47.7361 63.1192 47.7361H60.9562C60.3604 47.7361 59.9062 47.2827 59.9062 46.6861V24.6898C59.9062 24.0901 60.3604 23.6413 60.9562 23.6413ZM60.9562 21.875C59.4131 21.875 58.1445 23.1467 58.1445 24.6898V46.6861C58.1445 48.2308 59.4131 49.4978 60.9562 49.4978H63.1192C64.667 49.4978 65.934 48.2308 65.934 46.6861V24.6898C65.934 23.1467 64.667 21.875 63.1192 21.875H60.9562Z" fill="#3FA9F5"/>
<path d="M38.9676 11.4886C38.0895 11.5415 37.8173 12.7042 38.5834 13.1375L40.1024 14.0288C40.5232 14.2964 41.0871 14.1626 41.3375 13.7286C41.5926 13.2992 41.4347 12.7439 40.9945 12.5051L39.4708 11.6185C39.3199 11.5251 39.1418 11.48 38.9676 11.4886Z" fill="#3FA9F5"/>
<path d="M43.5298 14.1618C42.6548 14.2108 42.3826 15.3728 43.1456 15.806L44.6677 16.6973C45.09 16.9454 45.6275 16.8031 45.8756 16.3862C46.1229 15.9639 45.9853 15.4218 45.5645 15.1752L44.0362 14.287C43.8868 14.1944 43.7072 14.1493 43.5298 14.1618Z" fill="#3FA9F5"/>
<path d="M48.1035 16.8311C47.2238 16.8801 46.9524 18.0429 47.7177 18.4761L49.2367 19.3674C49.6591 19.6381 50.2214 19.5012 50.4734 19.0672C50.7285 18.6379 50.5706 18.0818 50.1288 17.8438L48.6052 16.9555C48.4558 16.8645 48.2762 16.8194 48.1035 16.8311Z" fill="#3FA9F5"/>
<path d="M52.6639 19.5051C51.7889 19.5541 51.5183 20.7208 52.2797 21.154L53.8034 22.0453C54.2241 22.2919 54.7631 22.1503 55.0097 21.7288C55.257 21.3119 55.1194 20.769 54.6986 20.5217L53.1718 19.6272C53.0163 19.5386 52.8428 19.4934 52.6639 19.5051Z" fill="#3FA9F5"/>
<path d="M54.1999 49.2108C54.0584 49.2232 53.9246 49.2636 53.8032 49.336L52.2796 50.2273C51.8378 50.463 51.6838 51.0175 51.935 51.4508C52.187 51.8848 52.7494 52.0178 53.1717 51.751L54.6985 50.8596C55.5198 50.3976 55.1402 49.1423 54.1999 49.2108Z" fill="#3FA9F5"/>
<path d="M49.6316 51.8801C49.4901 51.8926 49.3563 51.9369 49.2381 52.01L47.7191 52.8982C47.2789 53.1324 47.1202 53.6916 47.3714 54.1201C47.6265 54.5541 48.1858 54.6879 48.6065 54.4204L50.1302 53.529C50.9515 53.0678 50.572 51.8117 49.6316 51.8801Z" fill="#3FA9F5"/>
<path d="M45.1504 54.5495C44.9801 54.5464 44.8128 54.5899 44.6674 54.6794L43.1453 55.5676C42.723 55.8134 42.5814 56.357 42.8287 56.7778C43.0722 57.1986 43.6143 57.3409 44.0351 57.0936L45.5634 56.1984C46.3412 55.7566 46.0402 54.5744 45.1504 54.5495Z" fill="#3FA9F5"/>
<path d="M40.4956 57.2273C40.3572 57.2397 40.2234 57.2802 40.102 57.3541L38.583 58.2446C38.1413 58.4795 37.9834 59.0356 38.2354 59.4689C38.4905 59.8982 39.0497 60.0351 39.4705 59.7644L40.9942 58.8762C41.8163 58.4103 41.4344 57.1542 40.4956 57.2273Z" fill="#3FA9F5"/>
</svg>
