<svg width="85" height="58" viewBox="0 0 85 58" fill="none" xmlns="http://www.w3.org/2000/svg">
<g clip-path="url(#clip0_1116_312)">
<path d="M55.9375 39.8944V47.4848" stroke="#3FA9F5" stroke-width="2" stroke-miterlimit="10" stroke-linecap="round"/>
<path d="M72.6582 39.8944V47.4848" stroke="#3FA9F5" stroke-width="2" stroke-miterlimit="10" stroke-linecap="round"/>
<path d="M83.8027 39.8944V47.4848" stroke="#3FA9F5" stroke-width="2" stroke-miterlimit="10" stroke-linecap="round"/>
<path d="M67.084 37.0355V50.3457" stroke="#3FA9F5" stroke-width="2" stroke-miterlimit="10" stroke-linecap="round"/>
<path d="M61.5117 34.7588V52.6223" stroke="#3FA9F5" stroke-width="2" stroke-miterlimit="10" stroke-linecap="round"/>
<path d="M78.2305 34.7588V52.6223" stroke="#3FA9F5" stroke-width="2" stroke-miterlimit="10" stroke-linecap="round"/>
<path d="M9.23362 40.6706C10.0695 42.5053 10.5506 44.4821 10.6515 46.4964V54.335C10.6489 54.9277 10.8581 55.5017 11.2412 55.9534C11.6244 56.4051 12.1562 56.7045 12.7406 56.7977H31.0044C32.628 56.7977 33.2473 54.9692 33.2473 54.9692V51.5521C33.2473 49.9636 35.1803 49.8036 35.1803 49.8036H40.5946C43.0691 49.8036 43.6881 46.7845 43.6881 46.7845V39.1562C43.677 38.9724 43.7024 38.7881 43.7624 38.614C43.8225 38.44 43.9161 38.2797 44.0382 38.142C44.1602 38.0043 44.3084 37.8921 44.4738 37.8118C44.6392 37.7315 44.8188 37.6845 45.0024 37.6738H48.2258C48.447 37.6507 48.6613 37.5831 48.856 37.4753C49.0507 37.3674 49.2217 37.2214 49.3589 37.0459C49.4961 36.8704 49.5965 36.6689 49.6544 36.4537C49.7122 36.2385 49.7263 36.0139 49.6956 35.7931L43.6123 24.4576V23.1871C43.6123 2.74079 25.051 1.25846 25.051 1.25846C20.7492 0.818328 16.4205 1.78468 12.7125 4.01322C9.4649 5.90401 6.72833 8.56179 4.74105 11.7549C2.75376 14.948 1.57611 18.5797 1.31091 22.3331C0.268409 33.5166 9.23362 40.6706 9.23362 40.6706Z" fill="white" stroke="black" stroke-width="2" stroke-miterlimit="10"/>
</g>
<defs>
<clipPath id="clip0_1116_312">
<rect width="85" height="58" fill="white"/>
</clipPath>
</defs>
</svg>
