<svg width="154" height="56" viewBox="0 0 154 56" fill="none" xmlns="http://www.w3.org/2000/svg">
<rect width="154" height="56" rx="6" fill="#F3F3F3"/>
<path d="M46.234 40.262L50.734 27.914H53.002L57.394 40.262H55.108L53.992 37.13H49.402L48.286 40.262H46.234ZM51.652 30.542L49.924 35.474H53.434L51.706 30.542H51.652ZM58.531 42.944V30.992H60.529V31.784H60.601C61.159 31.226 62.113 30.83 63.283 30.83C65.209 30.83 66.955 31.946 66.955 35.348V35.582C66.955 39.056 65.281 40.424 62.761 40.424C61.735 40.424 61.051 40.154 60.601 39.902V42.944H58.531ZM62.473 38.858C63.949 38.858 64.795 38.102 64.795 35.852V35.474C64.795 33.188 64.003 32.522 62.545 32.522C61.663 32.522 60.961 32.81 60.601 33.062V38.318C60.961 38.606 61.663 38.858 62.473 38.858ZM68.5197 42.944V30.992H70.5177V31.784H70.5897C71.1477 31.226 72.1017 30.83 73.2717 30.83C75.1977 30.83 76.9437 31.946 76.9437 35.348V35.582C76.9437 39.056 75.2697 40.424 72.7497 40.424C71.7237 40.424 71.0397 40.154 70.5897 39.902V42.944H68.5197ZM72.4617 38.858C73.9377 38.858 74.7837 38.102 74.7837 35.852V35.474C74.7837 33.188 73.9917 32.522 72.5337 32.522C71.6517 32.522 70.9497 32.81 70.5897 33.062V38.318C70.9497 38.606 71.6517 38.858 72.4617 38.858ZM86.0049 40.478C84.3849 40.478 83.1609 40.136 82.3149 39.686V37.94C83.3049 38.372 84.4749 38.696 85.8249 38.696C87.4809 38.696 88.1829 38.012 88.1829 36.896C88.1829 35.87 87.7329 35.474 86.3829 35.06L85.2129 34.736C83.4669 34.25 82.4049 33.314 82.4049 31.226C82.4049 29.138 83.7549 27.716 86.5449 27.716C88.1649 27.716 89.0469 28.022 89.7309 28.382V30.11C88.9569 29.786 87.9489 29.498 86.5809 29.498C85.2849 29.498 84.5649 30.038 84.5649 31.028C84.5649 32 84.9249 32.414 86.1489 32.756L87.3009 33.116C89.2449 33.674 90.4149 34.484 90.4149 36.68C90.4149 39.02 88.9929 40.478 86.0049 40.478ZM95.185 40.37C93.583 40.37 92.557 39.722 92.557 37.976V32.612H91.261V30.992H92.557V28.814H94.591V30.992H96.805V32.612H94.591V37.688C94.591 38.462 94.879 38.75 95.851 38.75C96.211 38.75 96.589 38.696 96.913 38.606V39.992C96.553 40.172 96.049 40.37 95.185 40.37ZM102.272 40.424C99.4461 40.424 97.8801 38.714 97.8801 35.816V35.528C97.8801 32.558 99.6801 30.83 102.29 30.83C105.062 30.83 106.664 32.522 106.664 35.474V35.726C106.664 38.714 104.864 40.424 102.272 40.424ZM102.308 38.858C103.694 38.858 104.504 37.904 104.504 35.906V35.456C104.504 33.044 103.514 32.396 102.254 32.396C100.832 32.396 100.004 33.386 100.004 35.384V35.816C100.004 38.21 101.012 38.858 102.308 38.858ZM108.18 40.262V30.992H110.178V32.072H110.25C110.754 31.406 111.708 30.92 112.68 30.92C112.932 30.92 113.166 30.938 113.256 30.974V32.81C113.022 32.774 112.716 32.756 112.5 32.756C111.672 32.756 110.844 32.99 110.25 33.368V40.262H108.18ZM118.633 40.424C115.555 40.424 114.043 38.678 114.043 35.744V35.492C114.043 32.378 115.933 30.848 118.291 30.848C121.027 30.848 122.215 32.378 122.215 35.33V36.194H116.167C116.293 38.12 117.283 38.804 119.047 38.804C120.235 38.804 121.099 38.534 121.909 38.12V39.56C121.279 39.974 120.199 40.424 118.633 40.424ZM118.255 32.378C117.301 32.378 116.311 32.882 116.167 34.772H120.109C120.109 33.026 119.461 32.378 118.255 32.378Z" fill="#333333"/>
<path d="M48.82 21.58V14.86H50.85C52.88 14.86 54 15.9 54 18.03V18.23C54 20.32 53.03 21.58 50.87 21.58H48.82ZM49.7 20.82H50.89C52.38 20.82 53.05 20.08 53.05 18.36V18.03C53.05 16.21 52.22 15.63 50.76 15.63H49.7V20.82ZM57.0655 21.67C55.6355 21.67 54.8055 20.75 54.8055 19.2V19.03C54.8055 17.47 55.7155 16.51 57.0755 16.51C58.4955 16.51 59.3455 17.44 59.3455 19V19.16C59.3455 20.72 58.4255 21.67 57.0655 21.67ZM57.0855 20.97C57.9555 20.97 58.4555 20.36 58.4555 19.25V18.98C58.4555 17.64 57.8255 17.21 57.0555 17.21C56.1855 17.21 55.6855 17.83 55.6855 18.94V19.22C55.6855 20.56 56.3155 20.97 57.0855 20.97ZM61.339 21.58L59.929 16.61H60.839L61.819 20.49H61.849L62.999 16.61H63.739L64.899 20.49H64.939L65.909 16.61H66.729L65.319 21.58H64.469L63.359 17.92H63.319L62.209 21.58H61.339ZM67.6253 21.58V16.61H68.4353V17.04H68.4853C68.9053 16.74 69.5453 16.51 70.1553 16.51C71.1353 16.51 71.5953 16.92 71.5953 17.88V21.58H70.7553V18.06C70.7553 17.49 70.5653 17.25 69.7853 17.25C69.3453 17.25 68.8353 17.41 68.4753 17.58V21.58H67.6253ZM72.948 21.58V14.42H73.808V21.58H72.948ZM77.1437 21.67C75.7137 21.67 74.8837 20.75 74.8837 19.2V19.03C74.8837 17.47 75.7937 16.51 77.1537 16.51C78.5737 16.51 79.4237 17.44 79.4237 19V19.16C79.4237 20.72 78.5037 21.67 77.1437 21.67ZM77.1637 20.97C78.0337 20.97 78.5337 20.36 78.5337 19.25V18.98C78.5337 17.64 77.9037 17.21 77.1337 17.21C76.2637 17.21 75.7637 17.83 75.7637 18.94V19.22C75.7637 20.56 76.3937 20.97 77.1637 20.97ZM81.6871 21.67C80.7971 21.67 80.1471 21.22 80.1471 20.26C80.1471 19.4 80.7071 18.93 81.6471 18.81L82.9671 18.65V18.19C82.9671 17.43 82.6371 17.25 81.7471 17.25C81.2571 17.25 80.8571 17.33 80.5571 17.39V16.78C81.0071 16.61 81.4771 16.51 82.0771 16.51C83.1771 16.51 83.8071 16.98 83.8071 17.98V21.58H83.1271L83.0371 21.16H82.9871C82.7371 21.44 82.3471 21.67 81.6871 21.67ZM81.8971 21.01C82.3371 21.01 82.7471 20.87 82.9671 20.67V19.3L81.8671 19.41C81.2971 19.47 81.0271 19.7 81.0271 20.24C81.0271 20.76 81.3771 21.01 81.8971 21.01ZM86.8951 21.67C85.9451 21.67 84.8451 21.08 84.8451 19.25V19.11C84.8451 17.3 85.7851 16.51 87.0551 16.51C87.6651 16.51 88.0651 16.67 88.3251 16.82V14.42H89.1751V21.58H88.4551L88.3751 21.18H88.3251C88.0351 21.47 87.5551 21.67 86.8951 21.67ZM87.1751 20.97C87.7251 20.97 88.1151 20.75 88.3251 20.58V17.53C88.1151 17.36 87.6651 17.24 87.1651 17.24C86.2551 17.24 85.7351 17.7 85.7351 19V19.22C85.7351 20.56 86.3151 20.97 87.1751 20.97ZM95.1124 21.67C93.6824 21.67 92.8524 20.75 92.8524 19.2V19.03C92.8524 17.47 93.7624 16.51 95.1224 16.51C96.5424 16.51 97.3924 17.44 97.3924 19V19.16C97.3924 20.72 96.4724 21.67 95.1124 21.67ZM95.1324 20.97C96.0024 20.97 96.5024 20.36 96.5024 19.25V18.98C96.5024 17.64 95.8724 17.21 95.1024 17.21C94.2324 17.21 93.7324 17.83 93.7324 18.94V19.22C93.7324 20.56 94.3624 20.97 95.1324 20.97ZM98.4359 21.58V16.61H99.2459V17.04H99.2959C99.7159 16.74 100.356 16.51 100.966 16.51C101.946 16.51 102.406 16.92 102.406 17.88V21.58H101.566V18.06C101.566 17.49 101.376 17.25 100.596 17.25C100.156 17.25 99.6459 17.41 99.2859 17.58V21.58H98.4359ZM107.966 21.63C107.176 21.63 106.626 21.29 106.626 20.41V17.32H105.916V16.61H106.626V15.43H107.476V16.61H108.726V17.32H107.476V20.29C107.476 20.76 107.636 20.94 108.196 20.94C108.396 20.94 108.626 20.91 108.826 20.86V21.44C108.616 21.53 108.416 21.63 107.966 21.63ZM109.803 21.58V14.42H110.653V17.02H110.703C111.103 16.74 111.723 16.51 112.333 16.51C113.313 16.51 113.773 16.92 113.773 17.88V21.58H112.933V18.06C112.933 17.49 112.743 17.25 111.963 17.25C111.523 17.25 111.013 17.41 110.653 17.58V21.58H109.803ZM117.166 21.67C115.596 21.67 114.796 20.7 114.796 19.17V19.02C114.796 17.29 115.826 16.51 116.986 16.51C118.346 16.51 118.996 17.3 118.996 18.86V19.34H115.676C115.736 20.52 116.316 20.94 117.306 20.94C117.966 20.94 118.396 20.8 118.846 20.56V21.19C118.556 21.41 117.986 21.67 117.166 21.67ZM116.946 17.2C116.386 17.2 115.756 17.51 115.676 18.65H118.096C118.096 17.61 117.696 17.2 116.946 17.2Z" fill="#333333"/>
<mask id="mask0_3471_29163" style="mask-type:alpha" maskUnits="userSpaceOnUse" x="12" y="13" width="30" height="30">
<rect x="12" y="13" width="30" height="30" fill="#D9D9D9"/>
</mask>
<g mask="url(#mask0_3471_29163)">
<path d="M33.3649 28.4525C32.7047 25.13 35.8584 23.1813 35.8584 23.1813C35.8584 23.1813 34.6297 21.4037 32.5647 20.9464C30.5007 20.4881 29.4677 21.0607 28.4368 21.4902C27.4048 21.9207 26.8898 21.9207 26.8898 21.9207C25.4006 21.9207 24.3119 20.3439 21.4745 21.0617C19.5197 21.5551 17.4619 23.8116 17.0901 26.5049C16.7183 29.1992 17.5206 32.6371 19.0675 35.3015C20.6145 37.968 22.1903 38.9701 23.3088 38.9989C24.4273 39.0267 25.5437 38.1976 26.8898 37.9958C28.237 37.796 29.066 38.484 30.3874 38.8558C31.7036 39.2266 32.1651 38.8826 33.6811 37.5931C35.2013 36.3036 36.5773 32.6052 36.5773 32.6052C36.5773 32.6052 34.0251 31.7771 33.3649 28.4525Z" fill="#333333"/>
<path d="M30.4404 18.7973C31.9029 17.3071 31.4075 15 31.4075 15C31.4075 15 29.3538 15.3605 27.9778 16.7921C26.6029 18.2247 26.8305 20.4874 26.8305 20.4874C26.8305 20.4874 28.9779 20.2866 30.4404 18.7973Z" fill="#333333"/>
</g>
</svg>
