<svg width="70" height="70" viewBox="0 0 70 70" fill="none" xmlns="http://www.w3.org/2000/svg">
<g clip-path="url(#clip0_1863_200)">
<path d="M5.44493 52.3408C6.05518 52.3408 6.54989 51.8461 6.54989 51.2358C6.54989 50.6256 6.05518 50.1309 5.44493 50.1309C4.83467 50.1309 4.33997 50.6256 4.33997 51.2358C4.33997 51.8461 4.83467 52.3408 5.44493 52.3408Z" fill="#222222"/>
<path d="M5.44493 56.7607C6.05518 56.7607 6.54989 56.266 6.54989 55.6557C6.54989 55.0455 6.05518 54.5508 5.44493 54.5508C4.83467 54.5508 4.33997 55.0455 4.33997 55.6557C4.33997 56.266 4.83467 56.7607 5.44493 56.7607Z" fill="#222222"/>
<path d="M38.236 16.6903C38.236 14.9063 36.7846 13.4551 35.0008 13.4551C33.2169 13.4551 31.7656 14.9065 31.7656 16.6903C31.7656 18.474 33.217 19.9254 35.0008 19.9254C36.7847 19.9254 38.236 18.4742 38.236 16.6903ZM35.0009 17.8746C34.348 17.8746 33.8165 17.3434 33.8165 16.6903C33.8165 16.0371 34.3478 15.5059 35.0009 15.5059C35.654 15.5059 36.1852 16.0371 36.1852 16.6903C36.1852 17.3434 35.6539 17.8746 35.0009 17.8746Z" fill="#222222"/>
<path d="M68.7307 44.5108C67.9109 43.6909 66.8209 43.2393 65.6615 43.2393C64.5021 43.2393 63.4122 43.6909 62.5923 44.5108L55.6391 51.465V48.0906C55.6391 47.5243 55.18 47.0652 54.6137 47.0652C54.0472 47.0652 53.5883 47.5243 53.5883 48.0906V53.5162L52.4744 54.6302H46.9733C47.3875 53.9653 47.6271 53.1809 47.6271 52.3414C47.6271 51.1814 47.1756 50.0912 46.3561 49.2715C45.8534 48.7687 45.2488 48.4052 44.5892 48.1988V42.5459C44.5892 41.0355 44.0269 39.6549 43.1021 38.5993H49.6424C51.8182 38.5993 53.5883 40.3701 53.5883 42.5465V43.3053C53.5883 43.8716 54.0474 44.3307 54.6137 44.3307C55.1801 44.3307 55.6391 43.8716 55.6391 43.3053V42.5465C55.6391 39.6044 53.5094 37.1518 50.7113 36.6459C51.8786 35.4626 52.6006 33.8389 52.6006 32.0494C52.6006 29.3932 51.0105 27.1031 48.7329 26.0763C50.6114 23.3243 51.6329 20.044 51.6329 16.6911C51.6329 12.1721 49.8531 7.9474 46.6216 4.79508C46.216 4.39941 45.5667 4.40762 45.1715 4.81312C44.7761 5.2185 44.7841 5.86777 45.1895 6.26316C48.022 9.02625 49.5821 12.7296 49.5821 16.6911C49.5821 19.881 48.527 22.9955 46.602 25.5245C46.42 25.5092 46.2364 25.4996 46.0506 25.4996C43.7303 25.4996 41.6895 26.7134 40.5256 28.5383C39.9576 27.6476 39.1806 26.9032 38.2638 26.3739C38.3575 26.2152 38.4351 26.0442 38.4921 25.8618L39.1255 23.8352L41.1971 24.3001C42.2294 24.5318 43.279 24.0717 43.808 23.1552L45.0023 21.0866C45.5316 20.1702 45.4054 19.0313 44.6884 18.2529L43.25 16.6912L44.6884 15.1296C45.4054 14.3512 45.5316 13.2123 45.0023 12.296L43.808 10.2273C43.279 9.31076 42.2295 8.8507 41.1971 9.0823L39.1254 9.54715L38.4921 7.52057C38.1763 6.51062 37.2533 5.83195 36.1952 5.83195H33.8063C32.7481 5.83195 31.8248 6.51062 31.5093 7.5207L30.8762 9.54715L28.8046 9.0823C27.772 8.85043 26.7228 9.31076 26.1935 10.2272L24.9992 12.2959C24.4701 13.2123 24.5963 14.3512 25.3131 15.1295L26.7515 16.6911L25.3131 18.2527C24.5963 19.0312 24.4701 20.1698 24.9992 21.0863L26.1935 23.155C26.7226 24.0715 27.7715 24.5315 28.8046 24.2999L30.8762 23.8351L31.5093 25.8615C31.5663 26.0439 31.6437 26.2151 31.7376 26.3738C30.8208 26.903 30.0438 27.6473 29.4757 28.5382C28.3119 26.7133 26.2711 25.4995 23.9508 25.4995C23.765 25.4995 23.5814 25.5092 23.3994 25.5244C21.4746 22.9954 20.4194 19.881 20.4194 16.691C20.4194 8.65068 26.9605 2.10951 35.0008 2.10951C37.3088 2.10951 39.5172 2.63369 41.5648 3.66742C42.0703 3.92268 42.6869 3.71979 42.9423 3.2142C43.1974 2.70861 42.9946 2.09187 42.489 1.83676C40.1524 0.656875 37.6328 0.0585938 35.0008 0.0585938C25.8297 0.0585938 18.3686 7.51975 18.3686 16.6908C18.3686 20.0437 19.3901 23.3242 21.2687 26.076C18.9911 27.1028 17.4009 29.3931 17.4009 32.0493C17.4009 33.8388 18.1229 35.4623 19.2902 36.6458C16.4918 37.1518 14.3622 39.6039 14.3622 42.5459V48.0007H10.8899V46.8163C10.8899 46.25 10.4308 45.7909 9.86453 45.7909H1.02539C0.459102 45.7909 0 46.25 0 46.8163V68.9141C0 69.4804 0.459102 69.9395 1.02539 69.9395H9.86453C10.4308 69.9395 10.8899 69.4804 10.8899 68.9141V67.7297H14.8112L28.2592 68.5737C28.8239 68.6076 29.3114 68.1797 29.3468 67.6145C29.3822 67.0493 28.9528 66.5623 28.3876 66.5269L15.8625 65.7409V49.5228L17.7708 48.0163C18.6301 47.3376 19.5917 46.8109 20.6284 46.4507C21.6653 46.091 22.7469 45.9086 23.8429 45.9086C26.084 45.9086 28.276 46.6857 30.0158 48.0973L32.1459 49.8227C32.3284 49.9706 32.5563 50.0513 32.7913 50.0513H43.2876C43.8989 50.0513 44.4737 50.2893 44.9058 50.7216C45.3381 51.1539 45.5762 51.7291 45.5762 52.3414C45.5762 53.6034 44.5495 54.6302 43.2875 54.6302C42.0254 54.6302 43.2875 54.6302 43.2875 54.6302H31.4099C31.138 54.6302 30.8771 54.7382 30.6849 54.9305L29.2347 56.3807C28.8343 56.7812 28.8343 57.4303 29.2347 57.8309C29.4349 58.0312 29.6974 58.1313 29.9597 58.1313C30.2221 58.1313 30.4846 58.0312 30.6847 57.8309L31.8346 56.6811H52.8992C53.1712 56.6811 53.4321 56.5729 53.6244 56.3807L64.0426 45.9612C64.4751 45.5287 65.05 45.2905 65.6615 45.2905C66.273 45.2905 66.8481 45.5287 67.2805 45.9612C68.1732 46.8539 68.1732 48.3065 67.2805 49.1993L55.8876 60.5923C55.3721 61.1078 54.7311 61.4939 54.0336 61.709L38.4904 66.5095C37.3298 66.8687 36.124 67.0122 34.9063 66.9361L33.1632 66.8267C32.5976 66.791 32.111 67.2206 32.0756 67.7859C32.0402 68.3511 32.4696 68.8381 33.0348 68.8735L34.7782 68.9829C35.0328 68.9987 35.2867 69.0067 35.5403 69.0067C36.7474 69.0067 37.9405 68.8265 39.0962 68.4688L54.6384 63.6686C55.6536 63.3555 56.5869 62.7932 57.3379 62.0425L68.731 50.6495C70.423 48.9567 70.423 46.2031 68.7307 44.5108ZM46.0508 27.5503C48.5317 27.5503 50.55 29.5685 50.55 32.0494C50.55 34.5302 48.5317 36.5484 46.0508 36.5484C43.5701 36.5484 41.5518 34.5302 41.5518 32.0494C41.5518 29.5685 43.5701 27.5503 46.0508 27.5503ZM33.8066 25.4995C33.6502 25.4995 33.5137 25.3993 33.4671 25.25L32.5741 22.392C32.4972 22.1463 32.331 21.9385 32.1081 21.8099L32.0156 21.7564C31.8583 21.6654 31.681 21.6186 31.5021 21.6186C31.4271 21.6186 31.3518 21.6268 31.2776 21.6435L28.3559 22.299C28.203 22.3331 28.0481 22.2651 27.9699 22.1298L26.7755 20.0611C26.6973 19.9256 26.7159 19.7572 26.8219 19.6422L28.8511 17.4391C29.0254 17.2497 29.1222 17.0019 29.1222 16.7444V16.6378C29.1222 16.3804 29.0254 16.1325 28.8511 15.9431L26.8219 13.74C26.7159 13.6251 26.6973 13.4566 26.7755 13.3211L27.9699 11.2524C28.0483 11.117 28.2037 11.0493 28.3559 11.0832L31.2776 11.7387C31.5288 11.7952 31.7924 11.755 32.0156 11.6258L32.1081 11.5724C32.331 11.4437 32.4974 11.2359 32.5741 10.9902L33.4671 8.13225C33.5137 7.98295 33.6502 7.88273 33.8066 7.88273H36.1955C36.3519 7.88273 36.4883 7.98309 36.5349 8.13225L37.428 10.9902C37.5047 11.2356 37.6705 11.4433 37.8931 11.572L37.9865 11.6258C38.2097 11.7549 38.4736 11.7954 38.7245 11.7387L41.6462 11.0832C41.7988 11.0489 41.9539 11.1171 42.0321 11.2524L43.2266 13.3213C43.3047 13.4566 43.2861 13.6249 43.1802 13.74L41.151 15.9431C40.9767 16.1325 40.8799 16.3804 40.8799 16.6378V16.7442C40.8799 17.0016 40.9767 17.2495 41.151 17.4388L43.1802 19.6419C43.286 19.7569 43.3047 19.9252 43.2265 20.0608L42.0321 22.1297C41.9539 22.2651 41.7988 22.3325 41.6462 22.2988L38.7242 21.6432C38.4733 21.5867 38.2104 21.6268 37.9876 21.7554L37.8932 21.8099C37.6708 21.9387 37.5048 22.1462 37.4283 22.3915L36.5351 25.2497C36.4883 25.399 36.3519 25.4994 36.1956 25.4994H33.8066V25.4995ZM35.001 27.5503C37.4817 27.5503 39.5 29.5685 39.5 32.0494C39.5 34.5302 37.4817 36.5484 35.001 36.5484C32.5202 36.5484 30.5018 34.5302 30.5018 32.0494C30.5018 29.5685 32.5201 27.5503 35.001 27.5503ZM23.9509 27.5503C26.4317 27.5503 28.4501 29.5685 28.4501 32.0494C28.4501 34.5302 26.4318 36.5484 23.9509 36.5484C21.4702 36.5484 19.4519 34.5302 19.4519 32.0494C19.4519 29.5685 21.4702 27.5503 23.9509 27.5503ZM8.83914 67.8887H2.05078V47.8417H8.83914V67.8887ZM10.8899 50.0514H13.8116V65.6789H10.8899V50.0514ZM19.9557 44.5132C18.7019 44.9488 17.5392 45.5858 16.5 46.4065L16.4131 46.4752V42.5457C16.4131 40.3696 18.1836 38.5992 20.3596 38.5992H26.8997C25.9749 39.6548 25.4125 41.0354 25.4125 42.5457V43.9639C24.8939 43.8942 24.3696 43.8577 23.8429 43.8577C22.5176 43.8577 21.2097 44.0782 19.9557 44.5132ZM31.3074 46.504C30.1622 45.575 28.8542 44.8751 27.4634 44.4285V42.5457C27.4634 40.3696 29.2339 38.5992 31.4099 38.5992H38.5917C40.7678 38.5992 42.5383 40.3697 42.5383 42.5457V48.0003H33.1544L31.3074 46.504Z" fill="#222222"/>
</g>
<defs>
<clipPath id="clip0_1863_200">
<rect width="70" height="70" fill="white"/>
</clipPath>
</defs>
</svg>
