<svg width="46" height="46" viewBox="0 0 46 46" fill="none" xmlns="http://www.w3.org/2000/svg">
<path d="M22.1921 31.4591L20.9321 28.8529C20.9199 26.8141 20.1001 24.8633 18.6523 23.4277C17.9766 22.7894 17.1779 22.2956 16.3049 21.9764C15.4319 21.6572 14.503 21.5193 13.575 21.5712C11.715 21.6676 9.95751 22.453 8.64499 23.7744C7.33247 25.0958 6.55896 26.8586 6.47519 28.7192C6.41667 29.7374 6.57842 30.7562 6.94942 31.7062C7.32041 32.6562 7.89192 33.515 8.62497 34.2241V38.3641C8.62535 38.6737 8.74852 38.9706 8.96748 39.1895C9.18643 39.4085 9.48329 39.5317 9.79294 39.5321H16.082C16.3916 39.5317 16.6885 39.4085 16.9075 39.1895C17.1264 38.9706 17.2496 38.6737 17.25 38.3641V36.6571H18.6875C19.1162 36.6565 19.5272 36.4859 19.8304 36.1828C20.1335 35.8796 20.3041 35.4686 20.3047 35.0399V33.0633H21.1132C21.2941 33.0632 21.4724 33.0212 21.6342 32.9405C21.796 32.8599 21.9369 32.7428 22.0458 32.5984C22.1547 32.4541 22.2286 32.2864 22.2617 32.1087C22.2948 31.9309 22.2863 31.7479 22.2367 31.5741C22.2245 31.5347 22.2096 31.4963 22.1921 31.4591ZM20.0358 31.6258C19.7262 31.6262 19.4293 31.7494 19.2104 31.9683C18.9914 32.1873 18.8683 32.4841 18.8679 32.7938V35.0399C18.8679 35.0635 18.8632 35.087 18.8541 35.1088C18.8451 35.1306 18.8318 35.1505 18.815 35.1672C18.7982 35.1839 18.7783 35.1971 18.7565 35.2061C18.7346 35.2151 18.7111 35.2197 18.6875 35.2196H16.9804C16.6708 35.2199 16.3739 35.3431 16.155 35.5621C15.936 35.781 15.8128 36.0779 15.8125 36.3875V38.0946H10.0625V34.1048C10.0615 33.9466 10.0286 33.7903 9.96578 33.6452C9.90291 33.5 9.81136 33.3691 9.69662 33.2602C9.08875 32.689 8.61377 31.9913 8.30526 31.2163C7.99675 30.4413 7.86225 29.608 7.91125 28.7752C7.97906 27.2738 8.60341 25.8514 9.66265 24.7851C10.7219 23.7188 12.1402 23.085 13.6411 23.0073C14.3753 22.9598 15.1114 23.065 15.803 23.3163C16.4945 23.5675 17.1264 23.9593 17.6589 24.4671C18.2551 25.0638 18.725 25.7745 19.0407 26.5568C19.3563 27.3391 19.5112 28.1769 19.4961 29.0203C19.4961 29.1289 19.5206 29.236 19.5679 29.3337L20.6763 31.6258H20.0358Z" fill="#4C99D3"/>
<path d="M13.6562 13.6562C13.8184 13.6566 13.9758 13.6021 14.103 13.5016C14.2303 13.4011 14.3198 13.2606 14.3571 13.1029C14.3944 12.9451 14.3773 12.7794 14.3085 12.6326C14.2397 12.4858 14.1233 12.3665 13.9783 12.2942C13.2518 11.9289 12.5657 11.4883 11.9313 10.9796C12.6481 10.066 13.1817 9.02239 13.5024 7.90625H14.375C14.5656 7.90625 14.7484 7.83052 14.8832 7.69573C15.018 7.56094 15.0938 7.37812 15.0938 7.1875C15.0938 6.99688 15.018 6.81406 14.8832 6.67927C14.7484 6.54448 14.5656 6.46875 14.375 6.46875H11.5V5.75C11.5 5.55938 11.4243 5.37656 11.2895 5.24177C11.1547 5.10698 10.9719 5.03125 10.7812 5.03125C10.5906 5.03125 10.4078 5.10698 10.273 5.24177C10.1382 5.37656 10.0625 5.55938 10.0625 5.75V6.46875H7.1875C6.99688 6.46875 6.81406 6.54448 6.67927 6.67927C6.54448 6.81406 6.46875 6.99688 6.46875 7.1875C6.46875 7.37812 6.54448 7.56094 6.67927 7.69573C6.81406 7.83052 6.99688 7.90625 7.1875 7.90625H11.9952C11.7308 8.66574 11.3451 9.37741 10.8531 10.0136C10.5206 9.68182 10.2149 9.3242 9.93887 8.94413C9.83252 8.78672 9.66817 8.67782 9.48175 8.64123C9.29534 8.60464 9.10202 8.64335 8.94406 8.74888C8.78609 8.85441 8.67633 9.01818 8.63877 9.2044C8.60121 9.39062 8.63889 9.58414 8.74359 9.74266C9.07443 10.2091 9.44501 10.6461 9.85119 11.0486C9.20899 11.5845 8.47131 11.9942 7.67697 12.2561C7.5873 12.286 7.50439 12.3331 7.43296 12.395C7.36153 12.4569 7.30299 12.5322 7.26067 12.6167C7.21836 12.7012 7.1931 12.7932 7.18634 12.8875C7.17958 12.9817 7.19145 13.0764 7.22128 13.1661C7.25111 13.2557 7.2983 13.3386 7.36017 13.4101C7.42204 13.4815 7.49738 13.54 7.58187 13.5824C7.66637 13.6247 7.75837 13.6499 7.85263 13.6567C7.94689 13.6635 8.04155 13.6516 8.13122 13.6217C9.16134 13.2848 10.1128 12.7433 10.9286 12.0297C11.6717 12.634 12.4786 13.1553 13.335 13.5844C13.4351 13.6329 13.545 13.6575 13.6562 13.6562Z" fill="#4C99D3"/>
<path d="M11.5 19.4062C11.6906 19.4062 11.8734 19.3305 12.0082 19.1957C12.143 19.0609 12.2188 18.8781 12.2188 18.6875V16.5312H17.25C17.8219 16.5312 18.3703 16.3041 18.7747 15.8997C19.1791 15.4953 19.4062 14.9469 19.4062 14.375V4.3125C19.4062 3.74063 19.1791 3.19218 18.7747 2.7878C18.3703 2.38343 17.8219 2.15625 17.25 2.15625H4.3125C3.74063 2.15625 3.19218 2.38343 2.7878 2.7878C2.38343 3.19218 2.15625 3.74063 2.15625 4.3125V14.375C2.15625 14.9469 2.38343 15.4953 2.7878 15.8997C3.19218 16.3041 3.74063 16.5312 4.3125 16.5312H5.58037L11.1787 19.3344C11.2788 19.3829 11.3888 19.4075 11.5 19.4062ZM10.7812 15.8125V17.5246L6.07128 15.1692C5.97149 15.1195 5.8615 15.0936 5.75 15.0938H4.3125C4.12188 15.0938 3.93906 15.018 3.80427 14.8832C3.66948 14.7484 3.59375 14.5656 3.59375 14.375V4.3125C3.59375 4.12188 3.66948 3.93906 3.80427 3.80427C3.93906 3.66948 4.12188 3.59375 4.3125 3.59375H17.25C17.4406 3.59375 17.6234 3.66948 17.7582 3.80427C17.893 3.93906 17.9688 4.12188 17.9688 4.3125V14.375C17.9688 14.5656 17.893 14.7484 17.7582 14.8832C17.6234 15.018 17.4406 15.0938 17.25 15.0938H11.5C11.3094 15.0938 11.1266 15.1695 10.9918 15.3043C10.857 15.4391 10.7812 15.6219 10.7812 15.8125Z" fill="#4C99D3"/>
<path d="M41.6875 5.03125H28.75C28.1781 5.03125 27.6297 5.25843 27.2253 5.6628C26.8209 6.06718 26.5938 6.61563 26.5938 7.1875V17.25C26.5938 17.8219 26.8209 18.3703 27.2253 18.7747C27.6297 19.1791 28.1781 19.4063 28.75 19.4063H29.1259L28.0823 22.0146C28.0269 22.1501 28.0143 22.2993 28.046 22.4423C28.0778 22.5852 28.1524 22.715 28.26 22.8143C28.3675 22.9137 28.5029 22.9778 28.6478 22.9981C28.7928 23.0185 28.9406 22.994 29.0713 22.9281L36.1071 19.4063H41.6875C42.2594 19.4063 42.8078 19.1791 43.2122 18.7747C43.6166 18.3703 43.8438 17.8219 43.8438 17.25V7.1875C43.8438 6.61563 43.6166 6.06718 43.2122 5.6628C42.8078 5.25843 42.2594 5.03125 41.6875 5.03125ZM42.4062 17.25C42.4062 17.4406 42.3305 17.6234 42.1957 17.7582C42.0609 17.893 41.8781 17.9688 41.6875 17.9688H35.9375C35.826 17.9686 35.716 17.9945 35.6162 18.0442L30.1192 20.7934L30.8552 18.9542C30.8988 18.8451 30.915 18.727 30.9023 18.6102C30.8897 18.4934 30.8487 18.3815 30.7828 18.2843C30.7169 18.1871 30.6282 18.1075 30.5244 18.0525C30.4206 17.9975 30.305 17.9687 30.1875 17.9688H28.75C28.5594 17.9688 28.3766 17.893 28.2418 17.7582C28.107 17.6234 28.0312 17.4406 28.0312 17.25V7.1875C28.0312 6.99688 28.107 6.81406 28.2418 6.67927C28.3766 6.54448 28.5594 6.46875 28.75 6.46875H41.6875C41.8781 6.46875 42.0609 6.54448 42.1957 6.67927C42.3305 6.81406 42.4062 6.99688 42.4062 7.1875V17.25Z" fill="#4C99D3"/>
<path d="M41.6875 29.4688H28.75C28.1781 29.4688 27.6296 29.6959 27.2253 30.1003C26.8209 30.5047 26.5937 31.0531 26.5937 31.625V33.7812H24.4375C24.3112 33.781 24.187 33.814 24.0776 33.877C23.9681 33.94 23.8772 34.0307 23.8139 34.14C23.7507 34.2493 23.7173 34.3734 23.7173 34.4996C23.7172 34.6259 23.7504 34.75 23.8136 34.8594L26.5937 39.7224V41.6875C26.5937 42.2594 26.8209 42.8078 27.2253 43.2122C27.6296 43.6166 28.1781 43.8438 28.75 43.8438H41.6875C42.2593 43.8438 42.8078 43.6166 43.2122 43.2122C43.6165 42.8078 43.8437 42.2594 43.8437 41.6875V31.625C43.8437 31.0531 43.6165 30.5047 43.2122 30.1003C42.8078 29.6959 42.2593 29.4688 41.6875 29.4688ZM42.4062 41.6875C42.4062 41.8781 42.3305 42.0609 42.1957 42.1957C42.0609 42.3305 41.8781 42.4062 41.6875 42.4062H28.75C28.5593 42.4062 28.3765 42.3305 28.2417 42.1957C28.1069 42.0609 28.0312 41.8781 28.0312 41.6875V39.5312C28.0316 39.4052 27.9989 39.2813 27.9363 39.1719L25.6766 35.2188H27.3125C27.5031 35.2188 27.6859 35.143 27.8207 35.0082C27.9555 34.8734 28.0312 34.6906 28.0312 34.5V31.625C28.0312 31.4344 28.1069 31.2516 28.2417 31.1168C28.3765 30.982 28.5593 30.9062 28.75 30.9062H41.6875C41.8781 30.9062 42.0609 30.982 42.1957 31.1168C42.3305 31.2516 42.4062 31.4344 42.4062 31.625V41.6875Z" fill="#4C99D3"/>
<path d="M34.3038 34.424C34.4398 34.424 34.4878 34.472 34.4878 34.608V35.056C34.4878 36.008 34.3518 36.248 32.1758 37.576C31.9438 37.72 31.9678 38.024 32.0958 38.216C32.2238 38.408 32.4958 38.528 32.7198 38.392C35.1358 36.904 35.5038 36.44 35.5038 35.088V34.216C35.5038 33.712 35.3358 33.552 34.8238 33.552H32.4318C32.1838 33.552 32.0718 33.752 32.0718 33.992C32.0718 34.224 32.1838 34.424 32.4318 34.424H34.3038ZM37.6318 35.36V33.432C37.6318 33.136 37.3838 33 37.1198 33C36.8558 33 36.6078 33.136 36.6078 33.432V39.56C36.6078 39.856 36.8558 39.992 37.1198 39.992C37.3838 39.992 37.6318 39.856 37.6318 39.56V36.248H38.3838C38.6398 36.248 38.7518 36.048 38.7518 35.8C38.7518 35.56 38.6398 35.36 38.3838 35.36H37.6318Z" fill="#4C99D3"/>
<path d="M35.8656 8.30291C35.7992 8.19152 35.705 8.09928 35.5923 8.03523C35.4795 7.97117 35.352 7.9375 35.2223 7.9375C35.0927 7.9375 34.9652 7.97117 34.8524 8.03523C34.7397 8.09928 34.6455 8.19152 34.5791 8.30291L30.9853 15.4904C30.9431 15.5749 30.918 15.6668 30.9113 15.761C30.9047 15.8552 30.9166 15.9498 30.9465 16.0394C30.9764 16.1289 31.0237 16.2117 31.0856 16.2831C31.1475 16.3544 31.2228 16.4128 31.3073 16.455C31.3918 16.4972 31.4838 16.5223 31.5779 16.529C31.6721 16.5356 31.7667 16.5236 31.8563 16.4937C31.9459 16.4638 32.0287 16.4166 32.1 16.3547C32.1713 16.2928 32.2297 16.2174 32.2719 16.133L35.2188 10.2313L36.5714 12.9367H35.2188C35.0281 12.9367 34.8453 13.0124 34.7105 13.1472C34.5757 13.282 34.5 13.4648 34.5 13.6554C34.5 13.8461 34.5757 14.0289 34.7105 14.1637C34.8453 14.2985 35.0281 14.3742 35.2188 14.3742H37.2902L38.1692 16.133C38.2114 16.2174 38.2698 16.2928 38.3411 16.3547C38.4124 16.4166 38.4952 16.4638 38.5848 16.4937C38.6744 16.5236 38.769 16.5356 38.8632 16.529C38.9573 16.5223 39.0493 16.4972 39.1338 16.455C39.2183 16.4128 39.2936 16.3544 39.3555 16.2831C39.4174 16.2117 39.4646 16.1289 39.4945 16.0394C39.5244 15.9498 39.5364 15.8552 39.5298 15.761C39.5231 15.6668 39.498 15.5749 39.4558 15.4904L35.8656 8.30291Z" fill="#4C99D3"/>
</svg>
