<svg width="46" height="46" viewBox="0 0 46 46" fill="none" xmlns="http://www.w3.org/2000/svg">
<path d="M42.9375 42.9287H3.06264C1.65401 42.9287 0.50708 41.7828 0.50708 40.3732V5.62782C0.50708 4.21818 1.65401 3.07227 3.06264 3.07227H42.9375C44.3471 3.07227 45.493 4.21818 45.493 5.62782V40.3721C45.493 41.7818 44.3471 42.9287 42.9375 42.9287ZM3.06264 4.09449C2.21726 4.09449 1.5293 4.78244 1.5293 5.62782V40.3721C1.5293 41.2175 2.21726 41.9055 3.06264 41.9055H42.9375C43.7829 41.9055 44.4708 41.2175 44.4708 40.3721V5.62782C44.4708 4.78244 43.7829 4.09449 42.9375 4.09449H3.06264Z" fill="#4C99D3"/>
<path d="M44.9819 11.8015H1.01819C0.736058 11.8015 0.50708 11.5725 0.50708 11.2904C0.50708 11.0083 0.736058 10.7793 1.01819 10.7793H44.9819C45.2641 10.7793 45.493 11.0083 45.493 11.2904C45.493 11.5725 45.2641 11.8015 44.9819 11.8015Z" fill="#4C99D3"/>
<path d="M6.32151 9.0224C5.4475 9.0224 4.73706 8.31196 4.73706 7.43796C4.73706 6.56396 5.4475 5.85352 6.32151 5.85352C7.19551 5.85352 7.90595 6.56396 7.90595 7.43796C7.90595 8.31196 7.19551 9.0224 6.32151 9.0224ZM6.32151 6.87574C6.01177 6.87574 5.75928 7.12823 5.75928 7.43796C5.75928 7.74769 6.01177 8.00018 6.32151 8.00018C6.63124 8.00018 6.88373 7.74769 6.88373 7.43796C6.88373 7.12823 6.63226 6.87574 6.32151 6.87574Z" fill="#4C99D3"/>
<path d="M11.3304 9.0224C10.4564 9.0224 9.74597 8.31196 9.74597 7.43796C9.74597 6.56396 10.4564 5.85352 11.3304 5.85352C12.2044 5.85352 12.9149 6.56396 12.9149 7.43796C12.9149 8.31196 12.2044 9.0224 11.3304 9.0224ZM11.3304 6.87574C11.0207 6.87574 10.7682 7.12823 10.7682 7.43796C10.7682 7.74769 11.0207 8.00018 11.3304 8.00018C11.6401 8.00018 11.8926 7.74769 11.8926 7.43796C11.8926 7.12823 11.6412 6.87574 11.3304 6.87574Z" fill="#4C99D3"/>
<path d="M16.3392 9.0224C15.4652 9.0224 14.7548 8.31196 14.7548 7.43796C14.7548 6.56396 15.4652 5.85352 16.3392 5.85352C17.2132 5.85352 17.9236 6.56396 17.9236 7.43796C17.9236 8.31196 17.2132 9.0224 16.3392 9.0224ZM16.3392 6.87574C16.0295 6.87574 15.777 7.12823 15.777 7.43796C15.777 7.74769 16.0295 8.00018 16.3392 8.00018C16.6489 8.00018 16.9014 7.74769 16.9014 7.43796C16.9014 7.12823 16.65 6.87574 16.3392 6.87574Z" fill="#4C99D3"/>
<path d="M11.8497 29.8283C8.02149 29.8283 4.90576 26.7136 4.90576 22.8854C4.90576 19.0571 8.02047 15.9414 11.8497 15.9414C15.679 15.9414 18.7937 19.0561 18.7937 22.8854C18.7927 26.7136 15.6779 29.8283 11.8497 29.8283ZM11.8497 16.9636C8.58474 16.9636 5.92798 19.6204 5.92798 22.8854C5.92798 26.1503 8.58474 28.8061 11.8497 28.8061C15.1147 28.8061 17.7715 26.1503 17.7715 22.8854C17.7715 19.6204 15.1147 16.9636 11.8497 16.9636Z" fill="#4C99D3"/>
<path d="M18.2814 23.3955H11.8496C11.5675 23.3955 11.3385 23.1665 11.3385 22.8843V16.4525C11.3385 16.1704 11.5675 15.9414 11.8496 15.9414C12.1317 15.9414 12.3607 16.1704 12.3607 16.4525V22.3732H18.2814C18.5636 22.3732 18.7925 22.6022 18.7925 22.8843C18.7925 23.1665 18.5636 23.3955 18.2814 23.3955Z" fill="#4C99D3"/>
<path d="M23.6031 25.0346C22.4255 25.0346 21.4667 24.0758 21.4667 22.8982C21.4667 21.7206 22.4255 20.7617 23.6031 20.7617C24.7807 20.7617 25.7396 21.7206 25.7396 22.8982C25.7396 24.0768 24.7817 25.0346 23.6031 25.0346ZM23.6031 21.7839C22.9888 21.7839 22.4889 22.2838 22.4889 22.8982C22.4889 23.5125 22.9888 24.0124 23.6031 24.0124C24.2175 24.0124 24.7173 23.5125 24.7173 22.8982C24.7173 22.2838 24.2175 21.7839 23.6031 21.7839Z" fill="#4C99D3"/>
<path d="M29.2019 20.3393C28.0243 20.3393 27.0654 19.3805 27.0654 18.2029C27.0654 17.0253 28.0243 16.0664 29.2019 16.0664C30.3795 16.0664 31.3383 17.0253 31.3383 18.2029C31.3383 19.3805 30.3805 20.3393 29.2019 20.3393ZM29.2019 17.0886C28.5875 17.0886 28.0877 17.5885 28.0877 18.2029C28.0877 18.8172 28.5875 19.3171 29.2019 19.3171C29.8162 19.3171 30.3161 18.8172 30.3161 18.2029C30.3161 17.5885 29.8162 17.0886 29.2019 17.0886Z" fill="#4C99D3"/>
<path d="M33.118 28.0463C31.9404 28.0463 30.9816 27.0875 30.9816 25.9099C30.9816 24.7323 31.9404 23.7734 33.118 23.7734C34.2956 23.7734 35.2545 24.7323 35.2545 25.9099C35.2545 27.0875 34.2956 28.0463 33.118 28.0463ZM33.118 24.7957C32.5037 24.7957 32.0038 25.2955 32.0038 25.9099C32.0038 26.5242 32.5037 27.0241 33.118 27.0241C33.7324 27.0241 34.2322 26.5242 34.2322 25.9099C34.2322 25.2955 33.7324 24.7957 33.118 24.7957Z" fill="#4C99D3"/>
<path d="M38.958 23.4682C37.7804 23.4682 36.8215 22.5094 36.8215 21.3318C36.8215 20.1542 37.7804 19.1953 38.958 19.1953C40.1356 19.1953 41.0944 20.1542 41.0944 21.3318C41.0944 22.5104 40.1356 23.4682 38.958 23.4682ZM38.958 20.2175C38.3436 20.2175 37.8438 20.7174 37.8438 21.3318C37.8438 21.9461 38.3436 22.446 38.958 22.446C39.5723 22.446 40.0722 21.9461 40.0722 21.3318C40.0722 20.7174 39.5723 20.2175 38.958 20.2175Z" fill="#4C99D3"/>
<path d="M34.3968 25.4194C34.2455 25.4194 34.0953 25.3519 33.9941 25.2231C33.8203 25.0013 33.8591 24.6793 34.081 24.5055L37.3623 21.9326C37.5841 21.7588 37.9051 21.7977 38.0799 22.0195C38.2537 22.2413 38.2148 22.5633 37.993 22.7371L34.7117 25.31C34.6186 25.3836 34.5072 25.4194 34.3968 25.4194ZM32.382 24.9727C32.196 24.9727 32.0161 24.8705 31.9261 24.6926L29.483 19.883C29.3552 19.6316 29.4554 19.3239 29.7069 19.1961C29.9583 19.0683 30.266 19.1685 30.3938 19.42L32.8369 24.2295C32.9647 24.481 32.8645 24.7887 32.613 24.9165C32.5384 24.9553 32.4597 24.9727 32.382 24.9727ZM24.8493 22.365C24.7031 22.365 24.5579 22.3026 24.4578 22.182C24.2768 21.9653 24.3044 21.6433 24.5211 21.4624L27.6287 18.8557C27.8454 18.6748 28.1674 18.7024 28.3483 18.9191C28.5293 19.1358 28.5017 19.4578 28.285 19.6387L25.1774 22.2454C25.0813 22.3261 24.9648 22.365 24.8493 22.365Z" fill="#4C99D3"/>
<path d="M40.5833 33.7976H5.45056C5.16843 33.7976 4.93945 33.5686 4.93945 33.2865C4.93945 33.0044 5.16843 32.7754 5.45056 32.7754H40.5833C40.8655 32.7754 41.0944 33.0044 41.0944 33.2865C41.0944 33.5686 40.8655 33.7976 40.5833 33.7976Z" fill="#4C99D3"/>
<path d="M40.5833 37.7683H5.45056C5.16843 37.7683 4.93945 37.5393 4.93945 37.2572C4.93945 36.9751 5.16843 36.7461 5.45056 36.7461H40.5833C40.8655 36.7461 41.0944 36.9751 41.0944 37.2572C41.0944 37.5393 40.8655 37.7683 40.5833 37.7683Z" fill="#4C99D3"/>
</svg>
