<svg width="1040" height="1040" viewBox="0 0 1040 1040" fill="none" xmlns="http://www.w3.org/2000/svg">
<g style="mix-blend-mode:screen" clip-path="url(#clip0_1502_984)">
<g style="mix-blend-mode:overlay">
<path d="M519.994 663.155C599.064 663.155 663.156 599.063 663.156 519.993C663.156 440.923 599.064 376.831 519.994 376.831" stroke="url(#paint0_linear_1502_984)" stroke-width="0.8" stroke-miterlimit="10"/>
</g>
<g style="mix-blend-mode:overlay">
<path d="M303.922 519.993C303.922 639.322 400.665 736.065 519.994 736.065C639.323 736.065 736.066 639.322 736.066 519.993" stroke="url(#paint1_linear_1502_984)" stroke-width="0.8" stroke-miterlimit="10"/>
</g>
<g style="mix-blend-mode:overlay">
<path d="M440.975 794.35C466.067 801.568 492.584 805.436 519.994 805.436C677.63 805.436 805.424 677.642 805.424 520.006C805.424 362.37 677.63 234.576 519.994 234.576C432.359 234.576 353.956 274.067 301.592 336.232" stroke="url(#paint2_linear_1502_984)" stroke-miterlimit="10"/>
</g>
<g style="mix-blend-mode:overlay">
<path d="M519.993 170.106C326.759 170.106 170.105 326.759 170.106 519.994C170.106 713.228 326.759 869.881 519.993 869.881C672.262 869.881 801.807 772.621 849.902 636.828C862.838 600.285 869.893 560.958 869.893 519.981" stroke="url(#paint3_linear_1502_984)" stroke-width="0.8" stroke-miterlimit="10"/>
</g>
<g style="mix-blend-mode:overlay">
<path d="M519.993 943.244C753.751 943.244 943.244 753.751 943.244 519.993C943.244 286.236 753.751 96.7427 519.993 96.7427" stroke="url(#paint4_linear_1502_984)" stroke-width="0.8" stroke-miterlimit="10"/>
</g>
<g style="mix-blend-mode:overlay">
<path d="M519.994 1011.27C791.316 1011.27 1011.27 791.315 1011.27 519.993C1011.27 248.672 791.316 28.7203 519.994 28.7203" stroke="url(#paint5_linear_1502_984)" stroke-width="0.8" stroke-miterlimit="10"/>
</g>
<g style="mix-blend-mode:overlay">
<path d="M519.992 1033.5L519.992 519.994" stroke="url(#paint6_linear_1502_984)" stroke-width="0.8" stroke-miterlimit="10"/>
<path d="M519.993 1029.77C517.169 1029.77 514.879 1032.06 514.879 1034.89C514.879 1037.71 517.169 1040 519.993 1040C522.818 1040 525.107 1037.71 525.107 1034.89C525.107 1032.06 522.818 1029.77 519.993 1029.77Z" fill="url(#paint7_linear_1502_984)"/>
</g>
<g style="mix-blend-mode:overlay">
<path d="M777.446 960.792C774.622 960.792 772.332 963.082 772.332 965.906C772.332 968.731 774.622 971.021 777.446 971.021C780.271 971.021 782.561 968.731 782.561 965.906C782.561 963.082 780.271 960.792 777.446 960.792Z" fill="url(#paint8_linear_1502_984)"/>
</g>
<g style="mix-blend-mode:overlay">
<path d="M964.695 776.754L519.992 519.994" stroke="url(#paint9_linear_1502_984)" stroke-width="0.8" stroke-miterlimit="10"/>
<path d="M965.905 772.332C963.081 772.332 960.791 774.622 960.791 777.446C960.791 780.271 963.081 782.561 965.905 782.561C968.73 782.561 971.02 780.271 971.02 777.446C971.02 774.622 968.73 772.332 965.905 772.332Z" fill="url(#paint10_linear_1502_984)"/>
</g>
<g style="mix-blend-mode:overlay">
<path d="M1033.5 519.993L519.994 519.993" stroke="url(#paint11_linear_1502_984)" stroke-width="0.8" stroke-miterlimit="10"/>
<path d="M1034.89 514.879C1032.06 514.879 1029.77 517.169 1029.77 519.993C1029.77 522.818 1032.06 525.107 1034.89 525.107C1037.71 525.107 1040 522.818 1040 519.993C1040 517.169 1037.71 514.879 1034.89 514.879Z" fill="url(#paint12_linear_1502_984)"/>
</g>
<g style="mix-blend-mode:overlay">
<path d="M964.695 263.247L519.992 519.994" stroke="url(#paint13_linear_1502_984)" stroke-width="0.8" stroke-miterlimit="10"/>
<path d="M965.905 257.44C963.081 257.44 960.791 259.73 960.791 262.555C960.791 265.379 963.081 267.669 965.905 267.669C968.73 267.669 971.02 265.379 971.02 262.555C971.02 259.73 968.73 257.44 965.905 257.44Z" fill="url(#paint14_linear_1502_984)"/>
</g>
<g style="mix-blend-mode:overlay">
<path d="M519.994 138.969L519.994 519.994" stroke="url(#paint15_linear_1502_984)" stroke-width="0.8" stroke-miterlimit="10"/>
<path d="M519.993 131.495C517.169 131.495 514.879 133.786 514.879 136.611C514.879 139.436 517.169 141.726 519.993 141.726C522.818 141.726 525.107 139.436 525.107 136.611C525.107 133.786 522.818 131.495 519.993 131.495Z" fill="url(#paint16_linear_1502_984)"/>
</g>
<g style="mix-blend-mode:overlay">
<path d="M263.247 75.2911L519.994 519.994" stroke="url(#paint17_linear_1502_984)" stroke-width="0.8" stroke-miterlimit="10"/>
<path d="M262.554 68.9804C259.729 68.9804 257.439 71.2702 257.439 74.0947C257.439 76.9192 259.729 79.209 262.554 79.209C265.378 79.209 267.668 76.9192 267.668 74.0947C267.668 71.2702 265.378 68.9804 262.554 68.9804Z" fill="url(#paint18_linear_1502_984)"/>
</g>
<g style="mix-blend-mode:overlay">
<path d="M186.334 327.357L519.994 519.994" stroke="url(#paint19_linear_1502_984)" stroke-width="0.8" stroke-miterlimit="10"/>
<path d="M185.436 323C183.317 323 181.599 324.718 181.599 326.838C181.599 328.957 183.317 330.675 185.436 330.675C187.555 330.675 189.273 328.957 189.273 326.838C189.273 324.718 187.555 323 185.436 323Z" fill="url(#paint20_linear_1502_984)"/>
</g>
<g style="mix-blend-mode:overlay">
<path d="M144.867 519.554L519.553 519.554" stroke="url(#paint21_linear_1502_984)" stroke-width="0.8" stroke-miterlimit="10"/>
<path d="M140.144 514.88C137.319 514.88 135.029 517.17 135.029 519.994C135.029 522.819 137.319 525.108 140.144 525.108C142.968 525.108 145.258 522.819 145.258 519.994C145.258 517.17 142.968 514.88 140.144 514.88Z" fill="url(#paint22_linear_1502_984)"/>
</g>
<g style="mix-blend-mode:overlay">
<path d="M-22.3549 450.005L208.557 450.005" stroke="url(#paint23_linear_1502_984)" stroke-width="0.8" stroke-miterlimit="10"/>
</g>
<path d="M5.11542 445.331C2.29046 445.331 0.000373146 447.621 0.000373393 450.445C0.00037364 453.27 2.29046 455.56 5.11542 455.56C7.94039 455.56 10.2305 453.27 10.2305 450.445C10.2305 447.621 7.94038 445.331 5.11542 445.331Z" fill="url(#paint24_linear_1502_984)"/>
<g style="mix-blend-mode:overlay">
<path d="M75.2912 776.754L519.994 519.994" stroke="url(#paint25_linear_1502_984)" stroke-miterlimit="10"/>
<path d="M74.0947 772.332C71.2702 772.332 68.9804 774.622 68.9804 777.446C68.9804 780.271 71.2702 782.561 74.0947 782.561C76.9192 782.561 79.209 780.271 79.209 777.446C79.209 774.622 76.9192 772.332 74.0947 772.332Z" fill="url(#paint26_linear_1502_984)"/>
</g>
<g style="mix-blend-mode:overlay">
<path d="M263.247 964.697L519.994 519.994" stroke="url(#paint27_linear_1502_984)" stroke-width="0.8" stroke-miterlimit="10"/>
<path d="M262.554 960.792C259.729 960.792 257.439 963.082 257.439 965.906C257.439 968.731 259.729 971.021 262.554 971.021C265.378 971.021 267.668 968.731 267.668 965.906C267.668 963.082 265.378 960.792 262.554 960.792Z" fill="url(#paint28_linear_1502_984)"/>
</g>
<g opacity="0.8" filter="url(#filter0_b_1502_984)">
<path d="M462.53 854.355L550.394 854.355L594.326 778.271L550.394 702.172L462.53 702.172L418.598 778.271L462.53 854.355Z" fill="url(#paint29_linear_1502_984)" stroke="url(#paint30_linear_1502_984)" stroke-width="2.6" stroke-miterlimit="10"/>
<path d="M462.53 683.009L550.394 683.009L594.326 606.909L550.394 530.825L462.53 530.825L418.598 606.909L462.53 683.009Z" fill="url(#paint31_linear_1502_984)" stroke="url(#paint32_linear_1502_984)" stroke-width="2.6" stroke-miterlimit="10"/>
<path d="M461.752 511.662L549.617 511.662L593.549 435.563L549.617 359.479L461.752 359.479L417.82 435.563L461.752 511.662Z" fill="url(#paint33_linear_1502_984)" stroke="url(#paint34_linear_1502_984)" stroke-width="2.6" stroke-miterlimit="10"/>
<path d="M172.126 511.662L259.99 511.662L303.937 435.563L259.99 359.479L172.126 359.479L128.194 435.563L172.126 511.662Z" fill="url(#paint35_linear_1502_984)" stroke="url(#paint36_linear_1502_984)" stroke-width="2.6" stroke-miterlimit="10"/>
<path d="M461.752 340.32L549.617 340.32L593.549 264.221L549.617 188.137L461.752 188.137L417.82 264.221L461.752 340.32Z" fill="url(#paint37_linear_1502_984)" stroke="url(#paint38_linear_1502_984)" stroke-width="2.6" stroke-miterlimit="10"/>
<path d="M607.237 599.202L695.101 599.202L739.033 523.103L695.101 447.003L607.237 447.003L563.305 523.103L607.237 599.202Z" fill="url(#paint39_linear_1502_984)" stroke="url(#paint40_linear_1502_984)" stroke-width="2.6" stroke-miterlimit="10"/>
<path d="M608.315 427.605L696.179 427.605L740.111 351.521L696.179 275.422L608.315 275.422L564.383 351.521L608.315 427.605Z" fill="url(#paint41_linear_1502_984)" stroke="url(#paint42_linear_1502_984)" stroke-width="2.6" stroke-miterlimit="10"/>
<g style="mix-blend-mode:overlay" opacity="0.74">
<path d="M608.452 427.292L564.52 351.208L608.452 275.108L696.316 275.108L740.248 351.208" stroke="white" stroke-width="2.6" stroke-miterlimit="10"/>
</g>
<g style="mix-blend-mode:overlay" opacity="0.74">
<path d="M461.428 359.466L417.496 435.55L461.428 511.649L549.292 511.649L593.225 435.55" stroke="white" stroke-width="2.6" stroke-miterlimit="10"/>
</g>
<path d="M898.204 598.952L986.068 598.952L1030 522.853L986.068 446.753L898.204 446.753L854.272 522.853L898.204 598.952Z" fill="url(#paint43_linear_1502_984)" stroke="url(#paint44_linear_1502_984)" stroke-width="2.6" stroke-miterlimit="10"/>
<path d="M754.796 683.009L842.675 683.009L886.607 606.925L842.675 530.825L754.796 530.825L710.864 606.925L754.796 683.009Z" fill="url(#paint45_linear_1502_984)" stroke="url(#paint46_linear_1502_984)" stroke-width="2.6" stroke-miterlimit="10"/>
<path d="M750.55 511.662L838.429 511.662L882.361 435.563L838.429 359.479L750.55 359.479L706.618 435.563L750.55 511.662Z" fill="url(#paint47_linear_1502_984)" stroke="url(#paint48_linear_1502_984)" stroke-width="2.6" stroke-miterlimit="10"/>
<path d="M316.961 768.144L404.826 768.144L448.758 692.044L404.826 615.945L316.961 615.945L273.029 692.044L316.961 768.144Z" fill="url(#paint49_linear_1502_984)" stroke="url(#paint50_linear_1502_984)" stroke-width="2.6" stroke-miterlimit="10"/>
<path d="M315.444 598.083L403.324 598.083L447.256 521.999L403.324 445.899L315.444 445.899L271.512 521.999L315.444 598.083Z" fill="url(#paint51_linear_1502_984)" stroke="url(#paint52_linear_1502_984)" stroke-width="2.6" stroke-miterlimit="10"/>
<path d="M315.444 427.605L403.324 427.605L447.256 351.521L403.324 275.422L315.444 275.422L271.512 351.521L315.444 427.605Z" fill="url(#paint53_linear_1502_984)" stroke="url(#paint54_linear_1502_984)" stroke-width="2.6" stroke-miterlimit="10"/>
<path d="M607.547 768.144L695.412 768.144L739.344 692.044L695.412 615.945L607.547 615.945L563.615 692.044L607.547 768.144Z" fill="url(#paint55_linear_1502_984)" stroke="url(#paint56_linear_1502_984)" stroke-width="2.6" stroke-miterlimit="10"/>
<g style="mix-blend-mode:overlay" opacity="0.74">
<path d="M842.132 530.591L886.064 606.675L842.132 682.774L754.268 682.774L710.336 606.675" stroke="white" stroke-width="2.6" stroke-miterlimit="10"/>
</g>
<g style="mix-blend-mode:overlay" opacity="0.74">
<path d="M696.314 768.337L740.246 692.253L696.314 616.153L608.45 616.153L564.518 692.253" stroke="white" stroke-width="2.6" stroke-miterlimit="10"/>
</g>
<g style="mix-blend-mode:overlay" opacity="0.74">
<path d="M404.679 768.337L448.611 692.253L404.679 616.153L316.815 616.153L272.883 692.253" stroke="white" stroke-width="2.6" stroke-miterlimit="10"/>
</g>
</g>
<g style="mix-blend-mode:screen">
<path d="M326.047 571.736H311.527V570.154H315.289V566.885H312.775V565.303H315.008V560.592H312.723V559.027H324.781V560.592H322.461V565.303H324.729V566.885H322.215V570.154H326.047V571.736ZM320.527 565.303V560.592H316.959V565.303H320.527ZM320.264 570.154V566.885H317.24V570.154H320.264ZM340.031 567.113H338.079V563.229H335.372V561.629H338.079V557.674H340.031V567.113ZM326.671 565.531C327.497 565.25 328.203 564.843 328.789 564.31C329.381 563.776 329.827 563.173 330.125 562.499C330.424 561.825 330.574 561.131 330.574 560.416V560.293H327.269V558.711H335.847V560.293H332.56V560.398C332.56 561.055 332.703 561.693 332.991 562.314C333.278 562.93 333.703 563.483 334.265 563.976C334.828 564.462 335.507 564.84 336.304 565.109L335.32 566.656C334.458 566.363 333.714 565.933 333.087 565.364C332.46 564.79 331.965 564.119 331.602 563.352C331.244 564.219 330.735 564.975 330.073 565.619C329.411 566.264 328.617 566.75 327.691 567.078L326.671 565.531ZM329.255 570.541C329.249 569.914 329.463 569.375 329.897 568.924C330.33 568.467 330.952 568.118 331.76 567.878C332.575 567.638 333.538 567.518 334.652 567.518C335.771 567.518 336.738 567.638 337.552 567.878C338.367 568.118 338.991 568.464 339.424 568.915C339.864 569.366 340.083 569.908 340.083 570.541C340.083 571.174 339.864 571.716 339.424 572.167C338.991 572.618 338.367 572.964 337.552 573.204C336.738 573.444 335.771 573.564 334.652 573.564C333.538 573.564 332.575 573.444 331.76 573.204C330.952 572.964 330.33 572.615 329.897 572.158C329.463 571.707 329.249 571.168 329.255 570.541ZM331.189 570.541C331.183 571.027 331.476 571.402 332.068 571.666C332.665 571.924 333.509 572.053 334.599 572.053C335.736 572.053 336.609 571.924 337.218 571.666C337.828 571.408 338.132 571.033 338.132 570.541C338.132 570.049 337.83 569.671 337.227 569.407C336.629 569.144 335.771 569.012 334.652 569.012C333.544 569.012 332.689 569.144 332.085 569.407C331.482 569.671 331.183 570.049 331.189 570.541ZM356.423 567.465H350.288V570.207H348.354V567.465H341.903V565.9H356.423V567.465ZM343.661 568.871H345.594V571.666H354.823V573.248H343.661V568.871ZM343.801 558.184H345.735V559.977H352.591V558.184H354.524V564.652H343.801V558.184ZM352.591 563.105V561.436H345.735V563.105H352.591ZM362.883 560.188C362.883 560.879 363.024 561.541 363.305 562.174C363.592 562.801 364.014 563.36 364.57 563.853C365.133 564.339 365.813 564.711 366.609 564.969L365.555 566.533C364.705 566.234 363.973 565.798 363.357 565.224C362.748 564.649 362.271 563.973 361.925 563.193C361.567 564.043 361.064 564.781 360.413 565.408C359.769 566.029 358.998 566.504 358.102 566.832L357.047 565.268C357.885 564.992 358.594 564.594 359.174 564.072C359.754 563.545 360.188 562.938 360.475 562.253C360.768 561.562 360.914 560.832 360.914 560.064V558.5H362.883V560.188ZM359.596 567.887H370.424V573.564H368.473V569.434H359.596V567.887ZM365.309 560.768H368.473V557.674H370.424V567.113H368.473V562.367H365.309V560.768ZM389.497 573.564H387.528V557.674H389.497V573.564ZM376.331 569.188C378.382 568.215 379.92 567.052 380.945 565.698C381.976 564.345 382.583 562.748 382.764 560.908H377.139V559.361H384.751C384.751 561.887 384.179 564.102 383.037 566.006C381.894 567.91 379.999 569.492 377.35 570.752L376.331 569.188ZM399.666 558.184C399.666 558.746 399.895 559.282 400.352 559.792C400.809 560.296 401.45 560.727 402.277 561.084C403.109 561.436 404.067 561.67 405.151 561.787L404.5 563.264C403.152 563.111 401.966 562.78 400.941 562.271C399.921 561.755 399.156 561.11 398.647 560.337C398.137 561.11 397.372 561.755 396.353 562.271C395.333 562.78 394.158 563.111 392.828 563.264L392.16 561.787C393.244 561.67 394.202 561.436 395.034 561.084C395.872 560.727 396.52 560.296 396.977 559.792C397.434 559.282 397.662 558.746 397.662 558.184V557.762H399.666V558.184ZM391.422 564.055H405.906V565.602H399.613V566.832H404.096V570.77H395.061V571.93H404.535V573.424H393.145V569.363H402.18V568.326H393.127V566.832H397.662V565.602H391.422V564.055Z" fill="white"/>
<g clip-path="url(#clip1_1502_984)">
<path d="M355.717 511.202C352.467 513.964 348.256 515.631 343.657 515.631C333.367 515.631 325.025 507.289 325.025 497C325.025 486.71 333.367 478.368 343.657 478.368C353.946 478.368 362.288 486.71 362.288 497C362.288 500.836 361.129 504.401 359.141 507.365" stroke="white" stroke-width="2.4" stroke-miterlimit="10" stroke-linecap="round" stroke-linejoin="round"/>
<path d="M337.08 493.712V494.808" stroke="white" stroke-width="2.4" stroke-miterlimit="10" stroke-linecap="round" stroke-linejoin="round"/>
<path d="M350.232 493.712V494.808" stroke="white" stroke-width="2.4" stroke-miterlimit="10" stroke-linecap="round" stroke-linejoin="round"/>
<path d="M336.791 501.383C337.504 504.52 340.304 506.863 343.656 506.863C347.008 506.863 349.808 504.52 350.521 501.383H336.791Z" stroke="white" stroke-width="2.4" stroke-miterlimit="10" stroke-linecap="round" stroke-linejoin="round"/>
<path d="M362.263 482.815C365.516 480.042 369.734 478.368 374.344 478.368C384.634 478.368 392.975 486.71 392.975 497C392.975 507.289 384.634 515.631 374.344 515.631C364.054 515.631 355.713 507.289 355.713 497C355.713 493.141 356.886 489.556 358.895 486.583" stroke="#3FA9F5" stroke-width="2.4" stroke-miterlimit="10" stroke-linecap="round" stroke-linejoin="round"/>
<path d="M367.768 493.712V494.808" stroke="#3FA9F5" stroke-width="2.4" stroke-miterlimit="10" stroke-linecap="round" stroke-linejoin="round"/>
<path d="M380.92 493.712V494.808" stroke="#3FA9F5" stroke-width="2.4" stroke-miterlimit="10" stroke-linecap="round" stroke-linejoin="round"/>
<path d="M380.298 504.671C379.051 503.354 376.853 502.479 374.344 502.479C371.836 502.479 369.637 503.354 368.391 504.671" stroke="#3FA9F5" stroke-width="2.4" stroke-miterlimit="10" stroke-linecap="round" stroke-linejoin="round"/>
</g>
</g>
<g style="mix-blend-mode:screen">
<path d="M464.539 813.488C464.533 814.467 464.694 815.419 465.022 816.345C465.351 817.271 465.825 818.094 466.446 818.814C467.067 819.535 467.797 820.074 468.635 820.432L467.475 821.996C466.578 821.58 465.796 820.977 465.128 820.186C464.466 819.389 463.947 818.46 463.572 817.399C463.197 818.542 462.667 819.544 461.981 820.405C461.302 821.267 460.49 821.92 459.547 822.365L458.352 820.73C459.213 820.361 459.96 819.805 460.593 819.061C461.226 818.311 461.709 817.452 462.043 816.485C462.377 815.519 462.547 814.52 462.553 813.488V810.957H464.539V813.488ZM469.777 809.674H471.746V825.582H469.777V809.674ZM479.507 812.486C479.501 813.201 479.639 813.89 479.92 814.552C480.207 815.214 480.632 815.803 481.195 816.318C481.757 816.828 482.437 817.221 483.234 817.496L482.161 819.025C481.318 818.709 480.591 818.255 479.982 817.663C479.372 817.071 478.895 816.377 478.549 815.58C478.203 816.471 477.705 817.244 477.055 817.9C476.405 818.557 475.622 819.055 474.708 819.395L473.671 817.848C474.497 817.566 475.201 817.153 475.781 816.608C476.361 816.063 476.797 815.434 477.09 814.719C477.383 814.004 477.533 813.254 477.538 812.469V810.658H479.507V812.486ZM476.554 820.203H478.54V823.666H487.382V825.248H476.554V820.203ZM481.915 813.189H485.079V809.691H487.031V821.486H485.079V814.789H481.915V813.189ZM503.405 820.818H497.112V825.582H495.178V820.818H488.921V819.219H503.405V820.818ZM489.712 816.705C490.737 816.582 491.651 816.339 492.454 815.976C493.257 815.606 493.892 815.17 494.361 814.666C494.83 814.156 495.096 813.635 495.161 813.102H490.257V811.555H495.178V809.691H497.112V811.555H502.051V813.102H497.147C497.212 813.635 497.475 814.153 497.938 814.657C498.407 815.161 499.043 815.598 499.845 815.967C500.648 816.336 501.559 816.582 502.579 816.705L501.858 818.252C500.563 818.088 499.421 817.739 498.43 817.206C497.44 816.673 496.684 816.017 496.163 815.237C495.635 816.022 494.871 816.682 493.869 817.215C492.873 817.742 491.721 818.088 490.415 818.252L489.712 816.705ZM509.953 812.398C509.953 813.055 510.097 813.693 510.384 814.314C510.671 814.93 511.096 815.483 511.658 815.976C512.221 816.462 512.9 816.84 513.697 817.109L512.713 818.621C511.846 818.34 511.096 817.915 510.463 817.347C509.836 816.778 509.344 816.11 508.986 815.343C508.629 816.198 508.119 816.939 507.457 817.566C506.795 818.193 506.004 818.662 505.084 818.973L504.082 817.426C504.902 817.156 505.603 816.761 506.183 816.239C506.769 815.718 507.211 815.126 507.51 814.464C507.815 813.796 507.967 813.113 507.967 812.416V812.205H504.662V810.641H513.24V812.205H509.953V812.398ZM506.596 819.904H517.424V825.564H515.473V821.469H506.596V819.904ZM512.766 813.611H515.473V809.674H517.424V819.148H515.473V815.211H512.766V813.611ZM536.497 825.564H534.528V809.674H536.497V825.564ZM523.331 821.188C525.382 820.215 526.92 819.052 527.945 817.698C528.976 816.345 529.583 814.748 529.764 812.908H524.139V811.361H531.751C531.751 813.887 531.179 816.102 530.037 818.006C528.894 819.91 526.999 821.492 524.35 822.752L523.331 821.188ZM546.666 810.184C546.666 810.746 546.895 811.282 547.352 811.792C547.809 812.296 548.45 812.727 549.277 813.084C550.109 813.436 551.067 813.67 552.151 813.787L551.5 815.264C550.152 815.111 548.966 814.78 547.941 814.271C546.921 813.755 546.156 813.11 545.647 812.337C545.137 813.11 544.372 813.755 543.353 814.271C542.333 814.78 541.158 815.111 539.828 815.264L539.16 813.787C540.244 813.67 541.202 813.436 542.034 813.084C542.872 812.727 543.52 812.296 543.977 811.792C544.434 811.282 544.662 810.746 544.662 810.184V809.762H546.666V810.184ZM538.422 816.055H552.906V817.602H546.613V818.832H551.096V822.77H542.061V823.93H551.535V825.424H540.145V821.363H549.18V820.326H540.127V818.832H544.662V817.602H538.422V816.055Z" fill="white"/>
<g clip-path="url(#clip2_1502_984)">
<path d="M515.133 749C515.133 741.924 512.416 735.276 507.461 730.145L509.806 728.833C510.927 728.187 511.732 727.141 512.07 725.884C512.409 724.628 512.24 723.318 511.595 722.197C511.335 721.744 510.757 721.588 510.304 721.849C509.851 722.109 509.695 722.687 509.955 723.141C510.348 723.824 510.451 724.624 510.243 725.392C510.036 726.16 509.546 726.8 508.872 727.187L471.484 748.111C471.185 748.278 471.001 748.594 471 748.935C471 749.277 471.184 749.593 471.482 749.761L508.863 770.808C509.546 771.2 510.036 771.84 510.243 772.608C510.451 773.377 510.348 774.176 509.955 774.86C509.695 775.313 509.851 775.891 510.304 776.151C510.452 776.237 510.615 776.277 510.774 776.277C511.102 776.277 511.42 776.107 511.595 775.803C512.24 774.682 512.409 773.372 512.07 772.116C511.732 770.86 510.927 769.813 509.798 769.164L507.466 767.85C512.418 762.72 515.133 756.074 515.133 749ZM511.728 757.593C510.565 755.023 509.927 752.021 509.927 748.933C509.927 745.871 510.555 742.891 511.7 740.334C512.71 743.077 513.241 745.997 513.241 749C513.241 751.977 512.721 754.871 511.728 757.593ZM510.728 738.056C508.995 741.159 508.035 744.993 508.035 748.933C508.035 752.901 509.008 756.758 510.764 759.873C509.564 762.36 507.948 764.668 505.942 766.71C501.227 761.911 498.642 755.657 498.642 749C498.642 742.343 501.227 736.089 505.942 731.291C507.928 733.313 509.532 735.596 510.728 738.056ZM473.878 748.939L501.771 733.329C498.508 737.899 496.75 743.31 496.75 749C496.75 754.67 498.496 760.064 501.737 764.625L473.878 748.939Z" fill="white"/>
<path d="M532.933 752.578C533.456 752.578 533.879 752.155 533.879 751.632C533.879 751.11 533.456 750.686 532.933 750.686H529.15C528.627 750.686 528.204 751.11 528.204 751.632C528.204 752.155 528.627 752.578 529.15 752.578H532.933Z" fill="#3FA9F5"/>
<path d="M540.054 752.578C540.576 752.578 541 752.155 541 751.632C541 751.11 540.576 750.686 540.054 750.686H538.609C538.086 750.686 537.663 751.11 537.663 751.632C537.663 752.155 538.086 752.578 538.609 752.578H540.054Z" fill="#3FA9F5"/>
<path d="M523.474 752.578C523.997 752.578 524.42 752.155 524.42 751.632C524.42 751.11 523.997 750.686 523.474 750.686H519.691C519.168 750.686 518.745 751.11 518.745 751.632C518.745 752.155 519.168 752.578 519.691 752.578H523.474Z" fill="#3FA9F5"/>
<path d="M527.409 737.363C526.957 737.624 526.802 738.203 527.063 738.655C527.238 738.959 527.556 739.128 527.883 739.128C528.044 739.128 528.206 739.088 528.355 739.001L531.632 737.109C532.084 736.848 532.239 736.27 531.978 735.817C531.717 735.365 531.139 735.21 530.686 735.471L527.409 737.363Z" fill="#3FA9F5"/>
<path d="M535.601 732.633C535.149 732.894 534.994 733.473 535.255 733.925C535.43 734.229 535.748 734.398 536.075 734.398C536.235 734.398 536.398 734.358 536.547 734.272L537.798 733.549C538.251 733.288 538.406 732.71 538.145 732.257C537.884 731.805 537.305 731.65 536.853 731.911L535.601 732.633Z" fill="#3FA9F5"/>
<path d="M519.217 742.092C518.765 742.353 518.61 742.932 518.871 743.384C519.046 743.688 519.364 743.857 519.691 743.857C519.852 743.857 520.014 743.817 520.163 743.73L523.44 741.839C523.892 741.578 524.047 740.999 523.786 740.547C523.525 740.094 522.947 739.939 522.494 740.2L519.217 742.092Z" fill="#3FA9F5"/>
<path d="M522.966 762.846C523.293 762.846 523.611 762.676 523.786 762.373C524.047 761.92 523.892 761.342 523.44 761.081L520.163 759.189C519.711 758.927 519.133 759.083 518.871 759.535C518.61 759.987 518.765 760.566 519.217 760.827L522.494 762.719C522.643 762.805 522.806 762.846 522.966 762.846Z" fill="#3FA9F5"/>
<path d="M531.158 767.575C531.485 767.575 531.803 767.405 531.978 767.102C532.239 766.649 532.084 766.071 531.632 765.81L528.355 763.918C527.903 763.656 527.324 763.811 527.063 764.264C526.802 764.717 526.957 765.295 527.409 765.556L530.686 767.448C530.835 767.534 530.998 767.575 531.158 767.575Z" fill="#3FA9F5"/>
<path d="M537.324 771.135C537.651 771.135 537.969 770.966 538.145 770.662C538.406 770.209 538.251 769.631 537.798 769.37L536.547 768.648C536.095 768.386 535.516 768.542 535.255 768.994C534.993 769.446 535.149 770.025 535.601 770.286L536.852 771.008C537.001 771.094 537.164 771.135 537.324 771.135Z" fill="#3FA9F5"/>
</g>
</g>
<g style="mix-blend-mode:screen">
<path d="M758.752 644.99C759.918 644.99 760.932 645.113 761.793 645.359C762.654 645.605 763.316 645.963 763.779 646.432C764.248 646.895 764.482 647.445 764.482 648.084C764.482 648.711 764.248 649.253 763.779 649.71C763.316 650.161 762.654 650.507 761.793 650.747C760.932 650.987 759.918 651.107 758.752 651.107C757.598 651.107 756.587 650.987 755.72 650.747C754.858 650.507 754.193 650.161 753.725 649.71C753.256 649.253 753.021 648.711 753.021 648.084C753.021 647.445 753.256 646.895 753.725 646.432C754.193 645.963 754.858 645.605 755.72 645.359C756.587 645.113 757.598 644.99 758.752 644.99ZM751.527 652.18H766.012V653.762H751.527V652.18ZM753.232 655.027H764.254V660.371H753.232V655.027ZM755.061 648.084C755.055 648.559 755.377 648.928 756.027 649.191C756.678 649.455 757.586 649.59 758.752 649.596C759.918 649.59 760.826 649.455 761.477 649.191C762.133 648.928 762.461 648.559 762.461 648.084C762.461 647.58 762.136 647.193 761.485 646.924C760.835 646.654 759.924 646.52 758.752 646.52C757.58 646.52 756.669 646.654 756.019 646.924C755.374 647.193 755.055 647.58 755.061 648.084ZM762.355 658.789V656.574H755.166V658.789H762.355ZM772.542 646.959C772.536 647.691 772.674 648.386 772.955 649.042C773.243 649.692 773.667 650.267 774.23 650.765C774.792 651.257 775.478 651.629 776.286 651.881L775.232 653.41C774.382 653.105 773.653 652.675 773.043 652.118C772.434 651.562 771.956 650.899 771.611 650.132C771.253 651.017 770.741 651.784 770.073 652.435C769.405 653.079 768.599 653.568 767.656 653.902L766.619 652.32C767.474 652.039 768.198 651.632 768.789 651.099C769.381 650.565 769.824 649.953 770.117 649.262C770.415 648.564 770.568 647.826 770.574 647.047V645.535H772.542V646.959ZM769.255 657.506C769.249 656.867 769.463 656.319 769.897 655.862C770.33 655.399 770.952 655.048 771.76 654.808C772.575 654.567 773.538 654.447 774.652 654.447C775.771 654.447 776.738 654.567 777.552 654.808C778.367 655.048 778.991 655.399 779.424 655.862C779.864 656.319 780.083 656.867 780.083 657.506C780.083 658.145 779.864 658.692 779.424 659.149C778.991 659.606 778.367 659.952 777.552 660.187C776.738 660.427 775.771 660.547 774.652 660.547C773.538 660.547 772.575 660.427 771.76 660.187C770.952 659.952 770.33 659.606 769.897 659.149C769.463 658.692 769.249 658.145 769.255 657.506ZM771.189 657.506C771.183 657.986 771.482 658.358 772.085 658.622C772.689 658.88 773.544 659.012 774.652 659.018C775.765 659.012 776.623 658.88 777.227 658.622C777.83 658.358 778.132 657.986 778.132 657.506C778.132 657.008 777.83 656.627 777.227 656.363C776.629 656.1 775.771 655.965 774.652 655.959C773.538 655.965 772.68 656.1 772.077 656.363C771.479 656.627 771.183 657.008 771.189 657.506ZM774.915 647.75H778.079V644.674H780.031V654.025H778.079V649.35H774.915V647.75ZM795.157 656.17H793.188V644.691H795.157V656.17ZM782.202 649.701C782.202 648.945 782.389 648.266 782.764 647.662C783.145 647.059 783.661 646.587 784.311 646.247C784.968 645.901 785.694 645.729 786.491 645.729C787.288 645.729 788.011 645.901 788.662 646.247C789.318 646.587 789.831 647.059 790.2 647.662C790.575 648.266 790.762 648.945 790.762 649.701C790.762 650.469 790.575 651.157 790.2 651.767C789.831 652.37 789.318 652.842 788.662 653.182C788.011 653.521 787.288 653.691 786.491 653.691C785.694 653.691 784.968 653.521 784.311 653.182C783.661 652.842 783.145 652.37 782.764 651.767C782.389 651.157 782.202 650.469 782.202 649.701ZM784.118 649.701C784.118 650.158 784.218 650.56 784.417 650.905C784.622 651.251 784.903 651.518 785.26 651.705C785.624 651.893 786.034 651.986 786.491 651.986C786.936 651.986 787.338 651.893 787.695 651.705C788.052 651.518 788.334 651.251 788.539 650.905C788.744 650.56 788.846 650.158 788.846 649.701C788.846 649.256 788.744 648.86 788.539 648.515C788.334 648.169 788.05 647.902 787.686 647.715C787.329 647.527 786.93 647.434 786.491 647.434C786.04 647.434 785.633 647.527 785.269 647.715C784.906 647.902 784.622 648.169 784.417 648.515C784.218 648.86 784.118 649.256 784.118 649.701ZM784.645 655.01H786.614V658.666H795.596V660.248H784.645V655.01ZM803.041 646.941C803.035 647.65 803.179 648.327 803.472 648.972C803.765 649.61 804.198 650.176 804.773 650.668C805.353 651.16 806.053 651.535 806.873 651.793L805.906 653.34C805.01 653.041 804.233 652.602 803.577 652.021C802.927 651.441 802.417 650.756 802.048 649.965C801.685 650.82 801.169 651.562 800.501 652.188C799.833 652.815 799.039 653.287 798.119 653.604L797.135 652.074C797.967 651.793 798.673 651.389 799.253 650.861C799.839 650.328 800.281 649.725 800.58 649.051C800.879 648.377 801.025 647.674 801.02 646.941V645.43H803.041V646.941ZM799.508 654.904H810.354V660.564H808.385V656.469H799.508V654.904ZM808.385 644.674H810.354V654.184H808.385V644.674ZM829.497 660.564H827.528V644.674H829.497V660.564ZM816.331 656.188C818.382 655.215 819.92 654.052 820.945 652.698C821.976 651.345 822.583 649.748 822.764 647.908H817.139V646.361H824.751C824.751 648.887 824.179 651.102 823.037 653.006C821.894 654.91 819.999 656.492 817.35 657.752L816.331 656.188ZM839.666 645.184C839.666 645.746 839.895 646.282 840.352 646.792C840.809 647.296 841.45 647.727 842.277 648.084C843.109 648.436 844.067 648.67 845.151 648.787L844.5 650.264C843.152 650.111 841.966 649.78 840.941 649.271C839.921 648.755 839.156 648.11 838.647 647.337C838.137 648.11 837.372 648.755 836.353 649.271C835.333 649.78 834.158 650.111 832.828 650.264L832.16 648.787C833.244 648.67 834.202 648.436 835.034 648.084C835.872 647.727 836.52 647.296 836.977 646.792C837.434 646.282 837.662 645.746 837.662 645.184V644.762H839.666V645.184ZM831.422 651.055H845.906V652.602H839.613V653.832H844.096V657.77H835.061V658.93H844.535V660.424H833.145V656.363H842.18V655.326H833.127V653.832H837.662V652.602H831.422V651.055Z" fill="white"/>
<g clip-path="url(#clip3_1502_984)">
<path d="M811.938 594.895V602.485" stroke="#3FA9F5" stroke-width="2" stroke-miterlimit="10" stroke-linecap="round"/>
<path d="M828.658 594.895V602.485" stroke="#3FA9F5" stroke-width="2" stroke-miterlimit="10" stroke-linecap="round"/>
<path d="M839.803 594.895V602.485" stroke="#3FA9F5" stroke-width="2" stroke-miterlimit="10" stroke-linecap="round"/>
<path d="M823.084 592.035V605.345" stroke="#3FA9F5" stroke-width="2" stroke-miterlimit="10" stroke-linecap="round"/>
<path d="M817.512 589.759V607.622" stroke="#3FA9F5" stroke-width="2" stroke-miterlimit="10" stroke-linecap="round"/>
<path d="M834.23 589.759V607.622" stroke="#3FA9F5" stroke-width="2" stroke-miterlimit="10" stroke-linecap="round"/>
<path d="M765.234 595.67C766.07 597.505 766.551 599.482 766.652 601.496V609.335C766.649 609.927 766.858 610.501 767.241 610.953C767.624 611.405 768.156 611.704 768.741 611.797H787.004C788.628 611.797 789.247 609.969 789.247 609.969V606.552C789.247 604.963 791.18 604.803 791.18 604.803H796.595C799.069 604.803 799.688 601.784 799.688 601.784V594.156C799.677 593.972 799.702 593.788 799.762 593.614C799.823 593.44 799.916 593.279 800.038 593.142C800.16 593.004 800.308 592.892 800.474 592.811C800.639 592.731 800.819 592.684 801.002 592.674H804.226C804.447 592.65 804.661 592.583 804.856 592.475C805.051 592.367 805.222 592.221 805.359 592.046C805.496 591.87 805.597 591.669 805.654 591.453C805.712 591.238 805.726 591.014 805.696 590.793L799.612 579.457V578.187C799.612 557.74 781.051 556.258 781.051 556.258C776.749 555.818 772.421 556.784 768.713 559.013C765.465 560.904 762.728 563.561 760.741 566.755C758.754 569.948 757.576 573.579 757.311 577.333C756.268 588.516 765.234 595.67 765.234 595.67Z" fill="white" stroke="white" stroke-width="2" stroke-miterlimit="10"/>
</g>
</g>
<g style="mix-blend-mode:screen">
<path d="M617.764 397.674H615.795V388.691H617.764V397.674ZM604.527 395.811C605.359 395.547 606.068 395.16 606.654 394.65C607.246 394.135 607.691 393.549 607.99 392.893C608.289 392.23 608.436 391.545 608.43 390.836V389.289H610.451V390.836C610.445 391.521 610.592 392.175 610.891 392.796C611.189 393.411 611.626 393.959 612.2 394.439C612.78 394.92 613.475 395.289 614.283 395.547L613.334 397.041C612.432 396.76 611.652 396.341 610.996 395.784C610.34 395.222 609.827 394.554 609.458 393.78C609.095 394.618 608.576 395.348 607.902 395.969C607.229 396.584 606.426 397.047 605.494 397.357L604.527 395.811ZM607.217 398.465H617.764V404.371H607.217V398.465ZM615.848 402.789V400.012H609.15V402.789H615.848ZM632.257 392.646H634.472V394.246H632.257V398.236H630.306V388.674H632.257V392.646ZM620.269 389.676H622.203V391.926H625.911V389.676H627.845V397.305H620.269V389.676ZM621.675 398.975H632.257V404.564H630.306V400.539H621.675V398.975ZM625.911 395.758V393.455H622.203V395.758H625.911ZM649.423 398.465H643.288V401.207H641.354V398.465H634.903V396.9H649.423V398.465ZM636.661 399.871H638.594V402.666H647.823V404.248H636.661V399.871ZM636.801 389.184H638.735V390.977H645.591V389.184H647.524V395.652H636.801V389.184ZM645.591 394.105V392.436H638.735V394.105H645.591ZM655.883 391.188C655.883 391.879 656.024 392.541 656.305 393.174C656.592 393.801 657.014 394.36 657.57 394.853C658.133 395.339 658.813 395.711 659.609 395.969L658.555 397.533C657.705 397.234 656.973 396.798 656.357 396.224C655.748 395.649 655.271 394.973 654.925 394.193C654.567 395.043 654.064 395.781 653.413 396.408C652.769 397.029 651.998 397.504 651.102 397.832L650.047 396.268C650.885 395.992 651.594 395.594 652.174 395.072C652.754 394.545 653.188 393.938 653.475 393.253C653.768 392.562 653.914 391.832 653.914 391.064V389.5H655.883V391.188ZM652.596 398.887H663.424V404.564H661.473V400.434H652.596V398.887ZM658.309 391.768H661.473V388.674H663.424V398.113H661.473V393.367H658.309V391.768ZM682.497 404.564H680.528V388.674H682.497V404.564ZM669.331 400.188C671.382 399.215 672.92 398.052 673.945 396.698C674.976 395.345 675.583 393.748 675.764 391.908H670.139V390.361H677.751C677.751 392.887 677.179 395.102 676.037 397.006C674.894 398.91 672.999 400.492 670.35 401.752L669.331 400.188ZM692.666 389.184C692.666 389.746 692.895 390.282 693.352 390.792C693.809 391.296 694.45 391.727 695.277 392.084C696.109 392.436 697.067 392.67 698.151 392.787L697.5 394.264C696.152 394.111 694.966 393.78 693.941 393.271C692.921 392.755 692.156 392.11 691.647 391.337C691.137 392.11 690.372 392.755 689.353 393.271C688.333 393.78 687.158 394.111 685.828 394.264L685.16 392.787C686.244 392.67 687.202 392.436 688.034 392.084C688.872 391.727 689.52 391.296 689.977 390.792C690.434 390.282 690.662 389.746 690.662 389.184V388.762H692.666V389.184ZM684.422 395.055H698.906V396.602H692.613V397.832H697.096V401.77H688.061V402.93H697.535V404.424H686.145V400.363H695.18V399.326H686.127V397.832H690.662V396.602H684.422V395.055Z" fill="white"/>
<path fill-rule="evenodd" clip-rule="evenodd" d="M635.749 310.287C634.035 308.573 631.25 308.572 629.541 310.28L629.284 310.537C627.57 312.252 627.572 315.026 629.29 316.745L635.265 322.719C635.836 323.291 636.763 323.291 637.334 322.719L643.309 316.745C645.027 315.026 645.029 312.252 643.315 310.537L643.058 310.28C641.349 308.572 638.564 308.573 636.85 310.287L636.3 310.837L635.749 310.287Z" fill="#3FA9F5"/>
<path d="M628.35 330.5H643.85L649.35 347L659.85 312L666.35 330.5H676.85" stroke="white" stroke-width="1.4" stroke-linecap="round" stroke-linejoin="round"/>
<g style="mix-blend-mode:screen">
<path d="M617.764 566.674H615.795V557.691H617.764V566.674ZM604.527 564.811C605.359 564.547 606.068 564.16 606.654 563.65C607.246 563.135 607.691 562.549 607.99 561.893C608.289 561.23 608.436 560.545 608.43 559.836V558.289H610.451V559.836C610.445 560.521 610.592 561.175 610.891 561.796C611.189 562.411 611.626 562.959 612.2 563.439C612.78 563.92 613.475 564.289 614.283 564.547L613.334 566.041C612.432 565.76 611.652 565.341 610.996 564.784C610.34 564.222 609.827 563.554 609.458 562.78C609.095 563.618 608.576 564.348 607.902 564.969C607.229 565.584 606.426 566.047 605.494 566.357L604.527 564.811ZM607.217 567.465H617.764V573.371H607.217V567.465ZM615.848 571.789V569.012H609.15V571.789H615.848ZM634.208 567.166H619.724V565.584H634.208V567.166ZM620.41 563.316C621.476 563.246 622.402 563.088 623.187 562.842C623.972 562.596 624.584 562.288 625.024 561.919C625.469 561.55 625.736 561.143 625.824 560.697H621.148V559.15H625.982V557.709H627.915V559.15H632.785V560.697H628.065C628.147 561.143 628.411 561.55 628.856 561.919C629.301 562.288 629.916 562.596 630.702 562.842C631.487 563.088 632.415 563.246 633.488 563.316L632.89 564.811C631.472 564.699 630.25 564.43 629.225 564.002C628.2 563.574 627.441 563.018 626.949 562.332C626.445 563.018 625.68 563.574 624.655 564.002C623.635 564.43 622.419 564.699 621.007 564.811L620.41 563.316ZM621.411 570.875C621.411 570.301 621.628 569.814 622.062 569.416C622.501 569.012 623.134 568.707 623.96 568.502C624.792 568.297 625.788 568.191 626.949 568.186C628.103 568.191 629.09 568.297 629.911 568.502C630.731 568.707 631.358 569.012 631.791 569.416C632.231 569.814 632.451 570.301 632.451 570.875C632.451 571.449 632.231 571.936 631.791 572.334C631.358 572.732 630.731 573.034 629.911 573.239C629.09 573.444 628.103 573.547 626.949 573.547C625.788 573.547 624.792 573.444 623.96 573.239C623.134 573.034 622.501 572.732 622.062 572.334C621.628 571.936 621.411 571.449 621.411 570.875ZM623.398 570.875C623.392 571.279 623.688 571.584 624.286 571.789C624.889 571.988 625.777 572.088 626.949 572.088C628.103 572.088 628.982 571.988 629.585 571.789C630.189 571.584 630.494 571.279 630.499 570.875C630.494 570.471 630.189 570.166 629.585 569.961C628.982 569.75 628.103 569.645 626.949 569.645C625.777 569.645 624.889 569.747 624.286 569.952C623.688 570.157 623.392 570.465 623.398 570.875ZM648.122 565.865H646.188V557.674H648.122V565.865ZM635.044 564.441C635.846 564.207 636.535 563.864 637.109 563.413C637.689 562.962 638.134 562.446 638.445 561.866C638.761 561.286 638.937 560.68 638.972 560.047H635.553V558.465H644.29V560.047H640.959C640.988 560.645 641.158 561.216 641.468 561.761C641.779 562.3 642.221 562.777 642.796 563.193C643.37 563.609 644.055 563.926 644.852 564.143L643.903 565.654C642.995 565.391 642.21 564.992 641.548 564.459C640.885 563.92 640.37 563.284 640.001 562.552C639.632 563.366 639.101 564.072 638.41 564.67C637.724 565.262 636.901 565.701 635.94 565.988L635.044 564.441ZM637.61 566.533H648.157V570.629H639.561V571.912H648.632V573.424H637.645V569.205H646.206V568.027H637.61V566.533ZM655.268 558.781C656.1 558.781 656.847 558.945 657.509 559.273C658.171 559.596 658.69 560.05 659.065 560.636C659.445 561.216 659.639 561.875 659.645 562.613C659.639 563.357 659.445 564.022 659.065 564.608C658.69 565.188 658.171 565.643 657.509 565.971C656.847 566.299 656.1 566.463 655.268 566.463C654.441 566.463 653.694 566.299 653.026 565.971C652.364 565.643 651.846 565.186 651.471 564.6C651.096 564.014 650.908 563.352 650.908 562.613C650.908 561.875 651.096 561.216 651.471 560.636C651.852 560.05 652.373 559.596 653.035 559.273C653.697 558.945 654.441 558.781 655.268 558.781ZM650.188 568.66C652.133 568.66 653.949 568.628 655.637 568.563C657.324 568.493 658.93 568.35 660.453 568.133L660.611 569.557C659.041 569.855 657.439 570.049 655.804 570.137C654.175 570.219 652.385 570.26 650.434 570.26L650.188 568.66ZM652.842 562.613C652.842 563.047 652.944 563.428 653.149 563.756C653.36 564.078 653.65 564.327 654.02 564.503C654.389 564.673 654.805 564.758 655.268 564.758C655.736 564.758 656.155 564.673 656.524 564.503C656.899 564.327 657.192 564.078 657.403 563.756C657.62 563.428 657.729 563.047 657.729 562.613C657.729 562.18 657.62 561.802 657.403 561.479C657.192 561.157 656.899 560.908 656.524 560.732C656.155 560.557 655.736 560.469 655.268 560.469C654.805 560.469 654.389 560.557 654.02 560.732C653.65 560.908 653.36 561.16 653.149 561.488C652.944 561.811 652.842 562.186 652.842 562.613ZM661.402 557.674H663.354V573.582H661.402V557.674ZM682.497 573.564H680.528V557.674H682.497V573.564ZM669.331 569.188C671.382 568.215 672.92 567.052 673.945 565.698C674.976 564.345 675.583 562.748 675.764 560.908H670.139V559.361H677.751C677.751 561.887 677.179 564.102 676.037 566.006C674.894 567.91 672.999 569.492 670.35 570.752L669.331 569.188ZM692.666 558.184C692.666 558.746 692.895 559.282 693.352 559.792C693.809 560.296 694.45 560.727 695.277 561.084C696.109 561.436 697.067 561.67 698.151 561.787L697.5 563.264C696.152 563.111 694.966 562.78 693.941 562.271C692.921 561.755 692.156 561.11 691.647 560.337C691.137 561.11 690.372 561.755 689.353 562.271C688.333 562.78 687.158 563.111 685.828 563.264L685.16 561.787C686.244 561.67 687.202 561.436 688.034 561.084C688.872 560.727 689.52 560.296 689.977 559.792C690.434 559.282 690.662 558.746 690.662 558.184V557.762H692.666V558.184ZM684.422 564.055H698.906V565.602H692.613V566.832H697.096V570.77H688.061V571.93H697.535V573.424H686.145V569.363H695.18V568.326H686.127V566.832H690.662V565.602H684.422V564.055Z" fill="white"/>
<path d="M675.129 489.878H664.031V472.424C664.003 470.791 663.329 469.236 662.156 468.1C660.983 466.964 659.407 466.339 657.774 466.362H628.871C627.219 466.32 625.618 466.935 624.418 468.071C623.218 469.207 622.517 470.772 622.469 472.424V490.926C622.517 492.578 623.218 494.143 624.418 495.279C625.618 496.415 627.219 497.029 628.871 496.987H629.031V502.803C629.031 503.051 629.101 503.294 629.234 503.504C629.366 503.715 629.554 503.883 629.778 503.991C630.002 504.099 630.251 504.141 630.498 504.114C630.745 504.086 630.979 503.989 631.173 503.835L639.765 496.987H639.969V514.37C639.997 516.022 640.68 517.596 641.867 518.745C643.054 519.895 644.648 520.527 646.301 520.503H664.235L672.828 527.351C673.023 527.505 673.256 527.602 673.503 527.629C673.75 527.657 673.999 527.614 674.223 527.506C674.446 527.399 674.635 527.23 674.767 527.02C674.899 526.81 674.969 526.567 674.969 526.318V520.503H675.129C676.781 520.545 678.382 519.931 679.582 518.795C680.782 517.659 681.483 516.093 681.531 514.441V495.94C681.483 494.288 680.782 492.723 679.582 491.586C678.382 490.45 676.781 489.836 675.129 489.878ZM639.522 494.8C639.185 494.801 638.857 494.916 638.592 495.125L631.219 501.001V496.253C631.216 495.865 631.059 495.494 630.783 495.222C630.507 494.95 630.134 494.798 629.746 494.8H628.871C627.799 494.842 626.754 494.458 625.965 493.732C625.175 493.006 624.704 491.997 624.656 490.926V472.424C624.704 471.352 625.175 470.343 625.965 469.618C626.754 468.892 627.799 468.508 628.871 468.55H657.774C658.827 468.526 659.847 468.92 660.609 469.646C661.372 470.372 661.816 471.371 661.844 472.424V490.926C661.816 491.979 661.372 492.978 660.609 493.704C659.846 494.43 658.826 494.824 657.773 494.8L639.522 494.8ZM679.344 514.441C679.296 515.513 678.825 516.522 678.035 517.248C677.246 517.974 676.201 518.358 675.129 518.316H674.254C673.866 518.313 673.493 518.465 673.217 518.738C672.941 519.01 672.784 519.381 672.781 519.769V524.516L665.405 518.639C665.141 518.43 664.814 518.316 664.478 518.316H646.301C645.228 518.34 644.19 517.938 643.413 517.199C642.637 516.459 642.184 515.442 642.156 514.37V496.987H657.773C659.208 497.002 660.603 496.52 661.723 495.623C662.843 494.726 663.618 493.469 663.917 492.066H675.129C676.201 492.023 677.246 492.407 678.035 493.133C678.825 493.859 679.296 494.868 679.344 495.94V514.441Z" fill="white"/>
<path d="M648.977 486.608C650.263 485.153 650.95 483.266 650.899 481.325C650.849 479.384 650.066 477.535 648.707 476.149C647.348 474.762 645.514 473.942 643.575 473.854C641.636 473.765 639.735 474.414 638.255 475.671C636.775 476.927 635.826 478.698 635.6 480.626C635.373 482.554 635.884 484.496 637.032 486.062C638.18 487.628 639.878 488.701 641.785 489.065C643.691 489.429 645.665 489.057 647.309 488.024L647.929 488.727C648.121 488.942 648.391 489.073 648.68 489.09C648.968 489.108 649.252 489.01 649.469 488.819C649.686 488.627 649.818 488.358 649.837 488.07C649.856 487.781 649.76 487.497 649.57 487.279L648.977 486.608ZM643.25 487.013C642.168 487.013 641.111 486.693 640.211 486.092C639.312 485.491 638.611 484.637 638.197 483.637C637.783 482.638 637.675 481.539 637.886 480.478C638.097 479.417 638.618 478.442 639.383 477.678C640.147 476.913 641.122 476.392 642.183 476.181C643.244 475.97 644.343 476.078 645.342 476.492C646.342 476.906 647.196 477.607 647.797 478.506C648.398 479.406 648.718 480.463 648.718 481.545C648.713 482.781 648.284 483.979 647.504 484.938L645.133 482.25C644.94 482.035 644.67 481.905 644.382 481.888C644.094 481.871 643.811 481.969 643.594 482.16C643.378 482.351 643.246 482.619 643.226 482.908C643.207 483.196 643.303 483.479 643.492 483.697L645.823 486.34C645.035 486.776 644.15 487.007 643.25 487.013Z" fill="white"/>
<path d="M667.228 511.277C665.246 506.558 666.3 509.068 661.763 498.267L661.763 498.266L661.759 498.257C661.675 498.059 661.535 497.89 661.355 497.771C661.176 497.652 660.966 497.589 660.751 497.589C660.536 497.589 660.325 497.652 660.146 497.771C659.967 497.89 659.826 498.059 659.742 498.257L659.738 498.266L659.738 498.267C657.668 503.195 656.058 507.028 654.274 511.277C654.164 511.544 654.164 511.843 654.274 512.11C654.384 512.377 654.595 512.59 654.862 512.701C655.128 512.813 655.427 512.815 655.695 512.707C655.962 512.599 656.176 512.389 656.29 512.124L657.809 508.507H663.692L665.211 512.124C665.324 512.39 665.538 512.601 665.806 512.71C666.074 512.819 666.374 512.817 666.641 512.705C666.908 512.593 667.119 512.38 667.229 512.112C667.339 511.844 667.339 511.544 667.228 511.277ZM658.728 506.32L660.751 501.504L662.773 506.32H658.728Z" fill="#3FA9F5"/>
<g style="mix-blend-mode:screen">
<path d="M471.061 649.332H473.275V650.949H471.061V656.293H469.109V644.674H471.061V649.332ZM458.703 649.736C458.703 648.969 458.891 648.28 459.266 647.671C459.641 647.062 460.153 646.587 460.804 646.247C461.46 645.901 462.189 645.729 462.992 645.729C463.789 645.729 464.513 645.901 465.163 646.247C465.819 646.587 466.335 647.062 466.71 647.671C467.085 648.28 467.275 648.969 467.281 649.736C467.275 650.492 467.082 651.175 466.701 651.784C466.326 652.394 465.813 652.871 465.163 653.217C464.513 653.557 463.789 653.727 462.992 653.727C462.195 653.727 461.469 653.557 460.812 653.217C460.156 652.871 459.641 652.394 459.266 651.784C458.891 651.175 458.703 650.492 458.703 649.736ZM460.619 649.736C460.619 650.182 460.722 650.577 460.927 650.923C461.138 651.269 461.425 651.535 461.788 651.723C462.151 651.91 462.553 652.004 462.992 652.004C463.438 652.004 463.839 651.91 464.196 651.723C464.56 651.535 464.844 651.271 465.049 650.932C465.26 650.586 465.365 650.188 465.365 649.736C465.365 649.279 465.26 648.878 465.049 648.532C464.844 648.181 464.56 647.911 464.196 647.724C463.839 647.53 463.438 647.434 462.992 647.434C462.547 647.434 462.143 647.53 461.779 647.724C461.422 647.911 461.138 648.181 460.927 648.532C460.722 648.878 460.619 649.279 460.619 649.736ZM460.883 655.08H462.834V658.666H471.693V660.248H460.883V655.08ZM481.88 647.275H485.079V644.691H487.031V656.258H485.079V652.25H481.88V653.621H474.41V646.01H481.88V647.275ZM479.947 652.092V647.557H476.361V652.092H479.947ZM476.554 655.186H478.54V658.666H487.382V660.248H476.554V655.186ZM485.079 650.686V648.875H481.88V650.686H485.079ZM502.157 656.17H500.188V644.691H502.157V656.17ZM489.202 649.701C489.202 648.945 489.389 648.266 489.764 647.662C490.145 647.059 490.661 646.587 491.311 646.247C491.968 645.901 492.694 645.729 493.491 645.729C494.288 645.729 495.011 645.901 495.662 646.247C496.318 646.587 496.831 647.059 497.2 647.662C497.575 648.266 497.762 648.945 497.762 649.701C497.762 650.469 497.575 651.157 497.2 651.767C496.831 652.37 496.318 652.842 495.662 653.182C495.011 653.521 494.288 653.691 493.491 653.691C492.694 653.691 491.968 653.521 491.311 653.182C490.661 652.842 490.145 652.37 489.764 651.767C489.389 651.157 489.202 650.469 489.202 649.701ZM491.118 649.701C491.118 650.158 491.218 650.56 491.417 650.905C491.622 651.251 491.903 651.518 492.26 651.705C492.624 651.893 493.034 651.986 493.491 651.986C493.936 651.986 494.338 651.893 494.695 651.705C495.052 651.518 495.334 651.251 495.539 650.905C495.744 650.56 495.846 650.158 495.846 649.701C495.846 649.256 495.744 648.86 495.539 648.515C495.334 648.169 495.05 647.902 494.686 647.715C494.329 647.527 493.93 647.434 493.491 647.434C493.04 647.434 492.633 647.527 492.269 647.715C491.906 647.902 491.622 648.169 491.417 648.515C491.218 648.86 491.118 649.256 491.118 649.701ZM491.645 655.01H493.614V658.666H502.596V660.248H491.645V655.01ZM510.041 646.941C510.035 647.65 510.179 648.327 510.472 648.972C510.765 649.61 511.198 650.176 511.773 650.668C512.353 651.16 513.053 651.535 513.873 651.793L512.906 653.34C512.01 653.041 511.233 652.602 510.577 652.021C509.927 651.441 509.417 650.756 509.048 649.965C508.685 650.82 508.169 651.562 507.501 652.188C506.833 652.815 506.039 653.287 505.119 653.604L504.135 652.074C504.967 651.793 505.673 651.389 506.253 650.861C506.839 650.328 507.281 649.725 507.58 649.051C507.879 648.377 508.025 647.674 508.02 646.941V645.43H510.041V646.941ZM506.508 654.904H517.354V660.564H515.385V656.469H506.508V654.904ZM515.385 644.674H517.354V654.184H515.385V644.674ZM536.497 660.564H534.528V644.674H536.497V660.564ZM523.331 656.188C525.382 655.215 526.92 654.052 527.945 652.698C528.976 651.345 529.583 649.748 529.764 647.908H524.139V646.361H531.751C531.751 648.887 531.179 651.102 530.037 653.006C528.894 654.91 526.999 656.492 524.35 657.752L523.331 656.188ZM546.666 645.184C546.666 645.746 546.895 646.282 547.352 646.792C547.809 647.296 548.45 647.727 549.277 648.084C550.109 648.436 551.067 648.67 552.151 648.787L551.5 650.264C550.152 650.111 548.966 649.78 547.941 649.271C546.921 648.755 546.156 648.11 545.647 647.337C545.137 648.11 544.372 648.755 543.353 649.271C542.333 649.78 541.158 650.111 539.828 650.264L539.16 648.787C540.244 648.67 541.202 648.436 542.034 648.084C542.872 647.727 543.52 647.296 543.977 646.792C544.434 646.282 544.662 645.746 544.662 645.184V644.762H546.666V645.184ZM538.422 651.055H552.906V652.602H546.613V653.832H551.096V657.77H542.061V658.93H551.535V660.424H540.145V656.363H549.18V655.326H540.127V653.832H544.662V652.602H538.422V651.055Z" fill="white"/>
<path fill-rule="evenodd" clip-rule="evenodd" d="M493.853 559.775C493.347 559.768 492.84 559.784 492.338 559.819C486.315 560.242 480.704 563.603 477.56 569.061C473.384 576.316 474.49 585.329 480.506 591.47C483.26 594.282 483.722 596.983 483.089 600.606L481.942 607.184C481.724 608.359 483.495 608.663 483.68 607.483L484.823 600.906C485.512 596.955 484.868 593.407 481.765 590.238C476.271 584.628 475.299 576.535 479.094 569.94C482.889 563.35 490.692 559.914 497.971 562.109C501.314 563.118 504.232 565.018 506.16 567.128C508.606 569.802 510.331 573.476 510.238 578.192C510.238 578.313 510.263 578.432 510.312 578.541L513.617 586.569C513.861 587.158 513.804 587.529 513.496 587.647L510.523 588.785C510.227 588.899 510.016 589.162 509.967 589.475L508.593 598.261C508.484 598.969 507.606 599.143 507.011 599.334C506.014 599.65 504.685 599.695 503.656 599.548L494.52 596.939C492.804 596.45 492.208 595.785 491.28 594.181C491.122 593.893 490.81 593.715 490.478 593.727C489.81 593.755 489.413 594.484 489.758 595.06C490.77 596.818 491.937 598.037 494.036 598.637L502.458 601.042L501.282 607.168C501.063 608.326 502.797 608.658 503.02 607.5L504.21 601.237C505.304 601.301 506.451 601.346 507.491 601.031C508.784 600.642 510.133 599.82 510.33 598.527L511.623 590.251L514.127 589.294C514.751 589.06 515.249 588.525 515.432 587.893C515.614 587.26 515.524 586.58 515.245 585.905L511.952 577.9C511.957 572.897 510.137 568.806 507.467 565.941C503.819 562.016 498.856 559.864 493.853 559.775Z" fill="white"/>
<path fill-rule="evenodd" clip-rule="evenodd" d="M531.956 572.641H534.119C534.719 572.641 535.172 573.09 535.172 573.69V595.686C535.172 596.283 534.72 596.736 534.119 596.736H531.956C531.36 596.736 530.906 596.283 530.906 595.686V573.69C530.906 573.09 531.36 572.641 531.956 572.641ZM531.956 570.875C530.413 570.875 529.145 572.147 529.145 573.69V595.686C529.145 597.231 530.413 598.498 531.956 598.498H534.119C535.667 598.498 536.934 597.231 536.934 595.686V573.69C536.934 572.147 535.667 570.875 534.119 570.875H531.956Z" fill="#3FA9F5"/>
<path d="M509.968 560.488C509.09 560.541 508.817 561.704 509.583 562.137L511.102 563.029C511.523 563.296 512.087 563.162 512.338 562.728C512.593 562.299 512.435 561.744 511.995 561.505L510.471 560.618C510.32 560.525 510.142 560.48 509.968 560.488Z" fill="#3FA9F5"/>
<path d="M514.53 563.162C513.655 563.211 513.383 564.373 514.146 564.806L515.668 565.698C516.09 565.946 516.627 565.804 516.876 565.387C517.123 564.964 516.985 564.422 516.564 564.176L515.036 563.287C514.887 563.195 514.707 563.15 514.53 563.162Z" fill="#3FA9F5"/>
<path d="M519.103 565.831C518.224 565.88 517.952 567.043 518.718 567.476L520.237 568.367C520.659 568.638 521.221 568.501 521.473 568.067C521.728 567.638 521.571 567.082 521.129 566.844L519.605 565.955C519.456 565.864 519.276 565.819 519.103 565.831Z" fill="#3FA9F5"/>
<path d="M523.664 568.505C522.789 568.554 522.518 569.72 523.28 570.154L524.803 571.045C525.224 571.292 525.763 571.15 526.01 570.728C526.257 570.312 526.119 569.769 525.699 569.521L524.172 568.627C524.016 568.538 523.843 568.493 523.664 568.505Z" fill="#3FA9F5"/>
<path d="M525.2 598.211C525.058 598.223 524.925 598.264 524.803 598.336L523.28 599.227C522.838 599.463 522.684 600.017 522.935 600.451C523.187 600.885 523.749 601.018 524.172 600.751L525.698 599.86C526.52 599.398 526.14 598.142 525.2 598.211Z" fill="#3FA9F5"/>
<path d="M520.632 600.88C520.49 600.892 520.356 600.936 520.238 601.01L518.719 601.898C518.279 602.132 518.12 602.691 518.371 603.12C518.627 603.554 519.186 603.687 519.607 603.42L521.13 602.529C521.952 602.067 521.572 600.811 520.632 600.88Z" fill="#3FA9F5"/>
<path d="M516.15 603.549C515.98 603.546 515.813 603.589 515.667 603.679L514.145 604.567C513.723 604.813 513.581 605.357 513.829 605.777C514.072 606.198 514.614 606.34 515.035 606.093L516.563 605.198C517.341 604.756 517.04 603.574 516.15 603.549Z" fill="#3FA9F5"/>
<path d="M511.496 606.228C511.357 606.24 511.223 606.281 511.102 606.354L509.583 607.245C509.141 607.48 508.983 608.036 509.235 608.469C509.49 608.899 510.05 609.035 510.47 608.765L511.994 607.877C512.816 607.411 512.434 606.155 511.496 606.228Z" fill="#3FA9F5"/>
</g>
</g>
</g>
<g style="mix-blend-mode:screen">
<path d="M907.061 561.207H909.275V562.824H907.061V566.164H905.109V557.674H907.061V561.207ZM895.195 558.658H902.262V560.24H897.129V564.143C898.699 564.137 899.953 564.102 900.891 564.037C901.834 563.967 902.76 563.832 903.668 563.633L903.879 565.215C902.877 565.42 901.849 565.558 900.794 565.628C899.745 565.698 898.307 565.736 896.479 565.742H895.195V558.658ZM896.76 566.955H898.711V568.59H905.109V566.955H907.061V573.336H896.76V566.955ZM905.109 571.754V570.137H898.711V571.754H905.109ZM923.031 569.416H921.079V565.426H917.88V566.832H910.445V558.729H912.396V561.295H915.947V558.729H917.88V560.434H921.079V557.691H923.031V569.416ZM915.947 565.285V562.807H912.396V565.285H915.947ZM912.554 568.256H914.54V571.666H923.382V573.248H912.554V568.256ZM921.079 563.844V562.016H917.88V563.844H921.079ZM939.423 567.465H933.288V570.207H931.354V567.465H924.903V565.9H939.423V567.465ZM926.661 568.871H928.594V571.666H937.823V573.248H926.661V568.871ZM926.801 558.184H928.735V559.977H935.591V558.184H937.524V564.652H926.801V558.184ZM935.591 563.105V561.436H928.735V563.105H935.591ZM945.883 560.188C945.883 560.879 946.024 561.541 946.305 562.174C946.592 562.801 947.014 563.36 947.57 563.853C948.133 564.339 948.813 564.711 949.609 564.969L948.555 566.533C947.705 566.234 946.973 565.798 946.357 565.224C945.748 564.649 945.271 563.973 944.925 563.193C944.567 564.043 944.064 564.781 943.413 565.408C942.769 566.029 941.998 566.504 941.102 566.832L940.047 565.268C940.885 564.992 941.594 564.594 942.174 564.072C942.754 563.545 943.188 562.938 943.475 562.253C943.768 561.562 943.914 560.832 943.914 560.064V558.5H945.883V560.188ZM942.596 567.887H953.424V573.564H951.473V569.434H942.596V567.887ZM948.309 560.768H951.473V557.674H953.424V567.113H951.473V562.367H948.309V560.768ZM972.497 573.564H970.528V557.674H972.497V573.564ZM959.331 569.188C961.382 568.215 962.92 567.052 963.945 565.698C964.976 564.345 965.583 562.748 965.764 560.908H960.139V559.361H967.751C967.751 561.887 967.179 564.102 966.037 566.006C964.894 567.91 962.999 569.492 960.35 570.752L959.331 569.188ZM982.666 558.184C982.666 558.746 982.895 559.282 983.352 559.792C983.809 560.296 984.45 560.727 985.277 561.084C986.109 561.436 987.067 561.67 988.151 561.787L987.5 563.264C986.152 563.111 984.966 562.78 983.941 562.271C982.921 561.755 982.156 561.11 981.647 560.337C981.137 561.11 980.372 561.755 979.353 562.271C978.333 562.78 977.158 563.111 975.828 563.264L975.16 561.787C976.244 561.67 977.202 561.436 978.034 561.084C978.872 560.727 979.52 560.296 979.977 559.792C980.434 559.282 980.662 558.746 980.662 558.184V557.762H982.666V558.184ZM974.422 564.055H988.906V565.602H982.613V566.832H987.096V570.77H978.061V571.93H987.535V573.424H976.145V569.363H985.18V568.326H976.127V566.832H980.662V565.602H974.422V564.055Z" fill="white"/>
<path d="M971.531 464.188H946.375C945.505 464.188 944.671 464.535 944.056 465.15C943.441 465.765 943.095 466.599 943.094 467.469V478.41H940.906V467.469C940.905 466.599 940.559 465.765 939.944 465.15C939.329 464.535 938.495 464.188 937.625 464.188H912.469C911.599 464.188 910.765 464.535 910.15 465.15C909.535 465.765 909.188 466.599 909.188 467.469V482.781C909.188 483.651 909.535 484.485 910.15 485.1C910.765 485.715 911.599 486.062 912.469 486.062H913.109L919.031 491.984V486.062H922.312V483.875H916.844V486.703L914.016 483.875H912.469C912.179 483.875 911.901 483.759 911.696 483.554C911.491 483.349 911.375 483.071 911.375 482.781V467.469C911.375 467.179 911.491 466.901 911.696 466.696C911.901 466.491 912.179 466.375 912.469 466.375H937.625C937.915 466.375 938.193 466.491 938.398 466.696C938.603 466.901 938.718 467.179 938.719 467.469V478.41H938.492L936.125 483.91L933.036 485.19L927.465 482.973L922.505 487.933L924.721 493.504L923.441 496.594L917.942 498.961V504.656H920.129V500.401L925.122 498.252L927.082 493.521L925.069 488.462L927.993 485.538L933.052 487.551L937.783 485.591L939.932 480.598H944.068L946.217 485.591L950.948 487.551L956.007 485.538L958.931 488.462L956.918 493.521L958.878 498.252L963.871 500.401V504.656H966.058V498.961L960.559 496.594L959.279 493.504L961.496 487.933L956.536 482.973L950.964 485.19L947.875 483.91L945.508 478.41H945.281V467.469C945.282 467.179 945.397 466.901 945.602 466.696C945.807 466.491 946.085 466.375 946.375 466.375H971.531C971.821 466.375 972.099 466.491 972.304 466.696C972.509 466.901 972.625 467.179 972.625 467.469V482.781C972.625 483.071 972.509 483.349 972.304 483.554C972.099 483.759 971.821 483.875 971.531 483.875H969.984L967.156 486.703V483.875H961.688V486.062H964.969V491.984L970.891 486.062H971.531C972.401 486.062 973.235 485.715 973.85 485.1C974.465 484.485 974.812 483.651 974.812 482.781V467.469C974.812 466.599 974.465 465.765 973.85 465.15C973.235 464.535 972.401 464.188 971.531 464.188Z" fill="white"/>
<path d="M970.438 469.656H947.469V471.844H970.438V469.656Z" fill="#3FA9F5"/>
<path d="M970.438 474.031H947.469V476.219H970.438V474.031Z" fill="#3FA9F5"/>
<path d="M961.688 478.406H949.656V480.594H961.688V478.406Z" fill="#3FA9F5"/>
<path d="M958.071 502.469H957.273C956.996 498.607 955.267 494.993 952.433 492.355C949.599 489.717 945.871 488.25 941.999 488.25C938.127 488.25 934.399 489.717 931.565 492.355C928.731 494.993 927.002 498.607 926.725 502.469H925.928C925.458 502.469 924.993 502.57 924.565 502.765C924.138 502.96 923.757 503.245 923.449 503.6C923.141 503.955 922.913 504.373 922.78 504.823C922.647 505.274 922.613 505.749 922.679 506.214L923.225 510.035C923.309 510.639 923.561 511.207 923.952 511.676C924.343 512.144 924.857 512.493 925.436 512.684L926.107 512.908C926.305 512.974 926.48 513.096 926.611 513.258C926.742 513.42 926.825 513.617 926.848 513.824L927.346 518.303C927.496 519.688 928.085 520.989 929.027 522.017C929.968 523.044 931.214 523.743 932.581 524.013L933.249 524.147V529.812H935.437V524.147C935.436 523.641 935.26 523.152 934.94 522.761C934.619 522.37 934.174 522.102 933.678 522.002L933.01 521.868C932.098 521.688 931.268 521.222 930.64 520.537C930.013 519.852 929.62 518.985 929.52 518.061L929.022 513.583C928.952 512.96 928.705 512.371 928.311 511.883C927.917 511.396 927.393 511.031 926.799 510.832L926.128 510.609C925.935 510.545 925.763 510.429 925.633 510.272C925.503 510.116 925.419 509.927 925.391 509.726L924.845 505.905C924.823 505.749 924.834 505.591 924.879 505.441C924.923 505.291 924.999 505.152 925.101 505.033C925.204 504.915 925.331 504.82 925.474 504.755C925.616 504.69 925.771 504.656 925.928 504.656H927.781L928.874 504.652V503.558C928.875 500.077 930.258 496.739 932.72 494.278C935.182 491.817 938.52 490.435 942.001 490.435C945.482 490.436 948.821 491.819 951.282 494.281C953.743 496.743 955.125 500.082 955.124 503.562V504.656H958.071C958.227 504.656 958.382 504.69 958.525 504.755C958.667 504.82 958.794 504.915 958.897 505.033C959 505.152 959.076 505.291 959.12 505.441C959.164 505.591 959.176 505.749 959.154 505.905L958.608 509.726C958.58 509.927 958.496 510.116 958.365 510.273C958.235 510.429 958.064 510.545 957.871 510.609L957.2 510.832C956.606 511.031 956.081 511.396 955.687 511.883C955.293 512.371 955.047 512.96 954.976 513.583L954.479 518.061C954.379 518.985 953.986 519.852 953.358 520.537C952.73 521.222 951.9 521.688 950.989 521.868L950.32 522.002C949.825 522.102 949.379 522.37 949.059 522.761C948.739 523.152 948.563 523.641 948.562 524.147V529.812H950.749V524.147L951.418 524.013C952.785 523.743 954.03 523.044 954.972 522.017C955.914 520.989 956.503 519.688 956.653 518.303L957.151 513.824C957.174 513.617 957.256 513.42 957.388 513.258C957.519 513.096 957.694 512.974 957.892 512.908L958.563 512.684C959.142 512.493 959.656 512.144 960.047 511.676C960.437 511.207 960.689 510.639 960.773 510.035L961.319 506.214C961.386 505.749 961.351 505.274 961.219 504.823C961.086 504.373 960.858 503.955 960.55 503.6C960.242 503.245 959.861 502.96 959.433 502.765C959.006 502.57 958.541 502.469 958.071 502.469Z" fill="white"/>
<path d="M936.531 469.656H913.562V471.844H936.531V469.656Z" fill="#3FA9F5"/>
<path d="M936.531 474.031H913.562V476.219H936.531V474.031Z" fill="#3FA9F5"/>
<path d="M929.969 478.406H913.562V480.594H929.969V478.406Z" fill="#3FA9F5"/>
</g>
<g style="mix-blend-mode:screen">
<path d="M174.346 469.959C174.34 470.691 174.478 471.386 174.759 472.042C175.046 472.692 175.471 473.267 176.033 473.765C176.596 474.257 177.281 474.629 178.09 474.881L177.035 476.41C176.186 476.105 175.456 475.675 174.847 475.118C174.237 474.562 173.76 473.899 173.414 473.132C173.057 474.017 172.544 474.784 171.876 475.435C171.208 476.079 170.402 476.568 169.459 476.902L168.422 475.32C169.277 475.039 170.001 474.632 170.593 474.099C171.185 473.565 171.627 472.953 171.92 472.262C172.219 471.564 172.371 470.826 172.377 470.047V468.535H174.346V469.959ZM171.059 480.506C171.053 479.867 171.267 479.319 171.7 478.862C172.134 478.399 172.755 478.048 173.563 477.808C174.378 477.567 175.342 477.447 176.455 477.447C177.574 477.447 178.541 477.567 179.355 477.808C180.17 478.048 180.794 478.399 181.228 478.862C181.667 479.319 181.887 479.867 181.887 480.506C181.887 481.145 181.667 481.692 181.228 482.149C180.794 482.606 180.17 482.952 179.355 483.187C178.541 483.427 177.574 483.547 176.455 483.547C175.342 483.547 174.378 483.427 173.563 483.187C172.755 482.952 172.134 482.606 171.7 482.149C171.267 481.692 171.053 481.145 171.059 480.506ZM172.992 480.506C172.986 480.986 173.285 481.358 173.889 481.622C174.492 481.88 175.348 482.012 176.455 482.018C177.568 482.012 178.427 481.88 179.03 481.622C179.634 481.358 179.936 480.986 179.936 480.506C179.936 480.008 179.634 479.627 179.03 479.363C178.433 479.1 177.574 478.965 176.455 478.959C175.342 478.965 174.483 479.1 173.88 479.363C173.282 479.627 172.986 480.008 172.992 480.506ZM176.719 470.75H179.883V467.674H181.834V477.025H179.883V472.35H176.719V470.75ZM198.419 471.752H196.257V473.562H198.419V475.162H196.257V477.816H194.306V467.674H196.257V470.152H198.419V471.752ZM183.742 469.291H187.486V467.568H189.437V469.291H193.163V470.82H183.742V469.291ZM184.55 474.301C184.55 473.738 184.714 473.243 185.042 472.815C185.37 472.388 185.828 472.054 186.413 471.813C187.005 471.573 187.685 471.453 188.453 471.453C189.208 471.453 189.879 471.573 190.465 471.813C191.057 472.054 191.517 472.388 191.845 472.815C192.173 473.243 192.337 473.738 192.337 474.301C192.337 474.863 192.173 475.358 191.845 475.786C191.517 476.214 191.057 476.545 190.465 476.779C189.879 477.014 189.208 477.131 188.453 477.131C187.685 477.131 187.005 477.014 186.413 476.779C185.828 476.545 185.37 476.214 185.042 475.786C184.714 475.358 184.55 474.863 184.55 474.301ZM185.816 480.752C185.81 480.166 186.018 479.665 186.44 479.249C186.868 478.827 187.48 478.508 188.277 478.291C189.079 478.068 190.029 477.957 191.124 477.957C192.208 477.957 193.149 478.068 193.946 478.291C194.743 478.508 195.355 478.827 195.783 479.249C196.216 479.671 196.433 480.172 196.433 480.752C196.433 481.332 196.216 481.83 195.783 482.246C195.355 482.668 194.743 482.99 193.946 483.213C193.149 483.436 192.208 483.547 191.124 483.547C190.029 483.547 189.079 483.436 188.277 483.213C187.48 482.99 186.868 482.668 186.44 482.246C186.018 481.83 185.81 481.332 185.816 480.752ZM186.449 474.301C186.443 474.723 186.619 475.054 186.976 475.294C187.333 475.534 187.814 475.654 188.417 475.654C189.044 475.654 189.542 475.537 189.911 475.303C190.286 475.062 190.474 474.729 190.474 474.301C190.474 473.867 190.289 473.524 189.92 473.272C189.551 473.021 189.062 472.895 188.453 472.895C187.843 472.895 187.354 473.021 186.985 473.272C186.621 473.524 186.443 473.867 186.449 474.301ZM187.749 480.752C187.744 481.174 188.034 481.499 188.619 481.728C189.205 481.956 190.04 482.07 191.124 482.07C192.197 482.07 193.023 481.956 193.603 481.728C194.183 481.499 194.476 481.174 194.482 480.752C194.476 480.324 194.186 480.002 193.612 479.785C193.037 479.562 192.208 479.451 191.124 479.451C190.029 479.451 189.191 479.562 188.611 479.785C188.031 480.002 187.744 480.324 187.749 480.752ZM213.423 477.465H207.288V480.207H205.354V477.465H198.903V475.9H213.423V477.465ZM200.661 478.871H202.594V481.666H211.823V483.248H200.661V478.871ZM200.801 468.184H202.735V469.977H209.591V468.184H211.524V474.652H200.801V468.184ZM209.591 473.105V471.436H202.735V473.105H209.591ZM219.883 470.188C219.883 470.879 220.024 471.541 220.305 472.174C220.592 472.801 221.014 473.36 221.57 473.853C222.133 474.339 222.813 474.711 223.609 474.969L222.555 476.533C221.705 476.234 220.973 475.798 220.357 475.224C219.748 474.649 219.271 473.973 218.925 473.193C218.567 474.043 218.064 474.781 217.413 475.408C216.769 476.029 215.998 476.504 215.102 476.832L214.047 475.268C214.885 474.992 215.594 474.594 216.174 474.072C216.754 473.545 217.188 472.938 217.475 472.253C217.768 471.562 217.914 470.832 217.914 470.064V468.5H219.883V470.188ZM216.596 477.887H227.424V483.564H225.473V479.434H216.596V477.887ZM222.309 470.768H225.473V467.674H227.424V477.113H225.473V472.367H222.309V470.768ZM246.497 483.564H244.528V467.674H246.497V483.564ZM233.331 479.188C235.382 478.215 236.92 477.052 237.945 475.698C238.976 474.345 239.583 472.748 239.764 470.908H234.139V469.361H241.751C241.751 471.887 241.179 474.102 240.037 476.006C238.894 477.91 236.999 479.492 234.35 480.752L233.331 479.188ZM256.666 468.184C256.666 468.746 256.895 469.282 257.352 469.792C257.809 470.296 258.45 470.727 259.277 471.084C260.109 471.436 261.067 471.67 262.151 471.787L261.5 473.264C260.152 473.111 258.966 472.78 257.941 472.271C256.921 471.755 256.156 471.11 255.647 470.337C255.137 471.11 254.372 471.755 253.353 472.271C252.333 472.78 251.158 473.111 249.828 473.264L249.16 471.787C250.244 471.67 251.202 471.436 252.034 471.084C252.872 470.727 253.52 470.296 253.977 469.792C254.434 469.282 254.662 468.746 254.662 468.184V467.762H256.666V468.184ZM248.422 474.055H262.906V475.602H256.613V476.832H261.096V480.77H252.061V481.93H261.535V483.424H250.145V479.363H259.18V478.326H250.127V476.832H254.662V475.602H248.422V474.055Z" fill="white"/>
<path d="M194.08 411.384C191.961 411.384 190.244 413.101 190.244 415.22C190.244 417.338 191.961 419.056 194.08 419.056H194.628C194.628 428.74 202.479 436.591 212.163 436.591C221.848 436.591 229.698 428.74 229.698 419.056H230.246C232.365 419.056 234.082 417.338 234.082 415.22C234.082 413.101 232.365 411.384 230.246 411.384" stroke="white" stroke-width="2" stroke-miterlimit="10" stroke-linecap="round" stroke-linejoin="round"/>
<path d="M204.491 389.242C197.49 391.543 192.436 398.133 192.436 405.904V411.384" stroke="white" stroke-width="2" stroke-miterlimit="10" stroke-linecap="round" stroke-linejoin="round"/>
<path d="M199.012 440.975V430.837" stroke="white" stroke-width="2" stroke-miterlimit="10" stroke-linecap="round" stroke-linejoin="round"/>
<path d="M225.314 440.975V430.837" stroke="white" stroke-width="2" stroke-miterlimit="10" stroke-linecap="round" stroke-linejoin="round"/>
<path d="M225.802 379.601C226.179 378.954 226.41 378.212 226.41 377.41C226.41 374.988 224.448 373.026 222.027 373.026C219.605 373.026 217.643 374.988 217.643 377.41C217.643 378.212 217.874 378.954 218.251 379.601H211.067C209.857 379.601 208.875 380.583 208.875 381.793V388.977C209.522 388.6 210.264 388.369 211.067 388.369C213.488 388.369 215.451 390.332 215.451 392.753C215.451 395.174 213.488 397.137 211.067 397.137C210.264 397.137 209.522 396.905 208.875 396.529V403.712C208.875 404.923 209.857 405.904 211.067 405.904H218.251C217.874 405.257 217.643 404.515 217.643 403.712C217.643 401.291 219.605 399.329 222.027 399.329C224.448 399.329 226.41 401.291 226.41 403.712C226.41 404.515 226.179 405.257 225.802 405.904H232.986C234.197 405.904 235.178 404.923 235.178 403.712V396.529C235.825 396.905 236.567 397.137 237.37 397.137C239.791 397.137 241.754 395.174 241.754 392.753C241.754 390.332 239.791 388.369 237.37 388.369C236.567 388.369 235.825 388.6 235.178 388.977V381.793C235.178 380.583 234.197 379.601 232.986 379.601H230.794" stroke="#3FA9F5" stroke-width="2" stroke-miterlimit="10" stroke-linecap="round" stroke-linejoin="round"/>
</g>
</g>
<defs>
<filter id="filter0_b_1502_984" x="122.693" y="182.837" width="912.809" height="676.818" filterUnits="userSpaceOnUse" color-interpolation-filters="sRGB">
<feFlood flood-opacity="0" result="BackgroundImageFix"/>
<feGaussianBlur in="BackgroundImageFix" stdDeviation="2"/>
<feComposite in2="SourceAlpha" operator="in" result="effect1_backgroundBlur_1502_984"/>
<feBlend mode="normal" in="SourceGraphic" in2="effect1_backgroundBlur_1502_984" result="shape"/>
</filter>
<linearGradient id="paint0_linear_1502_984" x1="591.575" y1="663.155" x2="591.575" y2="376.831" gradientUnits="userSpaceOnUse">
<stop stop-color="#3FA9F5"/>
<stop offset="1" stop-color="#008BD9"/>
</linearGradient>
<linearGradient id="paint1_linear_1502_984" x1="519.994" y1="736.065" x2="519.994" y2="519.993" gradientUnits="userSpaceOnUse">
<stop stop-color="#3FA9F5"/>
<stop offset="1" stop-color="#008BD9"/>
</linearGradient>
<linearGradient id="paint2_linear_1502_984" x1="553.508" y1="805.436" x2="553.508" y2="234.576" gradientUnits="userSpaceOnUse">
<stop stop-color="#3FA9F5"/>
<stop offset="1" stop-color="#008BD9"/>
</linearGradient>
<linearGradient id="paint3_linear_1502_984" x1="519.999" y1="869.881" x2="519.999" y2="170.106" gradientUnits="userSpaceOnUse">
<stop stop-color="#3FA9F5"/>
<stop offset="1" stop-color="#008BD9"/>
</linearGradient>
<linearGradient id="paint4_linear_1502_984" x1="731.619" y1="943.244" x2="731.619" y2="96.7427" gradientUnits="userSpaceOnUse">
<stop stop-color="#3FA9F5"/>
<stop offset="1" stop-color="#008BD9"/>
</linearGradient>
<linearGradient id="paint5_linear_1502_984" x1="765.631" y1="1011.27" x2="765.631" y2="28.7203" gradientUnits="userSpaceOnUse">
<stop stop-color="#3FA9F5"/>
<stop offset="1" stop-color="#008BD9"/>
</linearGradient>
<linearGradient id="paint6_linear_1502_984" x1="519.492" y1="1033.5" x2="519.492" y2="519.994" gradientUnits="userSpaceOnUse">
<stop stop-color="#3FA9F5"/>
<stop offset="1" stop-color="#008BD9"/>
</linearGradient>
<linearGradient id="paint7_linear_1502_984" x1="519.993" y1="1040" x2="519.993" y2="1029.77" gradientUnits="userSpaceOnUse">
<stop stop-color="#3FA9F5"/>
<stop offset="1" stop-color="#008BD9"/>
</linearGradient>
<linearGradient id="paint8_linear_1502_984" x1="777.446" y1="971.021" x2="777.446" y2="960.792" gradientUnits="userSpaceOnUse">
<stop stop-color="#3FA9F5"/>
<stop offset="1" stop-color="#008BD9"/>
</linearGradient>
<linearGradient id="paint9_linear_1502_984" x1="742.344" y1="776.754" x2="742.344" y2="519.994" gradientUnits="userSpaceOnUse">
<stop stop-color="#3FA9F5"/>
<stop offset="1" stop-color="#008BD9"/>
</linearGradient>
<linearGradient id="paint10_linear_1502_984" x1="965.905" y1="782.561" x2="965.905" y2="772.332" gradientUnits="userSpaceOnUse">
<stop stop-color="#3FA9F5"/>
<stop offset="1" stop-color="#008BD9"/>
</linearGradient>
<linearGradient id="paint11_linear_1502_984" x1="776.747" y1="519.993" x2="776.747" y2="518.993" gradientUnits="userSpaceOnUse">
<stop stop-color="#3FA9F5"/>
<stop offset="1" stop-color="#008BD9"/>
</linearGradient>
<linearGradient id="paint12_linear_1502_984" x1="1034.89" y1="525.107" x2="1034.89" y2="514.879" gradientUnits="userSpaceOnUse">
<stop stop-color="#3FA9F5"/>
<stop offset="1" stop-color="#008BD9"/>
</linearGradient>
<linearGradient id="paint13_linear_1502_984" x1="742.344" y1="519.994" x2="742.344" y2="263.247" gradientUnits="userSpaceOnUse">
<stop stop-color="#3FA9F5"/>
<stop offset="1" stop-color="#008BD9"/>
</linearGradient>
<linearGradient id="paint14_linear_1502_984" x1="965.905" y1="267.669" x2="965.905" y2="257.44" gradientUnits="userSpaceOnUse">
<stop stop-color="#3FA9F5"/>
<stop offset="1" stop-color="#008BD9"/>
</linearGradient>
<linearGradient id="paint15_linear_1502_984" x1="519.494" y1="519.994" x2="519.494" y2="138.969" gradientUnits="userSpaceOnUse">
<stop stop-color="#3FA9F5"/>
<stop offset="1" stop-color="#008BD9"/>
</linearGradient>
<linearGradient id="paint16_linear_1502_984" x1="519.993" y1="141.726" x2="519.993" y2="131.495" gradientUnits="userSpaceOnUse">
<stop stop-color="#3FA9F5"/>
<stop offset="1" stop-color="#008BD9"/>
</linearGradient>
<linearGradient id="paint17_linear_1502_984" x1="391.621" y1="519.994" x2="391.621" y2="75.2911" gradientUnits="userSpaceOnUse">
<stop stop-color="#3FA9F5"/>
<stop offset="1" stop-color="#008BD9"/>
</linearGradient>
<linearGradient id="paint18_linear_1502_984" x1="262.554" y1="79.209" x2="262.554" y2="68.9804" gradientUnits="userSpaceOnUse">
<stop stop-color="#3FA9F5"/>
<stop offset="1" stop-color="#008BD9"/>
</linearGradient>
<linearGradient id="paint19_linear_1502_984" x1="353.164" y1="519.994" x2="353.164" y2="327.357" gradientUnits="userSpaceOnUse">
<stop stop-color="#3FA9F5"/>
<stop offset="1" stop-color="#008BD9"/>
</linearGradient>
<linearGradient id="paint20_linear_1502_984" x1="185.436" y1="330.675" x2="185.436" y2="323" gradientUnits="userSpaceOnUse">
<stop stop-color="#3FA9F5"/>
<stop offset="1" stop-color="#008BD9"/>
</linearGradient>
<linearGradient id="paint21_linear_1502_984" x1="332.21" y1="519.554" x2="332.21" y2="518.554" gradientUnits="userSpaceOnUse">
<stop stop-color="#3FA9F5"/>
<stop offset="1" stop-color="#008BD9"/>
</linearGradient>
<linearGradient id="paint22_linear_1502_984" x1="140.144" y1="525.108" x2="140.144" y2="514.88" gradientUnits="userSpaceOnUse">
<stop stop-color="#3FA9F5"/>
<stop offset="1" stop-color="#008BD9"/>
</linearGradient>
<linearGradient id="paint23_linear_1502_984" x1="93.1009" y1="450.005" x2="93.1009" y2="449.005" gradientUnits="userSpaceOnUse">
<stop stop-color="#3FA9F5"/>
<stop offset="1" stop-color="#008BD9"/>
</linearGradient>
<linearGradient id="paint24_linear_1502_984" x1="5.11542" y1="455.56" x2="5.11542" y2="445.331" gradientUnits="userSpaceOnUse">
<stop stop-color="#3FA9F5"/>
<stop offset="1" stop-color="#008BD9"/>
</linearGradient>
<linearGradient id="paint25_linear_1502_984" x1="297.643" y1="776.754" x2="297.643" y2="519.994" gradientUnits="userSpaceOnUse">
<stop stop-color="#3FA9F5"/>
<stop offset="1" stop-color="#008BD9"/>
</linearGradient>
<linearGradient id="paint26_linear_1502_984" x1="74.0947" y1="782.561" x2="74.0947" y2="772.332" gradientUnits="userSpaceOnUse">
<stop stop-color="#3FA9F5"/>
<stop offset="1" stop-color="#008BD9"/>
</linearGradient>
<linearGradient id="paint27_linear_1502_984" x1="391.621" y1="964.697" x2="391.621" y2="519.994" gradientUnits="userSpaceOnUse">
<stop stop-color="#3FA9F5"/>
<stop offset="1" stop-color="#008BD9"/>
</linearGradient>
<linearGradient id="paint28_linear_1502_984" x1="262.554" y1="971.021" x2="262.554" y2="960.792" gradientUnits="userSpaceOnUse">
<stop stop-color="#3FA9F5"/>
<stop offset="1" stop-color="#008BD9"/>
</linearGradient>
<linearGradient id="paint29_linear_1502_984" x1="506.462" y1="854.355" x2="506.462" y2="702.172" gradientUnits="userSpaceOnUse">
<stop stop-color="#4D98D2" stop-opacity="0.24"/>
<stop offset="1" stop-color="#63FFEC" stop-opacity="0.06"/>
</linearGradient>
<linearGradient id="paint30_linear_1502_984" x1="506.462" y1="854.355" x2="506.462" y2="702.172" gradientUnits="userSpaceOnUse">
<stop stop-color="#3FA9F5"/>
<stop offset="1" stop-color="#008BD9"/>
</linearGradient>
<linearGradient id="paint31_linear_1502_984" x1="506.462" y1="683.009" x2="506.462" y2="530.825" gradientUnits="userSpaceOnUse">
<stop stop-color="#4D98D2" stop-opacity="0.24"/>
<stop offset="1" stop-color="#63FFEC" stop-opacity="0.06"/>
</linearGradient>
<linearGradient id="paint32_linear_1502_984" x1="506.462" y1="683.009" x2="506.462" y2="530.825" gradientUnits="userSpaceOnUse">
<stop stop-color="#3FA9F5"/>
<stop offset="1" stop-color="#008BD9"/>
</linearGradient>
<linearGradient id="paint33_linear_1502_984" x1="505.685" y1="511.662" x2="505.685" y2="359.479" gradientUnits="userSpaceOnUse">
<stop stop-color="#4D98D2" stop-opacity="0.24"/>
<stop offset="1" stop-color="#63FFEC" stop-opacity="0.06"/>
</linearGradient>
<linearGradient id="paint34_linear_1502_984" x1="505.685" y1="511.662" x2="505.685" y2="359.479" gradientUnits="userSpaceOnUse">
<stop stop-color="#3FA9F5"/>
<stop offset="1" stop-color="#008BD9"/>
</linearGradient>
<linearGradient id="paint35_linear_1502_984" x1="216.066" y1="511.662" x2="216.066" y2="359.479" gradientUnits="userSpaceOnUse">
<stop stop-color="#4D98D2" stop-opacity="0.24"/>
<stop offset="1" stop-color="#63FFEC" stop-opacity="0.06"/>
</linearGradient>
<linearGradient id="paint36_linear_1502_984" x1="216.066" y1="511.662" x2="216.066" y2="359.479" gradientUnits="userSpaceOnUse">
<stop stop-color="#3FA9F5"/>
<stop offset="1" stop-color="#008BD9"/>
</linearGradient>
<linearGradient id="paint37_linear_1502_984" x1="505.685" y1="340.32" x2="505.685" y2="188.137" gradientUnits="userSpaceOnUse">
<stop stop-color="#4D98D2" stop-opacity="0.24"/>
<stop offset="1" stop-color="#63FFEC" stop-opacity="0.06"/>
</linearGradient>
<linearGradient id="paint38_linear_1502_984" x1="505.685" y1="340.32" x2="505.685" y2="188.137" gradientUnits="userSpaceOnUse">
<stop stop-color="#3FA9F5"/>
<stop offset="1" stop-color="#008BD9"/>
</linearGradient>
<linearGradient id="paint39_linear_1502_984" x1="651.169" y1="599.202" x2="651.169" y2="447.003" gradientUnits="userSpaceOnUse">
<stop stop-color="#4D98D2" stop-opacity="0.24"/>
<stop offset="1" stop-color="#63FFEC" stop-opacity="0.06"/>
</linearGradient>
<linearGradient id="paint40_linear_1502_984" x1="651.169" y1="599.202" x2="651.169" y2="447.003" gradientUnits="userSpaceOnUse">
<stop stop-color="#3FA9F5"/>
<stop offset="1" stop-color="#008BD9"/>
</linearGradient>
<linearGradient id="paint41_linear_1502_984" x1="652.247" y1="427.605" x2="652.247" y2="275.422" gradientUnits="userSpaceOnUse">
<stop stop-color="#4D98D2" stop-opacity="0.24"/>
<stop offset="1" stop-color="#63FFEC" stop-opacity="0.06"/>
</linearGradient>
<linearGradient id="paint42_linear_1502_984" x1="652.247" y1="427.605" x2="652.247" y2="275.422" gradientUnits="userSpaceOnUse">
<stop stop-color="#3FA9F5"/>
<stop offset="1" stop-color="#008BD9"/>
</linearGradient>
<linearGradient id="paint43_linear_1502_984" x1="942.136" y1="598.952" x2="942.136" y2="446.753" gradientUnits="userSpaceOnUse">
<stop stop-color="#4D98D2" stop-opacity="0.24"/>
<stop offset="1" stop-color="#63FFEC" stop-opacity="0.06"/>
</linearGradient>
<linearGradient id="paint44_linear_1502_984" x1="942.136" y1="598.952" x2="942.136" y2="446.753" gradientUnits="userSpaceOnUse">
<stop stop-color="#3FA9F5"/>
<stop offset="1" stop-color="#008BD9"/>
</linearGradient>
<linearGradient id="paint45_linear_1502_984" x1="798.736" y1="683.009" x2="798.736" y2="530.825" gradientUnits="userSpaceOnUse">
<stop stop-color="#4D98D2" stop-opacity="0.24"/>
<stop offset="1" stop-color="#63FFEC" stop-opacity="0.06"/>
</linearGradient>
<linearGradient id="paint46_linear_1502_984" x1="798.736" y1="683.009" x2="798.736" y2="530.825" gradientUnits="userSpaceOnUse">
<stop stop-color="#3FA9F5"/>
<stop offset="1" stop-color="#008BD9"/>
</linearGradient>
<linearGradient id="paint47_linear_1502_984" x1="794.49" y1="511.662" x2="794.49" y2="359.479" gradientUnits="userSpaceOnUse">
<stop stop-color="#4D98D2" stop-opacity="0.24"/>
<stop offset="1" stop-color="#63FFEC" stop-opacity="0.06"/>
</linearGradient>
<linearGradient id="paint48_linear_1502_984" x1="794.49" y1="511.662" x2="794.49" y2="359.479" gradientUnits="userSpaceOnUse">
<stop stop-color="#3FA9F5"/>
<stop offset="1" stop-color="#008BD9"/>
</linearGradient>
<linearGradient id="paint49_linear_1502_984" x1="360.894" y1="768.144" x2="360.894" y2="615.945" gradientUnits="userSpaceOnUse">
<stop stop-color="#4D98D2" stop-opacity="0.24"/>
<stop offset="1" stop-color="#63FFEC" stop-opacity="0.06"/>
</linearGradient>
<linearGradient id="paint50_linear_1502_984" x1="360.894" y1="768.144" x2="360.894" y2="615.945" gradientUnits="userSpaceOnUse">
<stop stop-color="#3FA9F5"/>
<stop offset="1" stop-color="#008BD9"/>
</linearGradient>
<linearGradient id="paint51_linear_1502_984" x1="359.384" y1="598.083" x2="359.384" y2="445.899" gradientUnits="userSpaceOnUse">
<stop stop-color="#4D98D2" stop-opacity="0.24"/>
<stop offset="1" stop-color="#63FFEC" stop-opacity="0.06"/>
</linearGradient>
<linearGradient id="paint52_linear_1502_984" x1="359.384" y1="598.083" x2="359.384" y2="445.899" gradientUnits="userSpaceOnUse">
<stop stop-color="#3FA9F5"/>
<stop offset="1" stop-color="#008BD9"/>
</linearGradient>
<linearGradient id="paint53_linear_1502_984" x1="359.384" y1="427.605" x2="359.384" y2="275.422" gradientUnits="userSpaceOnUse">
<stop stop-color="#4D98D2" stop-opacity="0.24"/>
<stop offset="1" stop-color="#63FFEC" stop-opacity="0.06"/>
</linearGradient>
<linearGradient id="paint54_linear_1502_984" x1="359.384" y1="427.605" x2="359.384" y2="275.422" gradientUnits="userSpaceOnUse">
<stop stop-color="#3FA9F5"/>
<stop offset="1" stop-color="#008BD9"/>
</linearGradient>
<linearGradient id="paint55_linear_1502_984" x1="651.48" y1="768.144" x2="651.48" y2="615.945" gradientUnits="userSpaceOnUse">
<stop stop-color="#4D98D2" stop-opacity="0.24"/>
<stop offset="1" stop-color="#63FFEC" stop-opacity="0.06"/>
</linearGradient>
<linearGradient id="paint56_linear_1502_984" x1="651.48" y1="768.144" x2="651.48" y2="615.945" gradientUnits="userSpaceOnUse">
<stop stop-color="#3FA9F5"/>
<stop offset="1" stop-color="#008BD9"/>
</linearGradient>
<clipPath id="clip0_1502_984">
<rect width="1040" height="1040" fill="white" transform="translate(1040 1040) rotate(180)"/>
</clipPath>
<clipPath id="clip1_1502_984">
<rect width="70" height="70" fill="white" transform="translate(324 462)"/>
</clipPath>
<clipPath id="clip2_1502_984">
<rect width="70" height="70" fill="white" transform="translate(471 714)"/>
</clipPath>
<clipPath id="clip3_1502_984">
<rect width="85" height="58" fill="white" transform="translate(756 555)"/>
</clipPath>
</defs>
</svg>
