<svg width="375" height="574" viewBox="0 0 375 574" fill="none" xmlns="http://www.w3.org/2000/svg">
<g style="mix-blend-mode:screen" clip-path="url(#clip0_1581_1457)">
<g style="mix-blend-mode:overlay">
<path d="M177.997 366.011C221.638 366.011 257.012 330.637 257.012 286.996C257.012 243.356 221.638 207.982 177.997 207.982" stroke="url(#paint0_linear_1581_1457)" stroke-width="0.603077" stroke-miterlimit="10"/>
</g>
<g style="mix-blend-mode:overlay">
<path d="M58.7417 286.997C58.7417 352.857 112.136 406.252 177.997 406.252C243.857 406.252 297.252 352.857 297.252 286.997" stroke="url(#paint1_linear_1581_1457)" stroke-width="0.603077" stroke-miterlimit="10"/>
</g>
<g style="mix-blend-mode:overlay">
<path d="M134.383 438.42C148.233 442.404 162.868 444.538 177.996 444.538C264.999 444.538 335.531 374.006 335.531 287.003C335.531 200 264.999 129.468 177.996 129.468C129.628 129.468 86.356 151.264 57.4547 185.574" stroke="url(#paint2_linear_1581_1457)" stroke-width="0.753846" stroke-miterlimit="10"/>
</g>
<g style="mix-blend-mode:overlay">
<path d="M177.996 93.8857C71.3452 93.8857 -15.1153 180.346 -15.1153 286.997C-15.1153 393.647 71.3452 480.107 177.996 480.107C262.037 480.107 333.535 426.428 360.08 351.48C367.22 331.311 371.113 309.606 371.113 286.99" stroke="url(#paint3_linear_1581_1457)" stroke-width="0.603077" stroke-miterlimit="10"/>
</g>
<g style="mix-blend-mode:overlay">
<path d="M177.996 520.599C307.012 520.599 411.598 416.013 411.598 286.997C411.598 157.98 307.012 53.3949 177.996 53.395" stroke="url(#paint4_linear_1581_1457)" stroke-width="0.603077" stroke-miterlimit="10"/>
</g>
<g style="mix-blend-mode:overlay">
<path d="M177.998 558.142C327.746 558.142 449.143 436.745 449.143 286.997C449.143 137.248 327.746 15.8517 177.998 15.8517" stroke="url(#paint5_linear_1581_1457)" stroke-width="0.603077" stroke-miterlimit="10"/>
</g>
<g style="mix-blend-mode:overlay">
<path d="M177.998 570.412L177.998 286.996" stroke="url(#paint6_linear_1581_1457)" stroke-width="0.603077" stroke-miterlimit="10"/>
<path d="M177.998 568.355C176.439 568.355 175.175 569.618 175.175 571.177C175.175 572.736 176.439 574 177.998 574C179.557 574 180.82 572.736 180.82 571.177C180.82 569.618 179.557 568.355 177.998 568.355Z" fill="url(#paint7_linear_1581_1457)"/>
</g>
<g style="mix-blend-mode:overlay">
<path d="M320.091 530.283C318.532 530.283 317.269 531.547 317.269 533.106C317.269 534.665 318.532 535.929 320.091 535.929C321.65 535.929 322.914 534.665 322.914 533.106C322.914 531.547 321.65 530.283 320.091 530.283Z" fill="url(#paint8_linear_1581_1457)"/>
</g>
<g style="mix-blend-mode:overlay">
<path d="M423.438 428.708L177.996 286.997" stroke="url(#paint9_linear_1581_1457)" stroke-width="0.603077" stroke-miterlimit="10"/>
</g>
<g style="mix-blend-mode:overlay">
<path d="M461.412 286.996L177.996 286.996" stroke="url(#paint10_linear_1581_1457)" stroke-width="0.603077" stroke-miterlimit="10"/>
</g>
<g style="mix-blend-mode:overlay">
<path d="M423.437 145.292L177.996 286.996" stroke="url(#paint11_linear_1581_1457)" stroke-width="0.603077" stroke-miterlimit="10"/>
</g>
<g style="mix-blend-mode:overlay">
<path d="M177.998 76.6993L177.998 286.996" stroke="url(#paint12_linear_1581_1457)" stroke-width="0.603077" stroke-miterlimit="10"/>
<path d="M177.998 72.5745C176.439 72.5745 175.175 73.8384 175.175 75.3976C175.175 76.9568 176.439 78.2207 177.998 78.2207C179.557 78.2207 180.82 76.9568 180.82 75.3976C180.82 73.8384 179.557 72.5745 177.998 72.5745Z" fill="url(#paint13_linear_1581_1457)"/>
</g>
<g style="mix-blend-mode:overlay">
<path d="M36.2915 41.5542L177.996 286.996" stroke="url(#paint14_linear_1581_1457)" stroke-width="0.603077" stroke-miterlimit="10"/>
<path d="M35.9097 38.0714C34.3508 38.0714 33.087 39.3352 33.087 40.8941C33.087 42.453 34.3508 43.7168 35.9097 43.7168C37.4687 43.7168 38.7324 42.453 38.7324 40.8941C38.7324 39.3352 37.4687 38.0714 35.9097 38.0714Z" fill="url(#paint15_linear_1581_1457)"/>
</g>
<g style="mix-blend-mode:overlay">
<path d="M-6.15882 180.675L177.996 286.996" stroke="url(#paint16_linear_1581_1457)" stroke-width="0.603077" stroke-miterlimit="10"/>
</g>
<g style="mix-blend-mode:overlay">
<path d="M-29.044 286.754L177.754 286.754" stroke="url(#paint17_linear_1581_1457)" stroke-width="0.603077" stroke-miterlimit="10"/>
</g>
<g style="mix-blend-mode:overlay">
<path d="M-121.338 248.368L6.10742 248.368" stroke="url(#paint18_linear_1581_1457)" stroke-width="0.603077" stroke-miterlimit="10"/>
</g>
<g style="mix-blend-mode:overlay">
<path d="M-67.4457 428.708L177.996 286.997" stroke="url(#paint19_linear_1581_1457)" stroke-width="0.753846" stroke-miterlimit="10"/>
</g>
<g style="mix-blend-mode:overlay">
<path d="M36.2916 532.438L177.996 286.997" stroke="url(#paint20_linear_1581_1457)" stroke-width="0.603077" stroke-miterlimit="10"/>
<path d="M35.9097 530.283C34.3508 530.283 33.087 531.547 33.087 533.106C33.087 534.665 34.3508 535.929 35.9097 535.929C37.4687 535.929 38.7324 534.665 38.7324 533.106C38.7324 531.547 37.4687 530.283 35.9097 530.283Z" fill="url(#paint21_linear_1581_1457)"/>
</g>
</g>
<g opacity="0.8" filter="url(#filter0_b_1581_1457)">
<path d="M209.256 432.877L272.391 432.877L303.959 378.195L272.391 323.524L209.256 323.524L177.688 378.195L209.256 432.877Z" fill="url(#paint22_linear_1581_1457)" stroke="url(#paint23_linear_1581_1457)" stroke-width="1.96" stroke-miterlimit="10"/>
<path d="M208.697 309.753L271.833 309.753L303.4 255.071L271.833 200.4L208.697 200.4L177.129 255.071L208.697 309.753Z" fill="url(#paint24_linear_1581_1457)" stroke="url(#paint25_linear_1581_1457)" stroke-width="1.96" stroke-miterlimit="10"/>
<path d="M103.585 494.353L166.72 494.353L198.299 439.671L166.72 385L103.585 385L72.0167 439.671L103.585 494.353Z" fill="url(#paint26_linear_1581_1457)" stroke="url(#paint27_linear_1581_1457)" stroke-width="1.96" stroke-miterlimit="10"/>
<path d="M103.58 127.363L166.715 127.363L198.283 72.6814L166.715 17.9996L103.58 17.9996L72.012 72.6815L103.58 127.363Z" fill="url(#paint28_linear_1581_1457)" stroke="url(#paint29_linear_1581_1457)" stroke-width="1.96" stroke-miterlimit="10"/>
<g style="mix-blend-mode:overlay" opacity="0.74">
<path d="M208.467 200.39L176.899 255.061L208.467 309.743L271.602 309.743L303.17 255.061" stroke="white" stroke-width="1.96" stroke-miterlimit="10"/>
</g>
<path d="M209.96 186.522L273.106 186.521L304.674 131.851L273.106 77.1686L209.96 77.1686L178.392 131.851L209.96 186.522Z" fill="url(#paint30_linear_1581_1457)" stroke="url(#paint31_linear_1581_1457)" stroke-width="1.96" stroke-miterlimit="10"/>
<path d="M103.569 371.851L166.715 371.851L198.283 317.18L166.715 262.498L103.569 262.498L72.0011 317.18L103.569 371.851Z" fill="url(#paint32_linear_1581_1457)" stroke="url(#paint33_linear_1581_1457)" stroke-width="1.96" stroke-miterlimit="10"/>
<path d="M103.569 249.353L166.715 249.353L198.283 194.682L166.715 140L103.569 140L72.0011 194.682L103.569 249.353Z" fill="url(#paint34_linear_1581_1457)" stroke="url(#paint35_linear_1581_1457)" stroke-width="1.96" stroke-miterlimit="10"/>
<path d="M208.586 555.364L271.721 555.364L303.289 500.682L271.721 446L208.586 446.001L177.018 500.682L208.586 555.364Z" fill="url(#paint36_linear_1581_1457)" stroke="url(#paint37_linear_1581_1457)" stroke-width="1.96" stroke-miterlimit="10"/>
<g style="mix-blend-mode:overlay" opacity="0.74">
<path d="M272.715 77L304.283 131.671L272.715 186.353L209.58 186.353L178.012 131.671" stroke="white" stroke-width="1.96" stroke-miterlimit="10"/>
</g>
<g style="mix-blend-mode:overlay" opacity="0.74">
<path d="M272.369 555.504L303.937 500.833L272.369 446.151L209.234 446.151L177.666 500.833" stroke="white" stroke-width="1.96" stroke-miterlimit="10"/>
</g>
</g>
<path d="M208.227 531.268C208.222 532.029 208.347 532.769 208.603 533.489C208.858 534.209 209.227 534.85 209.71 535.41C210.193 535.971 210.76 536.39 211.412 536.668L210.51 537.885C209.812 537.561 209.204 537.092 208.685 536.477C208.17 535.857 207.766 535.134 207.475 534.31C207.183 535.198 206.771 535.978 206.237 536.647C205.709 537.317 205.077 537.826 204.344 538.172L203.414 536.9C204.084 536.613 204.665 536.18 205.157 535.602C205.649 535.018 206.025 534.351 206.285 533.599C206.545 532.847 206.677 532.07 206.682 531.268V529.299H208.227V531.268ZM212.301 528.301H213.832V540.674H212.301V528.301ZM219.868 530.488C219.864 531.044 219.971 531.58 220.19 532.095C220.413 532.61 220.743 533.068 221.181 533.469C221.618 533.865 222.147 534.171 222.767 534.385L221.933 535.574C221.277 535.328 220.712 534.975 220.238 534.515C219.764 534.054 219.392 533.514 219.123 532.895C218.854 533.587 218.467 534.189 217.961 534.699C217.455 535.21 216.847 535.597 216.136 535.861L215.329 534.658C215.972 534.439 216.519 534.118 216.97 533.694C217.421 533.271 217.761 532.781 217.989 532.225C218.216 531.669 218.333 531.085 218.337 530.475V529.066H219.868V530.488ZM217.572 536.49H219.116V539.184H225.993V540.414H217.572V536.49ZM221.741 531.035H224.202V528.314H225.72V537.488H224.202V532.279H221.741V531.035ZM238.456 536.969H233.561V540.674H232.057V536.969H227.19V535.725H238.456V536.969ZM227.805 533.77C228.603 533.674 229.314 533.485 229.938 533.202C230.562 532.915 231.057 532.576 231.421 532.184C231.786 531.787 231.993 531.382 232.044 530.967H228.229V529.764H232.057V528.314H233.561V529.764H237.403V530.967H233.588C233.639 531.382 233.844 531.785 234.204 532.177C234.568 532.569 235.063 532.908 235.687 533.195C236.311 533.482 237.02 533.674 237.813 533.77L237.253 534.973C236.245 534.845 235.357 534.574 234.586 534.159C233.816 533.744 233.228 533.234 232.823 532.628C232.413 533.239 231.818 533.751 231.039 534.166C230.264 534.576 229.368 534.845 228.352 534.973L227.805 533.77ZM243.549 530.42C243.549 530.93 243.66 531.427 243.884 531.91C244.107 532.389 244.437 532.819 244.875 533.202C245.312 533.58 245.841 533.874 246.461 534.084L245.695 535.26C245.021 535.041 244.437 534.711 243.945 534.269C243.458 533.826 243.075 533.307 242.797 532.71C242.519 533.375 242.122 533.952 241.607 534.439C241.092 534.927 240.477 535.292 239.762 535.533L238.982 534.33C239.62 534.12 240.165 533.813 240.616 533.407C241.072 533.002 241.416 532.541 241.648 532.026C241.885 531.507 242.004 530.976 242.004 530.434V530.27H239.433V529.053H246.105V530.27H243.549V530.42ZM240.937 536.258H249.359V540.66H247.842V537.475H240.937V536.258ZM245.736 531.363H247.842V528.301H249.359V535.67H247.842V532.607H245.736V531.363ZM264.194 540.66H262.662V528.301H264.194V540.66ZM253.954 537.256C255.549 536.499 256.745 535.595 257.542 534.542C258.344 533.489 258.816 532.247 258.957 530.816H254.582V529.613H260.502C260.502 531.577 260.058 533.3 259.169 534.781C258.281 536.262 256.806 537.493 254.746 538.473L253.954 537.256ZM272.103 528.697C272.103 529.135 272.281 529.552 272.636 529.948C272.992 530.34 273.491 530.675 274.133 530.953C274.781 531.227 275.526 531.409 276.369 531.5L275.863 532.648C274.815 532.53 273.892 532.272 273.094 531.876C272.301 531.475 271.707 530.974 271.31 530.372C270.914 530.974 270.319 531.475 269.526 531.876C268.733 532.272 267.819 532.53 266.785 532.648L266.265 531.5C267.108 531.409 267.854 531.227 268.501 530.953C269.152 530.675 269.656 530.34 270.011 529.948C270.367 529.552 270.545 529.135 270.545 528.697V528.369H272.103V528.697ZM265.691 533.264H276.957V534.467H272.062V535.424H275.549V538.486H268.521V539.389H275.89V540.551H267.031V537.393H274.058V536.586H267.017V535.424H270.545V534.467H265.691V533.264Z" fill="white"/>
<g clip-path="url(#clip1_1581_1457)">
<path d="M247.41 480.982C247.41 475.647 245.362 470.636 241.626 466.768L243.394 465.779C244.24 465.292 244.846 464.503 245.101 463.556C245.357 462.609 245.229 461.622 244.743 460.777C244.547 460.435 244.111 460.317 243.77 460.514C243.428 460.71 243.311 461.146 243.507 461.488C243.803 462.003 243.88 462.606 243.724 463.185C243.568 463.764 243.198 464.246 242.691 464.538L214.506 480.312C214.28 480.438 214.141 480.676 214.141 480.933C214.14 481.191 214.279 481.429 214.504 481.555L242.683 497.422C243.198 497.717 243.568 498.2 243.724 498.779C243.88 499.358 243.803 499.961 243.507 500.476C243.311 500.818 243.428 501.254 243.77 501.45C243.882 501.514 244.004 501.545 244.124 501.545C244.371 501.545 244.611 501.417 244.743 501.187C245.229 500.342 245.357 499.354 245.101 498.408C244.846 497.461 244.24 496.672 243.389 496.182L241.63 495.192C245.363 491.325 247.41 486.315 247.41 480.982ZM244.843 487.46C243.966 485.522 243.486 483.259 243.486 480.931C243.486 478.623 243.959 476.377 244.822 474.449C245.584 476.517 245.984 478.718 245.984 480.982C245.984 483.226 245.592 485.408 244.843 487.46ZM244.089 472.732C242.783 475.071 242.06 477.962 242.06 480.931C242.06 483.923 242.793 486.83 244.116 489.178C243.212 491.054 241.994 492.793 240.481 494.332C236.927 490.715 234.978 486 234.978 480.982C234.978 475.964 236.927 471.249 240.481 467.632C241.979 469.156 243.188 470.877 244.089 472.732ZM216.311 480.936L237.337 469.169C234.878 472.614 233.552 476.693 233.552 480.982C233.552 485.256 234.868 489.323 237.312 492.761L216.311 480.936Z" fill="white"/>
<path d="M260.827 483.679C261.221 483.679 261.541 483.359 261.541 482.965C261.541 482.572 261.221 482.252 260.827 482.252H257.975C257.581 482.252 257.262 482.572 257.262 482.965C257.262 483.359 257.581 483.679 257.975 483.679H260.827Z" fill="#3FA9F5"/>
<path d="M266.195 483.679C266.589 483.679 266.908 483.359 266.908 482.965C266.908 482.572 266.589 482.252 266.195 482.252H265.106C264.712 482.252 264.393 482.572 264.393 482.965C264.393 483.359 264.712 483.679 265.106 483.679H266.195Z" fill="#3FA9F5"/>
<path d="M253.697 483.679C254.091 483.679 254.41 483.359 254.41 482.965C254.41 482.572 254.091 482.252 253.697 482.252H250.844C250.45 482.252 250.131 482.572 250.131 482.965C250.131 483.359 250.45 483.679 250.844 483.679H253.697Z" fill="#3FA9F5"/>
<path d="M256.663 472.209C256.322 472.405 256.205 472.841 256.402 473.183C256.534 473.412 256.774 473.539 257.02 473.539C257.141 473.539 257.264 473.509 257.376 473.444L259.846 472.017C260.187 471.821 260.304 471.385 260.107 471.043C259.91 470.703 259.475 470.585 259.133 470.782L256.663 472.209Z" fill="#3FA9F5"/>
<path d="M262.838 468.643C262.497 468.84 262.38 469.276 262.577 469.617C262.71 469.846 262.949 469.974 263.196 469.974C263.317 469.974 263.439 469.943 263.551 469.878L264.495 469.333C264.836 469.137 264.953 468.701 264.756 468.359C264.559 468.019 264.123 467.902 263.782 468.099L262.838 468.643Z" fill="#3FA9F5"/>
<path d="M250.488 475.774C250.147 475.97 250.03 476.406 250.227 476.748C250.359 476.977 250.598 477.104 250.845 477.104C250.966 477.104 251.088 477.074 251.201 477.009L253.671 475.582C254.012 475.386 254.129 474.95 253.932 474.608C253.735 474.268 253.299 474.151 252.958 474.347L250.488 475.774Z" fill="#3FA9F5"/>
<path d="M253.313 491.419C253.56 491.419 253.8 491.291 253.932 491.062C254.129 490.721 254.012 490.285 253.671 490.088L251.201 488.662C250.859 488.464 250.424 488.582 250.227 488.923C250.03 489.264 250.147 489.7 250.488 489.897L252.958 491.323C253.07 491.388 253.193 491.419 253.313 491.419Z" fill="#3FA9F5"/>
<path d="M259.489 494.984C259.736 494.984 259.975 494.856 260.107 494.627C260.304 494.286 260.187 493.85 259.846 493.653L257.376 492.227C257.035 492.029 256.599 492.146 256.402 492.488C256.205 492.829 256.322 493.265 256.663 493.462L259.133 494.888C259.245 494.953 259.368 494.984 259.489 494.984Z" fill="#3FA9F5"/>
<path d="M264.138 497.667C264.384 497.667 264.624 497.54 264.756 497.311C264.953 496.97 264.836 496.534 264.495 496.337L263.551 495.792C263.21 495.595 262.774 495.712 262.577 496.053C262.38 496.394 262.497 496.83 262.838 497.027L263.782 497.572C263.894 497.637 264.017 497.667 264.138 497.667Z" fill="#3FA9F5"/>
</g>
<path d="M108.719 352.979H97.4258V351.748H100.352V349.205H98.3965V347.975H100.133V344.311H98.3555V343.094H107.734V344.311H105.93V347.975H107.693V349.205H105.738V351.748H108.719V352.979ZM104.426 347.975V344.311H101.65V347.975H104.426ZM104.221 351.748V349.205H101.869V351.748H104.221ZM119.595 349.383H118.077V346.361H115.972V345.117H118.077V342.041H119.595V349.383ZM109.204 348.152C109.847 347.934 110.396 347.617 110.852 347.202C111.312 346.787 111.658 346.318 111.891 345.794C112.123 345.27 112.24 344.73 112.24 344.174V344.078H109.669V342.848H116.341V344.078H113.784V344.16C113.784 344.671 113.896 345.167 114.119 345.65C114.343 346.129 114.673 346.56 115.111 346.942C115.548 347.321 116.077 347.615 116.697 347.824L115.931 349.027C115.261 348.799 114.682 348.465 114.195 348.022C113.707 347.576 113.322 347.054 113.039 346.457C112.761 347.132 112.365 347.719 111.85 348.221C111.335 348.722 110.717 349.1 109.997 349.355L109.204 348.152ZM111.214 352.049C111.21 351.561 111.376 351.142 111.713 350.791C112.05 350.436 112.533 350.164 113.162 349.978C113.796 349.791 114.546 349.697 115.411 349.697C116.282 349.697 117.034 349.791 117.667 349.978C118.301 350.164 118.786 350.433 119.123 350.784C119.465 351.135 119.636 351.557 119.636 352.049C119.636 352.541 119.465 352.963 119.123 353.313C118.786 353.664 118.301 353.933 117.667 354.12C117.034 354.307 116.282 354.4 115.411 354.4C114.546 354.4 113.796 354.307 113.162 354.12C112.533 353.933 112.05 353.662 111.713 353.307C111.376 352.956 111.21 352.536 111.214 352.049ZM112.718 352.049C112.713 352.427 112.941 352.719 113.402 352.924C113.866 353.124 114.523 353.225 115.37 353.225C116.255 353.225 116.934 353.124 117.408 352.924C117.881 352.723 118.118 352.432 118.118 352.049C118.118 351.666 117.884 351.372 117.414 351.167C116.949 350.962 116.282 350.859 115.411 350.859C114.55 350.859 113.885 350.962 113.415 351.167C112.946 351.372 112.713 351.666 112.718 352.049ZM132.344 349.656H127.573V351.789H126.069V349.656H121.051V348.439H132.344V349.656ZM122.419 350.75H123.922V352.924H131.1V354.154H122.419V350.75ZM122.528 342.438H124.032V343.832H129.364V342.438H130.868V347.469H122.528V342.438ZM129.364 346.266V344.967H124.032V346.266H129.364ZM137.369 343.996C137.369 344.534 137.478 345.049 137.697 345.541C137.92 346.029 138.249 346.464 138.681 346.847C139.119 347.225 139.648 347.514 140.267 347.715L139.447 348.932C138.786 348.699 138.217 348.36 137.738 347.913C137.264 347.466 136.893 346.94 136.624 346.334C136.346 346.995 135.954 347.569 135.448 348.057C134.947 348.54 134.347 348.909 133.65 349.164L132.83 347.947C133.482 347.733 134.033 347.423 134.484 347.018C134.935 346.607 135.273 346.136 135.496 345.603C135.724 345.065 135.838 344.497 135.838 343.9V342.684H137.369V343.996ZM134.812 349.984H143.234V354.4H141.717V351.188H134.812V349.984ZM139.256 344.447H141.717V342.041H143.234V349.383H141.717V345.691H139.256V344.447ZM158.069 354.4H156.537V342.041H158.069V354.4ZM147.829 350.996C149.424 350.24 150.62 349.335 151.417 348.282C152.219 347.229 152.691 345.988 152.832 344.557H148.457V343.354H154.377C154.377 345.318 153.933 347.04 153.044 348.521C152.156 350.003 150.681 351.233 148.621 352.213L147.829 350.996ZM165.978 342.438C165.978 342.875 166.156 343.292 166.511 343.688C166.867 344.08 167.366 344.415 168.008 344.693C168.656 344.967 169.401 345.149 170.244 345.24L169.738 346.389C168.69 346.27 167.767 346.013 166.969 345.616C166.176 345.215 165.582 344.714 165.185 344.112C164.789 344.714 164.194 345.215 163.401 345.616C162.608 346.013 161.694 346.27 160.66 346.389L160.14 345.24C160.983 345.149 161.729 344.967 162.376 344.693C163.027 344.415 163.531 344.08 163.886 343.688C164.242 343.292 164.42 342.875 164.42 342.438V342.109H165.978V342.438ZM159.566 347.004H170.832V348.207H165.937V349.164H169.424V352.227H162.396V353.129H169.765V354.291H160.906V351.133H167.933V350.326H160.892V349.164H164.42V348.207H159.566V347.004Z" fill="white"/>
<g clip-path="url(#clip2_1581_1457)">
<path d="M131.924 305.43C129.474 307.512 126.3 308.769 122.832 308.769C115.075 308.769 108.787 302.48 108.787 294.723C108.787 286.967 115.075 280.678 122.832 280.678C130.589 280.678 136.877 286.967 136.877 294.723C136.877 297.615 136.003 300.303 134.505 302.537" stroke="white" stroke-width="1.80923" stroke-miterlimit="10" stroke-linecap="round" stroke-linejoin="round"/>
<path d="M117.873 292.244V293.07" stroke="white" stroke-width="1.80923" stroke-miterlimit="10" stroke-linecap="round" stroke-linejoin="round"/>
<path d="M127.789 292.244V293.07" stroke="white" stroke-width="1.80923" stroke-miterlimit="10" stroke-linecap="round" stroke-linejoin="round"/>
<path d="M117.656 298.028C118.194 300.393 120.304 302.159 122.831 302.159C125.358 302.159 127.469 300.393 128.006 298.028H117.656Z" stroke="white" stroke-width="1.80923" stroke-miterlimit="10" stroke-linecap="round" stroke-linejoin="round"/>
<path d="M136.86 284.031C139.312 281.94 142.492 280.678 145.967 280.678C153.724 280.678 160.012 286.967 160.012 294.723C160.012 302.48 153.724 308.769 145.967 308.769C138.21 308.769 131.922 302.48 131.922 294.723C131.922 291.815 132.806 289.112 134.321 286.871" stroke="#3FA9F5" stroke-width="1.80923" stroke-miterlimit="10" stroke-linecap="round" stroke-linejoin="round"/>
<path d="M141.008 292.244V293.07" stroke="#3FA9F5" stroke-width="1.80923" stroke-miterlimit="10" stroke-linecap="round" stroke-linejoin="round"/>
<path d="M150.924 292.244V293.07" stroke="#3FA9F5" stroke-width="1.80923" stroke-miterlimit="10" stroke-linecap="round" stroke-linejoin="round"/>
<path d="M150.455 300.506C149.515 299.513 147.858 298.854 145.967 298.854C144.075 298.854 142.418 299.513 141.479 300.506" stroke="#3FA9F5" stroke-width="1.80923" stroke-miterlimit="10" stroke-linecap="round" stroke-linejoin="round"/>
</g>
<path d="M212.738 158.086C213.645 158.086 214.434 158.182 215.104 158.373C215.773 158.564 216.288 158.842 216.648 159.207C217.013 159.567 217.195 159.995 217.195 160.492C217.195 160.98 217.013 161.401 216.648 161.757C216.288 162.108 215.773 162.377 215.104 162.563C214.434 162.75 213.645 162.844 212.738 162.844C211.84 162.844 211.054 162.75 210.38 162.563C209.71 162.377 209.193 162.108 208.828 161.757C208.464 161.401 208.281 160.98 208.281 160.492C208.281 159.995 208.464 159.567 208.828 159.207C209.193 158.842 209.71 158.564 210.38 158.373C211.054 158.182 211.84 158.086 212.738 158.086ZM207.119 163.678H218.385V164.908H207.119V163.678ZM208.445 165.893H217.018V170.049H208.445V165.893ZM209.867 160.492C209.863 160.861 210.113 161.148 210.619 161.354C211.125 161.559 211.831 161.663 212.738 161.668C213.645 161.663 214.352 161.559 214.857 161.354C215.368 161.148 215.623 160.861 215.623 160.492C215.623 160.1 215.37 159.799 214.864 159.59C214.358 159.38 213.65 159.275 212.738 159.275C211.827 159.275 211.118 159.38 210.612 159.59C210.111 159.799 209.863 160.1 209.867 160.492ZM215.541 168.818V167.096H209.949V168.818H215.541ZM223.464 159.617C223.46 160.187 223.567 160.727 223.785 161.237C224.009 161.743 224.339 162.19 224.777 162.577C225.214 162.96 225.747 163.249 226.376 163.445L225.556 164.635C224.895 164.398 224.328 164.063 223.854 163.63C223.38 163.197 223.008 162.682 222.74 162.085C222.462 162.773 222.063 163.37 221.543 163.876C221.024 164.377 220.397 164.758 219.663 165.018L218.857 163.787C219.522 163.568 220.085 163.252 220.545 162.837C221.005 162.422 221.35 161.946 221.577 161.408C221.81 160.866 221.928 160.292 221.933 159.686V158.51H223.464V159.617ZM220.908 167.82C220.903 167.324 221.069 166.897 221.407 166.542C221.744 166.182 222.227 165.909 222.856 165.722C223.489 165.535 224.239 165.441 225.105 165.441C225.975 165.441 226.727 165.535 227.361 165.722C227.994 165.909 228.479 166.182 228.817 166.542C229.158 166.897 229.329 167.324 229.329 167.82C229.329 168.317 229.158 168.743 228.817 169.099C228.479 169.454 227.994 169.723 227.361 169.905C226.727 170.092 225.975 170.186 225.105 170.186C224.239 170.186 223.489 170.092 222.856 169.905C222.227 169.723 221.744 169.454 221.407 169.099C221.069 168.743 220.903 168.317 220.908 167.82ZM222.411 167.82C222.407 168.194 222.639 168.483 223.109 168.688C223.578 168.889 224.243 168.992 225.105 168.996C225.971 168.992 226.638 168.889 227.108 168.688C227.577 168.483 227.812 168.194 227.812 167.82C227.812 167.433 227.577 167.137 227.108 166.932C226.643 166.727 225.975 166.622 225.105 166.617C224.239 166.622 223.571 166.727 223.102 166.932C222.637 167.137 222.407 167.433 222.411 167.82ZM225.31 160.232H227.771V157.84H229.288V165.113H227.771V161.477H225.31V160.232ZM241.053 166.781H239.522V157.854H241.053V166.781ZM230.977 161.75C230.977 161.162 231.123 160.633 231.415 160.164C231.711 159.695 232.112 159.328 232.618 159.063C233.128 158.795 233.693 158.66 234.313 158.66C234.933 158.66 235.496 158.795 236.002 159.063C236.512 159.328 236.911 159.695 237.198 160.164C237.489 160.633 237.635 161.162 237.635 161.75C237.635 162.347 237.489 162.882 237.198 163.356C236.911 163.826 236.512 164.193 236.002 164.457C235.496 164.721 234.933 164.854 234.313 164.854C233.693 164.854 233.128 164.721 232.618 164.457C232.112 164.193 231.711 163.826 231.415 163.356C231.123 162.882 230.977 162.347 230.977 161.75ZM232.467 161.75C232.467 162.105 232.545 162.418 232.7 162.687C232.859 162.955 233.078 163.163 233.356 163.309C233.639 163.454 233.958 163.527 234.313 163.527C234.659 163.527 234.972 163.454 235.25 163.309C235.528 163.163 235.746 162.955 235.906 162.687C236.065 162.418 236.145 162.105 236.145 161.75C236.145 161.404 236.065 161.096 235.906 160.827C235.746 160.558 235.525 160.351 235.243 160.205C234.965 160.059 234.655 159.986 234.313 159.986C233.962 159.986 233.645 160.059 233.363 160.205C233.08 160.351 232.859 160.558 232.7 160.827C232.545 161.096 232.467 161.404 232.467 161.75ZM232.878 165.879H234.409V168.723H241.395V169.953H232.878V165.879ZM247.185 159.604C247.181 160.155 247.292 160.681 247.52 161.183C247.748 161.679 248.085 162.119 248.532 162.502C248.983 162.885 249.528 163.176 250.166 163.377L249.414 164.58C248.717 164.348 248.113 164.006 247.602 163.555C247.097 163.104 246.7 162.57 246.413 161.955C246.13 162.62 245.729 163.197 245.21 163.685C244.69 164.172 244.073 164.539 243.357 164.785L242.592 163.596C243.239 163.377 243.788 163.062 244.239 162.652C244.695 162.238 245.039 161.768 245.271 161.244C245.504 160.72 245.618 160.173 245.613 159.604V158.428H247.185V159.604ZM244.437 165.797H252.873V170.199H251.342V167.014H244.437V165.797ZM251.342 157.84H252.873V165.236H251.342V157.84ZM267.762 170.199H266.231V157.84H267.762V170.199ZM257.522 166.795C259.117 166.038 260.313 165.134 261.111 164.081C261.913 163.028 262.385 161.786 262.526 160.355H258.151V159.152H264.071C264.071 161.117 263.626 162.839 262.738 164.32C261.849 165.801 260.375 167.032 258.315 168.012L257.522 166.795ZM275.672 158.236C275.672 158.674 275.849 159.091 276.205 159.487C276.56 159.879 277.059 160.214 277.702 160.492C278.349 160.766 279.094 160.948 279.937 161.039L279.431 162.188C278.383 162.069 277.46 161.812 276.663 161.415C275.87 161.014 275.275 160.513 274.879 159.911C274.482 160.513 273.887 161.014 273.094 161.415C272.301 161.812 271.388 162.069 270.353 162.188L269.834 161.039C270.677 160.948 271.422 160.766 272.069 160.492C272.721 160.214 273.224 159.879 273.58 159.487C273.935 159.091 274.113 158.674 274.113 158.236V157.908H275.672V158.236ZM269.259 162.803H280.525V164.006H275.631V164.963H279.117V168.025H272.09V168.928H279.459V170.09H270.599V166.932H277.627V166.125H270.586V164.963H274.113V164.006H269.259V162.803Z" fill="white"/>
<g clip-path="url(#clip3_1581_1457)">
<path d="M251.877 124.056V129.778" stroke="#3FA9F5" stroke-width="1.50769" stroke-miterlimit="10" stroke-linecap="round"/>
<path d="M264.482 124.056V129.778" stroke="#3FA9F5" stroke-width="1.50769" stroke-miterlimit="10" stroke-linecap="round"/>
<path d="M272.883 124.056V129.778" stroke="#3FA9F5" stroke-width="1.50769" stroke-miterlimit="10" stroke-linecap="round"/>
<path d="M260.279 121.9V131.934" stroke="#3FA9F5" stroke-width="1.50769" stroke-miterlimit="10" stroke-linecap="round"/>
<path d="M256.078 120.185V133.651" stroke="#3FA9F5" stroke-width="1.50769" stroke-miterlimit="10" stroke-linecap="round"/>
<path d="M268.682 120.185V133.651" stroke="#3FA9F5" stroke-width="1.50769" stroke-miterlimit="10" stroke-linecap="round"/>
<path d="M216.671 124.642C217.301 126.025 217.664 127.515 217.74 129.033V134.942C217.738 135.389 217.895 135.822 218.184 136.162C218.473 136.503 218.874 136.729 219.315 136.799H233.083C234.307 136.799 234.773 135.42 234.773 135.42V132.845C234.773 131.647 236.231 131.526 236.231 131.526H240.312C242.178 131.526 242.644 129.251 242.644 129.251V123.5C242.636 123.361 242.655 123.222 242.7 123.091C242.746 122.96 242.816 122.839 242.908 122.735C243 122.632 243.112 122.547 243.237 122.486C243.361 122.426 243.497 122.39 243.635 122.382H246.065C246.232 122.365 246.393 122.314 246.54 122.233C246.687 122.151 246.816 122.041 246.919 121.909C247.023 121.777 247.098 121.625 247.142 121.463C247.185 121.3 247.196 121.131 247.173 120.965L242.587 112.419V111.462C242.587 96.0483 228.595 94.9308 228.595 94.9308C225.352 94.599 222.089 95.3275 219.293 97.0075C216.845 98.4329 214.782 100.436 213.284 102.844C211.786 105.251 210.898 107.988 210.698 110.818C209.912 119.248 216.671 124.642 216.671 124.642Z" fill="white" stroke="white" stroke-width="1.50769" stroke-miterlimit="10"/>
</g>
<path d="M107.721 228.965H106.189V221.979H107.721V228.965ZM97.4258 227.516C98.0729 227.311 98.6243 227.01 99.0801 226.613C99.5404 226.212 99.8867 225.757 100.119 225.246C100.352 224.731 100.465 224.198 100.461 223.646V222.443H102.033V223.646C102.029 224.18 102.143 224.688 102.375 225.171C102.607 225.649 102.947 226.076 103.394 226.449C103.845 226.823 104.385 227.11 105.014 227.311L104.275 228.473C103.574 228.254 102.967 227.928 102.457 227.495C101.947 227.058 101.548 226.538 101.261 225.937C100.978 226.588 100.575 227.156 100.051 227.639C99.5267 228.117 98.9023 228.477 98.1777 228.719L97.4258 227.516ZM99.5176 229.58H107.721V234.174H99.5176V229.58ZM106.23 232.943V230.783H101.021V232.943H106.23ZM118.993 225.055H120.716V226.299H118.993V229.402H117.476V221.965H118.993V225.055ZM109.669 222.744H111.173V224.494H114.058V222.744H115.562V228.678H109.669V222.744ZM110.763 229.977H118.993V234.324H117.476V231.193H110.763V229.977ZM114.058 227.475V225.684H111.173V227.475H114.058ZM132.344 229.58H127.573V231.713H126.069V229.58H121.051V228.363H132.344V229.58ZM122.419 230.674H123.922V232.848H131.1V234.078H122.419V230.674ZM122.528 222.361H124.032V223.756H129.364V222.361H130.868V227.393H122.528V222.361ZM129.364 226.189V224.891H124.032V226.189H129.364ZM137.369 223.92C137.369 224.458 137.478 224.973 137.697 225.465C137.92 225.952 138.249 226.388 138.681 226.771C139.119 227.149 139.648 227.438 140.267 227.639L139.447 228.855C138.786 228.623 138.217 228.284 137.738 227.837C137.264 227.39 136.893 226.864 136.624 226.258C136.346 226.919 135.954 227.493 135.448 227.98C134.947 228.464 134.347 228.833 133.65 229.088L132.83 227.871C133.482 227.657 134.033 227.347 134.484 226.941C134.935 226.531 135.273 226.06 135.496 225.526C135.724 224.989 135.838 224.421 135.838 223.824V222.607H137.369V223.92ZM134.812 229.908H143.234V234.324H141.717V231.111H134.812V229.908ZM139.256 224.371H141.717V221.965H143.234V229.307H141.717V225.615H139.256V224.371ZM158.069 234.324H156.537V221.965H158.069V234.324ZM147.829 230.92C149.424 230.163 150.62 229.259 151.417 228.206C152.219 227.153 152.691 225.911 152.832 224.48H148.457V223.277H154.377C154.377 225.242 153.933 226.964 153.044 228.445C152.156 229.926 150.681 231.157 148.621 232.137L147.829 230.92ZM165.978 222.361C165.978 222.799 166.156 223.216 166.511 223.612C166.867 224.004 167.366 224.339 168.008 224.617C168.656 224.891 169.401 225.073 170.244 225.164L169.738 226.312C168.69 226.194 167.767 225.937 166.969 225.54C166.176 225.139 165.582 224.638 165.185 224.036C164.789 224.638 164.194 225.139 163.401 225.54C162.608 225.937 161.694 226.194 160.66 226.312L160.14 225.164C160.983 225.073 161.729 224.891 162.376 224.617C163.027 224.339 163.531 224.004 163.886 223.612C164.242 223.216 164.42 222.799 164.42 222.361V222.033H165.978V222.361ZM159.566 226.928H170.832V228.131H165.937V229.088H169.424V232.15H162.396V233.053H169.765V234.215H160.906V231.057H167.933V230.25H160.892V229.088H164.42V228.131H159.566V226.928Z" fill="white"/>
<path fill-rule="evenodd" clip-rule="evenodd" d="M122.148 161.369C120.856 160.077 118.757 160.076 117.469 161.365L117.275 161.558C115.982 162.851 115.984 164.942 117.279 166.238L121.783 170.742C122.214 171.172 122.912 171.172 123.343 170.742L127.847 166.238C129.143 164.942 129.144 162.851 127.852 161.558L127.658 161.365C126.37 160.076 124.27 160.078 122.978 161.369L122.563 161.784L122.148 161.369Z" fill="#3FA9F5"/>
<path d="M116.57 176.607H128.255L132.401 189.046L140.316 162.661L145.216 176.607H153.132" stroke="white" stroke-width="1.05538" stroke-linecap="round" stroke-linejoin="round"/>
<path d="M109.068 108.749H107.537V101.763H109.068V108.749ZM98.7734 107.3C99.4206 107.095 99.972 106.794 100.428 106.397C100.888 105.996 101.234 105.541 101.467 105.03C101.699 104.515 101.813 103.982 101.809 103.431V102.228H103.381V103.431C103.376 103.964 103.49 104.472 103.723 104.955C103.955 105.434 104.295 105.86 104.741 106.233C105.192 106.607 105.732 106.894 106.361 107.095L105.623 108.257C104.921 108.038 104.315 107.712 103.805 107.279C103.294 106.842 102.896 106.322 102.608 105.721C102.326 106.372 101.923 106.94 101.398 107.423C100.874 107.901 100.25 108.261 99.5254 108.503L98.7734 107.3ZM100.865 109.364H109.068V113.958H100.865V109.364ZM107.578 112.728V110.567H102.369V112.728H107.578ZM121.859 109.132H110.593V107.901H121.859V109.132ZM111.126 106.138C111.956 106.083 112.676 105.96 113.286 105.769C113.897 105.577 114.373 105.338 114.715 105.051C115.061 104.764 115.269 104.447 115.337 104.101H111.7V102.897H115.46V101.776H116.964V102.897H120.751V104.101H117.08C117.144 104.447 117.349 104.764 117.696 105.051C118.042 105.338 118.52 105.577 119.131 105.769C119.742 105.96 120.464 106.083 121.298 106.138L120.833 107.3C119.73 107.213 118.78 107.004 117.983 106.671C117.185 106.338 116.595 105.905 116.212 105.372C115.82 105.905 115.226 106.338 114.428 106.671C113.635 107.004 112.689 107.213 111.591 107.3L111.126 106.138ZM111.906 112.017C111.906 111.57 112.074 111.192 112.411 110.882C112.753 110.567 113.245 110.33 113.888 110.171C114.535 110.011 115.31 109.929 116.212 109.925C117.11 109.929 117.878 110.011 118.516 110.171C119.154 110.33 119.642 110.567 119.979 110.882C120.321 111.192 120.491 111.57 120.491 112.017C120.491 112.463 120.321 112.841 119.979 113.151C119.642 113.461 119.154 113.696 118.516 113.855C117.878 114.015 117.11 114.095 116.212 114.095C115.31 114.095 114.535 114.015 113.888 113.855C113.245 113.696 112.753 113.461 112.411 113.151C112.074 112.841 111.906 112.463 111.906 112.017ZM113.45 112.017C113.446 112.331 113.676 112.568 114.141 112.728C114.61 112.882 115.301 112.96 116.212 112.96C117.11 112.96 117.794 112.882 118.263 112.728C118.732 112.568 118.969 112.331 118.974 112.017C118.969 111.702 118.732 111.465 118.263 111.306C117.794 111.142 117.11 111.06 116.212 111.06C115.301 111.06 114.61 111.139 114.141 111.299C113.676 111.458 113.446 111.698 113.45 112.017ZM132.68 108.12H131.176V101.749H132.68V108.12ZM122.508 107.013C123.133 106.83 123.668 106.564 124.115 106.213C124.566 105.862 124.912 105.461 125.154 105.01C125.4 104.559 125.537 104.087 125.564 103.595H122.905V102.364H129.7V103.595H127.109C127.132 104.06 127.264 104.504 127.505 104.928C127.747 105.347 128.091 105.718 128.538 106.042C128.984 106.366 129.517 106.612 130.137 106.78L129.399 107.956C128.693 107.751 128.082 107.441 127.567 107.026C127.052 106.607 126.651 106.113 126.364 105.543C126.077 106.176 125.664 106.726 125.127 107.19C124.593 107.651 123.953 107.993 123.206 108.216L122.508 107.013ZM124.504 108.64H132.708V111.825H126.022V112.823H133.077V113.999H124.532V110.718H131.19V109.802H124.504V108.64ZM138.238 102.61C138.885 102.61 139.466 102.738 139.981 102.993C140.496 103.244 140.9 103.597 141.191 104.053C141.487 104.504 141.638 105.017 141.642 105.591C141.638 106.17 141.487 106.687 141.191 107.143C140.9 107.594 140.496 107.947 139.981 108.202C139.466 108.457 138.885 108.585 138.238 108.585C137.596 108.585 137.014 108.457 136.495 108.202C135.98 107.947 135.577 107.591 135.285 107.136C134.993 106.68 134.847 106.165 134.847 105.591C134.847 105.017 134.993 104.504 135.285 104.053C135.581 103.597 135.987 103.244 136.502 102.993C137.017 102.738 137.596 102.61 138.238 102.61ZM134.287 110.294C135.8 110.294 137.213 110.269 138.525 110.219C139.838 110.164 141.086 110.052 142.271 109.884L142.394 110.991C141.173 111.224 139.927 111.374 138.655 111.442C137.388 111.506 135.996 111.538 134.478 111.538L134.287 110.294ZM136.351 105.591C136.351 105.928 136.431 106.224 136.591 106.479C136.755 106.73 136.98 106.924 137.267 107.061C137.555 107.193 137.878 107.259 138.238 107.259C138.603 107.259 138.929 107.193 139.216 107.061C139.507 106.924 139.735 106.73 139.899 106.479C140.068 106.224 140.152 105.928 140.152 105.591C140.152 105.254 140.068 104.96 139.899 104.709C139.735 104.458 139.507 104.265 139.216 104.128C138.929 103.991 138.603 103.923 138.238 103.923C137.878 103.923 137.555 103.991 137.267 104.128C136.98 104.265 136.755 104.461 136.591 104.716C136.431 104.966 136.351 105.258 136.351 105.591ZM143.01 101.749H144.527V114.122H143.01V101.749ZM159.416 114.108H157.885V101.749H159.416V114.108ZM149.176 110.704C150.771 109.948 151.968 109.043 152.765 107.99C153.567 106.938 154.039 105.696 154.18 104.265H149.805V103.062H155.725C155.725 105.026 155.281 106.748 154.392 108.229C153.503 109.711 152.029 110.941 149.969 111.921L149.176 110.704ZM167.326 102.146C167.326 102.583 167.504 103 167.859 103.396C168.215 103.788 168.714 104.123 169.356 104.401C170.003 104.675 170.748 104.857 171.591 104.948L171.086 106.097C170.037 105.978 169.115 105.721 168.317 105.324C167.524 104.923 166.929 104.422 166.533 103.82C166.136 104.422 165.542 104.923 164.749 105.324C163.956 105.721 163.042 105.978 162.007 106.097L161.488 104.948C162.331 104.857 163.076 104.675 163.723 104.401C164.375 104.123 164.879 103.788 165.234 103.396C165.59 103 165.767 102.583 165.767 102.146V101.817H167.326V102.146ZM160.914 106.712H172.179V107.915H167.285V108.872H170.771V111.935H163.744V112.837H171.113V113.999H162.254V110.841H169.281V110.034H162.24V108.872H165.767V107.915H160.914V106.712Z" fill="white"/>
<path d="M153.184 49.0607H144.818V35.903C144.797 34.6722 144.288 33.4999 143.404 32.6434C142.52 31.7868 141.332 31.3158 140.101 31.3336H118.313C117.067 31.3019 115.86 31.765 114.956 32.6214C114.051 33.4779 113.523 34.6579 113.486 35.903V49.8506C113.523 51.0958 114.051 52.2758 114.956 53.1322C115.86 53.9887 117.067 54.4518 118.313 54.4201H118.433V58.804C118.434 58.9911 118.486 59.1745 118.586 59.3329C118.686 59.4914 118.828 59.6185 118.996 59.6997C119.165 59.781 119.353 59.813 119.539 59.7921C119.725 59.7713 119.901 59.6984 120.048 59.5818L126.525 54.4201H126.679V67.5238C126.7 68.7694 127.215 69.9555 128.11 70.8222C129.004 71.6889 130.206 72.1654 131.452 72.1473H144.972L151.45 77.3093C151.596 77.4258 151.772 77.4986 151.958 77.5194C152.144 77.5401 152.332 77.508 152.501 77.4268C152.669 77.3455 152.811 77.2184 152.911 77.0599C153.01 76.9015 153.063 76.7182 153.063 76.5312V72.1473H153.184C154.429 72.1789 155.636 71.7158 156.541 70.8594C157.446 70.003 157.974 68.823 158.01 67.5778V53.6302C157.974 52.3851 157.446 51.2051 156.541 50.3486C155.636 49.4922 154.429 49.0291 153.184 49.0607ZM126.342 52.7711C126.087 52.7722 125.841 52.8585 125.641 53.0162L120.082 57.4456V53.8665C120.08 53.5742 119.962 53.2946 119.754 53.0893C119.546 52.884 119.265 52.7695 118.972 52.7711H118.313C117.505 52.8028 116.717 52.5134 116.122 51.9662C115.526 51.419 115.172 50.6584 115.135 49.8506V35.903C115.172 35.0952 115.526 34.3347 116.122 33.7874C116.717 33.2402 117.505 32.9509 118.313 32.9826H140.101C140.895 32.9644 141.663 33.2616 142.239 33.809C142.814 34.3564 143.148 35.1094 143.169 35.903V49.8506C143.148 50.6443 142.813 51.3974 142.238 51.9447C141.663 52.4921 140.894 52.7893 140.1 52.7711L126.342 52.7711ZM156.361 67.5778C156.325 68.3856 155.97 69.1462 155.375 69.6934C154.78 70.2406 153.992 70.5299 153.184 70.4982H152.525C152.232 70.4967 151.951 70.6111 151.743 70.8165C151.535 71.0218 151.417 71.3013 151.414 71.5937V75.1728L145.854 70.7418C145.654 70.5845 145.408 70.4987 145.155 70.4982H131.452C130.644 70.5166 129.861 70.2139 129.275 69.6564C128.69 69.0989 128.349 68.3321 128.328 67.5238V54.4201H140.1C141.182 54.4311 142.234 54.0677 143.078 53.3914C143.922 52.7151 144.506 51.7677 144.732 50.7098H153.184C153.992 50.678 154.78 50.9674 155.375 51.5146C155.97 52.0618 156.325 52.8224 156.361 53.6302V67.5778Z" fill="white"/>
<path d="M133.47 46.5952C134.439 45.4987 134.957 44.0758 134.919 42.6128C134.881 41.1499 134.291 39.7556 133.266 38.7106C132.242 37.6656 130.86 37.0474 129.398 36.9806C127.936 36.9138 126.503 37.4033 125.387 38.3505C124.272 39.2978 123.556 40.6324 123.385 42.0858C123.214 43.5392 123.6 45.0034 124.465 46.1838C125.33 47.3641 126.611 48.1729 128.048 48.4473C129.485 48.7218 130.974 48.4415 132.213 47.6629L132.68 48.1925C132.825 48.3551 133.028 48.4537 133.246 48.4667C133.463 48.4797 133.677 48.406 133.841 48.2619C134.004 48.1177 134.104 47.9148 134.118 47.6974C134.132 47.4799 134.06 47.2657 133.917 47.1015L133.47 46.5952ZM129.152 46.901C128.337 46.901 127.54 46.6592 126.862 46.2062C126.184 45.7532 125.656 45.1094 125.344 44.3561C125.032 43.6027 124.95 42.7738 125.109 41.9741C125.268 41.1744 125.661 40.4398 126.237 39.8633C126.814 39.2867 127.548 38.8941 128.348 38.735C129.148 38.576 129.977 38.6576 130.73 38.9696C131.483 39.2817 132.127 39.8101 132.58 40.488C133.033 41.166 133.275 41.963 133.275 42.7784C133.271 43.7106 132.948 44.6134 132.36 45.3365L130.572 43.3102C130.427 43.1482 130.223 43.05 130.006 43.0373C129.789 43.0245 129.575 43.0981 129.412 43.2421C129.249 43.3861 129.149 43.5887 129.135 43.8058C129.12 44.0229 129.192 44.237 129.335 44.4013L131.093 46.3933C130.498 46.7217 129.831 46.8963 129.152 46.901Z" fill="white"/>
<path d="M147.228 65.1917C145.734 61.6344 146.528 63.5262 143.108 55.3842L143.108 55.3836L143.105 55.3764C143.042 55.2272 142.936 55.0998 142.801 55.0103C142.666 54.9208 142.507 54.873 142.345 54.873C142.183 54.873 142.024 54.9208 141.889 55.0103C141.754 55.0998 141.648 55.2272 141.585 55.3764L141.582 55.3836L141.582 55.3842C140.021 59.0992 138.808 61.9883 137.462 65.1917C137.38 65.393 137.38 65.6188 137.463 65.8199C137.546 66.0211 137.705 66.1812 137.906 66.2655C138.106 66.3498 138.332 66.3513 138.534 66.2698C138.735 66.1882 138.897 66.0303 138.983 65.8303L140.128 63.1039H144.562L145.708 65.8303C145.793 66.031 145.954 66.1898 146.156 66.2719C146.358 66.354 146.585 66.3526 146.786 66.2682C146.987 66.1837 147.146 66.023 147.229 65.8213C147.312 65.6195 147.311 65.3932 147.228 65.1917ZM140.82 61.4548L142.345 57.8246L143.87 61.4548H140.82Z" fill="#3FA9F5"/>
<path d="M213.174 411.788H214.896V413.046H213.174V417.202H211.656V408.165H213.174V411.788ZM203.562 412.103C203.562 411.506 203.708 410.97 204 410.496C204.292 410.022 204.69 409.653 205.196 409.389C205.707 409.12 206.274 408.985 206.898 408.985C207.518 408.985 208.081 409.12 208.587 409.389C209.097 409.653 209.498 410.022 209.79 410.496C210.082 410.97 210.23 411.506 210.234 412.103C210.23 412.69 210.079 413.221 209.783 413.695C209.492 414.169 209.093 414.541 208.587 414.81C208.081 415.074 207.518 415.206 206.898 415.206C206.279 415.206 205.714 415.074 205.203 414.81C204.693 414.541 204.292 414.169 204 413.695C203.708 413.221 203.562 412.69 203.562 412.103ZM205.053 412.103C205.053 412.449 205.132 412.757 205.292 413.025C205.456 413.294 205.679 413.502 205.962 413.647C206.244 413.793 206.557 413.866 206.898 413.866C207.245 413.866 207.557 413.793 207.835 413.647C208.118 413.502 208.339 413.297 208.498 413.032C208.662 412.763 208.744 412.453 208.744 412.103C208.744 411.747 208.662 411.435 208.498 411.166C208.339 410.893 208.118 410.683 207.835 410.537C207.557 410.387 207.245 410.312 206.898 410.312C206.552 410.312 206.238 410.387 205.955 410.537C205.677 410.683 205.456 410.893 205.292 411.166C205.132 411.435 205.053 411.747 205.053 412.103ZM205.258 416.259H206.775V419.048H213.666V420.278H205.258V416.259ZM221.589 410.188H224.077V408.179H225.595V417.175H224.077V414.058H221.589V415.124H215.779V409.204H221.589V410.188ZM220.085 413.935V410.407H217.296V413.935H220.085ZM217.447 416.341H218.991V419.048H225.868V420.278H217.447V416.341ZM224.077 412.841V411.433H221.589V412.841H224.077ZM237.36 417.106H235.829V408.179H237.36V417.106ZM227.284 412.075C227.284 411.487 227.43 410.959 227.721 410.489C228.017 410.02 228.419 409.653 228.924 409.389C229.435 409.12 230 408.985 230.62 408.985C231.239 408.985 231.802 409.12 232.308 409.389C232.819 409.653 233.217 410.02 233.504 410.489C233.796 410.959 233.942 411.487 233.942 412.075C233.942 412.672 233.796 413.208 233.504 413.682C233.217 414.151 232.819 414.518 232.308 414.782C231.802 415.047 231.239 415.179 230.62 415.179C230 415.179 229.435 415.047 228.924 414.782C228.419 414.518 228.017 414.151 227.721 413.682C227.43 413.208 227.284 412.672 227.284 412.075ZM228.774 412.075C228.774 412.431 228.851 412.743 229.006 413.012C229.166 413.281 229.385 413.488 229.663 413.634C229.945 413.78 230.264 413.853 230.62 413.853C230.966 413.853 231.278 413.78 231.556 413.634C231.834 413.488 232.053 413.281 232.212 413.012C232.372 412.743 232.452 412.431 232.452 412.075C232.452 411.729 232.372 411.421 232.212 411.152C232.053 410.883 231.832 410.676 231.549 410.53C231.271 410.384 230.961 410.312 230.62 410.312C230.269 410.312 229.952 410.384 229.669 410.53C229.387 410.676 229.166 410.883 229.006 411.152C228.851 411.421 228.774 411.729 228.774 412.075ZM229.184 416.204H230.715V419.048H237.702V420.278H229.184V416.204ZM243.492 409.929C243.487 410.48 243.599 411.007 243.827 411.508C244.055 412.005 244.392 412.444 244.839 412.827C245.29 413.21 245.834 413.502 246.472 413.702L245.721 414.905C245.023 414.673 244.419 414.331 243.909 413.88C243.403 413.429 243.007 412.896 242.72 412.28C242.437 412.946 242.036 413.522 241.516 414.01C240.997 414.497 240.379 414.864 239.664 415.11L238.898 413.921C239.545 413.702 240.095 413.388 240.546 412.978C241.001 412.563 241.346 412.093 241.578 411.569C241.81 411.045 241.924 410.498 241.92 409.929V408.753H243.492V409.929ZM240.744 416.122H249.18V420.524H247.648V417.339H240.744V416.122ZM247.648 408.165H249.18V415.562H247.648V408.165ZM264.069 420.524H262.537V408.165H264.069V420.524ZM253.829 417.12C255.424 416.364 256.62 415.459 257.417 414.406C258.219 413.354 258.691 412.112 258.832 410.681H254.457V409.478H260.377C260.377 411.442 259.933 413.164 259.044 414.646C258.156 416.127 256.681 417.357 254.621 418.337L253.829 417.12ZM271.978 408.562C271.978 408.999 272.156 409.416 272.511 409.812C272.867 410.204 273.366 410.539 274.008 410.817C274.656 411.091 275.401 411.273 276.244 411.364L275.738 412.513C274.69 412.394 273.767 412.137 272.969 411.74C272.176 411.339 271.582 410.838 271.185 410.236C270.789 410.838 270.194 411.339 269.401 411.74C268.608 412.137 267.694 412.394 266.66 412.513L266.14 411.364C266.983 411.273 267.729 411.091 268.376 410.817C269.027 410.539 269.531 410.204 269.886 409.812C270.242 409.416 270.42 408.999 270.42 408.562V408.233H271.978V408.562ZM265.566 413.128H276.832V414.331H271.937V415.288H275.424V418.351H268.396V419.253H275.765V420.415H266.906V417.257H273.933V416.45H266.892V415.288H270.42V414.331H265.566V413.128Z" fill="white"/>
<path fill-rule="evenodd" clip-rule="evenodd" d="M231.243 342.584C230.862 342.579 230.479 342.591 230.101 342.618C225.56 342.936 221.33 345.47 218.96 349.584C215.813 355.054 216.646 361.848 221.181 366.478C223.257 368.597 223.605 370.633 223.129 373.365L222.264 378.323C222.099 379.209 223.434 379.438 223.574 378.549L224.436 373.59C224.955 370.612 224.47 367.938 222.13 365.549C217.989 361.32 217.256 355.219 220.117 350.247C222.978 345.279 228.86 342.689 234.347 344.344C236.867 345.104 239.067 346.537 240.52 348.127C242.364 350.143 243.665 352.913 243.595 356.468C243.595 356.559 243.613 356.648 243.65 356.731L246.142 362.783C246.325 363.226 246.283 363.507 246.05 363.595L243.81 364.454C243.586 364.539 243.427 364.737 243.39 364.973L242.355 371.597C242.272 372.13 241.61 372.262 241.162 372.405C240.411 372.644 239.409 372.677 238.633 372.567L231.746 370.6C230.452 370.231 230.003 369.73 229.303 368.521C229.184 368.304 228.949 368.17 228.699 368.179C228.195 368.2 227.896 368.75 228.156 369.183C228.919 370.509 229.798 371.428 231.381 371.88L237.729 373.693L236.843 378.311C236.678 379.184 237.985 379.435 238.153 378.561L239.05 373.84C239.875 373.889 240.74 373.922 241.524 373.685C242.499 373.392 243.515 372.772 243.664 371.797L244.639 365.558L246.526 364.837C246.997 364.661 247.372 364.257 247.51 363.781C247.647 363.304 247.58 362.791 247.369 362.282L244.887 356.247C244.89 352.476 243.518 349.392 241.506 347.233C238.755 344.273 235.015 342.651 231.243 342.584Z" fill="white"/>
<path fill-rule="evenodd" clip-rule="evenodd" d="M259.967 352.283H261.598C262.05 352.283 262.392 352.621 262.392 353.073V369.655C262.392 370.105 262.05 370.446 261.598 370.446H259.967C259.518 370.446 259.176 370.105 259.176 369.655V353.073C259.176 352.621 259.518 352.283 259.967 352.283ZM259.967 350.951C258.804 350.951 257.848 351.91 257.848 353.073V369.655C257.848 370.819 258.804 371.774 259.967 371.774H261.598C262.765 371.774 263.72 370.819 263.72 369.655V353.073C263.72 351.91 262.765 350.951 261.598 350.951H259.967Z" fill="#3FA9F5"/>
<path d="M243.39 343.122C242.728 343.162 242.522 344.038 243.1 344.365L244.245 345.037C244.562 345.238 244.987 345.138 245.176 344.81C245.368 344.487 245.249 344.068 244.918 343.888L243.769 343.22C243.655 343.149 243.521 343.115 243.39 343.122Z" fill="#3FA9F5"/>
<path d="M246.829 345.137C246.17 345.174 245.964 346.05 246.54 346.377L247.687 347.049C248.005 347.236 248.411 347.128 248.598 346.814C248.784 346.496 248.68 346.087 248.363 345.901L247.211 345.232C247.098 345.162 246.963 345.128 246.829 345.137Z" fill="#3FA9F5"/>
<path d="M250.277 347.149C249.614 347.186 249.409 348.062 249.986 348.389L251.131 349.061C251.45 349.265 251.874 349.162 252.064 348.835C252.256 348.511 252.137 348.092 251.804 347.912L250.655 347.243C250.543 347.174 250.407 347.14 250.277 347.149Z" fill="#3FA9F5"/>
<path d="M253.715 349.164C253.056 349.201 252.852 350.081 253.426 350.407L254.574 351.079C254.892 351.265 255.298 351.159 255.484 350.841C255.67 350.526 255.567 350.117 255.249 349.931L254.098 349.257C253.981 349.19 253.85 349.156 253.715 349.164Z" fill="#3FA9F5"/>
<path d="M254.872 371.559C254.766 371.568 254.665 371.599 254.573 371.653L253.425 372.325C253.092 372.503 252.976 372.921 253.165 373.247C253.355 373.574 253.779 373.675 254.097 373.474L255.248 372.802C255.867 372.453 255.581 371.507 254.872 371.559Z" fill="#3FA9F5"/>
<path d="M251.429 373.57C251.322 373.58 251.221 373.613 251.132 373.668L249.987 374.338C249.655 374.514 249.535 374.936 249.725 375.259C249.917 375.586 250.339 375.687 250.656 375.485L251.805 374.813C252.424 374.466 252.138 373.519 251.429 373.57Z" fill="#3FA9F5"/>
<path d="M248.051 375.583C247.923 375.581 247.796 375.614 247.687 375.681L246.539 376.351C246.221 376.536 246.114 376.946 246.301 377.263C246.484 377.58 246.893 377.687 247.21 377.501L248.362 376.826C248.949 376.493 248.722 375.602 248.051 375.583Z" fill="#3FA9F5"/>
<path d="M244.542 377.602C244.438 377.611 244.337 377.642 244.246 377.697L243.101 378.369C242.768 378.546 242.649 378.965 242.839 379.292C243.031 379.615 243.453 379.719 243.77 379.515L244.918 378.845C245.538 378.494 245.25 377.547 244.542 377.602Z" fill="#3FA9F5"/>
<path d="M213.174 287.732H214.896V288.99H213.174V291.588H211.656V284.984H213.174V287.732ZM203.945 285.75H209.441V286.98H205.449V290.016C206.671 290.011 207.646 289.984 208.375 289.934C209.109 289.879 209.829 289.774 210.535 289.619L210.699 290.85C209.92 291.009 209.12 291.116 208.3 291.171C207.484 291.226 206.365 291.255 204.943 291.26H203.945V285.75ZM205.162 292.203H206.68V293.475H211.656V292.203H213.174V297.166H205.162V292.203ZM211.656 295.936V294.678H206.68V295.936H211.656ZM225.595 294.117H224.077V291.014H221.589V292.107H215.806V285.805H217.324V287.801H220.085V285.805H221.589V287.131H224.077V284.998H225.595V294.117ZM220.085 290.904V288.977H217.324V290.904H220.085ZM217.447 293.215H218.991V295.867H225.868V297.098H217.447V293.215ZM224.077 289.783V288.361H221.589V289.783H224.077ZM238.344 292.6H233.573V294.732H232.069V292.6H227.051V291.383H238.344V292.6ZM228.419 293.693H229.922V295.867H237.1V297.098H228.419V293.693ZM228.528 285.381H230.032V286.775H235.364V285.381H236.868V290.412H228.528V285.381ZM235.364 289.209V287.91H230.032V289.209H235.364ZM243.369 286.939C243.369 287.477 243.478 287.992 243.697 288.484C243.92 288.972 244.249 289.407 244.681 289.79C245.119 290.168 245.648 290.458 246.267 290.658L245.447 291.875C244.786 291.643 244.217 291.303 243.738 290.856C243.264 290.41 242.893 289.883 242.624 289.277C242.346 289.938 241.954 290.512 241.448 291C240.947 291.483 240.347 291.852 239.65 292.107L238.83 290.891C239.482 290.676 240.033 290.367 240.484 289.961C240.935 289.551 241.273 289.079 241.496 288.546C241.724 288.008 241.838 287.441 241.838 286.844V285.627H243.369V286.939ZM240.812 292.928H249.234V297.344H247.717V294.131H240.812V292.928ZM245.256 287.391H247.717V284.984H249.234V292.326H247.717V288.635H245.256V287.391ZM264.069 297.344H262.537V284.984H264.069V297.344ZM253.829 293.939C255.424 293.183 256.62 292.278 257.417 291.226C258.219 290.173 258.691 288.931 258.832 287.5H254.457V286.297H260.377C260.377 288.261 259.933 289.984 259.044 291.465C258.156 292.946 256.681 294.176 254.621 295.156L253.829 293.939ZM271.978 285.381C271.978 285.818 272.156 286.235 272.511 286.632C272.867 287.024 273.366 287.359 274.008 287.637C274.656 287.91 275.401 288.092 276.244 288.184L275.738 289.332C274.69 289.214 273.767 288.956 272.969 288.56C272.176 288.159 271.582 287.657 271.185 287.056C270.789 287.657 270.194 288.159 269.401 288.56C268.608 288.956 267.694 289.214 266.66 289.332L266.14 288.184C266.983 288.092 267.729 287.91 268.376 287.637C269.027 287.359 269.531 287.024 269.886 286.632C270.242 286.235 270.42 285.818 270.42 285.381V285.053H271.978V285.381ZM265.566 289.947H276.832V291.15H271.937V292.107H275.424V295.17H268.396V296.072H275.765V297.234H266.906V294.076H273.933V293.27H266.892V292.107H270.42V291.15H265.566V289.947Z" fill="white"/>
<path d="M261.464 212.93H242.5C241.845 212.93 241.216 213.191 240.752 213.655C240.288 214.119 240.028 214.747 240.027 215.403V223.651H238.378V215.403C238.377 214.747 238.116 214.119 237.653 213.655C237.189 213.191 236.56 212.93 235.904 212.93H216.94C216.285 212.93 215.656 213.191 215.192 213.655C214.728 214.119 214.468 214.747 214.467 215.403V226.947C214.468 227.602 214.728 228.231 215.192 228.695C215.656 229.158 216.285 229.419 216.94 229.42H217.423L221.887 233.884V229.42H224.361V227.771H220.238V229.903L218.106 227.771H216.94C216.722 227.771 216.512 227.684 216.358 227.529C216.203 227.375 216.116 227.165 216.116 226.947V215.403C216.116 215.185 216.203 214.975 216.358 214.82C216.512 214.666 216.722 214.579 216.94 214.579H235.904C236.123 214.579 236.332 214.666 236.487 214.82C236.642 214.975 236.729 215.185 236.729 215.403V223.651H236.558L234.773 227.797L232.445 228.762L228.245 227.091L224.506 230.83L226.177 235.03L225.212 237.359L221.066 239.144V243.437H222.715V240.229L226.479 238.609L227.956 235.043L226.439 231.229L228.644 229.025L232.457 230.542L236.023 229.064L237.644 225.3H240.761L242.381 229.064L245.947 230.542L249.761 229.025L251.966 231.229L250.448 235.043L251.926 238.609L255.69 240.229V243.437H257.339V239.144L253.193 237.359L252.228 235.03L253.899 230.83L250.16 227.091L245.96 228.762L243.631 227.797L241.847 223.651H241.676V215.403C241.676 215.185 241.763 214.975 241.918 214.82C242.072 214.666 242.282 214.579 242.5 214.579H261.464C261.683 214.579 261.893 214.666 262.047 214.82C262.202 214.975 262.289 215.185 262.289 215.403V226.947C262.289 227.165 262.202 227.375 262.047 227.529C261.893 227.684 261.683 227.771 261.464 227.771H260.298L258.166 229.903V227.771H254.044V229.42H256.517V233.884L260.981 229.42H261.464C262.12 229.419 262.749 229.158 263.213 228.695C263.676 228.231 263.937 227.602 263.938 226.947V215.403C263.937 214.747 263.676 214.119 263.213 213.655C262.749 213.191 262.12 212.93 261.464 212.93Z" fill="white"/>
<path d="M260.639 217.053H243.324V218.702H260.639V217.053Z" fill="#3FA9F5"/>
<path d="M260.639 220.351H243.324V222H260.639V220.351Z" fill="#3FA9F5"/>
<path d="M254.044 223.648H244.975V225.297H254.044V223.648Z" fill="#3FA9F5"/>
<path d="M251.318 241.788H250.716C250.508 238.877 249.204 236.153 247.068 234.164C244.931 232.175 242.121 231.069 239.202 231.069C236.284 231.069 233.473 232.175 231.337 234.164C229.2 236.153 227.897 238.877 227.688 241.788H227.087C226.732 241.788 226.382 241.864 226.06 242.011C225.737 242.159 225.45 242.373 225.218 242.641C224.986 242.909 224.814 243.223 224.714 243.563C224.614 243.903 224.588 244.261 224.638 244.612L225.05 247.492C225.113 247.947 225.303 248.376 225.597 248.729C225.892 249.082 226.279 249.345 226.716 249.489L227.222 249.657C227.371 249.707 227.503 249.799 227.602 249.921C227.701 250.044 227.763 250.192 227.781 250.349L228.156 253.724C228.269 254.769 228.713 255.75 229.423 256.524C230.133 257.298 231.072 257.826 232.102 258.029L232.606 258.13V262.401H234.255V258.13C234.254 257.749 234.122 257.38 233.88 257.085C233.639 256.791 233.303 256.588 232.93 256.513L232.426 256.412C231.739 256.277 231.113 255.925 230.639 255.409C230.166 254.893 229.87 254.239 229.795 253.542L229.42 250.166C229.367 249.697 229.181 249.253 228.884 248.885C228.587 248.518 228.191 248.243 227.743 248.093L227.238 247.924C227.092 247.876 226.963 247.789 226.865 247.671C226.766 247.553 226.703 247.41 226.682 247.259L226.271 244.378C226.254 244.261 226.263 244.142 226.296 244.029C226.329 243.915 226.387 243.811 226.464 243.721C226.541 243.632 226.637 243.561 226.745 243.512C226.852 243.463 226.969 243.437 227.087 243.437H228.484L229.308 243.434V242.609C229.308 239.985 230.351 237.469 232.207 235.614C234.063 233.758 236.58 232.716 239.204 232.717C241.828 232.717 244.344 233.76 246.2 235.616C248.055 237.472 249.097 239.988 249.097 242.613V243.437H251.318C251.436 243.437 251.553 243.463 251.66 243.512C251.768 243.561 251.863 243.632 251.941 243.721C252.018 243.811 252.075 243.915 252.109 244.029C252.142 244.142 252.151 244.261 252.134 244.378L251.723 247.259C251.701 247.411 251.638 247.553 251.54 247.671C251.442 247.789 251.313 247.876 251.167 247.924L250.661 248.093C250.213 248.243 249.818 248.518 249.521 248.885C249.224 249.253 249.038 249.697 248.985 250.166L248.61 253.542C248.534 254.239 248.238 254.893 247.765 255.409C247.292 255.925 246.666 256.277 245.979 256.412L245.475 256.513C245.102 256.588 244.766 256.791 244.524 257.085C244.283 257.38 244.15 257.749 244.149 258.13V262.401H245.798V258.13L246.302 258.029C247.333 257.826 248.272 257.298 248.982 256.524C249.692 255.75 250.136 254.769 250.249 253.724L250.624 250.348C250.642 250.192 250.704 250.044 250.803 249.921C250.902 249.799 251.033 249.707 251.183 249.657L251.688 249.489C252.125 249.345 252.513 249.082 252.807 248.729C253.102 248.376 253.292 247.947 253.355 247.492L253.766 244.612C253.817 244.261 253.791 243.903 253.691 243.563C253.591 243.223 253.419 242.909 253.186 242.641C252.954 242.373 252.667 242.159 252.345 242.011C252.022 241.864 251.672 241.788 251.318 241.788Z" fill="white"/>
<path d="M235.081 217.053H217.766V218.702H235.081V217.053Z" fill="#3FA9F5"/>
<path d="M235.081 220.351H217.766V222H235.081V220.351Z" fill="#3FA9F5"/>
<path d="M230.133 223.648H217.766V225.297H230.133V223.648Z" fill="#3FA9F5"/>
<path d="M103.951 471.541C103.947 472.111 104.054 472.651 104.272 473.161C104.496 473.667 104.826 474.114 105.264 474.501C105.701 474.884 106.234 475.173 106.863 475.369L106.043 476.559C105.382 476.322 104.815 475.987 104.341 475.554C103.867 475.121 103.495 474.606 103.227 474.009C102.949 474.697 102.55 475.294 102.03 475.8C101.511 476.301 100.884 476.682 100.15 476.941L99.3438 475.711C100.009 475.492 100.572 475.175 101.032 474.761C101.493 474.346 101.837 473.87 102.064 473.332C102.297 472.79 102.415 472.215 102.42 471.609V470.434H103.951V471.541ZM101.395 479.744C101.39 479.247 101.556 478.821 101.894 478.466C102.231 478.106 102.714 477.832 103.343 477.646C103.976 477.459 104.726 477.365 105.592 477.365C106.462 477.365 107.214 477.459 107.848 477.646C108.481 477.832 108.966 478.106 109.304 478.466C109.646 478.821 109.816 479.247 109.816 479.744C109.816 480.241 109.646 480.667 109.304 481.022C108.966 481.378 108.481 481.647 107.848 481.829C107.214 482.016 106.462 482.109 105.592 482.109C104.726 482.109 103.976 482.016 103.343 481.829C102.714 481.647 102.231 481.378 101.894 481.022C101.556 480.667 101.39 480.241 101.395 479.744ZM102.898 479.744C102.894 480.118 103.126 480.407 103.596 480.612C104.065 480.813 104.73 480.915 105.592 480.92C106.458 480.915 107.125 480.813 107.595 480.612C108.064 480.407 108.299 480.118 108.299 479.744C108.299 479.357 108.064 479.061 107.595 478.855C107.13 478.65 106.462 478.546 105.592 478.541C104.726 478.546 104.058 478.65 103.589 478.855C103.124 479.061 102.894 479.357 102.898 479.744ZM105.797 472.156H108.258V469.764H109.775V477.037H108.258V473.4H105.797V472.156ZM122.675 472.936H120.993V474.344H122.675V475.588H120.993V477.652H119.476V469.764H120.993V471.691H122.675V472.936ZM111.259 471.021H114.171V469.682H115.689V471.021H118.587V472.211H111.259V471.021ZM111.888 474.918C111.888 474.48 112.016 474.095 112.271 473.763C112.526 473.43 112.881 473.17 113.337 472.983C113.797 472.797 114.326 472.703 114.923 472.703C115.511 472.703 116.033 472.797 116.489 472.983C116.949 473.17 117.307 473.43 117.562 473.763C117.817 474.095 117.945 474.48 117.945 474.918C117.945 475.355 117.817 475.741 117.562 476.073C117.307 476.406 116.949 476.663 116.489 476.846C116.033 477.028 115.511 477.119 114.923 477.119C114.326 477.119 113.797 477.028 113.337 476.846C112.881 476.663 112.526 476.406 112.271 476.073C112.016 475.741 111.888 475.355 111.888 474.918ZM112.872 479.936C112.868 479.48 113.03 479.09 113.358 478.767C113.69 478.438 114.167 478.19 114.786 478.021C115.411 477.848 116.149 477.762 117.001 477.762C117.844 477.762 118.576 477.848 119.196 478.021C119.815 478.19 120.292 478.438 120.624 478.767C120.962 479.095 121.13 479.484 121.13 479.936C121.13 480.387 120.962 480.774 120.624 481.098C120.292 481.426 119.815 481.676 119.196 481.85C118.576 482.023 117.844 482.109 117.001 482.109C116.149 482.109 115.411 482.023 114.786 481.85C114.167 481.676 113.69 481.426 113.358 481.098C113.03 480.774 112.868 480.387 112.872 479.936ZM113.365 474.918C113.36 475.246 113.497 475.504 113.775 475.69C114.053 475.877 114.426 475.971 114.896 475.971C115.383 475.971 115.771 475.88 116.058 475.697C116.35 475.51 116.495 475.251 116.495 474.918C116.495 474.581 116.352 474.314 116.065 474.118C115.778 473.922 115.397 473.824 114.923 473.824C114.449 473.824 114.069 473.922 113.782 474.118C113.499 474.314 113.36 474.581 113.365 474.918ZM114.376 479.936C114.372 480.264 114.597 480.517 115.053 480.694C115.509 480.872 116.158 480.961 117.001 480.961C117.835 480.961 118.478 480.872 118.929 480.694C119.38 480.517 119.608 480.264 119.613 479.936C119.608 479.603 119.382 479.352 118.936 479.184C118.489 479.01 117.844 478.924 117.001 478.924C116.149 478.924 115.497 479.01 115.046 479.184C114.595 479.352 114.372 479.603 114.376 479.936ZM134.344 477.379H129.573V479.512H128.069V477.379H123.051V476.162H134.344V477.379ZM124.419 478.473H125.922V480.646H133.1V481.877H124.419V478.473ZM124.528 470.16H126.032V471.555H131.364V470.16H132.868V475.191H124.528V470.16ZM131.364 473.988V472.689H126.032V473.988H131.364ZM139.369 471.719C139.369 472.257 139.478 472.771 139.697 473.264C139.92 473.751 140.249 474.187 140.681 474.569C141.119 474.948 141.648 475.237 142.267 475.438L141.447 476.654C140.786 476.422 140.217 476.082 139.738 475.636C139.264 475.189 138.893 474.663 138.624 474.057C138.346 474.717 137.954 475.292 137.448 475.779C136.947 476.262 136.347 476.632 135.65 476.887L134.83 475.67C135.482 475.456 136.033 475.146 136.484 474.74C136.935 474.33 137.273 473.858 137.496 473.325C137.724 472.787 137.838 472.22 137.838 471.623V470.406H139.369V471.719ZM136.812 477.707H145.234V482.123H143.717V478.91H136.812V477.707ZM141.256 472.17H143.717V469.764H145.234V477.105H143.717V473.414H141.256V472.17ZM160.069 482.123H158.537V469.764H160.069V482.123ZM149.829 478.719C151.424 477.962 152.62 477.058 153.417 476.005C154.219 474.952 154.691 473.71 154.832 472.279H150.457V471.076H156.377C156.377 473.04 155.933 474.763 155.044 476.244C154.156 477.725 152.681 478.956 150.621 479.936L149.829 478.719ZM167.978 470.16C167.978 470.598 168.156 471.015 168.511 471.411C168.867 471.803 169.366 472.138 170.008 472.416C170.656 472.689 171.401 472.872 172.244 472.963L171.738 474.111C170.69 473.993 169.767 473.735 168.969 473.339C168.176 472.938 167.582 472.437 167.185 471.835C166.789 472.437 166.194 472.938 165.401 473.339C164.608 473.735 163.694 473.993 162.66 474.111L162.14 472.963C162.983 472.872 163.729 472.689 164.376 472.416C165.027 472.138 165.531 471.803 165.886 471.411C166.242 471.015 166.42 470.598 166.42 470.16V469.832H167.978V470.16ZM161.566 474.727H172.832V475.93H167.937V476.887H171.424V479.949H164.396V480.852H171.765V482.014H162.906V478.855H169.933V478.049H162.892V476.887H166.42V475.93H161.566V474.727Z" fill="white"/>
<g clip-path="url(#clip4_1581_1457)">
<path d="M118.88 425.75C117.283 425.75 115.988 427.044 115.988 428.641C115.988 430.238 117.283 431.533 118.88 431.533H119.293C119.293 438.834 125.211 444.752 132.512 444.752C139.812 444.752 145.731 438.834 145.731 431.533H146.144C147.741 431.533 149.036 430.238 149.036 428.641C149.036 427.044 147.741 425.75 146.144 425.75" stroke="white" stroke-width="1.50769" stroke-miterlimit="10" stroke-linecap="round" stroke-linejoin="round"/>
<path d="M126.729 409.057C121.451 410.792 117.641 415.76 117.641 421.618V425.749" stroke="white" stroke-width="1.50769" stroke-miterlimit="10" stroke-linecap="round" stroke-linejoin="round"/>
<path d="M122.598 448.057V440.414" stroke="white" stroke-width="1.50769" stroke-miterlimit="10" stroke-linecap="round" stroke-linejoin="round"/>
<path d="M142.426 448.057V440.414" stroke="white" stroke-width="1.50769" stroke-miterlimit="10" stroke-linecap="round" stroke-linejoin="round"/>
<path d="M142.794 401.791C143.078 401.303 143.252 400.743 143.252 400.138C143.252 398.313 141.773 396.834 139.947 396.834C138.122 396.834 136.643 398.313 136.643 400.138C136.643 400.743 136.817 401.303 137.101 401.791H131.686C130.773 401.791 130.033 402.531 130.033 403.443V408.859C130.521 408.575 131.081 408.4 131.686 408.4C133.511 408.4 134.99 409.88 134.99 411.705C134.99 413.53 133.511 415.01 131.686 415.01C131.081 415.01 130.521 414.835 130.033 414.551V419.967C130.033 420.879 130.773 421.619 131.686 421.619H137.101C136.817 421.131 136.643 420.572 136.643 419.967C136.643 418.142 138.122 416.662 139.947 416.662C141.773 416.662 143.252 418.142 143.252 419.967C143.252 420.572 143.078 421.131 142.794 421.619H148.209C149.122 421.619 149.862 420.879 149.862 419.967V414.551C150.349 414.835 150.909 415.01 151.514 415.01C153.339 415.01 154.819 413.53 154.819 411.705C154.819 409.88 153.339 408.4 151.514 408.4C150.909 408.4 150.349 408.575 149.862 408.859V403.443C149.862 402.531 149.122 401.791 148.209 401.791H146.557" stroke="#3FA9F5" stroke-width="1.50769" stroke-miterlimit="10" stroke-linecap="round" stroke-linejoin="round"/>
</g>
<defs>
<filter id="filter0_b_1581_1457" x="67.8538" y="14.0041" width="240.966" height="545.356" filterUnits="userSpaceOnUse" color-interpolation-filters="sRGB">
<feFlood flood-opacity="0" result="BackgroundImageFix"/>
<feGaussianBlur in="BackgroundImageFix" stdDeviation="1.50769"/>
<feComposite in2="SourceAlpha" operator="in" result="effect1_backgroundBlur_1581_1457"/>
<feBlend mode="normal" in="SourceGraphic" in2="effect1_backgroundBlur_1581_1457" result="shape"/>
</filter>
<linearGradient id="paint0_linear_1581_1457" x1="217.505" y1="366.011" x2="217.504" y2="207.982" gradientUnits="userSpaceOnUse">
<stop stop-color="#3FA9F5"/>
<stop offset="1" stop-color="#008BD9"/>
</linearGradient>
<linearGradient id="paint1_linear_1581_1457" x1="177.997" y1="406.252" x2="177.997" y2="286.997" gradientUnits="userSpaceOnUse">
<stop stop-color="#3FA9F5"/>
<stop offset="1" stop-color="#008BD9"/>
</linearGradient>
<linearGradient id="paint2_linear_1581_1457" x1="196.493" y1="444.538" x2="196.493" y2="129.468" gradientUnits="userSpaceOnUse">
<stop stop-color="#3FA9F5"/>
<stop offset="1" stop-color="#008BD9"/>
</linearGradient>
<linearGradient id="paint3_linear_1581_1457" x1="177.999" y1="480.107" x2="177.999" y2="93.8857" gradientUnits="userSpaceOnUse">
<stop stop-color="#3FA9F5"/>
<stop offset="1" stop-color="#008BD9"/>
</linearGradient>
<linearGradient id="paint4_linear_1581_1457" x1="294.797" y1="520.599" x2="294.797" y2="53.3949" gradientUnits="userSpaceOnUse">
<stop stop-color="#3FA9F5"/>
<stop offset="1" stop-color="#008BD9"/>
</linearGradient>
<linearGradient id="paint5_linear_1581_1457" x1="313.57" y1="558.142" x2="313.57" y2="15.8516" gradientUnits="userSpaceOnUse">
<stop stop-color="#3FA9F5"/>
<stop offset="1" stop-color="#008BD9"/>
</linearGradient>
<linearGradient id="paint6_linear_1581_1457" x1="177.498" y1="570.412" x2="177.498" y2="286.996" gradientUnits="userSpaceOnUse">
<stop stop-color="#3FA9F5"/>
<stop offset="1" stop-color="#008BD9"/>
</linearGradient>
<linearGradient id="paint7_linear_1581_1457" x1="177.998" y1="574" x2="177.998" y2="568.355" gradientUnits="userSpaceOnUse">
<stop stop-color="#3FA9F5"/>
<stop offset="1" stop-color="#008BD9"/>
</linearGradient>
<linearGradient id="paint8_linear_1581_1457" x1="320.091" y1="535.929" x2="320.091" y2="530.283" gradientUnits="userSpaceOnUse">
<stop stop-color="#3FA9F5"/>
<stop offset="1" stop-color="#008BD9"/>
</linearGradient>
<linearGradient id="paint9_linear_1581_1457" x1="300.717" y1="428.708" x2="300.717" y2="286.997" gradientUnits="userSpaceOnUse">
<stop stop-color="#3FA9F5"/>
<stop offset="1" stop-color="#008BD9"/>
</linearGradient>
<linearGradient id="paint10_linear_1581_1457" x1="319.704" y1="286.996" x2="319.704" y2="285.996" gradientUnits="userSpaceOnUse">
<stop stop-color="#3FA9F5"/>
<stop offset="1" stop-color="#008BD9"/>
</linearGradient>
<linearGradient id="paint11_linear_1581_1457" x1="300.717" y1="286.996" x2="300.717" y2="145.292" gradientUnits="userSpaceOnUse">
<stop stop-color="#3FA9F5"/>
<stop offset="1" stop-color="#008BD9"/>
</linearGradient>
<linearGradient id="paint12_linear_1581_1457" x1="177.498" y1="286.996" x2="177.498" y2="76.6993" gradientUnits="userSpaceOnUse">
<stop stop-color="#3FA9F5"/>
<stop offset="1" stop-color="#008BD9"/>
</linearGradient>
<linearGradient id="paint13_linear_1581_1457" x1="177.998" y1="78.2207" x2="177.998" y2="72.5745" gradientUnits="userSpaceOnUse">
<stop stop-color="#3FA9F5"/>
<stop offset="1" stop-color="#008BD9"/>
</linearGradient>
<linearGradient id="paint14_linear_1581_1457" x1="107.144" y1="286.996" x2="107.144" y2="41.5542" gradientUnits="userSpaceOnUse">
<stop stop-color="#3FA9F5"/>
<stop offset="1" stop-color="#008BD9"/>
</linearGradient>
<linearGradient id="paint15_linear_1581_1457" x1="35.9097" y1="43.7168" x2="35.9097" y2="38.0714" gradientUnits="userSpaceOnUse">
<stop stop-color="#3FA9F5"/>
<stop offset="1" stop-color="#008BD9"/>
</linearGradient>
<linearGradient id="paint16_linear_1581_1457" x1="85.9186" y1="286.996" x2="85.9186" y2="180.675" gradientUnits="userSpaceOnUse">
<stop stop-color="#3FA9F5"/>
<stop offset="1" stop-color="#008BD9"/>
</linearGradient>
<linearGradient id="paint17_linear_1581_1457" x1="74.3549" y1="286.754" x2="74.355" y2="285.754" gradientUnits="userSpaceOnUse">
<stop stop-color="#3FA9F5"/>
<stop offset="1" stop-color="#008BD9"/>
</linearGradient>
<linearGradient id="paint18_linear_1581_1457" x1="-57.6153" y1="248.368" x2="-57.6153" y2="247.368" gradientUnits="userSpaceOnUse">
<stop stop-color="#3FA9F5"/>
<stop offset="1" stop-color="#008BD9"/>
</linearGradient>
<linearGradient id="paint19_linear_1581_1457" x1="55.2752" y1="428.708" x2="55.2752" y2="286.997" gradientUnits="userSpaceOnUse">
<stop stop-color="#3FA9F5"/>
<stop offset="1" stop-color="#008BD9"/>
</linearGradient>
<linearGradient id="paint20_linear_1581_1457" x1="107.144" y1="532.438" x2="107.144" y2="286.997" gradientUnits="userSpaceOnUse">
<stop stop-color="#3FA9F5"/>
<stop offset="1" stop-color="#008BD9"/>
</linearGradient>
<linearGradient id="paint21_linear_1581_1457" x1="35.9097" y1="535.929" x2="35.9097" y2="530.283" gradientUnits="userSpaceOnUse">
<stop stop-color="#3FA9F5"/>
<stop offset="1" stop-color="#008BD9"/>
</linearGradient>
<linearGradient id="paint22_linear_1581_1457" x1="240.823" y1="432.877" x2="240.823" y2="323.524" gradientUnits="userSpaceOnUse">
<stop stop-color="#4D98D2" stop-opacity="0.24"/>
<stop offset="1" stop-color="#63FFEC" stop-opacity="0.06"/>
</linearGradient>
<linearGradient id="paint23_linear_1581_1457" x1="240.823" y1="432.877" x2="240.823" y2="323.524" gradientUnits="userSpaceOnUse">
<stop stop-color="#3FA9F5"/>
<stop offset="1" stop-color="#008BD9"/>
</linearGradient>
<linearGradient id="paint24_linear_1581_1457" x1="240.265" y1="309.753" x2="240.265" y2="200.4" gradientUnits="userSpaceOnUse">
<stop stop-color="#4D98D2" stop-opacity="0.24"/>
<stop offset="1" stop-color="#63FFEC" stop-opacity="0.06"/>
</linearGradient>
<linearGradient id="paint25_linear_1581_1457" x1="240.265" y1="309.753" x2="240.265" y2="200.4" gradientUnits="userSpaceOnUse">
<stop stop-color="#3FA9F5"/>
<stop offset="1" stop-color="#008BD9"/>
</linearGradient>
<linearGradient id="paint26_linear_1581_1457" x1="135.158" y1="494.353" x2="135.158" y2="385" gradientUnits="userSpaceOnUse">
<stop stop-color="#4D98D2" stop-opacity="0.24"/>
<stop offset="1" stop-color="#63FFEC" stop-opacity="0.06"/>
</linearGradient>
<linearGradient id="paint27_linear_1581_1457" x1="135.158" y1="494.353" x2="135.158" y2="385" gradientUnits="userSpaceOnUse">
<stop stop-color="#3FA9F5"/>
<stop offset="1" stop-color="#008BD9"/>
</linearGradient>
<linearGradient id="paint28_linear_1581_1457" x1="135.148" y1="127.363" x2="135.148" y2="17.9996" gradientUnits="userSpaceOnUse">
<stop stop-color="#4D98D2" stop-opacity="0.24"/>
<stop offset="1" stop-color="#63FFEC" stop-opacity="0.06"/>
</linearGradient>
<linearGradient id="paint29_linear_1581_1457" x1="135.148" y1="127.363" x2="135.148" y2="17.9996" gradientUnits="userSpaceOnUse">
<stop stop-color="#3FA9F5"/>
<stop offset="1" stop-color="#008BD9"/>
</linearGradient>
<linearGradient id="paint30_linear_1581_1457" x1="241.533" y1="186.522" x2="241.533" y2="77.1686" gradientUnits="userSpaceOnUse">
<stop stop-color="#4D98D2" stop-opacity="0.24"/>
<stop offset="1" stop-color="#63FFEC" stop-opacity="0.06"/>
</linearGradient>
<linearGradient id="paint31_linear_1581_1457" x1="241.533" y1="186.522" x2="241.533" y2="77.1686" gradientUnits="userSpaceOnUse">
<stop stop-color="#3FA9F5"/>
<stop offset="1" stop-color="#008BD9"/>
</linearGradient>
<linearGradient id="paint32_linear_1581_1457" x1="135.142" y1="371.851" x2="135.142" y2="262.498" gradientUnits="userSpaceOnUse">
<stop stop-color="#4D98D2" stop-opacity="0.24"/>
<stop offset="1" stop-color="#63FFEC" stop-opacity="0.06"/>
</linearGradient>
<linearGradient id="paint33_linear_1581_1457" x1="135.142" y1="371.851" x2="135.142" y2="262.498" gradientUnits="userSpaceOnUse">
<stop stop-color="#3FA9F5"/>
<stop offset="1" stop-color="#008BD9"/>
</linearGradient>
<linearGradient id="paint34_linear_1581_1457" x1="135.142" y1="249.353" x2="135.142" y2="140" gradientUnits="userSpaceOnUse">
<stop stop-color="#4D98D2" stop-opacity="0.24"/>
<stop offset="1" stop-color="#63FFEC" stop-opacity="0.06"/>
</linearGradient>
<linearGradient id="paint35_linear_1581_1457" x1="135.142" y1="249.353" x2="135.142" y2="140" gradientUnits="userSpaceOnUse">
<stop stop-color="#3FA9F5"/>
<stop offset="1" stop-color="#008BD9"/>
</linearGradient>
<linearGradient id="paint36_linear_1581_1457" x1="240.153" y1="555.364" x2="240.153" y2="446" gradientUnits="userSpaceOnUse">
<stop stop-color="#4D98D2" stop-opacity="0.24"/>
<stop offset="1" stop-color="#63FFEC" stop-opacity="0.06"/>
</linearGradient>
<linearGradient id="paint37_linear_1581_1457" x1="240.153" y1="555.364" x2="240.153" y2="446" gradientUnits="userSpaceOnUse">
<stop stop-color="#3FA9F5"/>
<stop offset="1" stop-color="#008BD9"/>
</linearGradient>
<clipPath id="clip0_1581_1457">
<rect width="574" height="574" fill="white" transform="translate(465 574) rotate(180)"/>
</clipPath>
<clipPath id="clip1_1581_1457">
<rect width="52.7692" height="52.7692" fill="white" transform="translate(214.141 454.597)"/>
</clipPath>
<clipPath id="clip2_1581_1457">
<rect width="52.7692" height="52.7692" fill="white" transform="translate(108.016 268.338)"/>
</clipPath>
<clipPath id="clip3_1581_1457">
<rect width="64.0769" height="43.7231" fill="white" transform="translate(209.709 93.9824)"/>
</clipPath>
<clipPath id="clip4_1581_1457">
<rect width="52.7692" height="52.7692" fill="white" transform="translate(109.016 396.06)"/>
</clipPath>
</defs>
</svg>
