<svg width="648" height="648" viewBox="0 0 648 648" fill="none" xmlns="http://www.w3.org/2000/svg">
<g style="mix-blend-mode:screen" clip-path="url(#clip0_1581_206)">
<g style="mix-blend-mode:overlay">
<path d="M323.996 413.197C373.263 413.197 413.197 373.263 413.197 323.996C413.197 274.73 373.263 234.795 323.996 234.795" stroke="url(#paint0_linear_1581_206)" stroke-width="0.603077" stroke-miterlimit="10"/>
</g>
<g style="mix-blend-mode:overlay">
<path d="M189.368 323.996C189.368 398.347 249.646 458.625 323.997 458.625C398.349 458.625 458.627 398.347 458.627 323.996" stroke="url(#paint1_linear_1581_206)" stroke-width="0.603077" stroke-miterlimit="10"/>
</g>
<g style="mix-blend-mode:overlay">
<path d="M274.762 494.942C290.397 499.439 306.918 501.849 323.997 501.849C422.216 501.849 501.842 422.223 501.842 324.004C501.842 225.785 422.216 146.159 323.997 146.159C269.393 146.159 220.543 170.765 187.916 209.499" stroke="url(#paint2_linear_1581_206)" stroke-width="0.753846" stroke-miterlimit="10"/>
</g>
<g style="mix-blend-mode:overlay">
<path d="M323.995 105.99C203.596 105.99 105.989 203.597 105.989 323.996C105.989 444.396 203.596 542.003 323.995 542.003C418.871 542.003 499.587 481.403 529.554 396.793C537.614 374.024 542.01 349.52 542.01 323.988" stroke="url(#paint3_linear_1581_206)" stroke-width="0.603077" stroke-miterlimit="10"/>
</g>
<g style="mix-blend-mode:overlay">
<path d="M323.995 587.714C469.644 587.714 587.713 469.645 587.713 323.996C587.713 178.347 469.644 60.2784 323.995 60.2784" stroke="url(#paint4_linear_1581_206)" stroke-width="0.603077" stroke-miterlimit="10"/>
</g>
<g style="mix-blend-mode:overlay">
<path d="M323.997 630.097C493.051 630.097 630.098 493.05 630.098 323.996C630.098 154.942 493.051 17.8948 323.997 17.8948" stroke="url(#paint5_linear_1581_206)" stroke-width="0.603077" stroke-miterlimit="10"/>
</g>
<g style="mix-blend-mode:overlay">
<path d="M323.996 643.95L323.996 323.996" stroke="url(#paint6_linear_1581_206)" stroke-width="0.603077" stroke-miterlimit="10"/>
<path d="M323.997 641.627C322.237 641.627 320.81 643.054 320.81 644.813C320.81 646.573 322.237 648 323.997 648C325.757 648 327.184 646.573 327.184 644.813C327.184 643.054 325.757 641.627 323.997 641.627Z" fill="url(#paint7_linear_1581_206)"/>
</g>
<g style="mix-blend-mode:overlay">
<path d="M484.409 598.647C482.649 598.647 481.223 600.074 481.223 601.834C481.223 603.594 482.649 605.021 484.409 605.021C486.169 605.021 487.596 603.594 487.596 601.834C487.596 600.074 486.169 598.647 484.409 598.647Z" fill="url(#paint8_linear_1581_206)"/>
</g>
<g style="mix-blend-mode:overlay">
<path d="M601.078 483.977L323.994 323.996" stroke="url(#paint9_linear_1581_206)" stroke-width="0.603077" stroke-miterlimit="10"/>
<path d="M601.833 481.222C600.073 481.222 598.646 482.648 598.646 484.408C598.646 486.168 600.073 487.595 601.833 487.595C603.593 487.595 605.02 486.168 605.02 484.408C605.02 482.648 603.593 481.222 601.833 481.222Z" fill="url(#paint10_linear_1581_206)"/>
</g>
<g style="mix-blend-mode:overlay">
<path d="M643.949 323.995L323.995 323.995" stroke="url(#paint11_linear_1581_206)" stroke-width="0.603077" stroke-miterlimit="10"/>
<path d="M644.813 320.808C643.054 320.808 641.627 322.235 641.627 323.995C641.627 325.755 643.054 327.182 644.813 327.182C646.573 327.182 648 325.755 648 323.995C648 322.235 646.573 320.808 644.813 320.808Z" fill="url(#paint12_linear_1581_206)"/>
</g>
<g style="mix-blend-mode:overlay">
<path d="M601.078 164.023L323.994 323.996" stroke="url(#paint13_linear_1581_206)" stroke-width="0.603077" stroke-miterlimit="10"/>
<path d="M601.833 160.405C600.073 160.405 598.646 161.832 598.646 163.592C598.646 165.352 600.073 166.778 601.833 166.778C603.593 166.778 605.02 165.352 605.02 163.592C605.02 161.832 603.593 160.405 601.833 160.405Z" fill="url(#paint14_linear_1581_206)"/>
</g>
<g style="mix-blend-mode:overlay">
<path d="M323.998 86.5879L323.998 323.996" stroke="url(#paint15_linear_1581_206)" stroke-width="0.603077" stroke-miterlimit="10"/>
<path d="M323.997 81.9315C322.237 81.9315 320.81 83.3584 320.81 85.1186C320.81 86.8788 322.237 88.3057 323.997 88.3057C325.757 88.3057 327.184 86.8788 327.184 85.1186C327.184 83.3584 325.757 81.9315 323.997 81.9315Z" fill="url(#paint16_linear_1581_206)"/>
</g>
<g style="mix-blend-mode:overlay">
<path d="M164.023 46.9119L323.996 323.996" stroke="url(#paint17_linear_1581_206)" stroke-width="0.603077" stroke-miterlimit="10"/>
<path d="M163.591 42.9803C161.831 42.9803 160.404 44.407 160.404 46.1669C160.404 47.9268 161.831 49.3535 163.591 49.3535C165.351 49.3535 166.777 47.9268 166.777 46.1669C166.777 44.407 165.351 42.9803 163.591 42.9803Z" fill="url(#paint18_linear_1581_206)"/>
</g>
<g style="mix-blend-mode:overlay">
<path d="M116.1 203.968L323.996 323.996" stroke="url(#paint19_linear_1581_206)" stroke-width="0.603077" stroke-miterlimit="10"/>
<path d="M115.541 201.253C114.22 201.253 113.15 202.324 113.15 203.644C113.15 204.965 114.22 206.035 115.541 206.035C116.861 206.035 117.932 204.965 117.932 203.644C117.932 202.324 116.861 201.253 115.541 201.253Z" fill="url(#paint20_linear_1581_206)"/>
</g>
<g style="mix-blend-mode:overlay">
<path d="M90.2644 323.723L323.723 323.723" stroke="url(#paint21_linear_1581_206)" stroke-width="0.603077" stroke-miterlimit="10"/>
<path d="M87.3212 320.81C85.5613 320.81 84.1346 322.237 84.1346 323.997C84.1346 325.757 85.5613 327.184 87.3212 327.184C89.0811 327.184 90.5078 325.757 90.5078 323.997C90.5078 322.237 89.0811 320.81 87.3212 320.81Z" fill="url(#paint22_linear_1581_206)"/>
</g>
<g style="mix-blend-mode:overlay">
<path d="M-13.9283 280.388L129.947 280.388" stroke="url(#paint23_linear_1581_206)" stroke-width="0.603077" stroke-miterlimit="10"/>
</g>
<path d="M3.18793 277.475C1.42776 277.475 0.000864073 278.902 0.000864227 280.662C0.000864381 282.422 1.42776 283.849 3.18793 283.849C4.9481 283.849 6.375 282.422 6.375 280.662C6.375 278.902 4.9481 277.475 3.18793 277.475Z" fill="url(#paint24_linear_1581_206)"/>
<g style="mix-blend-mode:overlay">
<path d="M46.912 483.977L323.996 323.996" stroke="url(#paint25_linear_1581_206)" stroke-width="0.753846" stroke-miterlimit="10"/>
<path d="M46.1669 481.222C44.407 481.222 42.9803 482.648 42.9803 484.408C42.9803 486.168 44.407 487.595 46.1669 487.595C47.9268 487.595 49.3535 486.168 49.3535 484.408C49.3535 482.648 47.9268 481.222 46.1669 481.222Z" fill="url(#paint26_linear_1581_206)"/>
</g>
<g style="mix-blend-mode:overlay">
<path d="M164.023 601.081L323.996 323.997" stroke="url(#paint27_linear_1581_206)" stroke-width="0.603077" stroke-miterlimit="10"/>
<path d="M163.591 598.647C161.831 598.647 160.404 600.074 160.404 601.834C160.404 603.594 161.831 605.021 163.591 605.021C165.351 605.021 166.777 603.594 166.777 601.834C166.777 600.074 165.351 598.647 163.591 598.647Z" fill="url(#paint28_linear_1581_206)"/>
</g>
<g opacity="0.8" filter="url(#filter0_b_1581_206)">
<path d="M240.238 548.66L303.374 548.66L334.941 493.989L303.374 439.307L240.238 439.307L208.67 493.989L240.238 548.66Z" fill="url(#paint29_linear_1581_206)" stroke="url(#paint30_linear_1581_206)" stroke-width="1.96" stroke-miterlimit="10"/>
<path d="M240.238 425.54L303.374 425.54L334.941 370.858L303.374 316.187L240.238 316.187L208.67 370.858L240.238 425.54Z" fill="url(#paint31_linear_1581_206)" stroke="url(#paint32_linear_1581_206)" stroke-width="1.96" stroke-miterlimit="10"/>
<path d="M239.679 302.416L302.815 302.416L334.383 247.734L302.815 193.063L239.679 193.063L208.112 247.734L239.679 302.416Z" fill="url(#paint33_linear_1581_206)" stroke="url(#paint34_linear_1581_206)" stroke-width="1.96" stroke-miterlimit="10"/>
<path d="M31.567 302.416L94.7025 302.416L126.281 247.734L94.7025 193.063L31.567 193.063L-0.000836384 247.734L31.567 302.416Z" fill="url(#paint35_linear_1581_206)" stroke="url(#paint36_linear_1581_206)" stroke-width="1.96" stroke-miterlimit="10"/>
<path d="M239.679 179.296L302.815 179.296L334.383 124.614L302.815 69.943L239.679 69.943L208.112 124.614L239.679 179.296Z" fill="url(#paint37_linear_1581_206)" stroke="url(#paint38_linear_1581_206)" stroke-width="1.96" stroke-miterlimit="10"/>
<path d="M344.217 365.317L407.352 365.317L438.92 310.636L407.352 255.954L344.217 255.954L312.649 310.636L344.217 365.317Z" fill="url(#paint39_linear_1581_206)" stroke="url(#paint40_linear_1581_206)" stroke-width="1.96" stroke-miterlimit="10"/>
<path d="M344.996 242.016L408.131 242.016L439.699 187.345L408.131 132.663L344.996 132.663L313.428 187.345L344.996 242.016Z" fill="url(#paint41_linear_1581_206)" stroke="url(#paint42_linear_1581_206)" stroke-width="1.96" stroke-miterlimit="10"/>
<g style="mix-blend-mode:overlay" opacity="0.74">
<path d="M345.095 241.789L313.528 187.118L345.095 132.436L408.231 132.436L439.799 187.118" stroke="white" stroke-width="1.96" stroke-miterlimit="10"/>
</g>
<g style="mix-blend-mode:overlay" opacity="0.74">
<path d="M239.449 193.053L207.881 247.724L239.449 302.406L302.585 302.406L334.152 247.724" stroke="white" stroke-width="1.96" stroke-miterlimit="10"/>
</g>
<path d="M553.297 365.139L616.432 365.139L648 310.457L616.432 255.775L553.297 255.775L521.729 310.457L553.297 365.139Z" fill="url(#paint43_linear_1581_206)" stroke="url(#paint44_linear_1581_206)" stroke-width="1.96" stroke-miterlimit="10"/>
<path d="M450.251 425.54L513.397 425.54L544.965 370.869L513.397 316.187L450.251 316.187L418.683 370.869L450.251 425.54Z" fill="url(#paint45_linear_1581_206)" stroke="url(#paint46_linear_1581_206)" stroke-width="1.96" stroke-miterlimit="10"/>
<path d="M447.2 302.416L510.346 302.416L541.914 247.734L510.346 193.063L447.2 193.063L415.632 247.734L447.2 302.416Z" fill="url(#paint47_linear_1581_206)" stroke="url(#paint48_linear_1581_206)" stroke-width="1.96" stroke-miterlimit="10"/>
<path d="M135.642 486.711L198.778 486.711L230.346 432.029L198.778 377.347L135.642 377.347L104.074 432.029L135.642 486.711Z" fill="url(#paint49_linear_1581_206)" stroke="url(#paint50_linear_1581_206)" stroke-width="1.96" stroke-miterlimit="10"/>
<path d="M134.551 364.514L197.698 364.514L229.266 309.843L197.698 255.161L134.551 255.161L102.984 309.843L134.551 364.514Z" fill="url(#paint51_linear_1581_206)" stroke="url(#paint52_linear_1581_206)" stroke-width="1.96" stroke-miterlimit="10"/>
<path d="M134.551 242.016L197.698 242.016L229.266 187.345L197.698 132.663L134.551 132.663L102.984 187.345L134.551 242.016Z" fill="url(#paint53_linear_1581_206)" stroke="url(#paint54_linear_1581_206)" stroke-width="1.96" stroke-miterlimit="10"/>
<path d="M344.443 486.711L407.579 486.711L439.146 432.029L407.579 377.347L344.443 377.347L312.875 432.029L344.443 486.711Z" fill="url(#paint55_linear_1581_206)" stroke="url(#paint56_linear_1581_206)" stroke-width="1.96" stroke-miterlimit="10"/>
<g style="mix-blend-mode:overlay" opacity="0.74">
<path d="M513.006 316.019L544.574 370.69L513.006 425.371L449.871 425.371L418.303 370.69" stroke="white" stroke-width="1.96" stroke-miterlimit="10"/>
</g>
<g style="mix-blend-mode:overlay" opacity="0.74">
<path d="M408.227 486.851L439.795 432.18L408.227 377.498L345.091 377.498L313.523 432.18" stroke="white" stroke-width="1.96" stroke-miterlimit="10"/>
</g>
<g style="mix-blend-mode:overlay" opacity="0.74">
<path d="M198.67 486.851L230.238 432.18L198.67 377.498L135.535 377.498L103.967 432.18" stroke="white" stroke-width="1.96" stroke-miterlimit="10"/>
</g>
</g>
<path d="M240.086 524.671C240.081 525.432 240.207 526.173 240.462 526.893C240.717 527.613 241.086 528.253 241.569 528.813C242.052 529.374 242.62 529.793 243.271 530.071L242.369 531.288C241.672 530.965 241.063 530.495 240.544 529.88C240.029 529.26 239.626 528.538 239.334 527.713C239.042 528.602 238.63 529.381 238.097 530.051C237.568 530.721 236.937 531.229 236.203 531.575L235.273 530.304C235.943 530.017 236.524 529.584 237.017 529.005C237.509 528.422 237.885 527.754 238.145 527.002C238.404 526.25 238.536 525.473 238.541 524.671V522.702H240.086V524.671ZM244.16 521.704H245.691V534.077H244.16V521.704ZM251.728 523.892C251.723 524.448 251.83 524.983 252.049 525.498C252.272 526.013 252.603 526.471 253.04 526.872C253.478 527.269 254.006 527.574 254.626 527.788L253.792 528.978C253.136 528.731 252.571 528.378 252.097 527.918C251.623 527.458 251.252 526.918 250.983 526.298C250.714 526.991 250.326 527.592 249.821 528.103C249.315 528.613 248.706 529 247.995 529.265L247.189 528.062C247.831 527.843 248.378 527.521 248.829 527.098C249.281 526.674 249.62 526.184 249.848 525.628C250.076 525.072 250.192 524.489 250.197 523.878V522.47H251.728V523.892ZM249.431 529.894H250.976V532.587H257.853V533.817H249.431V529.894ZM253.601 524.438H256.062V521.718H257.579V530.892H256.062V525.683H253.601V524.438ZM270.315 530.372H265.42V534.077H263.917V530.372H259.049V529.128H270.315V530.372ZM259.665 527.173C260.462 527.077 261.173 526.888 261.797 526.605C262.422 526.318 262.916 525.979 263.281 525.587C263.645 525.19 263.853 524.785 263.903 524.37H260.088V523.167H263.917V521.718H265.42V523.167H269.262V524.37H265.448C265.498 524.785 265.703 525.188 266.063 525.58C266.428 525.972 266.922 526.312 267.546 526.599C268.171 526.886 268.879 527.077 269.672 527.173L269.112 528.376C268.105 528.248 267.216 527.977 266.446 527.562C265.676 527.148 265.088 526.637 264.682 526.031C264.272 526.642 263.677 527.155 262.898 527.569C262.123 527.979 261.228 528.248 260.211 528.376L259.665 527.173ZM275.408 523.823C275.408 524.334 275.52 524.83 275.743 525.313C275.966 525.792 276.297 526.223 276.734 526.605C277.172 526.984 277.7 527.278 278.32 527.487L277.555 528.663C276.88 528.444 276.297 528.114 275.805 527.672C275.317 527.23 274.934 526.71 274.656 526.113C274.378 526.779 273.982 527.355 273.467 527.843C272.952 528.33 272.336 528.695 271.621 528.937L270.842 527.733C271.48 527.524 272.024 527.216 272.475 526.811C272.931 526.405 273.275 525.945 273.508 525.43C273.745 524.91 273.863 524.379 273.863 523.837V523.673H271.293V522.456H277.965V523.673H275.408V523.823ZM272.797 529.661H281.219V534.063H279.701V530.878H272.797V529.661ZM277.596 524.767H279.701V521.704H281.219V529.073H279.701V526.011H277.596V524.767ZM296.053 534.063H294.522V521.704H296.053V534.063ZM285.813 530.659C287.408 529.903 288.604 528.998 289.402 527.945C290.204 526.893 290.676 525.651 290.817 524.22H286.442V523.017H292.362C292.362 524.981 291.917 526.703 291.029 528.185C290.14 529.666 288.666 530.896 286.606 531.876L285.813 530.659ZM303.963 522.101C303.963 522.538 304.14 522.955 304.496 523.352C304.851 523.743 305.35 524.078 305.993 524.356C306.64 524.63 307.385 524.812 308.228 524.903L307.722 526.052C306.674 525.933 305.751 525.676 304.954 525.279C304.161 524.878 303.566 524.377 303.17 523.775C302.773 524.377 302.178 524.878 301.385 525.279C300.592 525.676 299.679 525.933 298.644 526.052L298.125 524.903C298.968 524.812 299.713 524.63 300.36 524.356C301.012 524.078 301.515 523.743 301.871 523.352C302.226 522.955 302.404 522.538 302.404 522.101V521.772H303.963V522.101ZM297.55 526.667H308.816V527.87H303.922V528.827H307.408V531.89H300.381V532.792H307.75V533.954H298.89V530.796H305.918V529.989H298.877V528.827H302.404V527.87H297.55V526.667Z" fill="white"/>
<g clip-path="url(#clip1_1581_206)">
<path d="M279.27 474.385C279.27 469.051 277.221 464.039 273.486 460.172L275.254 459.182C276.099 458.696 276.705 457.907 276.961 456.959C277.216 456.013 277.089 455.025 276.603 454.18C276.406 453.839 275.971 453.721 275.629 453.918C275.288 454.114 275.17 454.549 275.366 454.891C275.663 455.406 275.74 456.009 275.584 456.588C275.427 457.167 275.058 457.65 274.55 457.942L246.365 473.715C246.14 473.841 246.001 474.079 246 474.337C246 474.594 246.139 474.832 246.363 474.959L274.543 490.825C275.058 491.121 275.427 491.603 275.584 492.182C275.74 492.762 275.663 493.364 275.366 493.879C275.17 494.221 275.288 494.657 275.629 494.853C275.741 494.917 275.863 494.948 275.984 494.948C276.231 494.948 276.471 494.82 276.603 494.591C277.089 493.745 277.216 492.758 276.961 491.811C276.705 490.864 276.099 490.075 275.248 489.585L273.489 488.595C277.222 484.728 279.27 479.718 279.27 474.385ZM276.702 480.863C275.826 478.925 275.345 476.663 275.345 474.335C275.345 472.027 275.818 469.78 276.681 467.852C277.443 469.92 277.843 472.121 277.843 474.385C277.843 476.629 277.451 478.811 276.702 480.863ZM275.949 466.135C274.642 468.474 273.919 471.365 273.919 474.335C273.919 477.326 274.652 480.234 275.976 482.582C275.071 484.457 273.853 486.196 272.341 487.735C268.786 484.118 266.838 479.403 266.838 474.385C266.838 469.367 268.786 464.653 272.341 461.035C273.838 462.559 275.047 464.28 275.949 466.135ZM248.17 474.339L269.197 462.572C266.737 466.017 265.411 470.096 265.411 474.385C265.411 478.66 266.727 482.726 269.171 486.164L248.17 474.339Z" fill="white"/>
<path d="M292.687 477.082C293.081 477.082 293.4 476.762 293.4 476.369C293.4 475.975 293.081 475.656 292.687 475.656H289.834C289.44 475.656 289.121 475.975 289.121 476.369C289.121 476.762 289.44 477.082 289.834 477.082H292.687Z" fill="#3FA9F5"/>
<path d="M298.054 477.082C298.448 477.082 298.767 476.762 298.767 476.369C298.767 475.975 298.448 475.656 298.054 475.656H296.965C296.571 475.656 296.252 475.975 296.252 476.369C296.252 476.762 296.571 477.082 296.965 477.082H298.054Z" fill="#3FA9F5"/>
<path d="M285.556 477.082C285.95 477.082 286.269 476.762 286.269 476.369C286.269 475.975 285.95 475.656 285.556 475.656H282.704C282.31 475.656 281.991 475.975 281.991 476.369C281.991 476.762 282.31 477.082 282.704 477.082H285.556Z" fill="#3FA9F5"/>
<path d="M288.522 465.612C288.181 465.809 288.064 466.245 288.262 466.586C288.394 466.815 288.633 466.942 288.88 466.943C289.001 466.943 289.123 466.912 289.235 466.847L291.706 465.421C292.047 465.224 292.164 464.788 291.966 464.447C291.77 464.106 291.334 463.988 290.993 464.186L288.522 465.612Z" fill="#3FA9F5"/>
<path d="M294.698 462.046C294.357 462.243 294.24 462.679 294.437 463.02C294.569 463.249 294.809 463.377 295.055 463.377C295.176 463.377 295.298 463.346 295.411 463.281L296.354 462.737C296.695 462.54 296.812 462.104 296.615 461.763C296.418 461.422 295.983 461.305 295.641 461.502L294.698 462.046Z" fill="#3FA9F5"/>
<path d="M282.347 469.177C282.006 469.374 281.889 469.81 282.086 470.151C282.218 470.38 282.458 470.507 282.704 470.508C282.825 470.508 282.948 470.477 283.06 470.412L285.53 468.986C285.871 468.789 285.988 468.353 285.791 468.012C285.594 467.671 285.158 467.554 284.817 467.751L282.347 469.177Z" fill="#3FA9F5"/>
<path d="M285.173 484.822C285.419 484.822 285.659 484.694 285.791 484.465C285.988 484.124 285.871 483.688 285.53 483.491L283.06 482.065C282.719 481.868 282.283 481.985 282.086 482.326C281.889 482.667 282.006 483.103 282.347 483.3L284.817 484.726C284.929 484.791 285.052 484.822 285.173 484.822Z" fill="#3FA9F5"/>
<path d="M291.348 488.387C291.595 488.387 291.834 488.259 291.967 488.03C292.164 487.689 292.047 487.253 291.706 487.056L289.235 485.63C288.894 485.433 288.458 485.55 288.262 485.891C288.064 486.232 288.181 486.668 288.522 486.865L290.993 488.291C291.105 488.356 291.228 488.387 291.348 488.387Z" fill="#3FA9F5"/>
<path d="M295.997 491.071C296.243 491.071 296.483 490.943 296.615 490.714C296.812 490.373 296.695 489.937 296.354 489.74L295.411 489.196C295.07 488.998 294.634 489.116 294.437 489.457C294.24 489.798 294.357 490.234 294.698 490.431L295.641 490.975C295.753 491.04 295.876 491.071 295.997 491.071Z" fill="#3FA9F5"/>
</g>
<path d="M139.703 345.641H128.41V344.41H131.336V341.867H129.381V340.637H131.117V336.973H129.34V335.756H138.719V336.973H136.914V340.637H138.678V341.867H136.723V344.41H139.703V345.641ZM135.41 340.637V336.973H132.635V340.637H135.41ZM135.205 344.41V341.867H132.854V344.41H135.205ZM150.579 342.045H149.062V339.023H146.956V337.779H149.062V334.703H150.579V342.045ZM140.189 340.814C140.831 340.596 141.38 340.279 141.836 339.864C142.296 339.45 142.643 338.98 142.875 338.456C143.108 337.932 143.224 337.392 143.224 336.836V336.74H140.654V335.51H147.325V336.74H144.769V336.822C144.769 337.333 144.88 337.829 145.104 338.312C145.327 338.791 145.658 339.222 146.095 339.604C146.533 339.983 147.061 340.277 147.681 340.486L146.915 341.689C146.245 341.462 145.667 341.127 145.179 340.685C144.691 340.238 144.306 339.716 144.024 339.119C143.746 339.794 143.349 340.382 142.834 340.883C142.319 341.384 141.702 341.762 140.982 342.018L140.189 340.814ZM142.199 344.711C142.194 344.223 142.36 343.804 142.698 343.453C143.035 343.098 143.518 342.826 144.147 342.64C144.78 342.453 145.53 342.359 146.396 342.359C147.266 342.359 148.018 342.453 148.652 342.64C149.285 342.826 149.77 343.095 150.108 343.446C150.449 343.797 150.62 344.219 150.62 344.711C150.62 345.203 150.449 345.625 150.108 345.976C149.77 346.326 149.285 346.595 148.652 346.782C148.018 346.969 147.266 347.062 146.396 347.062C145.53 347.062 144.78 346.969 144.147 346.782C143.518 346.595 143.035 346.324 142.698 345.969C142.36 345.618 142.194 345.199 142.199 344.711ZM143.702 344.711C143.698 345.089 143.926 345.381 144.386 345.586C144.851 345.786 145.507 345.887 146.355 345.887C147.239 345.887 147.918 345.786 148.392 345.586C148.866 345.385 149.103 345.094 149.103 344.711C149.103 344.328 148.868 344.034 148.399 343.829C147.934 343.624 147.266 343.521 146.396 343.521C145.534 343.521 144.869 343.624 144.4 343.829C143.93 344.034 143.698 344.328 143.702 344.711ZM163.329 342.318H158.557V344.451H157.053V342.318H152.036V341.102H163.329V342.318ZM153.403 343.412H154.907V345.586H162.085V346.816H153.403V343.412ZM153.512 335.1H155.016V336.494H160.348V335.1H161.852V340.131H153.512V335.1ZM160.348 338.928V337.629H155.016V338.928H160.348ZM168.353 336.658C168.353 337.196 168.463 337.711 168.681 338.203C168.905 338.691 169.233 339.126 169.666 339.509C170.103 339.887 170.632 340.176 171.252 340.377L170.431 341.594C169.771 341.361 169.201 341.022 168.722 340.575C168.249 340.129 167.877 339.602 167.608 338.996C167.33 339.657 166.938 340.231 166.432 340.719C165.931 341.202 165.332 341.571 164.635 341.826L163.814 340.609C164.466 340.395 165.017 340.085 165.469 339.68C165.92 339.27 166.257 338.798 166.48 338.265C166.708 337.727 166.822 337.16 166.822 336.562V335.346H168.353V336.658ZM165.797 342.646H174.219V347.062H172.701V343.85H165.797V342.646ZM170.24 337.109H172.701V334.703H174.219V342.045H172.701V338.354H170.24V337.109ZM189.053 347.062H187.522V334.703H189.053V347.062ZM178.813 343.658C180.408 342.902 181.604 341.997 182.402 340.944C183.204 339.892 183.676 338.65 183.817 337.219H179.442V336.016H185.362C185.362 337.98 184.917 339.702 184.029 341.184C183.14 342.665 181.666 343.895 179.606 344.875L178.813 343.658ZM196.963 335.1C196.963 335.537 197.14 335.954 197.496 336.351C197.851 336.743 198.35 337.077 198.993 337.355C199.64 337.629 200.385 337.811 201.228 337.902L200.722 339.051C199.674 338.932 198.751 338.675 197.954 338.278C197.161 337.877 196.566 337.376 196.17 336.774C195.773 337.376 195.178 337.877 194.385 338.278C193.592 338.675 192.679 338.932 191.644 339.051L191.125 337.902C191.968 337.811 192.713 337.629 193.36 337.355C194.012 337.077 194.515 336.743 194.871 336.351C195.226 335.954 195.404 335.537 195.404 335.1V334.771H196.963V335.1ZM190.55 339.666H201.816V340.869H196.922V341.826H200.408V344.889H193.381V345.791H200.75V346.953H191.89V343.795H198.918V342.988H191.877V341.826H195.404V340.869H190.55V339.666Z" fill="white"/>
<g clip-path="url(#clip2_1581_206)">
<path d="M162.908 298.092C160.458 300.174 157.284 301.431 153.817 301.431C146.06 301.431 139.771 295.142 139.771 287.386C139.771 279.629 146.06 273.341 153.817 273.341C161.574 273.341 167.862 279.629 167.862 287.386C167.862 290.277 166.988 292.965 165.489 295.199" stroke="white" stroke-width="1.80923" stroke-miterlimit="10" stroke-linecap="round" stroke-linejoin="round"/>
<path d="M148.857 284.906V285.732" stroke="white" stroke-width="1.80923" stroke-miterlimit="10" stroke-linecap="round" stroke-linejoin="round"/>
<path d="M158.773 284.906V285.732" stroke="white" stroke-width="1.80923" stroke-miterlimit="10" stroke-linecap="round" stroke-linejoin="round"/>
<path d="M148.641 290.69C149.178 293.055 151.289 294.821 153.816 294.821C156.343 294.821 158.453 293.055 158.991 290.69H148.641Z" stroke="white" stroke-width="1.80923" stroke-miterlimit="10" stroke-linecap="round" stroke-linejoin="round"/>
<path d="M167.844 276.693C170.296 274.602 173.476 273.34 176.951 273.34C184.708 273.34 190.996 279.629 190.996 287.385C190.996 295.142 184.708 301.431 176.951 301.431C169.194 301.431 162.906 295.142 162.906 287.385C162.906 284.477 163.79 281.774 165.305 279.533" stroke="#3FA9F5" stroke-width="1.80923" stroke-miterlimit="10" stroke-linecap="round" stroke-linejoin="round"/>
<path d="M171.992 284.906V285.732" stroke="#3FA9F5" stroke-width="1.80923" stroke-miterlimit="10" stroke-linecap="round" stroke-linejoin="round"/>
<path d="M181.908 284.906V285.732" stroke="#3FA9F5" stroke-width="1.80923" stroke-miterlimit="10" stroke-linecap="round" stroke-linejoin="round"/>
<path d="M181.439 293.168C180.499 292.176 178.842 291.516 176.951 291.516C175.06 291.516 173.403 292.176 172.463 293.168" stroke="#3FA9F5" stroke-width="1.80923" stroke-miterlimit="10" stroke-linecap="round" stroke-linejoin="round"/>
</g>
<path d="M453.029 397.104C453.936 397.104 454.725 397.199 455.395 397.391C456.064 397.582 456.579 397.86 456.939 398.225C457.304 398.585 457.486 399.013 457.486 399.51C457.486 399.997 457.304 400.419 456.939 400.774C456.579 401.125 456.064 401.394 455.395 401.581C454.725 401.768 453.936 401.861 453.029 401.861C452.132 401.861 451.345 401.768 450.671 401.581C450.001 401.394 449.484 401.125 449.119 400.774C448.755 400.419 448.572 399.997 448.572 399.51C448.572 399.013 448.755 398.585 449.119 398.225C449.484 397.86 450.001 397.582 450.671 397.391C451.345 397.199 452.132 397.104 453.029 397.104ZM447.41 402.695H458.676V403.926H447.41V402.695ZM448.736 404.91H457.309V409.066H448.736V404.91ZM450.158 399.51C450.154 399.879 450.404 400.166 450.91 400.371C451.416 400.576 452.122 400.681 453.029 400.686C453.936 400.681 454.643 400.576 455.148 400.371C455.659 400.166 455.914 399.879 455.914 399.51C455.914 399.118 455.661 398.817 455.155 398.607C454.649 398.398 453.941 398.293 453.029 398.293C452.118 398.293 451.409 398.398 450.903 398.607C450.402 398.817 450.154 399.118 450.158 399.51ZM455.832 407.836V406.113H450.24V407.836H455.832ZM463.755 398.635C463.751 399.204 463.858 399.744 464.076 400.255C464.3 400.761 464.63 401.207 465.068 401.595C465.505 401.978 466.038 402.267 466.667 402.463L465.847 403.652C465.186 403.415 464.619 403.08 464.145 402.647C463.671 402.215 463.299 401.7 463.031 401.103C462.753 401.791 462.354 402.388 461.834 402.894C461.315 403.395 460.688 403.775 459.954 404.035L459.148 402.805C459.813 402.586 460.376 402.269 460.836 401.854C461.296 401.44 461.641 400.964 461.868 400.426C462.101 399.883 462.219 399.309 462.224 398.703V397.527H463.755V398.635ZM461.199 406.838C461.194 406.341 461.36 405.915 461.698 405.56C462.035 405.2 462.518 404.926 463.147 404.739C463.78 404.552 464.53 404.459 465.396 404.459C466.266 404.459 467.018 404.552 467.652 404.739C468.285 404.926 468.77 405.2 469.108 405.56C469.449 405.915 469.62 406.341 469.62 406.838C469.62 407.335 469.449 407.761 469.108 408.116C468.77 408.472 468.285 408.741 467.652 408.923C467.018 409.11 466.266 409.203 465.396 409.203C464.53 409.203 463.78 409.11 463.147 408.923C462.518 408.741 462.035 408.472 461.698 408.116C461.36 407.761 461.194 407.335 461.199 406.838ZM462.702 406.838C462.698 407.212 462.93 407.501 463.4 407.706C463.869 407.907 464.534 408.009 465.396 408.014C466.262 408.009 466.929 407.907 467.399 407.706C467.868 407.501 468.103 407.212 468.103 406.838C468.103 406.451 467.868 406.154 467.399 405.949C466.934 405.744 466.266 405.639 465.396 405.635C464.53 405.639 463.862 405.744 463.393 405.949C462.928 406.154 462.698 406.451 462.702 406.838ZM465.601 399.25H468.062V396.857H469.579V404.131H468.062V400.494H465.601V399.25ZM481.344 405.799H479.813V396.871H481.344V405.799ZM471.268 400.768C471.268 400.18 471.414 399.651 471.706 399.182C472.002 398.712 472.403 398.345 472.909 398.081C473.419 397.812 473.984 397.678 474.604 397.678C475.224 397.678 475.787 397.812 476.293 398.081C476.803 398.345 477.202 398.712 477.489 399.182C477.78 399.651 477.926 400.18 477.926 400.768C477.926 401.365 477.78 401.9 477.489 402.374C477.202 402.843 476.803 403.21 476.293 403.475C475.787 403.739 475.224 403.871 474.604 403.871C473.984 403.871 473.419 403.739 472.909 403.475C472.403 403.21 472.002 402.843 471.706 402.374C471.414 401.9 471.268 401.365 471.268 400.768ZM472.758 400.768C472.758 401.123 472.836 401.435 472.991 401.704C473.15 401.973 473.369 402.18 473.647 402.326C473.93 402.472 474.249 402.545 474.604 402.545C474.95 402.545 475.263 402.472 475.541 402.326C475.819 402.18 476.037 401.973 476.197 401.704C476.356 401.435 476.436 401.123 476.436 400.768C476.436 400.421 476.356 400.114 476.197 399.845C476.037 399.576 475.816 399.368 475.534 399.223C475.256 399.077 474.946 399.004 474.604 399.004C474.253 399.004 473.936 399.077 473.654 399.223C473.371 399.368 473.15 399.576 472.991 399.845C472.836 400.114 472.758 400.421 472.758 400.768ZM473.169 404.896H474.7V407.74H481.686V408.971H473.169V404.896ZM487.476 398.621C487.472 399.173 487.584 399.699 487.811 400.2C488.039 400.697 488.376 401.137 488.823 401.52C489.274 401.902 489.819 402.194 490.457 402.395L489.705 403.598C489.008 403.365 488.404 403.023 487.893 402.572C487.388 402.121 486.991 401.588 486.704 400.973C486.421 401.638 486.02 402.215 485.501 402.702C484.981 403.19 484.364 403.557 483.648 403.803L482.883 402.613C483.53 402.395 484.079 402.08 484.53 401.67C484.986 401.255 485.33 400.786 485.562 400.262C485.795 399.738 485.909 399.191 485.904 398.621V397.445H487.476V398.621ZM484.728 404.814H493.164V409.217H491.633V406.031H484.728V404.814ZM491.633 396.857H493.164V404.254H491.633V396.857ZM508.053 409.217H506.522V396.857H508.053V409.217ZM497.813 405.812C499.408 405.056 500.604 404.151 501.402 403.099C502.204 402.046 502.676 400.804 502.817 399.373H498.442V398.17H504.362C504.362 400.134 503.917 401.857 503.029 403.338C502.14 404.819 500.666 406.049 498.606 407.029L497.813 405.812ZM515.963 397.254C515.963 397.691 516.14 398.108 516.496 398.505C516.851 398.897 517.35 399.232 517.993 399.51C518.64 399.783 519.385 399.965 520.228 400.057L519.722 401.205C518.674 401.087 517.751 400.829 516.954 400.433C516.161 400.032 515.566 399.53 515.17 398.929C514.773 399.53 514.178 400.032 513.385 400.433C512.592 400.829 511.679 401.087 510.644 401.205L510.125 400.057C510.968 399.965 511.713 399.783 512.36 399.51C513.012 399.232 513.515 398.897 513.871 398.505C514.226 398.108 514.404 397.691 514.404 397.254V396.926H515.963V397.254ZM509.55 401.82H520.816V403.023H515.922V403.98H519.408V407.043H512.381V407.945H519.75V409.107H510.89V405.949H517.918V405.143H510.877V403.98H514.404V403.023H509.55V401.82Z" fill="white"/>
<g clip-path="url(#clip3_1581_206)">
<path d="M492.168 363.073V368.795" stroke="#3FA9F5" stroke-width="1.50769" stroke-miterlimit="10" stroke-linecap="round"/>
<path d="M504.773 363.073V368.795" stroke="#3FA9F5" stroke-width="1.50769" stroke-miterlimit="10" stroke-linecap="round"/>
<path d="M513.174 363.073V368.795" stroke="#3FA9F5" stroke-width="1.50769" stroke-miterlimit="10" stroke-linecap="round"/>
<path d="M500.57 360.918V370.952" stroke="#3FA9F5" stroke-width="1.50769" stroke-miterlimit="10" stroke-linecap="round"/>
<path d="M496.369 359.202V372.669" stroke="#3FA9F5" stroke-width="1.50769" stroke-miterlimit="10" stroke-linecap="round"/>
<path d="M508.973 359.202V372.669" stroke="#3FA9F5" stroke-width="1.50769" stroke-miterlimit="10" stroke-linecap="round"/>
<path d="M456.962 363.659C457.592 365.042 457.955 366.532 458.031 368.051V373.96C458.029 374.407 458.186 374.839 458.475 375.18C458.764 375.52 459.165 375.746 459.606 375.816H473.374C474.598 375.816 475.064 374.438 475.064 374.438V371.862C475.064 370.665 476.522 370.544 476.522 370.544H480.603C482.469 370.544 482.935 368.268 482.935 368.268V362.517C482.927 362.379 482.946 362.24 482.991 362.109C483.037 361.978 483.107 361.857 483.199 361.753C483.291 361.649 483.403 361.565 483.528 361.504C483.652 361.443 483.788 361.408 483.926 361.4H486.356C486.523 361.383 486.684 361.332 486.831 361.25C486.978 361.169 487.107 361.059 487.21 360.927C487.314 360.794 487.389 360.642 487.433 360.48C487.476 360.318 487.487 360.149 487.464 359.982L482.878 351.437V350.479C482.878 335.066 468.886 333.948 468.886 333.948C465.643 333.617 462.38 334.345 459.584 336.025C457.136 337.45 455.073 339.454 453.575 341.861C452.077 344.268 451.189 347.006 450.989 349.835C450.203 358.266 456.962 363.659 456.962 363.659Z" fill="white" stroke="white" stroke-width="1.50769" stroke-miterlimit="10"/>
</g>
<path d="M349.705 221.703H348.174V214.717H349.705V221.703ZM339.41 220.254C340.057 220.049 340.609 219.748 341.064 219.352C341.525 218.951 341.871 218.495 342.104 217.984C342.336 217.469 342.45 216.936 342.445 216.385V215.182H344.018V216.385C344.013 216.918 344.127 217.426 344.359 217.909C344.592 218.388 344.931 218.814 345.378 219.188C345.829 219.561 346.369 219.848 346.998 220.049L346.26 221.211C345.558 220.992 344.952 220.666 344.441 220.233C343.931 219.796 343.532 219.276 343.245 218.675C342.963 219.326 342.559 219.894 342.035 220.377C341.511 220.855 340.887 221.215 340.162 221.457L339.41 220.254ZM341.502 222.318H349.705V226.912H341.502V222.318ZM348.215 225.682V223.521H343.006V225.682H348.215ZM360.978 217.793H362.7V219.037H360.978V222.141H359.46V214.703H360.978V217.793ZM351.654 215.482H353.158V217.232H356.042V215.482H357.546V221.416H351.654V215.482ZM352.747 222.715H360.978V227.062H359.46V223.932H352.747V222.715ZM356.042 220.213V218.422H353.158V220.213H356.042ZM374.329 222.318H369.557V224.451H368.053V222.318H363.036V221.102H374.329V222.318ZM364.403 223.412H365.907V225.586H373.085V226.816H364.403V223.412ZM364.512 215.1H366.016V216.494H371.348V215.1H372.852V220.131H364.512V215.1ZM371.348 218.928V217.629H366.016V218.928H371.348ZM379.353 216.658C379.353 217.196 379.463 217.711 379.681 218.203C379.905 218.691 380.233 219.126 380.666 219.509C381.103 219.887 381.632 220.176 382.252 220.377L381.431 221.594C380.771 221.361 380.201 221.022 379.722 220.575C379.249 220.129 378.877 219.602 378.608 218.996C378.33 219.657 377.938 220.231 377.432 220.719C376.931 221.202 376.332 221.571 375.635 221.826L374.814 220.609C375.466 220.395 376.017 220.085 376.469 219.68C376.92 219.27 377.257 218.798 377.48 218.265C377.708 217.727 377.822 217.16 377.822 216.562V215.346H379.353V216.658ZM376.797 222.646H385.219V227.062H383.701V223.85H376.797V222.646ZM381.24 217.109H383.701V214.703H385.219V222.045H383.701V218.354H381.24V217.109ZM400.053 227.062H398.522V214.703H400.053V227.062ZM389.813 223.658C391.408 222.902 392.604 221.997 393.402 220.944C394.204 219.892 394.676 218.65 394.817 217.219H390.442V216.016H396.362C396.362 217.98 395.917 219.702 395.029 221.184C394.14 222.665 392.666 223.895 390.606 224.875L389.813 223.658ZM407.963 215.1C407.963 215.537 408.14 215.954 408.496 216.351C408.851 216.743 409.35 217.077 409.993 217.355C410.64 217.629 411.385 217.811 412.228 217.902L411.722 219.051C410.674 218.932 409.751 218.675 408.954 218.278C408.161 217.877 407.566 217.376 407.17 216.774C406.773 217.376 406.178 217.877 405.385 218.278C404.592 218.675 403.679 218.932 402.644 219.051L402.125 217.902C402.968 217.811 403.713 217.629 404.36 217.355C405.012 217.077 405.515 216.743 405.871 216.351C406.226 215.954 406.404 215.537 406.404 215.1V214.771H407.963V215.1ZM401.55 219.666H412.816V220.869H407.922V221.826H411.408V224.889H404.381V225.791H411.75V226.953H402.89V223.795H409.918V222.988H402.877V221.826H406.404V220.869H401.55V219.666Z" fill="white"/>
<path fill-rule="evenodd" clip-rule="evenodd" d="M364.132 154.031C362.841 152.74 360.741 152.739 359.453 154.027L359.259 154.22C357.967 155.513 357.968 157.604 359.264 158.9L363.768 163.404C364.198 163.834 364.897 163.834 365.327 163.404L369.831 158.9C371.127 157.604 371.128 155.513 369.836 154.22L369.642 154.027C368.354 152.739 366.255 152.74 364.963 154.031L364.548 154.447L364.132 154.031Z" fill="#3FA9F5"/>
<path d="M358.555 169.269H370.239L374.385 181.708L382.301 155.323L387.201 169.269H395.116" stroke="white" stroke-width="1.05538" stroke-linecap="round" stroke-linejoin="round"/>
<path d="M349.705 346.703H348.174V339.717H349.705V346.703ZM339.41 345.254C340.057 345.049 340.609 344.748 341.064 344.352C341.525 343.951 341.871 343.495 342.104 342.984C342.336 342.469 342.45 341.936 342.445 341.385V340.182H344.018V341.385C344.013 341.918 344.127 342.426 344.359 342.909C344.592 343.388 344.931 343.814 345.378 344.188C345.829 344.561 346.369 344.848 346.998 345.049L346.26 346.211C345.558 345.992 344.952 345.666 344.441 345.233C343.931 344.796 343.532 344.276 343.245 343.675C342.963 344.326 342.559 344.894 342.035 345.377C341.511 345.855 340.887 346.215 340.162 346.457L339.41 345.254ZM341.502 347.318H349.705V351.912H341.502V347.318ZM348.215 350.682V348.521H343.006V350.682H348.215ZM362.495 347.086H351.23V345.855H362.495V347.086ZM351.763 344.092C352.592 344.037 353.312 343.914 353.923 343.723C354.534 343.531 355.01 343.292 355.352 343.005C355.698 342.718 355.906 342.401 355.974 342.055H352.337V340.852H356.097V339.73H357.601V340.852H361.388V342.055H357.717C357.781 342.401 357.986 342.718 358.332 343.005C358.679 343.292 359.157 343.531 359.768 343.723C360.379 343.914 361.101 344.037 361.935 344.092L361.47 345.254C360.367 345.167 359.417 344.958 358.619 344.625C357.822 344.292 357.232 343.859 356.849 343.326C356.457 343.859 355.862 344.292 355.065 344.625C354.272 344.958 353.326 345.167 352.228 345.254L351.763 344.092ZM352.542 349.971C352.542 349.524 352.711 349.146 353.048 348.836C353.39 348.521 353.882 348.285 354.525 348.125C355.172 347.965 355.947 347.883 356.849 347.879C357.747 347.883 358.515 347.965 359.153 348.125C359.791 348.285 360.278 348.521 360.616 348.836C360.957 349.146 361.128 349.524 361.128 349.971C361.128 350.417 360.957 350.796 360.616 351.105C360.278 351.415 359.791 351.65 359.153 351.81C358.515 351.969 357.747 352.049 356.849 352.049C355.947 352.049 355.172 351.969 354.525 351.81C353.882 351.65 353.39 351.415 353.048 351.105C352.711 350.796 352.542 350.417 352.542 349.971ZM354.087 349.971C354.083 350.285 354.313 350.522 354.778 350.682C355.247 350.837 355.937 350.914 356.849 350.914C357.747 350.914 358.43 350.837 358.9 350.682C359.369 350.522 359.606 350.285 359.611 349.971C359.606 349.656 359.369 349.419 358.9 349.26C358.43 349.096 357.747 349.014 356.849 349.014C355.937 349.014 355.247 349.093 354.778 349.253C354.313 349.412 354.083 349.652 354.087 349.971ZM373.317 346.074H371.813V339.703H373.317V346.074ZM363.145 344.967C363.769 344.785 364.305 344.518 364.752 344.167C365.203 343.816 365.549 343.415 365.791 342.964C366.037 342.513 366.173 342.041 366.201 341.549H363.542V340.318H370.336V341.549H367.746C367.768 342.014 367.901 342.458 368.142 342.882C368.384 343.301 368.728 343.673 369.174 343.996C369.621 344.32 370.154 344.566 370.774 344.734L370.036 345.91C369.329 345.705 368.719 345.395 368.204 344.98C367.689 344.561 367.288 344.067 367.001 343.497C366.713 344.131 366.301 344.68 365.763 345.145C365.23 345.605 364.59 345.947 363.842 346.17L363.145 344.967ZM365.141 346.594H373.344V349.779H366.659V350.777H373.713V351.953H365.169V348.672H371.827V347.756H365.141V346.594ZM378.875 340.564C379.522 340.564 380.103 340.692 380.618 340.947C381.133 341.198 381.536 341.551 381.828 342.007C382.124 342.458 382.275 342.971 382.279 343.545C382.275 344.124 382.124 344.641 381.828 345.097C381.536 345.548 381.133 345.901 380.618 346.156C380.103 346.411 379.522 346.539 378.875 346.539C378.232 346.539 377.651 346.411 377.132 346.156C376.617 345.901 376.213 345.546 375.922 345.09C375.63 344.634 375.484 344.119 375.484 343.545C375.484 342.971 375.63 342.458 375.922 342.007C376.218 341.551 376.624 341.198 377.139 340.947C377.653 340.692 378.232 340.564 378.875 340.564ZM374.924 348.248C376.437 348.248 377.849 348.223 379.162 348.173C380.474 348.118 381.723 348.007 382.908 347.838L383.031 348.945C381.81 349.178 380.563 349.328 379.292 349.396C378.025 349.46 376.633 349.492 375.115 349.492L374.924 348.248ZM376.988 343.545C376.988 343.882 377.068 344.178 377.227 344.434C377.391 344.684 377.617 344.878 377.904 345.015C378.191 345.147 378.515 345.213 378.875 345.213C379.239 345.213 379.565 345.147 379.852 345.015C380.144 344.878 380.372 344.684 380.536 344.434C380.705 344.178 380.789 343.882 380.789 343.545C380.789 343.208 380.705 342.914 380.536 342.663C380.372 342.412 380.144 342.219 379.852 342.082C379.565 341.945 379.239 341.877 378.875 341.877C378.515 341.877 378.191 341.945 377.904 342.082C377.617 342.219 377.391 342.415 377.227 342.67C377.068 342.921 376.988 343.212 376.988 343.545ZM383.646 339.703H385.164V352.076H383.646V339.703ZM400.053 352.062H398.522V339.703H400.053V352.062ZM389.813 348.658C391.408 347.902 392.604 346.997 393.402 345.944C394.204 344.892 394.676 343.65 394.817 342.219H390.442V341.016H396.362C396.362 342.98 395.917 344.702 395.029 346.184C394.14 347.665 392.666 348.895 390.606 349.875L389.813 348.658ZM407.963 340.1C407.963 340.537 408.14 340.954 408.496 341.351C408.851 341.743 409.35 342.077 409.993 342.355C410.64 342.629 411.385 342.811 412.228 342.902L411.722 344.051C410.674 343.932 409.751 343.675 408.954 343.278C408.161 342.877 407.566 342.376 407.17 341.774C406.773 342.376 406.178 342.877 405.385 343.278C404.592 343.675 403.679 343.932 402.644 344.051L402.125 342.902C402.968 342.811 403.713 342.629 404.36 342.355C405.012 342.077 405.515 341.743 405.871 341.351C406.226 340.954 406.404 340.537 406.404 340.1V339.771H407.963V340.1ZM401.55 344.666H412.816V345.869H407.922V346.826H411.408V349.889H404.381V350.791H411.75V351.953H402.89V348.795H409.918V347.988H402.877V346.826H406.404V345.869H401.55V344.666Z" fill="white"/>
<path d="M393.821 287.015H385.455V273.857C385.434 272.626 384.925 271.454 384.041 270.597C383.157 269.741 381.969 269.27 380.738 269.288H358.949C357.704 269.256 356.497 269.719 355.592 270.576C354.688 271.432 354.159 272.612 354.123 273.857V287.805C354.159 289.05 354.688 290.23 355.592 291.086C356.497 291.943 357.704 292.406 358.949 292.374H359.07V296.758C359.07 296.945 359.123 297.129 359.223 297.287C359.322 297.445 359.465 297.573 359.633 297.654C359.802 297.735 359.99 297.767 360.176 297.746C360.362 297.725 360.538 297.652 360.685 297.536L367.162 292.374H367.315V305.478C367.337 306.723 367.851 307.91 368.746 308.776C369.641 309.643 370.843 310.12 372.089 310.101H385.609L392.086 315.263C392.233 315.38 392.409 315.453 392.595 315.473C392.781 315.494 392.969 315.462 393.137 315.381C393.306 315.3 393.448 315.172 393.548 315.014C393.647 314.856 393.7 314.672 393.7 314.485V310.101H393.821C395.066 310.133 396.273 309.67 397.178 308.813C398.082 307.957 398.611 306.777 398.647 305.532V291.584C398.611 290.339 398.082 289.159 397.178 288.303C396.273 287.446 395.066 286.983 393.821 287.015ZM366.979 290.725C366.724 290.726 366.477 290.813 366.277 290.97L360.719 295.4V291.821C360.717 291.528 360.599 291.249 360.39 291.043C360.182 290.838 359.901 290.724 359.609 290.725H358.949C358.141 290.757 357.354 290.468 356.758 289.92C356.163 289.373 355.808 288.613 355.772 287.805V273.857C355.808 273.049 356.163 272.289 356.758 271.742C357.354 271.194 358.141 270.905 358.949 270.937H380.738C381.532 270.919 382.3 271.216 382.875 271.763C383.45 272.31 383.785 273.063 383.806 273.857V287.805C383.785 288.598 383.45 289.351 382.875 289.899C382.3 290.446 381.531 290.743 380.737 290.725L366.979 290.725ZM396.998 305.532C396.962 306.34 396.607 307.1 396.012 307.647C395.416 308.195 394.629 308.484 393.821 308.452H393.161C392.869 308.451 392.588 308.565 392.38 308.771C392.172 308.976 392.053 309.255 392.051 309.548V313.127L386.49 308.696C386.291 308.539 386.045 308.453 385.791 308.452H372.089C371.28 308.471 370.498 308.168 369.912 307.611C369.326 307.053 368.986 306.286 368.964 305.478V292.374H380.737C381.819 292.385 382.871 292.022 383.715 291.345C384.559 290.669 385.143 289.722 385.368 288.664H393.821C394.629 288.632 395.416 288.922 396.012 289.469C396.607 290.016 396.962 290.777 396.998 291.584V305.532Z" fill="white"/>
<path d="M374.107 284.549C375.076 283.453 375.594 282.03 375.556 280.567C375.518 279.104 374.928 277.71 373.903 276.665C372.879 275.62 371.496 275.002 370.034 274.935C368.572 274.868 367.14 275.357 366.024 276.305C364.908 277.252 364.193 278.586 364.022 280.04C363.851 281.493 364.237 282.958 365.102 284.138C365.967 285.318 367.247 286.127 368.685 286.401C370.122 286.676 371.61 286.396 372.849 285.617L373.317 286.147C373.462 286.309 373.665 286.408 373.883 286.421C374.1 286.434 374.314 286.36 374.477 286.216C374.641 286.072 374.741 285.869 374.755 285.651C374.769 285.434 374.697 285.22 374.553 285.056L374.107 284.549ZM369.789 284.855C368.974 284.855 368.177 284.613 367.499 284.16C366.821 283.707 366.292 283.063 365.98 282.31C365.668 281.557 365.587 280.728 365.746 279.928C365.905 279.129 366.297 278.394 366.874 277.817C367.451 277.241 368.185 276.848 368.985 276.689C369.784 276.53 370.613 276.612 371.367 276.924C372.12 277.236 372.764 277.764 373.217 278.442C373.67 279.12 373.912 279.917 373.912 280.733C373.908 281.665 373.585 282.567 372.996 283.291L371.209 281.264C371.063 281.102 370.86 281.004 370.643 280.991C370.426 280.979 370.212 281.052 370.049 281.196C369.886 281.34 369.786 281.543 369.772 281.76C369.757 281.977 369.829 282.191 369.972 282.355L371.729 284.347C371.135 284.676 370.468 284.85 369.789 284.855Z" fill="white"/>
<path d="M387.864 303.146C386.37 299.589 387.165 301.48 383.745 293.338L383.745 293.338L383.742 293.331C383.679 293.181 383.573 293.054 383.438 292.964C383.302 292.875 383.144 292.827 382.982 292.827C382.82 292.827 382.661 292.875 382.526 292.964C382.391 293.054 382.285 293.181 382.222 293.331L382.219 293.338L382.218 293.338C380.658 297.053 379.445 299.942 378.099 303.146C378.016 303.347 378.016 303.573 378.099 303.774C378.182 303.975 378.342 304.135 378.542 304.22C378.743 304.304 378.969 304.305 379.17 304.224C379.372 304.142 379.534 303.984 379.619 303.784L380.764 301.058H385.199L386.344 303.784C386.429 303.985 386.591 304.144 386.793 304.226C386.995 304.308 387.221 304.307 387.422 304.222C387.623 304.138 387.783 303.977 387.866 303.775C387.949 303.574 387.948 303.347 387.864 303.146ZM381.457 299.409L382.982 295.779L384.506 299.409H381.457Z" fill="#3FA9F5"/>
<path d="M244.158 404.45H245.881V405.708H244.158V409.864H242.641V400.827H244.158V404.45ZM234.547 404.765C234.547 404.168 234.693 403.632 234.984 403.158C235.276 402.684 235.675 402.315 236.181 402.051C236.691 401.782 237.258 401.647 237.883 401.647C238.503 401.647 239.065 401.782 239.571 402.051C240.082 402.315 240.483 402.684 240.774 403.158C241.066 403.632 241.214 404.168 241.219 404.765C241.214 405.353 241.064 405.883 240.768 406.357C240.476 406.831 240.077 407.203 239.571 407.472C239.065 407.736 238.503 407.868 237.883 407.868C237.263 407.868 236.698 407.736 236.188 407.472C235.677 407.203 235.276 406.831 234.984 406.357C234.693 405.883 234.547 405.353 234.547 404.765ZM236.037 404.765C236.037 405.111 236.117 405.419 236.276 405.688C236.44 405.956 236.664 406.164 236.946 406.31C237.229 406.455 237.541 406.528 237.883 406.528C238.229 406.528 238.541 406.455 238.819 406.31C239.102 406.164 239.323 405.959 239.482 405.694C239.646 405.425 239.729 405.116 239.729 404.765C239.729 404.409 239.646 404.097 239.482 403.828C239.323 403.555 239.102 403.345 238.819 403.199C238.541 403.049 238.229 402.974 237.883 402.974C237.536 402.974 237.222 403.049 236.939 403.199C236.661 403.345 236.44 403.555 236.276 403.828C236.117 404.097 236.037 404.409 236.037 404.765ZM236.242 408.921H237.76V411.71H244.65V412.94H236.242V408.921ZM252.574 402.851H255.062V400.841H256.579V409.837H255.062V406.72H252.574V407.786H246.763V401.866H252.574V402.851ZM251.07 406.597V403.069H248.281V406.597H251.07ZM248.431 409.003H249.976V411.71H256.853V412.94H248.431V409.003ZM255.062 405.503V404.095H252.574V405.503H255.062ZM268.344 409.769H266.813V400.841H268.344V409.769ZM258.268 404.737C258.268 404.149 258.414 403.621 258.706 403.151C259.002 402.682 259.403 402.315 259.909 402.051C260.419 401.782 260.984 401.647 261.604 401.647C262.224 401.647 262.787 401.782 263.293 402.051C263.803 402.315 264.202 402.682 264.489 403.151C264.78 403.621 264.926 404.149 264.926 404.737C264.926 405.334 264.78 405.87 264.489 406.344C264.202 406.813 263.803 407.18 263.293 407.444C262.787 407.709 262.224 407.841 261.604 407.841C260.984 407.841 260.419 407.709 259.909 407.444C259.403 407.18 259.002 406.813 258.706 406.344C258.414 405.87 258.268 405.334 258.268 404.737ZM259.758 404.737C259.758 405.093 259.836 405.405 259.991 405.674C260.15 405.943 260.369 406.15 260.647 406.296C260.93 406.442 261.249 406.515 261.604 406.515C261.95 406.515 262.263 406.442 262.541 406.296C262.819 406.15 263.037 405.943 263.197 405.674C263.356 405.405 263.436 405.093 263.436 404.737C263.436 404.391 263.356 404.083 263.197 403.814C263.037 403.546 262.816 403.338 262.534 403.192C262.256 403.047 261.946 402.974 261.604 402.974C261.253 402.974 260.936 403.047 260.654 403.192C260.371 403.338 260.15 403.546 259.991 403.814C259.836 404.083 259.758 404.391 259.758 404.737ZM260.169 408.866H261.7V411.71H268.686V412.94H260.169V408.866ZM274.476 402.591C274.472 403.142 274.584 403.669 274.811 404.17C275.039 404.667 275.376 405.106 275.823 405.489C276.274 405.872 276.819 406.164 277.457 406.364L276.705 407.567C276.008 407.335 275.404 406.993 274.893 406.542C274.388 406.091 273.991 405.558 273.704 404.942C273.421 405.608 273.02 406.184 272.501 406.672C271.981 407.16 271.364 407.526 270.648 407.772L269.883 406.583C270.53 406.364 271.079 406.05 271.53 405.64C271.986 405.225 272.33 404.756 272.562 404.231C272.795 403.707 272.909 403.16 272.904 402.591V401.415H274.476V402.591ZM271.728 408.784H280.164V413.187H278.633V410.001H271.728V408.784ZM278.633 400.827H280.164V408.224H278.633V400.827ZM295.053 413.187H293.522V400.827H295.053V413.187ZM284.813 409.782C286.408 409.026 287.604 408.121 288.402 407.068C289.204 406.016 289.676 404.774 289.817 403.343H285.442V402.14H291.362C291.362 404.104 290.917 405.826 290.029 407.308C289.14 408.789 287.666 410.019 285.606 410.999L284.813 409.782ZM302.963 401.224C302.963 401.661 303.14 402.078 303.496 402.475C303.851 402.867 304.35 403.201 304.993 403.479C305.64 403.753 306.385 403.935 307.228 404.026L306.722 405.175C305.674 405.056 304.751 404.799 303.954 404.402C303.161 404.001 302.566 403.5 302.17 402.898C301.773 403.5 301.178 404.001 300.385 404.402C299.592 404.799 298.679 405.056 297.644 405.175L297.125 404.026C297.968 403.935 298.713 403.753 299.36 403.479C300.012 403.201 300.515 402.867 300.871 402.475C301.226 402.078 301.404 401.661 301.404 401.224V400.896H302.963V401.224ZM296.55 405.79H307.816V406.993H302.922V407.95H306.408V411.013H299.381V411.915H306.75V413.077H297.89V409.919H304.918V409.112H297.877V407.95H301.404V406.993H296.55V405.79Z" fill="white"/>
<path fill-rule="evenodd" clip-rule="evenodd" d="M262.227 335.246C261.846 335.241 261.464 335.253 261.085 335.28C256.545 335.598 252.315 338.132 249.945 342.246C246.797 347.716 247.631 354.51 252.165 359.14C254.241 361.259 254.59 363.296 254.113 366.027L253.248 370.985C253.083 371.871 254.419 372.1 254.559 371.211L255.42 366.252C255.939 363.274 255.454 360.6 253.115 358.211C248.973 353.982 248.24 347.881 251.101 342.909C253.962 337.941 259.844 335.351 265.332 337.006C267.852 337.766 270.051 339.199 271.505 340.789C273.349 342.805 274.649 345.575 274.579 349.13C274.579 349.221 274.597 349.311 274.634 349.393L277.126 355.445C277.31 355.889 277.267 356.169 277.035 356.257L274.794 357.116C274.571 357.201 274.412 357.399 274.375 357.635L273.339 364.259C273.257 364.792 272.595 364.924 272.146 365.067C271.395 365.306 270.393 365.339 269.617 365.229L262.73 363.262C261.436 362.893 260.987 362.392 260.288 361.183C260.169 360.966 259.934 360.832 259.683 360.841C259.179 360.862 258.88 361.412 259.14 361.846C259.903 363.171 260.783 364.09 262.365 364.542L268.714 366.356L267.827 370.973C267.662 371.847 268.969 372.097 269.138 371.223L270.035 366.502C270.86 366.551 271.724 366.584 272.508 366.347C273.483 366.054 274.5 365.434 274.649 364.459L275.623 358.22L277.51 357.499C277.981 357.323 278.356 356.919 278.494 356.443C278.631 355.966 278.564 355.453 278.353 354.944L275.871 348.909C275.875 345.138 274.503 342.054 272.49 339.895C269.74 336.936 265.999 335.313 262.227 335.246Z" fill="white"/>
<path fill-rule="evenodd" clip-rule="evenodd" d="M290.952 344.945H292.582C293.034 344.945 293.376 345.283 293.376 345.735V362.317C293.376 362.767 293.035 363.109 292.582 363.109H290.952C290.502 363.109 290.16 362.767 290.16 362.317V345.735C290.16 345.283 290.502 344.945 290.952 344.945ZM290.952 343.613C289.788 343.613 288.832 344.572 288.832 345.735V362.317C288.832 363.481 289.788 364.437 290.952 364.437H292.582C293.749 364.437 294.704 363.481 294.704 362.317V345.735C294.704 344.572 293.749 343.613 292.582 343.613H290.952Z" fill="#3FA9F5"/>
<path d="M274.374 335.784C273.712 335.824 273.507 336.7 274.084 337.027L275.229 337.699C275.547 337.901 275.972 337.8 276.16 337.473C276.353 337.149 276.234 336.73 275.902 336.55L274.753 335.882C274.64 335.812 274.505 335.778 274.374 335.784Z" fill="#3FA9F5"/>
<path d="M277.814 337.799C277.154 337.836 276.949 338.712 277.524 339.039L278.671 339.711C278.99 339.898 279.395 339.791 279.582 339.476C279.768 339.158 279.665 338.749 279.347 338.563L278.195 337.894C278.083 337.824 277.947 337.79 277.814 337.799Z" fill="#3FA9F5"/>
<path d="M281.261 339.811C280.598 339.848 280.394 340.724 280.971 341.051L282.116 341.723C282.434 341.927 282.858 341.824 283.048 341.497C283.24 341.173 283.121 340.754 282.788 340.574L281.64 339.905C281.527 339.836 281.392 339.802 281.261 339.811Z" fill="#3FA9F5"/>
<path d="M284.7 341.827C284.04 341.864 283.836 342.743 284.41 343.07L285.559 343.741C285.876 343.927 286.282 343.821 286.468 343.503C286.655 343.189 286.551 342.779 286.234 342.593L285.083 341.919C284.965 341.852 284.835 341.818 284.7 341.827Z" fill="#3FA9F5"/>
<path d="M285.857 364.221C285.75 364.23 285.649 364.261 285.558 364.315L284.409 364.987C284.076 365.165 283.96 365.583 284.149 365.909C284.339 366.237 284.763 366.337 285.082 366.136L286.233 365.464C286.852 365.116 286.566 364.169 285.857 364.221Z" fill="#3FA9F5"/>
<path d="M282.413 366.232C282.306 366.242 282.206 366.275 282.116 366.33L280.971 367C280.639 367.176 280.52 367.598 280.709 367.921C280.902 368.248 281.323 368.349 281.64 368.147L282.789 367.476C283.408 367.128 283.122 366.181 282.413 366.232Z" fill="#3FA9F5"/>
<path d="M279.035 368.245C278.907 368.243 278.781 368.276 278.671 368.343L277.524 369.013C277.205 369.198 277.099 369.608 277.285 369.925C277.469 370.242 277.877 370.35 278.194 370.163L279.347 369.488C279.933 369.155 279.706 368.264 279.035 368.245Z" fill="#3FA9F5"/>
<path d="M275.527 370.264C275.422 370.273 275.322 370.304 275.23 370.36L274.085 371.031C273.752 371.208 273.633 371.627 273.823 371.954C274.015 372.277 274.437 372.381 274.754 372.177L275.903 371.507C276.522 371.156 276.235 370.209 275.527 370.264Z" fill="#3FA9F5"/>
<path d="M560.158 343.451H561.881V344.709H560.158V347.307H558.641V340.703H560.158V343.451ZM550.93 341.469H556.426V342.699H552.434V345.734C553.655 345.73 554.63 345.702 555.359 345.652C556.093 345.598 556.813 345.493 557.52 345.338L557.684 346.568C556.904 346.728 556.104 346.835 555.284 346.89C554.468 346.944 553.35 346.974 551.928 346.979H550.93V341.469ZM552.146 347.922H553.664V349.193H558.641V347.922H560.158V352.885H552.146V347.922ZM558.641 351.654V350.396H553.664V351.654H558.641ZM572.579 349.836H571.062V346.732H568.574V347.826H562.79V341.523H564.308V343.52H567.07V341.523H568.574V342.85H571.062V340.717H572.579V349.836ZM567.07 346.623V344.695H564.308V346.623H567.07ZM564.431 348.934H565.976V351.586H572.853V352.816H564.431V348.934ZM571.062 345.502V344.08H568.574V345.502H571.062ZM585.329 348.318H580.557V350.451H579.053V348.318H574.036V347.102H585.329V348.318ZM575.403 349.412H576.907V351.586H584.085V352.816H575.403V349.412ZM575.512 341.1H577.016V342.494H582.348V341.1H583.852V346.131H575.512V341.1ZM582.348 344.928V343.629H577.016V344.928H582.348ZM590.353 342.658C590.353 343.196 590.463 343.711 590.681 344.203C590.905 344.691 591.233 345.126 591.666 345.509C592.103 345.887 592.632 346.176 593.252 346.377L592.431 347.594C591.771 347.361 591.201 347.022 590.722 346.575C590.249 346.129 589.877 345.602 589.608 344.996C589.33 345.657 588.938 346.231 588.432 346.719C587.931 347.202 587.332 347.571 586.635 347.826L585.814 346.609C586.466 346.395 587.017 346.085 587.469 345.68C587.92 345.27 588.257 344.798 588.48 344.265C588.708 343.727 588.822 343.16 588.822 342.562V341.346H590.353V342.658ZM587.797 348.646H596.219V353.062H594.701V349.85H587.797V348.646ZM592.24 343.109H594.701V340.703H596.219V348.045H594.701V344.354H592.24V343.109ZM611.053 353.062H609.522V340.703H611.053V353.062ZM600.813 349.658C602.408 348.902 603.604 347.997 604.402 346.944C605.204 345.892 605.676 344.65 605.817 343.219H601.442V342.016H607.362C607.362 343.98 606.917 345.702 606.029 347.184C605.14 348.665 603.666 349.895 601.606 350.875L600.813 349.658ZM618.963 341.1C618.963 341.537 619.14 341.954 619.496 342.351C619.851 342.743 620.35 343.077 620.993 343.355C621.64 343.629 622.385 343.811 623.228 343.902L622.722 345.051C621.674 344.932 620.751 344.675 619.954 344.278C619.161 343.877 618.566 343.376 618.17 342.774C617.773 343.376 617.178 343.877 616.385 344.278C615.592 344.675 614.679 344.932 613.644 345.051L613.125 343.902C613.968 343.811 614.713 343.629 615.36 343.355C616.012 343.077 616.515 342.743 616.871 342.351C617.226 341.954 617.404 341.537 617.404 341.1V340.771H618.963V341.1ZM612.55 345.666H623.816V346.869H618.922V347.826H622.408V350.889H615.381V351.791H622.75V352.953H613.89V349.795H620.918V348.988H613.877V347.826H617.404V346.869H612.55V345.666Z" fill="white"/>
<path d="M608.449 268.648H589.485C588.829 268.649 588.2 268.91 587.737 269.374C587.273 269.837 587.012 270.466 587.011 271.122V279.37H585.362V271.122C585.361 270.466 585.101 269.837 584.637 269.374C584.173 268.91 583.544 268.649 582.889 268.648H563.925C563.269 268.649 562.64 268.91 562.176 269.374C561.713 269.837 561.452 270.466 561.451 271.122V282.665C561.452 283.321 561.713 283.95 562.176 284.414C562.64 284.877 563.269 285.138 563.925 285.139H564.408L568.872 289.603V285.139H571.345V283.49H567.223V285.622L565.091 283.49H563.925C563.706 283.49 563.497 283.403 563.342 283.248C563.187 283.093 563.1 282.884 563.1 282.665V271.122C563.1 270.903 563.187 270.694 563.342 270.539C563.497 270.385 563.706 270.298 563.925 270.297H582.889C583.107 270.298 583.317 270.385 583.471 270.539C583.626 270.694 583.713 270.903 583.713 271.122V279.37H583.542L581.758 283.516L579.429 284.481L575.229 282.81L571.49 286.549L573.161 290.749L572.196 293.078L568.05 294.862V299.156H569.699V295.948L573.463 294.328L574.941 290.761L573.424 286.948L575.628 284.743L579.442 286.261L583.008 284.783L584.628 281.019H587.746L589.366 284.783L592.932 286.261L596.746 284.743L598.95 286.948L597.433 290.762L598.91 294.328L602.674 295.948V299.156H604.323V294.862L600.177 293.078L599.213 290.749L600.883 286.549L597.144 282.81L592.944 284.481L590.616 283.516L588.831 279.37H588.66V271.122C588.661 270.903 588.748 270.694 588.902 270.539C589.057 270.385 589.266 270.298 589.485 270.297H608.449C608.667 270.298 608.877 270.385 609.032 270.539C609.186 270.694 609.273 270.903 609.273 271.122V282.665C609.273 282.884 609.186 283.093 609.032 283.248C608.877 283.403 608.667 283.49 608.449 283.49H607.283L605.151 285.622V283.49H601.028V285.139H603.502V289.603L607.966 285.139H608.449C609.105 285.138 609.733 284.877 610.197 284.414C610.661 283.95 610.922 283.321 610.922 282.665V271.122C610.922 270.466 610.661 269.837 610.197 269.374C609.733 268.91 609.105 268.649 608.449 268.648Z" fill="white"/>
<path d="M607.623 272.771H590.309V274.421H607.623V272.771Z" fill="#3FA9F5"/>
<path d="M607.623 276.069H590.309V277.718H607.623V276.069Z" fill="#3FA9F5"/>
<path d="M601.029 279.367H591.959V281.016H601.029V279.367Z" fill="#3FA9F5"/>
<path d="M598.302 297.507H597.701C597.492 294.596 596.189 291.871 594.052 289.883C591.916 287.894 589.105 286.788 586.187 286.788C583.268 286.788 580.457 287.894 578.321 289.883C576.185 291.871 574.881 294.596 574.673 297.507H574.071C573.717 297.507 573.367 297.583 573.044 297.73C572.722 297.877 572.435 298.092 572.203 298.36C571.97 298.627 571.798 298.942 571.698 299.282C571.598 299.622 571.572 299.979 571.623 300.33L572.034 303.211C572.097 303.666 572.287 304.094 572.582 304.447C572.876 304.8 573.264 305.064 573.7 305.208L574.206 305.376C574.355 305.426 574.487 305.518 574.586 305.64C574.685 305.763 574.747 305.911 574.765 306.067L575.14 309.443C575.253 310.488 575.697 311.469 576.407 312.243C577.117 313.017 578.056 313.545 579.087 313.748L579.591 313.849V318.12H581.24V313.849C581.239 313.468 581.106 313.099 580.865 312.804C580.623 312.509 580.287 312.307 579.914 312.232L579.41 312.131C578.723 311.995 578.097 311.644 577.624 311.128C577.151 310.611 576.855 309.957 576.779 309.261L576.404 305.885C576.351 305.416 576.165 304.971 575.868 304.604C575.571 304.237 575.176 303.962 574.728 303.812L574.222 303.643C574.076 303.595 573.947 303.507 573.849 303.39C573.751 303.272 573.688 303.129 573.666 302.977L573.255 300.097C573.238 299.98 573.247 299.861 573.28 299.748C573.314 299.634 573.371 299.529 573.448 299.44C573.526 299.351 573.621 299.279 573.729 299.23C573.836 299.181 573.953 299.156 574.071 299.156H575.468L576.292 299.153V298.328C576.293 295.704 577.336 293.188 579.192 291.332C581.047 289.477 583.564 288.435 586.188 288.436C588.812 288.436 591.329 289.479 593.184 291.335C595.039 293.19 596.081 295.707 596.081 298.331V299.156H598.302C598.42 299.156 598.537 299.181 598.644 299.23C598.752 299.279 598.848 299.351 598.925 299.44C599.002 299.529 599.06 299.634 599.093 299.748C599.126 299.861 599.135 299.98 599.118 300.097L598.707 302.978C598.686 303.129 598.622 303.272 598.524 303.39C598.426 303.507 598.297 303.595 598.151 303.643L597.646 303.812C597.198 303.962 596.802 304.237 596.505 304.604C596.208 304.971 596.022 305.416 595.969 305.885L595.594 309.261C595.519 309.957 595.223 310.611 594.749 311.128C594.276 311.644 593.65 311.995 592.963 312.131L592.459 312.232C592.086 312.307 591.75 312.509 591.509 312.804C591.267 313.099 591.135 313.468 591.134 313.849V318.12H592.783V313.849L593.287 313.748C594.317 313.545 595.256 313.017 595.966 312.243C596.676 311.469 597.12 310.488 597.233 309.443L597.608 306.067C597.626 305.911 597.688 305.763 597.787 305.64C597.886 305.518 598.018 305.426 598.167 305.376L598.673 305.208C599.109 305.064 599.497 304.8 599.792 304.447C600.086 304.094 600.276 303.666 600.339 303.211L600.751 300.33C600.801 299.979 600.775 299.622 600.675 299.282C600.575 298.942 600.403 298.627 600.171 298.36C599.939 298.092 599.652 297.877 599.329 297.73C599.007 297.583 598.657 297.507 598.302 297.507Z" fill="white"/>
<path d="M582.065 272.771H564.75V274.421H582.065V272.771Z" fill="#3FA9F5"/>
<path d="M582.065 276.069H564.75V277.718H582.065V276.069Z" fill="#3FA9F5"/>
<path d="M577.118 279.367H564.75V281.016H577.118V279.367Z" fill="#3FA9F5"/>
<path d="M31.9355 279.604C31.931 280.174 32.0381 280.714 32.2568 281.225C32.4801 281.73 32.8105 282.177 33.248 282.564C33.6855 282.947 34.2188 283.237 34.8477 283.433L34.0273 284.622C33.3665 284.385 32.7992 284.05 32.3252 283.617C31.8512 283.184 31.4798 282.669 31.2109 282.072C30.9329 282.76 30.5342 283.357 30.0146 283.863C29.4951 284.365 28.8685 284.745 28.1348 285.005L27.3281 283.774C27.9935 283.556 28.5563 283.239 29.0166 282.824C29.4769 282.41 29.821 281.933 30.0488 281.396C30.2812 280.853 30.3997 280.279 30.4043 279.673V278.497H31.9355V279.604ZM29.3789 287.808C29.3743 287.311 29.5407 286.885 29.8779 286.529C30.2152 286.169 30.6982 285.896 31.3271 285.709C31.9606 285.522 32.7103 285.429 33.5762 285.429C34.4466 285.429 35.1986 285.522 35.832 285.709C36.4655 285.896 36.9508 286.169 37.2881 286.529C37.6299 286.885 37.8008 287.311 37.8008 287.808C37.8008 288.304 37.6299 288.73 37.2881 289.086C36.9508 289.441 36.4655 289.71 35.832 289.893C35.1986 290.079 34.4466 290.173 33.5762 290.173C32.7103 290.173 31.9606 290.079 31.3271 289.893C30.6982 289.71 30.2152 289.441 29.8779 289.086C29.5407 288.73 29.3743 288.304 29.3789 287.808ZM30.8828 287.808C30.8783 288.181 31.1107 288.471 31.5801 288.676C32.0495 288.876 32.7148 288.979 33.5762 288.983C34.4421 288.979 35.1097 288.876 35.5791 288.676C36.0485 288.471 36.2832 288.181 36.2832 287.808C36.2832 287.42 36.0485 287.124 35.5791 286.919C35.1143 286.714 34.4466 286.609 33.5762 286.604C32.7103 286.609 32.0426 286.714 31.5732 286.919C31.1084 287.124 30.8783 287.42 30.8828 287.808ZM33.7812 280.22H36.2422V277.827H37.7598V285.101H36.2422V281.464H33.7812V280.22ZM50.6595 280.999H48.9778V282.407H50.6595V283.651H48.9778V285.716H47.4602V277.827H48.9778V279.755H50.6595V280.999ZM39.2434 279.085H42.1555V277.745H43.6731V279.085H46.5716V280.274H39.2434V279.085ZM39.8723 282.981C39.8723 282.544 39.9999 282.159 40.2552 281.826C40.5104 281.493 40.8658 281.234 41.3216 281.047C41.7818 280.86 42.3105 280.767 42.9075 280.767C43.4954 280.767 44.0172 280.86 44.4729 281.047C44.9332 281.234 45.291 281.493 45.5462 281.826C45.8014 282.159 45.929 282.544 45.929 282.981C45.929 283.419 45.8014 283.804 45.5462 284.137C45.291 284.469 44.9332 284.727 44.4729 284.909C44.0172 285.091 43.4954 285.183 42.9075 285.183C42.3105 285.183 41.7818 285.091 41.3216 284.909C40.8658 284.727 40.5104 284.469 40.2552 284.137C39.9999 283.804 39.8723 283.419 39.8723 282.981ZM40.8567 287.999C40.8522 287.543 41.0139 287.154 41.3421 286.83C41.6748 286.502 42.151 286.254 42.7708 286.085C43.3951 285.912 44.1334 285.825 44.9856 285.825C45.8287 285.825 46.5602 285.912 47.18 286.085C47.7998 286.254 48.276 286.502 48.6087 286.83C48.9459 287.158 49.1145 287.548 49.1145 287.999C49.1145 288.45 48.9459 288.838 48.6087 289.161C48.276 289.489 47.7998 289.74 47.18 289.913C46.5602 290.086 45.8287 290.173 44.9856 290.173C44.1334 290.173 43.3951 290.086 42.7708 289.913C42.151 289.74 41.6748 289.489 41.3421 289.161C41.0139 288.838 40.8522 288.45 40.8567 287.999ZM41.3489 282.981C41.3443 283.31 41.4811 283.567 41.7591 283.754C42.0371 283.941 42.4108 284.034 42.8802 284.034C43.3678 284.034 43.7552 283.943 44.0423 283.761C44.3339 283.574 44.4798 283.314 44.4798 282.981C44.4798 282.644 44.3362 282.378 44.0491 282.182C43.762 281.986 43.3815 281.888 42.9075 281.888C42.4335 281.888 42.053 281.986 41.7659 282.182C41.4833 282.378 41.3443 282.644 41.3489 282.981ZM42.3606 287.999C42.3561 288.327 42.5817 288.58 43.0374 288.758C43.4931 288.936 44.1425 289.024 44.9856 289.024C45.8196 289.024 46.4622 288.936 46.9134 288.758C47.3645 288.58 47.5924 288.327 47.597 287.999C47.5924 287.666 47.3668 287.416 46.9202 287.247C46.4736 287.074 45.8287 286.987 44.9856 286.987C44.1334 286.987 43.4817 287.074 43.0305 287.247C42.5794 287.416 42.3561 287.666 42.3606 287.999ZM62.3287 285.442H57.5572V287.575H56.0533V285.442H51.0357V284.226H62.3287V285.442ZM52.4029 286.536H53.9068V288.71H61.0845V289.94H52.4029V286.536ZM52.5123 278.224H54.0162V279.618H59.3482V278.224H60.8521V283.255H52.5123V278.224ZM59.3482 282.052V280.753H54.0162V282.052H59.3482ZM67.3534 279.782C67.3534 280.32 67.4627 280.835 67.6815 281.327C67.9048 281.815 68.2329 282.25 68.6659 282.633C69.1034 283.011 69.632 283.3 70.2518 283.501L69.4315 284.718C68.7707 284.485 68.201 284.146 67.7225 283.699C67.2485 283.253 66.8771 282.726 66.6082 282.12C66.3302 282.781 65.9383 283.355 65.4325 283.843C64.9312 284.326 64.3319 284.695 63.6346 284.95L62.8143 283.733C63.466 283.519 64.0174 283.209 64.4686 282.804C64.9198 282.394 65.257 281.922 65.4803 281.389C65.7082 280.851 65.8221 280.284 65.8221 279.687V278.47H67.3534V279.782ZM64.7967 285.771H73.2186V290.187H71.701V286.974H64.7967V285.771ZM69.2401 280.233H71.701V277.827H73.2186V285.169H71.701V281.478H69.2401V280.233ZM88.0531 290.187H86.5219V277.827H88.0531V290.187ZM77.8129 286.782C79.4079 286.026 80.6042 285.121 81.4018 284.068C82.2038 283.016 82.6755 281.774 82.8168 280.343H78.4418V279.14H84.3617C84.3617 281.104 83.9174 282.826 83.0287 284.308C82.14 285.789 80.6658 287.019 78.6059 287.999L77.8129 286.782ZM95.9626 278.224C95.9626 278.661 96.1403 279.078 96.4958 279.475C96.8512 279.867 97.3503 280.201 97.9929 280.479C98.64 280.753 99.3851 280.935 100.228 281.026L99.7223 282.175C98.6742 282.056 97.7513 281.799 96.9538 281.402C96.1608 281.001 95.5661 280.5 95.1696 279.898C94.7731 280.5 94.1784 281.001 93.3854 281.402C92.5925 281.799 91.6787 282.056 90.6442 282.175L90.1247 281.026C90.9678 280.935 91.7129 280.753 92.36 280.479C93.0117 280.201 93.5153 279.867 93.8708 279.475C94.2262 279.078 94.404 278.661 94.404 278.224V277.896H95.9626V278.224ZM89.5505 282.79H100.816V283.993H95.9216V284.95H99.4079V288.013H92.3805V288.915H99.7497V290.077H90.8903V286.919H97.9177V286.112H90.8766V284.95H94.404V283.993H89.5505V282.79Z" fill="white"/>
<g clip-path="url(#clip4_1581_206)">
<path d="M46.8642 233.813C45.2673 233.813 43.9727 235.108 43.9727 236.705C43.9727 238.302 45.2673 239.597 46.8642 239.597H47.2773C47.2773 246.897 53.1956 252.815 60.4962 252.815C67.7968 252.815 73.7151 246.897 73.7151 239.597H74.1282C75.7252 239.597 77.0199 238.302 77.0199 236.705C77.0199 235.108 75.7252 233.813 74.1282 233.813" stroke="white" stroke-width="1.50769" stroke-miterlimit="10" stroke-linecap="round" stroke-linejoin="round"/>
<path d="M54.713 217.121C49.4354 218.856 45.625 223.824 45.625 229.682V233.812" stroke="white" stroke-width="1.50769" stroke-miterlimit="10" stroke-linecap="round" stroke-linejoin="round"/>
<path d="M50.582 256.12V248.478" stroke="white" stroke-width="1.50769" stroke-miterlimit="10" stroke-linecap="round" stroke-linejoin="round"/>
<path d="M70.4102 256.12V248.478" stroke="white" stroke-width="1.50769" stroke-miterlimit="10" stroke-linecap="round" stroke-linejoin="round"/>
<path d="M70.7781 209.854C71.0621 209.366 71.2366 208.807 71.2366 208.202C71.2366 206.377 69.757 204.897 67.9318 204.897C66.1066 204.897 64.6271 206.377 64.6271 208.202C64.6271 208.807 64.8016 209.366 65.0855 209.854H59.67C58.7575 209.854 58.0176 210.594 58.0176 211.507V216.922C58.5054 216.638 59.0649 216.464 59.67 216.464C61.4952 216.464 62.9747 217.943 62.9747 219.768C62.9747 221.594 61.4952 223.073 59.67 223.073C59.0649 223.073 58.5054 222.899 58.0176 222.615V228.03C58.0176 228.943 58.7575 229.683 59.67 229.683H65.0855C64.8016 229.195 64.6271 228.635 64.6271 228.03C64.6271 226.205 66.1066 224.726 67.9318 224.726C69.757 224.726 71.2366 226.205 71.2366 228.03C71.2366 228.635 71.0621 229.195 70.7781 229.683H76.1936C77.1061 229.683 77.846 228.943 77.846 228.03V222.615C78.3338 222.899 78.8933 223.073 79.4984 223.073C81.3235 223.073 82.803 221.594 82.803 219.768C82.803 217.943 81.3235 216.464 79.4984 216.464C78.8933 216.464 78.3338 216.638 77.846 216.922V211.507C77.846 210.594 77.1061 209.854 76.1936 209.854H74.5413" stroke="#3FA9F5" stroke-width="1.50769" stroke-miterlimit="10" stroke-linecap="round" stroke-linejoin="round"/>
</g>
</g>
<defs>
<filter id="filter0_b_1581_206" x="-4.1482" y="65.9475" width="656.294" height="486.709" filterUnits="userSpaceOnUse" color-interpolation-filters="sRGB">
<feFlood flood-opacity="0" result="BackgroundImageFix"/>
<feGaussianBlur in="BackgroundImageFix" stdDeviation="1.50769"/>
<feComposite in2="SourceAlpha" operator="in" result="effect1_backgroundBlur_1581_206"/>
<feBlend mode="normal" in="SourceGraphic" in2="effect1_backgroundBlur_1581_206" result="shape"/>
</filter>
<linearGradient id="paint0_linear_1581_206" x1="368.597" y1="413.197" x2="368.597" y2="234.795" gradientUnits="userSpaceOnUse">
<stop stop-color="#3FA9F5"/>
<stop offset="1" stop-color="#008BD9"/>
</linearGradient>
<linearGradient id="paint1_linear_1581_206" x1="323.997" y1="458.625" x2="323.997" y2="323.996" gradientUnits="userSpaceOnUse">
<stop stop-color="#3FA9F5"/>
<stop offset="1" stop-color="#008BD9"/>
</linearGradient>
<linearGradient id="paint2_linear_1581_206" x1="344.879" y1="501.849" x2="344.879" y2="146.159" gradientUnits="userSpaceOnUse">
<stop stop-color="#3FA9F5"/>
<stop offset="1" stop-color="#008BD9"/>
</linearGradient>
<linearGradient id="paint3_linear_1581_206" x1="323.999" y1="542.003" x2="323.999" y2="105.99" gradientUnits="userSpaceOnUse">
<stop stop-color="#3FA9F5"/>
<stop offset="1" stop-color="#008BD9"/>
</linearGradient>
<linearGradient id="paint4_linear_1581_206" x1="455.854" y1="587.714" x2="455.854" y2="60.2784" gradientUnits="userSpaceOnUse">
<stop stop-color="#3FA9F5"/>
<stop offset="1" stop-color="#008BD9"/>
</linearGradient>
<linearGradient id="paint5_linear_1581_206" x1="477.047" y1="630.097" x2="477.047" y2="17.8948" gradientUnits="userSpaceOnUse">
<stop stop-color="#3FA9F5"/>
<stop offset="1" stop-color="#008BD9"/>
</linearGradient>
<linearGradient id="paint6_linear_1581_206" x1="323.496" y1="643.95" x2="323.496" y2="323.996" gradientUnits="userSpaceOnUse">
<stop stop-color="#3FA9F5"/>
<stop offset="1" stop-color="#008BD9"/>
</linearGradient>
<linearGradient id="paint7_linear_1581_206" x1="323.997" y1="648" x2="323.997" y2="641.627" gradientUnits="userSpaceOnUse">
<stop stop-color="#3FA9F5"/>
<stop offset="1" stop-color="#008BD9"/>
</linearGradient>
<linearGradient id="paint8_linear_1581_206" x1="484.409" y1="605.021" x2="484.409" y2="598.647" gradientUnits="userSpaceOnUse">
<stop stop-color="#3FA9F5"/>
<stop offset="1" stop-color="#008BD9"/>
</linearGradient>
<linearGradient id="paint9_linear_1581_206" x1="462.536" y1="483.977" x2="462.536" y2="323.996" gradientUnits="userSpaceOnUse">
<stop stop-color="#3FA9F5"/>
<stop offset="1" stop-color="#008BD9"/>
</linearGradient>
<linearGradient id="paint10_linear_1581_206" x1="601.833" y1="487.595" x2="601.833" y2="481.222" gradientUnits="userSpaceOnUse">
<stop stop-color="#3FA9F5"/>
<stop offset="1" stop-color="#008BD9"/>
</linearGradient>
<linearGradient id="paint11_linear_1581_206" x1="483.972" y1="323.995" x2="483.972" y2="322.995" gradientUnits="userSpaceOnUse">
<stop stop-color="#3FA9F5"/>
<stop offset="1" stop-color="#008BD9"/>
</linearGradient>
<linearGradient id="paint12_linear_1581_206" x1="644.813" y1="327.182" x2="644.813" y2="320.808" gradientUnits="userSpaceOnUse">
<stop stop-color="#3FA9F5"/>
<stop offset="1" stop-color="#008BD9"/>
</linearGradient>
<linearGradient id="paint13_linear_1581_206" x1="462.536" y1="323.996" x2="462.536" y2="164.023" gradientUnits="userSpaceOnUse">
<stop stop-color="#3FA9F5"/>
<stop offset="1" stop-color="#008BD9"/>
</linearGradient>
<linearGradient id="paint14_linear_1581_206" x1="601.833" y1="166.778" x2="601.833" y2="160.405" gradientUnits="userSpaceOnUse">
<stop stop-color="#3FA9F5"/>
<stop offset="1" stop-color="#008BD9"/>
</linearGradient>
<linearGradient id="paint15_linear_1581_206" x1="323.498" y1="323.996" x2="323.498" y2="86.5879" gradientUnits="userSpaceOnUse">
<stop stop-color="#3FA9F5"/>
<stop offset="1" stop-color="#008BD9"/>
</linearGradient>
<linearGradient id="paint16_linear_1581_206" x1="323.997" y1="88.3057" x2="323.997" y2="81.9315" gradientUnits="userSpaceOnUse">
<stop stop-color="#3FA9F5"/>
<stop offset="1" stop-color="#008BD9"/>
</linearGradient>
<linearGradient id="paint17_linear_1581_206" x1="244.01" y1="323.996" x2="244.01" y2="46.9119" gradientUnits="userSpaceOnUse">
<stop stop-color="#3FA9F5"/>
<stop offset="1" stop-color="#008BD9"/>
</linearGradient>
<linearGradient id="paint18_linear_1581_206" x1="163.591" y1="49.3535" x2="163.591" y2="42.9803" gradientUnits="userSpaceOnUse">
<stop stop-color="#3FA9F5"/>
<stop offset="1" stop-color="#008BD9"/>
</linearGradient>
<linearGradient id="paint19_linear_1581_206" x1="220.048" y1="323.996" x2="220.048" y2="203.968" gradientUnits="userSpaceOnUse">
<stop stop-color="#3FA9F5"/>
<stop offset="1" stop-color="#008BD9"/>
</linearGradient>
<linearGradient id="paint20_linear_1581_206" x1="115.541" y1="206.035" x2="115.541" y2="201.253" gradientUnits="userSpaceOnUse">
<stop stop-color="#3FA9F5"/>
<stop offset="1" stop-color="#008BD9"/>
</linearGradient>
<linearGradient id="paint21_linear_1581_206" x1="206.994" y1="323.723" x2="206.994" y2="322.723" gradientUnits="userSpaceOnUse">
<stop stop-color="#3FA9F5"/>
<stop offset="1" stop-color="#008BD9"/>
</linearGradient>
<linearGradient id="paint22_linear_1581_206" x1="87.3212" y1="327.184" x2="87.3212" y2="320.81" gradientUnits="userSpaceOnUse">
<stop stop-color="#3FA9F5"/>
<stop offset="1" stop-color="#008BD9"/>
</linearGradient>
<linearGradient id="paint23_linear_1581_206" x1="58.0095" y1="280.388" x2="58.0095" y2="279.388" gradientUnits="userSpaceOnUse">
<stop stop-color="#3FA9F5"/>
<stop offset="1" stop-color="#008BD9"/>
</linearGradient>
<linearGradient id="paint24_linear_1581_206" x1="3.18793" y1="283.849" x2="3.18793" y2="277.475" gradientUnits="userSpaceOnUse">
<stop stop-color="#3FA9F5"/>
<stop offset="1" stop-color="#008BD9"/>
</linearGradient>
<linearGradient id="paint25_linear_1581_206" x1="185.454" y1="483.977" x2="185.454" y2="323.996" gradientUnits="userSpaceOnUse">
<stop stop-color="#3FA9F5"/>
<stop offset="1" stop-color="#008BD9"/>
</linearGradient>
<linearGradient id="paint26_linear_1581_206" x1="46.1669" y1="487.595" x2="46.1669" y2="481.222" gradientUnits="userSpaceOnUse">
<stop stop-color="#3FA9F5"/>
<stop offset="1" stop-color="#008BD9"/>
</linearGradient>
<linearGradient id="paint27_linear_1581_206" x1="244.01" y1="601.081" x2="244.01" y2="323.997" gradientUnits="userSpaceOnUse">
<stop stop-color="#3FA9F5"/>
<stop offset="1" stop-color="#008BD9"/>
</linearGradient>
<linearGradient id="paint28_linear_1581_206" x1="163.591" y1="605.021" x2="163.591" y2="598.647" gradientUnits="userSpaceOnUse">
<stop stop-color="#3FA9F5"/>
<stop offset="1" stop-color="#008BD9"/>
</linearGradient>
<linearGradient id="paint29_linear_1581_206" x1="271.806" y1="548.66" x2="271.806" y2="439.307" gradientUnits="userSpaceOnUse">
<stop stop-color="#4D98D2" stop-opacity="0.24"/>
<stop offset="1" stop-color="#63FFEC" stop-opacity="0.06"/>
</linearGradient>
<linearGradient id="paint30_linear_1581_206" x1="271.806" y1="548.66" x2="271.806" y2="439.307" gradientUnits="userSpaceOnUse">
<stop stop-color="#3FA9F5"/>
<stop offset="1" stop-color="#008BD9"/>
</linearGradient>
<linearGradient id="paint31_linear_1581_206" x1="271.806" y1="425.54" x2="271.806" y2="316.187" gradientUnits="userSpaceOnUse">
<stop stop-color="#4D98D2" stop-opacity="0.24"/>
<stop offset="1" stop-color="#63FFEC" stop-opacity="0.06"/>
</linearGradient>
<linearGradient id="paint32_linear_1581_206" x1="271.806" y1="425.54" x2="271.806" y2="316.187" gradientUnits="userSpaceOnUse">
<stop stop-color="#3FA9F5"/>
<stop offset="1" stop-color="#008BD9"/>
</linearGradient>
<linearGradient id="paint33_linear_1581_206" x1="271.247" y1="302.416" x2="271.247" y2="193.063" gradientUnits="userSpaceOnUse">
<stop stop-color="#4D98D2" stop-opacity="0.24"/>
<stop offset="1" stop-color="#63FFEC" stop-opacity="0.06"/>
</linearGradient>
<linearGradient id="paint34_linear_1581_206" x1="271.247" y1="302.416" x2="271.247" y2="193.063" gradientUnits="userSpaceOnUse">
<stop stop-color="#3FA9F5"/>
<stop offset="1" stop-color="#008BD9"/>
</linearGradient>
<linearGradient id="paint35_linear_1581_206" x1="63.1402" y1="302.416" x2="63.1402" y2="193.063" gradientUnits="userSpaceOnUse">
<stop stop-color="#4D98D2" stop-opacity="0.24"/>
<stop offset="1" stop-color="#63FFEC" stop-opacity="0.06"/>
</linearGradient>
<linearGradient id="paint36_linear_1581_206" x1="63.1402" y1="302.416" x2="63.1402" y2="193.063" gradientUnits="userSpaceOnUse">
<stop stop-color="#3FA9F5"/>
<stop offset="1" stop-color="#008BD9"/>
</linearGradient>
<linearGradient id="paint37_linear_1581_206" x1="271.247" y1="179.296" x2="271.247" y2="69.943" gradientUnits="userSpaceOnUse">
<stop stop-color="#4D98D2" stop-opacity="0.24"/>
<stop offset="1" stop-color="#63FFEC" stop-opacity="0.06"/>
</linearGradient>
<linearGradient id="paint38_linear_1581_206" x1="271.247" y1="179.296" x2="271.247" y2="69.943" gradientUnits="userSpaceOnUse">
<stop stop-color="#3FA9F5"/>
<stop offset="1" stop-color="#008BD9"/>
</linearGradient>
<linearGradient id="paint39_linear_1581_206" x1="375.784" y1="365.317" x2="375.784" y2="255.954" gradientUnits="userSpaceOnUse">
<stop stop-color="#4D98D2" stop-opacity="0.24"/>
<stop offset="1" stop-color="#63FFEC" stop-opacity="0.06"/>
</linearGradient>
<linearGradient id="paint40_linear_1581_206" x1="375.784" y1="365.317" x2="375.784" y2="255.954" gradientUnits="userSpaceOnUse">
<stop stop-color="#3FA9F5"/>
<stop offset="1" stop-color="#008BD9"/>
</linearGradient>
<linearGradient id="paint41_linear_1581_206" x1="376.564" y1="242.016" x2="376.564" y2="132.663" gradientUnits="userSpaceOnUse">
<stop stop-color="#4D98D2" stop-opacity="0.24"/>
<stop offset="1" stop-color="#63FFEC" stop-opacity="0.06"/>
</linearGradient>
<linearGradient id="paint42_linear_1581_206" x1="376.564" y1="242.016" x2="376.564" y2="132.663" gradientUnits="userSpaceOnUse">
<stop stop-color="#3FA9F5"/>
<stop offset="1" stop-color="#008BD9"/>
</linearGradient>
<linearGradient id="paint43_linear_1581_206" x1="584.864" y1="365.139" x2="584.864" y2="255.775" gradientUnits="userSpaceOnUse">
<stop stop-color="#4D98D2" stop-opacity="0.24"/>
<stop offset="1" stop-color="#63FFEC" stop-opacity="0.06"/>
</linearGradient>
<linearGradient id="paint44_linear_1581_206" x1="584.864" y1="365.139" x2="584.864" y2="255.775" gradientUnits="userSpaceOnUse">
<stop stop-color="#3FA9F5"/>
<stop offset="1" stop-color="#008BD9"/>
</linearGradient>
<linearGradient id="paint45_linear_1581_206" x1="481.824" y1="425.54" x2="481.824" y2="316.187" gradientUnits="userSpaceOnUse">
<stop stop-color="#4D98D2" stop-opacity="0.24"/>
<stop offset="1" stop-color="#63FFEC" stop-opacity="0.06"/>
</linearGradient>
<linearGradient id="paint46_linear_1581_206" x1="481.824" y1="425.54" x2="481.824" y2="316.187" gradientUnits="userSpaceOnUse">
<stop stop-color="#3FA9F5"/>
<stop offset="1" stop-color="#008BD9"/>
</linearGradient>
<linearGradient id="paint47_linear_1581_206" x1="478.773" y1="302.416" x2="478.773" y2="193.063" gradientUnits="userSpaceOnUse">
<stop stop-color="#4D98D2" stop-opacity="0.24"/>
<stop offset="1" stop-color="#63FFEC" stop-opacity="0.06"/>
</linearGradient>
<linearGradient id="paint48_linear_1581_206" x1="478.773" y1="302.416" x2="478.773" y2="193.063" gradientUnits="userSpaceOnUse">
<stop stop-color="#3FA9F5"/>
<stop offset="1" stop-color="#008BD9"/>
</linearGradient>
<linearGradient id="paint49_linear_1581_206" x1="167.21" y1="486.711" x2="167.21" y2="377.347" gradientUnits="userSpaceOnUse">
<stop stop-color="#4D98D2" stop-opacity="0.24"/>
<stop offset="1" stop-color="#63FFEC" stop-opacity="0.06"/>
</linearGradient>
<linearGradient id="paint50_linear_1581_206" x1="167.21" y1="486.711" x2="167.21" y2="377.347" gradientUnits="userSpaceOnUse">
<stop stop-color="#3FA9F5"/>
<stop offset="1" stop-color="#008BD9"/>
</linearGradient>
<linearGradient id="paint51_linear_1581_206" x1="166.125" y1="364.514" x2="166.125" y2="255.161" gradientUnits="userSpaceOnUse">
<stop stop-color="#4D98D2" stop-opacity="0.24"/>
<stop offset="1" stop-color="#63FFEC" stop-opacity="0.06"/>
</linearGradient>
<linearGradient id="paint52_linear_1581_206" x1="166.125" y1="364.514" x2="166.125" y2="255.161" gradientUnits="userSpaceOnUse">
<stop stop-color="#3FA9F5"/>
<stop offset="1" stop-color="#008BD9"/>
</linearGradient>
<linearGradient id="paint53_linear_1581_206" x1="166.125" y1="242.016" x2="166.125" y2="132.663" gradientUnits="userSpaceOnUse">
<stop stop-color="#4D98D2" stop-opacity="0.24"/>
<stop offset="1" stop-color="#63FFEC" stop-opacity="0.06"/>
</linearGradient>
<linearGradient id="paint54_linear_1581_206" x1="166.125" y1="242.016" x2="166.125" y2="132.663" gradientUnits="userSpaceOnUse">
<stop stop-color="#3FA9F5"/>
<stop offset="1" stop-color="#008BD9"/>
</linearGradient>
<linearGradient id="paint55_linear_1581_206" x1="376.011" y1="486.711" x2="376.011" y2="377.347" gradientUnits="userSpaceOnUse">
<stop stop-color="#4D98D2" stop-opacity="0.24"/>
<stop offset="1" stop-color="#63FFEC" stop-opacity="0.06"/>
</linearGradient>
<linearGradient id="paint56_linear_1581_206" x1="376.011" y1="486.711" x2="376.011" y2="377.347" gradientUnits="userSpaceOnUse">
<stop stop-color="#3FA9F5"/>
<stop offset="1" stop-color="#008BD9"/>
</linearGradient>
<clipPath id="clip0_1581_206">
<rect width="648" height="648" fill="white" transform="translate(648 648) rotate(180)"/>
</clipPath>
<clipPath id="clip1_1581_206">
<rect width="52.7692" height="52.7692" fill="white" transform="translate(246 448)"/>
</clipPath>
<clipPath id="clip2_1581_206">
<rect width="52.7692" height="52.7692" fill="white" transform="translate(139 261)"/>
</clipPath>
<clipPath id="clip3_1581_206">
<rect width="64.0769" height="43.7231" fill="white" transform="translate(450 333)"/>
</clipPath>
<clipPath id="clip4_1581_206">
<rect width="52.7692" height="52.7692" fill="white" transform="translate(37 204.123)"/>
</clipPath>
</defs>
</svg>
