<svg width="46" height="46" viewBox="0 0 46 46" fill="none" xmlns="http://www.w3.org/2000/svg">
<path d="M10.2079 21.0319C10.4777 21.3789 10.4156 21.8787 10.0686 22.1485C9.46776 22.6164 8.69261 22.8743 7.88801 22.8743C7.08182 22.8743 6.30747 22.6164 5.7066 22.1485C5.35962 21.8779 5.29754 21.3781 5.56813 21.0311C5.83871 20.6841 6.3401 20.6228 6.68549 20.8926C7.33013 21.3948 8.4451 21.3956 9.09133 20.8926C9.43832 20.6228 9.93731 20.6849 10.2079 21.0319ZM45.6954 26.7429C45.5322 27.3103 45.1319 27.7791 44.5963 28.0282L42.9052 28.8145L42.216 32.7396C41.8387 34.8844 39.9852 36.441 37.8078 36.441H34.5329C34.1994 36.441 33.9081 36.6782 33.8397 37.0045L33.3113 39.548C33.2349 39.9173 32.9094 40.1815 32.5321 40.1815H13.2425C12.8652 40.1815 12.5397 39.9165 12.4633 39.548L11.9349 37.0045C11.8672 36.6774 11.5752 36.441 11.2417 36.441H7.9668C5.78937 36.441 3.93585 34.8844 3.55862 32.7404L2.86942 28.8145L1.17825 28.0282C0.642648 27.7791 0.242338 27.3103 0.0791904 26.7429C-0.0839576 26.1747 0.00756431 25.565 0.329881 25.0692L2.78506 21.2961V19.5811C2.78506 12.0922 8.87804 6 16.3669 6H17.2432C19.2391 6 21.1563 6.43533 22.896 7.21844C24.6763 6.41941 26.5665 6 28.5306 6H29.4068C36.8957 6 42.9887 12.093 42.9887 19.5811V21.2961L45.4439 25.0692C45.767 25.5642 45.8577 26.1747 45.6954 26.7429ZM25.2143 30.1945L27.6751 26.15C29.3997 23.3152 29.8971 19.8509 29.04 16.646C28.1351 13.2653 25.851 10.5347 22.8952 8.9868C19.8631 10.5689 17.6236 13.3329 16.737 16.646C15.8791 19.8509 16.3765 23.3152 18.1019 26.15L20.5626 30.1945C21.5622 31.8379 21.8973 33.7797 21.5065 35.6627L20.8977 38.5906H24.8793L24.2705 35.6627C23.8797 33.7797 24.2148 31.8379 25.2143 30.1945ZM13.8903 38.5906H19.2726L19.9482 35.3388C20.257 33.8522 19.9928 32.3194 19.2025 31.0221L16.7418 26.9777C14.792 23.7736 14.2301 19.858 15.1994 16.2346C16.0908 12.9016 18.1918 10.0572 21.0576 8.20926C19.8488 7.81055 18.5659 7.59089 17.2432 7.59089H16.3669C9.75506 7.59089 4.37675 12.9692 4.37675 19.5803V21.5317C4.37675 21.6861 4.33218 21.8365 4.24782 21.9654L1.66372 25.9367C1.56662 26.0855 1.58811 26.2304 1.6088 26.3028C1.62949 26.3752 1.68918 26.5097 1.84915 26.5845L3.91595 27.5459C4.15152 27.6557 4.31865 27.8738 4.36402 28.13L5.12564 32.4642C5.36837 33.8458 6.56373 34.8493 7.96601 34.8493H11.2409C12.3248 34.8493 13.2719 35.6197 13.4923 36.6806L13.8903 38.5906ZM44.1101 25.9375L41.526 21.9662C41.4424 21.8373 41.397 21.6861 41.397 21.5325V19.5811C41.397 12.97 36.0187 7.59169 29.4068 7.59169H28.5306C27.2199 7.59169 25.9473 7.80577 24.7241 8.20926C27.5326 10.023 29.6695 12.8411 30.5775 16.2361C31.5469 19.8588 30.985 23.7744 29.0352 26.9792L26.5744 31.0237C25.785 32.321 25.5199 33.8537 25.8287 35.3404L26.5044 38.5922H31.8835L32.2806 36.6822C32.5011 35.6213 33.4481 34.8509 34.5321 34.8509H37.807C39.2101 34.8509 40.4046 33.8482 40.6473 32.4658L41.409 28.1324C41.4543 27.8762 41.6215 27.6581 41.857 27.5483L43.9238 26.5869C44.0846 26.5121 44.1435 26.3784 44.1642 26.3052C44.1849 26.232 44.2072 26.0855 44.1101 25.9375ZM39.0891 20.8926C38.4437 21.3948 37.3295 21.3956 36.6832 20.8926C36.3363 20.6228 35.8365 20.6841 35.5667 21.0319C35.2969 21.3789 35.359 21.8787 35.7059 22.1485C36.3068 22.6164 37.082 22.8743 37.8866 22.8743C38.6928 22.8743 39.4671 22.6164 40.068 22.1485C40.415 21.8779 40.477 21.3781 40.2065 21.0311C39.9351 20.6841 39.4353 20.6228 39.0891 20.8926Z" fill="#4C99D3"/>
</svg>
