<svg width="156" height="58" viewBox="0 0 156 58" fill="none" xmlns="http://www.w3.org/2000/svg">
<rect x="1" y="1" width="154" height="56" rx="6" fill="#111111" stroke="#111111" stroke-opacity="0.5"/>
<path d="M47.234 41.262L51.734 28.914H54.002L58.394 41.262H56.108L54.992 38.13H50.402L49.286 41.262H47.234ZM52.652 31.542L50.924 36.474H54.434L52.706 31.542H52.652ZM59.531 43.944V31.992H61.529V32.784H61.601C62.159 32.226 63.113 31.83 64.283 31.83C66.209 31.83 67.955 32.946 67.955 36.348V36.582C67.955 40.056 66.281 41.424 63.761 41.424C62.735 41.424 62.051 41.154 61.601 40.902V43.944H59.531ZM63.473 39.858C64.949 39.858 65.795 39.102 65.795 36.852V36.474C65.795 34.188 65.003 33.522 63.545 33.522C62.663 33.522 61.961 33.81 61.601 34.062V39.318C61.961 39.606 62.663 39.858 63.473 39.858ZM69.5197 43.944V31.992H71.5177V32.784H71.5897C72.1477 32.226 73.1017 31.83 74.2717 31.83C76.1977 31.83 77.9437 32.946 77.9437 36.348V36.582C77.9437 40.056 76.2697 41.424 73.7497 41.424C72.7237 41.424 72.0397 41.154 71.5897 40.902V43.944H69.5197ZM73.4617 39.858C74.9377 39.858 75.7837 39.102 75.7837 36.852V36.474C75.7837 34.188 74.9917 33.522 73.5337 33.522C72.6517 33.522 71.9497 33.81 71.5897 34.062V39.318C71.9497 39.606 72.6517 39.858 73.4617 39.858ZM87.0049 41.478C85.3849 41.478 84.1609 41.136 83.3149 40.686V38.94C84.3049 39.372 85.4749 39.696 86.8249 39.696C88.4809 39.696 89.1829 39.012 89.1829 37.896C89.1829 36.87 88.7329 36.474 87.3829 36.06L86.2129 35.736C84.4669 35.25 83.4049 34.314 83.4049 32.226C83.4049 30.138 84.7549 28.716 87.5449 28.716C89.1649 28.716 90.0469 29.022 90.7309 29.382V31.11C89.9569 30.786 88.9489 30.498 87.5809 30.498C86.2849 30.498 85.5649 31.038 85.5649 32.028C85.5649 33 85.9249 33.414 87.1489 33.756L88.3009 34.116C90.2449 34.674 91.4149 35.484 91.4149 37.68C91.4149 40.02 89.9929 41.478 87.0049 41.478ZM96.185 41.37C94.583 41.37 93.557 40.722 93.557 38.976V33.612H92.261V31.992H93.557V29.814H95.591V31.992H97.805V33.612H95.591V38.688C95.591 39.462 95.879 39.75 96.851 39.75C97.211 39.75 97.589 39.696 97.913 39.606V40.992C97.553 41.172 97.049 41.37 96.185 41.37ZM103.272 41.424C100.446 41.424 98.8801 39.714 98.8801 36.816V36.528C98.8801 33.558 100.68 31.83 103.29 31.83C106.062 31.83 107.664 33.522 107.664 36.474V36.726C107.664 39.714 105.864 41.424 103.272 41.424ZM103.308 39.858C104.694 39.858 105.504 38.904 105.504 36.906V36.456C105.504 34.044 104.514 33.396 103.254 33.396C101.832 33.396 101.004 34.386 101.004 36.384V36.816C101.004 39.21 102.012 39.858 103.308 39.858ZM109.18 41.262V31.992H111.178V33.072H111.25C111.754 32.406 112.708 31.92 113.68 31.92C113.932 31.92 114.166 31.938 114.256 31.974V33.81C114.022 33.774 113.716 33.756 113.5 33.756C112.672 33.756 111.844 33.99 111.25 34.368V41.262H109.18ZM119.633 41.424C116.555 41.424 115.043 39.678 115.043 36.744V36.492C115.043 33.378 116.933 31.848 119.291 31.848C122.027 31.848 123.215 33.378 123.215 36.33V37.194H117.167C117.293 39.12 118.283 39.804 120.047 39.804C121.235 39.804 122.099 39.534 122.909 39.12V40.56C122.279 40.974 121.199 41.424 119.633 41.424ZM119.255 33.378C118.301 33.378 117.311 33.882 117.167 35.772H121.109C121.109 34.026 120.461 33.378 119.255 33.378Z" fill="white"/>
<path d="M49.82 22.58V15.86H51.85C53.88 15.86 55 16.9 55 19.03V19.23C55 21.32 54.03 22.58 51.87 22.58H49.82ZM50.7 21.82H51.89C53.38 21.82 54.05 21.08 54.05 19.36V19.03C54.05 17.21 53.22 16.63 51.76 16.63H50.7V21.82ZM58.0655 22.67C56.6355 22.67 55.8055 21.75 55.8055 20.2V20.03C55.8055 18.47 56.7155 17.51 58.0755 17.51C59.4955 17.51 60.3455 18.44 60.3455 20V20.16C60.3455 21.72 59.4255 22.67 58.0655 22.67ZM58.0855 21.97C58.9555 21.97 59.4555 21.36 59.4555 20.25V19.98C59.4555 18.64 58.8255 18.21 58.0555 18.21C57.1855 18.21 56.6855 18.83 56.6855 19.94V20.22C56.6855 21.56 57.3155 21.97 58.0855 21.97ZM62.339 22.58L60.929 17.61H61.839L62.819 21.49H62.849L63.999 17.61H64.739L65.899 21.49H65.939L66.909 17.61H67.729L66.319 22.58H65.469L64.359 18.92H64.319L63.209 22.58H62.339ZM68.6253 22.58V17.61H69.4353V18.04H69.4853C69.9053 17.74 70.5453 17.51 71.1553 17.51C72.1353 17.51 72.5953 17.92 72.5953 18.88V22.58H71.7553V19.06C71.7553 18.49 71.5653 18.25 70.7853 18.25C70.3453 18.25 69.8353 18.41 69.4753 18.58V22.58H68.6253ZM73.948 22.58V15.42H74.808V22.58H73.948ZM78.1437 22.67C76.7137 22.67 75.8837 21.75 75.8837 20.2V20.03C75.8837 18.47 76.7937 17.51 78.1537 17.51C79.5737 17.51 80.4237 18.44 80.4237 20V20.16C80.4237 21.72 79.5037 22.67 78.1437 22.67ZM78.1637 21.97C79.0337 21.97 79.5337 21.36 79.5337 20.25V19.98C79.5337 18.64 78.9037 18.21 78.1337 18.21C77.2637 18.21 76.7637 18.83 76.7637 19.94V20.22C76.7637 21.56 77.3937 21.97 78.1637 21.97ZM82.6871 22.67C81.7971 22.67 81.1471 22.22 81.1471 21.26C81.1471 20.4 81.7071 19.93 82.6471 19.81L83.9671 19.65V19.19C83.9671 18.43 83.6371 18.25 82.7471 18.25C82.2571 18.25 81.8571 18.33 81.5571 18.39V17.78C82.0071 17.61 82.4771 17.51 83.0771 17.51C84.1771 17.51 84.8071 17.98 84.8071 18.98V22.58H84.1271L84.0371 22.16H83.9871C83.7371 22.44 83.3471 22.67 82.6871 22.67ZM82.8971 22.01C83.3371 22.01 83.7471 21.87 83.9671 21.67V20.3L82.8671 20.41C82.2971 20.47 82.0271 20.7 82.0271 21.24C82.0271 21.76 82.3771 22.01 82.8971 22.01ZM87.8951 22.67C86.9451 22.67 85.8451 22.08 85.8451 20.25V20.11C85.8451 18.3 86.7851 17.51 88.0551 17.51C88.6651 17.51 89.0651 17.67 89.3251 17.82V15.42H90.1751V22.58H89.4551L89.3751 22.18H89.3251C89.0351 22.47 88.5551 22.67 87.8951 22.67ZM88.1751 21.97C88.7251 21.97 89.1151 21.75 89.3251 21.58V18.53C89.1151 18.36 88.6651 18.24 88.1651 18.24C87.2551 18.24 86.7351 18.7 86.7351 20V20.22C86.7351 21.56 87.3151 21.97 88.1751 21.97ZM96.1124 22.67C94.6824 22.67 93.8524 21.75 93.8524 20.2V20.03C93.8524 18.47 94.7624 17.51 96.1224 17.51C97.5424 17.51 98.3924 18.44 98.3924 20V20.16C98.3924 21.72 97.4724 22.67 96.1124 22.67ZM96.1324 21.97C97.0024 21.97 97.5024 21.36 97.5024 20.25V19.98C97.5024 18.64 96.8724 18.21 96.1024 18.21C95.2324 18.21 94.7324 18.83 94.7324 19.94V20.22C94.7324 21.56 95.3624 21.97 96.1324 21.97ZM99.4359 22.58V17.61H100.246V18.04H100.296C100.716 17.74 101.356 17.51 101.966 17.51C102.946 17.51 103.406 17.92 103.406 18.88V22.58H102.566V19.06C102.566 18.49 102.376 18.25 101.596 18.25C101.156 18.25 100.646 18.41 100.286 18.58V22.58H99.4359ZM108.966 22.63C108.176 22.63 107.626 22.29 107.626 21.41V18.32H106.916V17.61H107.626V16.43H108.476V17.61H109.726V18.32H108.476V21.29C108.476 21.76 108.636 21.94 109.196 21.94C109.396 21.94 109.626 21.91 109.826 21.86V22.44C109.616 22.53 109.416 22.63 108.966 22.63ZM110.803 22.58V15.42H111.653V18.02H111.703C112.103 17.74 112.723 17.51 113.333 17.51C114.313 17.51 114.773 17.92 114.773 18.88V22.58H113.933V19.06C113.933 18.49 113.743 18.25 112.963 18.25C112.523 18.25 112.013 18.41 111.653 18.58V22.58H110.803ZM118.166 22.67C116.596 22.67 115.796 21.7 115.796 20.17V20.02C115.796 18.29 116.826 17.51 117.986 17.51C119.346 17.51 119.996 18.3 119.996 19.86V20.34H116.676C116.736 21.52 117.316 21.94 118.306 21.94C118.966 21.94 119.396 21.8 119.846 21.56V22.19C119.556 22.41 118.986 22.67 118.166 22.67ZM117.946 18.2C117.386 18.2 116.756 18.51 116.676 19.65H119.096C119.096 18.61 118.696 18.2 117.946 18.2Z" fill="white"/>
<mask id="mask0_3471_29184" style="mask-type:alpha" maskUnits="userSpaceOnUse" x="13" y="14" width="30" height="30">
<rect x="13" y="14" width="30" height="30" fill="#D9D9D9"/>
</mask>
<g mask="url(#mask0_3471_29184)">
<path d="M34.3649 29.4525C33.7047 26.13 36.8584 24.1813 36.8584 24.1813C36.8584 24.1813 35.6297 22.4037 33.5647 21.9464C31.5007 21.4881 30.4677 22.0607 29.4368 22.4902C28.4048 22.9207 27.8898 22.9207 27.8898 22.9207C26.4006 22.9207 25.3119 21.3439 22.4745 22.0617C20.5197 22.5551 18.4619 24.8116 18.0901 27.5049C17.7183 30.1992 18.5206 33.6371 20.0675 36.3015C21.6145 38.968 23.1903 39.9701 24.3088 39.9989C25.4273 40.0267 26.5437 39.1976 27.8898 38.9958C29.237 38.796 30.066 39.484 31.3874 39.8558C32.7036 40.2266 33.1651 39.8826 34.6811 38.5931C36.2013 37.3036 37.5773 33.6052 37.5773 33.6052C37.5773 33.6052 35.0251 32.7771 34.3649 29.4525Z" fill="white"/>
<path d="M31.4404 19.7973C32.9029 18.3071 32.4075 16 32.4075 16C32.4075 16 30.3538 16.3605 28.9778 17.7921C27.6029 19.2247 27.8305 21.4874 27.8305 21.4874C27.8305 21.4874 29.9779 21.2866 31.4404 19.7973Z" fill="white"/>
</g>
</svg>
