<svg width="156" height="58" viewBox="0 0 156 58" fill="none" xmlns="http://www.w3.org/2000/svg">
<rect x="1" y="1" width="154" height="56" rx="6" fill="#111111" stroke="#111111" stroke-opacity="0.5"/>
<path d="M53.75 41.46C50.132 41.46 47.828 39.678 47.828 35.34V34.962C47.828 30.264 50.672 28.716 53.876 28.716C55.46 28.716 56.54 29.058 57.26 29.436V31.2C56.522 30.876 55.568 30.516 53.93 30.516C51.032 30.516 50.168 32.46 50.168 34.782V35.34C50.168 37.896 50.834 39.714 53.732 39.714C54.452 39.714 55.172 39.588 55.622 39.444V36.636H53.336V34.98H57.782V40.704C56.846 41.082 55.406 41.46 53.75 41.46ZM63.5592 41.424C60.7332 41.424 59.1672 39.714 59.1672 36.816V36.528C59.1672 33.558 60.9672 31.83 63.5772 31.83C66.3492 31.83 67.9512 33.522 67.9512 36.474V36.726C67.9512 39.714 66.1512 41.424 63.5592 41.424ZM63.5952 39.858C64.9812 39.858 65.7912 38.904 65.7912 36.906V36.456C65.7912 34.044 64.8012 33.396 63.5412 33.396C62.1192 33.396 61.2912 34.386 61.2912 36.384V36.816C61.2912 39.21 62.2992 39.858 63.5952 39.858ZM73.337 41.424C70.511 41.424 68.945 39.714 68.945 36.816V36.528C68.945 33.558 70.745 31.83 73.355 31.83C76.127 31.83 77.729 33.522 77.729 36.474V36.726C77.729 39.714 75.929 41.424 73.337 41.424ZM73.373 39.858C74.759 39.858 75.569 38.904 75.569 36.906V36.456C75.569 34.044 74.579 33.396 73.319 33.396C71.897 33.396 71.069 34.386 71.069 36.384V36.816C71.069 39.21 72.077 39.858 73.373 39.858ZM82.6467 43.89C79.7487 43.89 78.3627 43.062 78.3627 41.748C78.3627 40.794 79.1187 40.218 80.0907 39.93V39.858C79.5327 39.66 79.1187 39.156 79.1187 38.508C79.1187 37.878 79.5327 37.5 80.1987 37.068C79.4967 36.618 79.0287 35.934 79.0287 34.89V34.728C79.0287 32.82 80.5407 31.848 82.7367 31.848C83.2407 31.848 83.7267 31.902 84.1767 31.992H87.3087V33.36H85.8867C86.1927 33.702 86.3547 34.098 86.3547 34.674V34.8C86.3547 36.78 84.8067 37.644 82.7187 37.644C82.1967 37.644 81.6927 37.608 81.2607 37.464C81.0447 37.644 80.9187 37.698 80.9187 37.932C80.9187 38.382 81.1707 38.544 81.7467 38.544H84.3027C86.0667 38.544 87.3087 39.174 87.3087 40.884C87.3087 42.612 85.9047 43.89 82.6467 43.89ZM82.6107 42.486C84.5367 42.486 85.1847 42 85.1847 41.226C85.1847 40.506 84.8607 40.29 83.7447 40.29H81.3687C80.8107 40.47 80.4147 40.812 80.4147 41.442C80.4147 42.126 81.0087 42.486 82.6107 42.486ZM82.7187 36.312C83.7807 36.312 84.3567 35.916 84.3567 34.89V34.656C84.3567 33.558 83.7267 33.162 82.7187 33.162C81.6567 33.162 81.0627 33.648 81.0627 34.62V34.836C81.0627 35.916 81.6927 36.312 82.7187 36.312ZM88.5487 41.262V28.104H90.6367V41.262H88.5487ZM96.8037 41.424C93.7257 41.424 92.2137 39.678 92.2137 36.744V36.492C92.2137 33.378 94.1037 31.848 96.4617 31.848C99.1977 31.848 100.386 33.378 100.386 36.33V37.194H94.3377C94.4637 39.12 95.4537 39.804 97.2177 39.804C98.4057 39.804 99.2697 39.534 100.08 39.12V40.56C99.4497 40.974 98.3697 41.424 96.8037 41.424ZM96.4257 33.378C95.4717 33.378 94.4817 33.882 94.3377 35.772H98.2797C98.2797 34.026 97.6317 33.378 96.4257 33.378ZM106.461 41.262V28.914H110.781C113.679 28.914 115.137 30.264 115.137 32.712C115.137 35.286 113.499 36.636 110.925 36.636H108.675V41.262H106.461ZM108.675 34.98H110.511C112.185 34.98 112.815 34.278 112.815 32.838C112.815 31.218 112.185 30.624 110.547 30.624H108.675V34.98ZM116.585 41.262V28.104H118.673V41.262H116.585ZM123.094 41.424C121.42 41.424 120.25 40.578 120.25 38.796C120.25 37.086 121.384 36.294 123.22 36.024L125.398 35.772V35.07C125.398 33.81 124.84 33.522 123.274 33.522C122.374 33.522 121.582 33.648 121.024 33.774V32.352C121.888 32.01 122.878 31.848 124.084 31.848C126.226 31.848 127.468 32.676 127.468 34.602V41.262H125.758L125.596 40.506H125.488C125.038 41.028 124.3 41.424 123.094 41.424ZM123.724 39.966C124.39 39.966 125.056 39.732 125.398 39.408V37.122L123.688 37.302C122.77 37.374 122.284 37.752 122.284 38.688C122.284 39.57 122.878 39.966 123.724 39.966ZM130.54 43.926C130.072 43.926 129.46 43.8 129.19 43.62V42.234C129.424 42.288 129.766 42.324 130.09 42.324C130.936 42.324 131.494 42.108 131.818 41.226L132.07 40.578L128.578 31.992H130.774L133.114 38.004H133.186L135.346 31.992H137.344L133.762 41.514C133.15 43.278 132.25 43.926 130.54 43.926Z" fill="white"/>
<path d="M50.55 22.69C48.67 22.69 47.43 21.69 47.43 19.37V19.17C47.43 16.62 48.96 15.75 50.63 15.75C51.46 15.75 51.99 15.94 52.39 16.16V16.91C51.98 16.73 51.47 16.5 50.56 16.5C48.92 16.5 48.38 17.73 48.38 19.04V19.35C48.38 20.84 48.8 21.95 50.58 21.95C51.02 21.95 51.48 21.87 51.78 21.76V20.02H50.37V19.29H52.65V22.3C52.14 22.51 51.42 22.69 50.55 22.69ZM54.0798 22.58V15.86H58.0798V16.62H54.9598V18.74H57.3698V19.48H54.9598V21.83H58.1098V22.58H54.0798ZM60.9097 22.58V16.62H58.9197V15.86H63.7697V16.62H61.7797V22.58H60.9097ZM67.4887 22.58V15.86H68.3687V22.58H67.4887ZM71.4468 22.58V16.62H69.4568V15.86H74.3068V16.62H72.3168V22.58H71.4468ZM80.5458 22.69C78.7258 22.69 77.6058 21.5 77.6058 19.31V19.12C77.6058 17.04 78.7258 15.75 80.5858 15.75C82.4158 15.75 83.5158 16.95 83.5158 19.13V19.32C83.5158 21.4 82.4158 22.69 80.5458 22.69ZM80.5758 21.97C81.9458 21.97 82.5758 20.88 82.5758 19.46V19.14C82.5758 17.58 82.0458 16.48 80.5458 16.48C79.1858 16.48 78.5558 17.55 78.5558 18.97V19.3C78.5558 20.86 79.0958 21.97 80.5758 21.97ZM84.7829 22.58V15.86H85.8229L88.9029 21.08H88.9229V15.86H89.7329V22.58H88.8229L85.6129 17.08H85.5929V22.58H84.7829Z" fill="white"/>
<mask id="mask0_3471_29153" style="mask-type:alpha" maskUnits="userSpaceOnUse" x="13" y="14" width="30" height="30">
<rect x="13" y="14" width="30" height="30" fill="#D9D9D9"/>
</mask>
<g mask="url(#mask0_3471_29153)">
<path d="M38.166 29.0004C38.166 29.6879 37.781 30.2929 37.2219 30.6046L32.4552 33.2537L28.4219 29.0004L32.4552 24.7471L37.2219 27.3962C37.781 27.7079 38.166 28.3129 38.166 29.0004Z" fill="#FFC107"/>
<path d="M28.4225 29.0004L18.5225 39.4412C18.1925 39.1112 18 38.6621 18 38.1671V19.8337C18 19.3387 18.1925 18.8896 18.5225 18.5596L28.4225 29.0004Z" fill="#03A9F4"/>
<path d="M28.4195 29L32.4529 33.2533C20.3776 39.8763 19.8716 40.8681 18.5195 39.4408L28.4195 29Z" fill="#F44336"/>
<path d="M32.4529 24.7467L28.4195 29.0001L18.5195 18.5592C19.086 17.9606 19.9944 17.8295 20.7195 18.2292L32.4529 24.7467Z" fill="#4CAF50"/>
</g>
</svg>
