<svg width="154" height="56" viewBox="0 0 154 56" fill="none" xmlns="http://www.w3.org/2000/svg">
<rect width="154" height="56" rx="6" fill="#F3F3F3"/>
<path d="M52.75 40.46C49.132 40.46 46.828 38.678 46.828 34.34V33.962C46.828 29.264 49.672 27.716 52.876 27.716C54.46 27.716 55.54 28.058 56.26 28.436V30.2C55.522 29.876 54.568 29.516 52.93 29.516C50.032 29.516 49.168 31.46 49.168 33.782V34.34C49.168 36.896 49.834 38.714 52.732 38.714C53.452 38.714 54.172 38.588 54.622 38.444V35.636H52.336V33.98H56.782V39.704C55.846 40.082 54.406 40.46 52.75 40.46ZM62.5592 40.424C59.7332 40.424 58.1672 38.714 58.1672 35.816V35.528C58.1672 32.558 59.9672 30.83 62.5772 30.83C65.3492 30.83 66.9512 32.522 66.9512 35.474V35.726C66.9512 38.714 65.1512 40.424 62.5592 40.424ZM62.5952 38.858C63.9812 38.858 64.7912 37.904 64.7912 35.906V35.456C64.7912 33.044 63.8012 32.396 62.5412 32.396C61.1192 32.396 60.2912 33.386 60.2912 35.384V35.816C60.2912 38.21 61.2992 38.858 62.5952 38.858ZM72.337 40.424C69.511 40.424 67.945 38.714 67.945 35.816V35.528C67.945 32.558 69.745 30.83 72.355 30.83C75.127 30.83 76.729 32.522 76.729 35.474V35.726C76.729 38.714 74.929 40.424 72.337 40.424ZM72.373 38.858C73.759 38.858 74.569 37.904 74.569 35.906V35.456C74.569 33.044 73.579 32.396 72.319 32.396C70.897 32.396 70.069 33.386 70.069 35.384V35.816C70.069 38.21 71.077 38.858 72.373 38.858ZM81.6467 42.89C78.7487 42.89 77.3627 42.062 77.3627 40.748C77.3627 39.794 78.1187 39.218 79.0907 38.93V38.858C78.5327 38.66 78.1187 38.156 78.1187 37.508C78.1187 36.878 78.5327 36.5 79.1987 36.068C78.4967 35.618 78.0287 34.934 78.0287 33.89V33.728C78.0287 31.82 79.5407 30.848 81.7367 30.848C82.2407 30.848 82.7267 30.902 83.1767 30.992H86.3087V32.36H84.8867C85.1927 32.702 85.3547 33.098 85.3547 33.674V33.8C85.3547 35.78 83.8067 36.644 81.7187 36.644C81.1967 36.644 80.6927 36.608 80.2607 36.464C80.0447 36.644 79.9187 36.698 79.9187 36.932C79.9187 37.382 80.1707 37.544 80.7467 37.544H83.3027C85.0667 37.544 86.3087 38.174 86.3087 39.884C86.3087 41.612 84.9047 42.89 81.6467 42.89ZM81.6107 41.486C83.5367 41.486 84.1847 41 84.1847 40.226C84.1847 39.506 83.8607 39.29 82.7447 39.29H80.3687C79.8107 39.47 79.4147 39.812 79.4147 40.442C79.4147 41.126 80.0087 41.486 81.6107 41.486ZM81.7187 35.312C82.7807 35.312 83.3567 34.916 83.3567 33.89V33.656C83.3567 32.558 82.7267 32.162 81.7187 32.162C80.6567 32.162 80.0627 32.648 80.0627 33.62V33.836C80.0627 34.916 80.6927 35.312 81.7187 35.312ZM87.5487 40.262V27.104H89.6367V40.262H87.5487ZM95.8037 40.424C92.7257 40.424 91.2137 38.678 91.2137 35.744V35.492C91.2137 32.378 93.1037 30.848 95.4617 30.848C98.1977 30.848 99.3857 32.378 99.3857 35.33V36.194H93.3377C93.4637 38.12 94.4537 38.804 96.2177 38.804C97.4057 38.804 98.2697 38.534 99.0797 38.12V39.56C98.4497 39.974 97.3697 40.424 95.8037 40.424ZM95.4257 32.378C94.4717 32.378 93.4817 32.882 93.3377 34.772H97.2797C97.2797 33.026 96.6317 32.378 95.4257 32.378ZM105.461 40.262V27.914H109.781C112.679 27.914 114.137 29.264 114.137 31.712C114.137 34.286 112.499 35.636 109.925 35.636H107.675V40.262H105.461ZM107.675 33.98H109.511C111.185 33.98 111.815 33.278 111.815 31.838C111.815 30.218 111.185 29.624 109.547 29.624H107.675V33.98ZM115.585 40.262V27.104H117.673V40.262H115.585ZM122.094 40.424C120.42 40.424 119.25 39.578 119.25 37.796C119.25 36.086 120.384 35.294 122.22 35.024L124.398 34.772V34.07C124.398 32.81 123.84 32.522 122.274 32.522C121.374 32.522 120.582 32.648 120.024 32.774V31.352C120.888 31.01 121.878 30.848 123.084 30.848C125.226 30.848 126.468 31.676 126.468 33.602V40.262H124.758L124.596 39.506H124.488C124.038 40.028 123.3 40.424 122.094 40.424ZM122.724 38.966C123.39 38.966 124.056 38.732 124.398 38.408V36.122L122.688 36.302C121.77 36.374 121.284 36.752 121.284 37.688C121.284 38.57 121.878 38.966 122.724 38.966ZM129.54 42.926C129.072 42.926 128.46 42.8 128.19 42.62V41.234C128.424 41.288 128.766 41.324 129.09 41.324C129.936 41.324 130.494 41.108 130.818 40.226L131.07 39.578L127.578 30.992H129.774L132.114 37.004H132.186L134.346 30.992H136.344L132.762 40.514C132.15 42.278 131.25 42.926 129.54 42.926Z" fill="#333333"/>
<path d="M49.55 21.69C47.67 21.69 46.43 20.69 46.43 18.37V18.17C46.43 15.62 47.96 14.75 49.63 14.75C50.46 14.75 50.99 14.94 51.39 15.16V15.91C50.98 15.73 50.47 15.5 49.56 15.5C47.92 15.5 47.38 16.73 47.38 18.04V18.35C47.38 19.84 47.8 20.95 49.58 20.95C50.02 20.95 50.48 20.87 50.78 20.76V19.02H49.37V18.29H51.65V21.3C51.14 21.51 50.42 21.69 49.55 21.69ZM53.0798 21.58V14.86H57.0798V15.62H53.9598V17.74H56.3698V18.48H53.9598V20.83H57.1098V21.58H53.0798ZM59.9097 21.58V15.62H57.9197V14.86H62.7697V15.62H60.7797V21.58H59.9097ZM66.4887 21.58V14.86H67.3687V21.58H66.4887ZM70.4468 21.58V15.62H68.4568V14.86H73.3068V15.62H71.3168V21.58H70.4468ZM79.5458 21.69C77.7258 21.69 76.6058 20.5 76.6058 18.31V18.12C76.6058 16.04 77.7258 14.75 79.5858 14.75C81.4158 14.75 82.5158 15.95 82.5158 18.13V18.32C82.5158 20.4 81.4158 21.69 79.5458 21.69ZM79.5758 20.97C80.9458 20.97 81.5758 19.88 81.5758 18.46V18.14C81.5758 16.58 81.0458 15.48 79.5458 15.48C78.1858 15.48 77.5558 16.55 77.5558 17.97V18.3C77.5558 19.86 78.0958 20.97 79.5758 20.97ZM83.7829 21.58V14.86H84.8229L87.9029 20.08H87.9229V14.86H88.7329V21.58H87.8229L84.6129 16.08H84.5929V21.58H83.7829Z" fill="#333333"/>
<mask id="mask0_3471_29174" style="mask-type:alpha" maskUnits="userSpaceOnUse" x="12" y="13" width="30" height="30">
<rect x="12" y="13" width="30" height="30" fill="#D9D9D9"/>
</mask>
<g mask="url(#mask0_3471_29174)">
<path d="M37.166 28.0004C37.166 28.6879 36.781 29.2929 36.2219 29.6046L31.4552 32.2537L27.4219 28.0004L31.4552 23.7471L36.2219 26.3962C36.781 26.7079 37.166 27.3129 37.166 28.0004Z" fill="#FFC107"/>
<path d="M27.4225 28.0004L17.5225 38.4412C17.1925 38.1112 17 37.6621 17 37.1671V18.8337C17 18.3387 17.1925 17.8896 17.5225 17.5596L27.4225 28.0004Z" fill="#03A9F4"/>
<path d="M27.4195 28L31.4529 32.2533C19.3776 38.8763 18.8716 39.8681 17.5195 38.4408L27.4195 28Z" fill="#F44336"/>
<path d="M31.4529 23.7467L27.4195 28.0001L17.5195 17.5592C18.086 16.9606 18.9944 16.8295 19.7195 17.2292L31.4529 23.7467Z" fill="#4CAF50"/>
</g>
</svg>
