<svg width="62" height="62" viewBox="0 0 62 62" fill="none" xmlns="http://www.w3.org/2000/svg">
<path d="M62 31C62 28.427 60.038 26.325 57.535 26.054C56.85 22.369 55.386 18.835 53.26 15.737C53.976 14.851 54.385 13.77 54.385 12.615C54.385 11.279 53.865 10.024 52.921 9.08C51.101 7.26 48.227 7.162 46.265 8.741C43.166 6.614 39.632 5.149 35.947 4.464C35.674 1.962 33.573 0 31 0C28.427 0 26.326 1.962 26.054 4.465C22.369 5.15 18.835 6.615 15.736 8.742C13.775 7.162 10.9 7.26 9.08 9.08C8.136 10.024 7.616 11.279 7.616 12.615C7.616 13.77 8.025 14.852 8.741 15.737C6.615 18.835 5.151 22.368 4.466 26.054C1.962 26.325 0 28.426 0 31C0 33.574 1.962 35.675 4.465 35.946C5.15 39.631 6.614 43.165 8.74 46.263C8.024 47.149 7.615 48.23 7.615 49.385C7.615 50.721 8.135 51.976 9.079 52.92C10.054 53.895 11.334 54.382 12.615 54.382C13.726 54.382 14.824 53.993 15.735 53.259C18.833 55.385 22.368 56.85 26.054 57.535C26.325 60.038 28.426 62 31 62C33.573 62 35.674 60.038 35.946 57.535C39.632 56.85 43.166 55.385 46.265 53.259C47.176 53.992 48.274 54.382 49.385 54.382C50.665 54.382 51.946 53.895 52.921 52.92C53.865 51.976 54.385 50.721 54.385 49.385C54.385 48.23 53.976 47.148 53.26 46.263C55.386 43.165 56.85 39.631 57.535 35.946C60.038 35.675 62 33.574 62 31ZM46.253 45.52L41.367 41.385C41.758 40.673 42 39.868 42 39C42 38.696 41.962 38.402 41.91 38.114L52.829 33.746C53.461 34.703 54.419 35.411 55.537 35.756C54.901 39.046 53.593 42.202 51.711 44.986C49.973 44.07 47.825 44.247 46.253 45.52ZM16.151 45.85C15.895 45.594 15.617 45.377 15.325 45.188L19.408 32.94C19.604 32.964 19.797 33 20 33C21.396 33 22.656 32.422 23.564 31.497L32.353 37.184C32.132 37.749 32 38.358 32 39C32 39.363 32.043 39.715 32.117 40.056L16.861 46.768C16.659 46.441 16.43 46.129 16.151 45.85ZM10.288 44.987C8.406 42.203 7.098 39.047 6.462 35.757C8.496 35.129 9.988 33.257 9.997 31.021L15.392 29.942C15.817 30.947 16.573 31.767 17.509 32.31L13.456 44.469C12.383 44.286 11.272 44.468 10.288 44.987ZM12.615 17.612C13.067 17.612 13.514 17.529 13.953 17.407L17.03 24C15.81 24.908 15.009 26.347 15.002 27.979L9.607 29.058C9.036 27.707 7.877 26.68 6.463 26.243C7.099 22.952 8.407 19.796 10.288 17.013C11.016 17.397 11.811 17.612 12.615 17.612ZM16.151 16.15C16.375 15.926 16.572 15.682 16.747 15.426L30.074 20.272C30.038 20.512 30 20.751 30 21C30 21.401 30.06 21.786 30.149 22.16L23.999 25.031C23.087 23.805 21.641 23 20 23C19.599 23 19.214 23.06 18.84 23.149L15.733 16.491C15.873 16.379 16.021 16.28 16.151 16.15ZM45.849 16.15C46.824 17.125 48.104 17.612 49.385 17.612C50.189 17.612 50.984 17.397 51.712 17.013C53.593 19.796 54.902 22.953 55.538 26.243C54.495 26.565 53.598 27.206 52.969 28.069L39.866 22.113C39.947 21.754 40 21.384 40 21C40 20.455 39.891 19.941 39.729 19.449L45.738 16.015C45.778 16.058 45.807 16.109 45.849 16.15ZM37.455 34.046L36.532 25.735C37.545 25.406 38.416 24.775 39.031 23.931L52.135 29.887C52.053 30.246 52 30.616 52 31C52 31.304 52.038 31.598 52.09 31.887L41.171 36.254C40.356 35.02 39.005 34.189 37.455 34.046ZM34.545 25.954L35.468 34.265C34.693 34.517 33.994 34.934 33.437 35.502L24.647 29.814C24.868 29.251 25 28.642 25 28C25 27.599 24.94 27.214 24.851 26.84L31 23.97C31.826 25.078 33.094 25.82 34.545 25.954ZM35.756 6.463C39.045 7.099 42.2 8.407 44.984 10.287C44.606 10.999 44.384 11.786 44.384 12.615C44.384 13.203 44.501 13.77 44.695 14.308L38.737 17.713C37.82 16.671 36.493 16 35 16C34.927 16 34.859 16.018 34.786 16.022L33.154 9.493C34.398 8.893 35.344 7.799 35.756 6.463ZM31 10C31.073 10 31.141 9.982 31.214 9.978L32.846 16.507C31.98 16.924 31.256 17.578 30.754 18.392L17.521 13.58C17.582 13.265 17.615 12.943 17.615 12.615C17.615 11.786 17.393 10.999 17.015 10.287C19.799 8.406 22.954 7.099 26.243 6.463C26.874 8.503 28.755 10 31 10ZM26.244 55.537C22.954 54.901 19.799 53.593 17.016 51.713C17.394 51.001 17.616 50.214 17.616 49.385C17.616 49.136 17.58 48.895 17.545 48.653L32.93 41.883C33.346 42.468 33.887 42.948 34.51 43.309L31.593 52.059C31.396 52.036 31.203 52 31 52C28.755 52 26.874 53.497 26.244 55.537ZM33.491 52.69L36.408 43.94C36.604 43.964 36.797 44 37 44C38.165 44 39.224 43.583 40.075 42.913L44.981 47.064C44.606 47.774 44.385 48.559 44.385 49.385C44.385 50.214 44.607 51.002 44.985 51.714C42.202 53.594 39.047 54.902 35.757 55.538C35.382 54.325 34.569 53.316 33.491 52.69Z" fill="black"/>
</svg>
