<svg width="70" height="70" viewBox="0 0 70 70" fill="none" xmlns="http://www.w3.org/2000/svg">
<g clip-path="url(#clip0_1116_286)">
<path d="M60.2766 43.7172C59.7188 43.4985 59.0844 43.7719 58.8547 44.3297C57.4438 47.8953 55.475 51.1875 52.9703 54.0969L48.3875 59.4453C48.2125 59.6422 48.125 59.8938 48.125 60.1563V67.8125H24.0625V61.25H34.0703C35.7437 61.25 37.2422 60.3203 37.9859 58.8328L39.2656 56.2734C39.5391 55.7375 39.3203 55.0813 38.7734 54.8078C38.2375 54.5344 37.5812 54.7531 37.3078 55.3L36.0281 57.8594C35.6562 58.6031 34.9016 59.0734 34.0703 59.0734H14.2188C12.4141 59.0734 10.9375 57.5969 10.9375 55.7922V47.0422C10.9375 46.4406 10.4453 45.9484 9.84375 45.9484H6.63906C5.39219 45.9484 4.375 44.9313 4.375 43.6844C4.375 43.2359 4.50625 42.7985 4.75781 42.4266L10.7516 33.425C10.8719 33.25 10.9375 33.0313 10.9375 32.8235V31.7297C10.9375 21.6891 16.8984 12.6109 26.1187 8.6297C26.6766 8.38907 26.9281 7.74376 26.6875 7.19689C26.4469 6.65001 25.8016 6.38751 25.2547 6.62814C15.2359 10.9594 8.75 20.8141 8.75 31.7406V32.5063L2.93125 41.2234C2.43906 41.9563 2.1875 42.8094 2.1875 43.6953C2.1875 46.1453 4.18906 48.1469 6.63906 48.1469H8.75V55.8031C8.75 58.8219 11.2 61.2719 14.2188 61.2719H21.875V68.9281C21.875 69.5297 22.3672 70.0219 22.9688 70.0219H49.2188C49.8203 70.0219 50.3125 69.5297 50.3125 68.9281V60.5828L54.6328 55.5406C57.2906 52.4453 59.3906 48.9453 60.8891 45.15C61.1078 44.5922 60.8344 43.9578 60.2766 43.7281V43.7172Z" fill="white"/>
<path d="M39.375 25.1562H30.625C30.0234 25.1562 29.5312 25.6484 29.5312 26.25C29.5312 26.8516 30.0234 27.3438 30.625 27.3438H38.2812V30.625C38.2812 31.2266 38.7734 31.7188 39.375 31.7188C39.9766 31.7188 40.4688 31.2266 40.4688 30.625V26.25C40.4688 25.6484 39.9766 25.1562 39.375 25.1562Z" fill="white"/>
<path d="M39.375 33.9062H31.7188V30.625C31.7188 30.0234 31.2266 29.5312 30.625 29.5312C30.0234 29.5312 29.5312 30.0234 29.5312 30.625V35C29.5312 35.6016 30.0234 36.0938 30.625 36.0938H39.375C39.9766 36.0938 40.4688 35.6016 40.4688 35C40.4688 34.3984 39.9766 33.9062 39.375 33.9062Z" fill="white"/>
<path d="M35 31.7188C35.6041 31.7188 36.0938 31.2291 36.0938 30.625C36.0938 30.0209 35.6041 29.5312 35 29.5312C34.3959 29.5312 33.9062 30.0209 33.9062 30.625C33.9062 31.2291 34.3959 31.7188 35 31.7188Z" fill="white"/>
<path d="M49.2188 13.125C49.2188 14.9297 50.6953 16.4062 52.5 16.4062C52.7734 16.4062 53.0359 16.3625 53.2984 16.2969L55.9672 20.2891C56.175 20.5953 56.5141 20.7812 56.875 20.7812H59.2594C59.7078 22.05 60.9109 22.9688 62.3438 22.9688C64.1484 22.9688 65.625 21.4922 65.625 19.6875C65.625 17.8828 64.1484 16.4062 62.3438 16.4062C60.9219 16.4062 59.7188 17.325 59.2594 18.5938H57.4547L55.1141 15.0828C55.5297 14.5359 55.7812 13.8578 55.7812 13.125C55.7812 11.3203 54.3047 9.84375 52.5 9.84375C50.6953 9.84375 49.2188 11.3203 49.2188 13.125ZM62.3438 18.5938C62.9453 18.5938 63.4375 19.0859 63.4375 19.6875C63.4375 20.2891 62.9453 20.7812 62.3438 20.7812C61.7422 20.7812 61.25 20.2891 61.25 19.6875C61.25 19.0859 61.7422 18.5938 62.3438 18.5938ZM53.5938 13.125C53.5938 13.7266 53.1016 14.2188 52.5 14.2188C51.8984 14.2188 51.4062 13.7266 51.4062 13.125C51.4062 12.5234 51.8984 12.0312 52.5 12.0312C53.1016 12.0312 53.5938 12.5234 53.5938 13.125Z" fill="white"/>
<path d="M64.5312 30.625C62.7266 30.625 61.25 32.1016 61.25 33.9062C61.25 34.4094 61.3703 34.8797 61.5781 35.3172L55.3328 41.5625H45.9375C45.3359 41.5625 44.8438 42.0547 44.8438 42.6562V46.1344C43.575 46.5828 42.6562 47.7859 42.6562 49.2188C42.6562 51.0234 44.1328 52.5 45.9375 52.5C47.7422 52.5 49.2188 51.0234 49.2188 49.2188C49.2188 47.7969 48.3 46.5938 47.0312 46.1344V43.75H55.7812C56.0766 43.75 56.35 43.6297 56.5578 43.4328L63.1313 36.8594C63.5578 37.0672 64.0281 37.1875 64.5422 37.1875C66.3469 37.1875 67.8234 35.7109 67.8234 33.9062C67.8234 32.1016 66.3469 30.625 64.5422 30.625H64.5312ZM45.9375 50.3125C45.3359 50.3125 44.8438 49.8203 44.8438 49.2188C44.8438 48.6172 45.3359 48.125 45.9375 48.125C46.5391 48.125 47.0312 48.6172 47.0312 49.2188C47.0312 49.8203 46.5391 50.3125 45.9375 50.3125ZM64.5312 35C64.2359 35 63.9625 34.8797 63.7656 34.6828C63.7656 34.6828 63.7656 34.6828 63.7656 34.6719C63.7656 34.6609 63.7656 34.6719 63.7547 34.6719C63.5578 34.475 63.4375 34.2125 63.4375 33.9062C63.4375 33.3047 63.9297 32.8125 64.5312 32.8125C65.1328 32.8125 65.625 33.3047 65.625 33.9062C65.625 34.5078 65.1328 35 64.5312 35Z" fill="white"/>
<path d="M29.5312 6.36563V9.84375C29.5312 10.1828 29.6953 10.5109 29.9688 10.7188L33.9062 13.6719V20.7812H31.7188V16.4062C31.7188 15.8047 31.2266 15.3125 30.625 15.3125H27.1469C26.6984 14.0437 25.4953 13.125 24.0625 13.125C22.2578 13.125 20.7812 14.6016 20.7812 16.4062C20.7812 18.2109 22.2578 19.6875 24.0625 19.6875C25.4844 19.6875 26.6875 18.7687 27.1469 17.5H29.5312V20.7812H28.4375C26.6328 20.7812 25.1562 22.2578 25.1562 24.0625V25.1562H20.7812C20.1797 25.1562 19.6875 25.6484 19.6875 26.25C19.6875 26.8516 20.1797 27.3438 20.7812 27.3438H25.1562V29.5312H18.5938C17.9922 29.5312 17.5 30.0234 17.5 30.625C17.5 31.2266 17.9922 31.7188 18.5938 31.7188H25.1562V33.9062H22.9688C22.3672 33.9062 21.875 34.3984 21.875 35C21.875 35.6016 22.3672 36.0938 22.9688 36.0938H25.1562V37.1875C25.1562 38.9922 26.6328 40.4688 28.4375 40.4688H29.5312V44.8438C29.5312 45.4453 30.0234 45.9375 30.625 45.9375C31.2266 45.9375 31.7188 45.4453 31.7188 44.8438V40.4688H33.9062V47.0312C33.9062 47.6328 34.3984 48.125 35 48.125C35.6016 48.125 36.0938 47.6328 36.0938 47.0312V40.4688H38.2812V42.6562C38.2812 43.2578 38.7734 43.75 39.375 43.75C39.9766 43.75 40.4688 43.2578 40.4688 42.6562V40.4688H41.5625C43.3672 40.4688 44.8438 38.9922 44.8438 37.1875H48.3219C48.7703 38.4562 49.9734 39.375 51.4062 39.375C53.2109 39.375 54.6875 37.8984 54.6875 36.0938C54.6875 35.8969 54.6656 35.7 54.6328 35.5141L58.7453 31.4016C59.1719 30.975 59.1719 30.2859 58.7453 29.8594C58.3187 29.4328 57.6297 29.4328 57.2031 29.8594L53.4844 33.5781C52.9156 33.1078 52.2047 32.8234 51.4172 32.8234C49.9953 32.8234 48.7922 33.7422 48.3328 35.0109H44.8547V26.2609H49.4266C49.875 27.5297 51.0781 28.4484 52.5109 28.4484C54.3156 28.4484 55.7922 26.9719 55.7922 25.1672C55.7922 23.3625 54.3156 21.8859 52.5109 21.8859C51.0891 21.8859 49.8859 22.8047 49.4266 24.0734H44.8547C44.8547 22.6516 43.9359 21.4484 42.6672 20.9891V18.3969C43.9359 17.9484 44.8547 16.7453 44.8547 15.3125C44.8547 13.8797 43.9359 12.6875 42.6672 12.2281V11.3859L47.8188 6.23438C48.2453 6.44219 48.7156 6.5625 49.2297 6.5625C51.0344 6.5625 52.5109 5.08594 52.5109 3.28125C52.5109 1.47656 51.0344 0 49.2297 0C47.425 0 45.9484 1.47656 45.9484 3.28125C45.9484 3.78437 46.0688 4.25469 46.2766 4.69219L40.7969 10.1719C40.5891 10.3797 40.4797 10.6531 40.4797 10.9484V12.2391C39.2109 12.6875 38.2922 13.8906 38.2922 15.3234C38.2922 16.7563 39.2109 17.9484 40.4797 18.4078V20.7922H36.1047V13.1359C36.1047 12.7969 35.9406 12.4688 35.6672 12.2609L31.7297 9.30781V6.37656C32.9984 5.92812 33.9172 4.725 33.9172 3.29219C33.9172 1.4875 32.4406 0.0109375 30.6359 0.0109375C28.8313 0.0109375 27.3547 1.4875 27.3547 3.29219C27.3547 4.71406 28.2734 5.91719 29.5422 6.37656L29.5312 6.36563ZM24.0625 17.5C23.4609 17.5 22.9688 17.0078 22.9688 16.4062C22.9688 15.8047 23.4609 15.3125 24.0625 15.3125C24.6641 15.3125 25.1562 15.8047 25.1562 16.4062C25.1562 17.0078 24.6641 17.5 24.0625 17.5ZM51.4062 35C52.0078 35 52.5 35.4922 52.5 36.0938C52.5 36.6953 52.0078 37.1875 51.4062 37.1875C50.8047 37.1875 50.3125 36.6953 50.3125 36.0938C50.3125 35.4922 50.8047 35 51.4062 35ZM52.5 24.0625C53.1016 24.0625 53.5938 24.5547 53.5938 25.1562C53.5938 25.7578 53.1016 26.25 52.5 26.25C51.8984 26.25 51.4062 25.7578 51.4062 25.1562C51.4062 24.5547 51.8984 24.0625 52.5 24.0625ZM49.2188 2.1875C49.8203 2.1875 50.3125 2.67969 50.3125 3.28125C50.3125 3.88281 49.8203 4.375 49.2188 4.375C48.9234 4.375 48.65 4.25469 48.4531 4.05781C48.4531 4.05781 48.4531 4.05781 48.4531 4.04688C48.4531 4.03594 48.4531 4.04688 48.4422 4.04688C48.2453 3.85 48.125 3.5875 48.125 3.28125C48.125 2.67969 48.6172 2.1875 49.2188 2.1875ZM42.6562 37.1875C42.6562 37.7891 42.1641 38.2812 41.5625 38.2812H28.4375C27.8359 38.2812 27.3438 37.7891 27.3438 37.1875V24.0625C27.3438 23.4609 27.8359 22.9688 28.4375 22.9688H41.5625C42.1641 22.9688 42.6562 23.4609 42.6562 24.0625V37.1875ZM41.5625 14.2188C42.1641 14.2188 42.6562 14.7109 42.6562 15.3125C42.6562 15.9141 42.1641 16.4062 41.5625 16.4062C40.9609 16.4062 40.4688 15.9141 40.4688 15.3125C40.4688 14.7109 40.9609 14.2188 41.5625 14.2188ZM30.625 2.1875C31.2266 2.1875 31.7188 2.67969 31.7188 3.28125C31.7188 3.88281 31.2266 4.375 30.625 4.375C30.0234 4.375 29.5312 3.88281 29.5312 3.28125C29.5312 2.67969 30.0234 2.1875 30.625 2.1875Z" fill="white"/>
</g>
<defs>
<clipPath id="clip0_1116_286">
<rect width="70" height="70" fill="white"/>
</clipPath>
</defs>
</svg>
