<svg width="16" height="16" viewBox="0 0 16 16" fill="none" xmlns="http://www.w3.org/2000/svg">
<g clip-path="url(#clip0_1319_619)">
<path d="M2.34124 1.33398L4.76733 1.42178C5.27834 1.44026 5.73182 1.76296 5.92767 2.24745L6.64502 4.02207C6.81198 4.43504 6.76705 4.90623 6.52527 5.27821L5.60619 6.69232C6.15034 7.47372 7.63045 9.30452 9.19765 10.3762L10.3662 9.65698C10.6632 9.47418 11.0188 9.41992 11.3549 9.50605L13.678 10.1018C14.2959 10.2603 14.7122 10.8528 14.6634 11.5041L14.5143 13.493C14.4619 14.1909 13.8907 14.7386 13.2126 14.6598C4.26228 13.6191 -0.986391 1.33396 2.34124 1.33398Z" stroke="#222222" stroke-linecap="round" stroke-linejoin="round"/>
</g>
<defs>
<clipPath id="clip0_1319_619">
<rect width="16" height="16" fill="white"/>
</clipPath>
</defs>
</svg>
