<svg width="46" height="46" viewBox="0 0 46 46" fill="none" xmlns="http://www.w3.org/2000/svg">
<g clip-path="url(#clip0_1856_1028)">
<path d="M40.3181 26.1977C40.0365 24.2967 38.3823 22.9692 36.2953 22.9692C34.2085 22.9692 32.5541 24.2968 32.2726 26.1977C31.9042 28.6826 32.431 30.7916 33.7191 32.0375C33.9005 33.3036 32.7872 33.9152 30.483 34.8665C29.7269 35.1784 28.9454 35.501 28.2767 35.8957C27.8495 36.1202 27.4786 36.4385 27.1918 36.8266C26.905 37.2148 26.7097 37.6628 26.6206 38.1371C26.6124 38.1799 26.6082 38.2233 26.6078 38.2668C26.5982 39.6646 26.5934 40.7973 26.5934 40.7973C26.593 40.8919 26.6113 40.9857 26.6472 41.0733C26.6831 41.1608 26.736 41.2404 26.8028 41.3075C26.8696 41.3745 26.949 41.4278 27.0364 41.4641C27.1238 41.5004 27.2175 41.5191 27.3121 41.5191H45.2811C45.3758 41.5191 45.4695 41.5004 45.5569 41.4641C45.6443 41.4278 45.7237 41.3745 45.7905 41.3075C45.8572 41.2404 45.9101 41.1608 45.9461 41.0733C45.982 40.9857 46.0003 40.8919 45.9999 40.7973C45.9999 40.7973 45.9951 39.6646 45.9854 38.2668C45.9852 38.2233 45.9809 38.1799 45.9728 38.1371C45.8836 37.6628 45.6883 37.2148 45.4015 36.8266C45.1147 36.4385 44.7439 36.1202 44.3167 35.8957C43.6482 35.5011 42.8669 35.1786 42.1113 34.8668C39.8269 33.924 38.7171 33.3173 38.869 32.0785C40.1644 30.8433 40.6919 28.7203 40.3181 26.1977ZM41.5629 36.1956C42.3105 36.5041 43.0166 36.7955 43.5993 37.1415C43.6108 37.1484 43.6225 37.1548 43.6342 37.1609C43.8641 37.2799 44.0651 37.4477 44.2231 37.6528C44.381 37.8578 44.4921 38.095 44.5485 38.3476C44.553 39.0265 44.5566 39.6384 44.5589 40.0816H28.0346C28.037 39.6384 28.0405 39.0265 28.0451 38.3476C28.1014 38.095 28.2125 37.8578 28.3704 37.6527C28.5284 37.4477 28.7294 37.2798 28.9593 37.1608C28.9711 37.1547 28.9828 37.1483 28.9942 37.1414C29.5772 36.7954 30.3165 36.4902 31.0315 36.1952C33.1261 35.3308 35.7329 34.255 35.0785 31.5002C35.0432 31.3517 34.9615 31.2183 34.8453 31.1192C33.802 30.2306 33.3826 28.5137 33.6945 26.4082C33.8994 25.0255 35.1484 24.4065 36.2953 24.4066C37.4423 24.4067 38.6913 25.0256 38.8961 26.4083C39.2138 28.552 38.7942 30.2824 37.7449 31.1557C37.6229 31.2573 37.5379 31.3965 37.5033 31.5515C36.8965 34.2696 39.4839 35.3375 41.5629 36.1956ZM0.718634 41.5191H18.6874C18.782 41.5191 18.8757 41.5004 18.9631 41.4641C19.0505 41.4278 19.1299 41.3745 19.1967 41.3075C19.2635 41.2404 19.3164 41.1608 19.3523 41.0733C19.3882 40.9857 19.4065 40.8919 19.4061 40.7973C19.4061 40.7973 19.4013 39.6646 19.3917 38.2668C19.3913 38.2233 19.3871 38.1799 19.3789 38.1371C19.2898 37.6628 19.0945 37.2148 18.8078 36.8266C18.521 36.4384 18.1501 36.1202 17.7229 35.8957C17.0544 35.5011 16.2732 35.1786 15.5174 34.8668C13.2332 33.924 12.1234 33.3173 12.2751 32.0785C13.5707 30.8433 14.0981 28.7203 13.7242 26.1977C13.4428 24.2967 11.7885 22.9692 9.70157 22.9692C7.61486 22.9692 5.96039 24.2968 5.67882 26.1977C5.31046 28.6826 5.83721 30.7916 7.1253 32.0375C7.30679 33.3036 6.19335 33.9152 3.88913 34.8665C3.1331 35.1784 2.35154 35.501 1.68284 35.8957C1.25566 36.1202 0.884805 36.4385 0.598029 36.8266C0.311253 37.2148 0.115984 37.6628 0.0268375 38.1371C0.0186734 38.1799 0.0144331 38.2233 0.0141696 38.2668C0.00464614 39.6646 -0.000115579 40.7973 -0.000115579 40.7973C-0.000517821 40.8919 0.0177763 40.9857 0.0537168 41.0733C0.0896572 41.1608 0.142536 41.2404 0.209318 41.3075C0.276101 41.3745 0.355471 41.4278 0.442873 41.4641C0.530276 41.5004 0.623989 41.5191 0.718634 41.5191ZM1.45131 38.3476C1.50767 38.095 1.61874 37.8578 1.7767 37.6528C1.93467 37.4477 2.13567 37.2799 2.36556 37.1609C2.37754 37.1549 2.38916 37.1485 2.40042 37.1415C2.98333 36.7954 3.72274 36.4903 4.43772 36.1953C6.53224 35.3309 9.13915 34.2551 8.48464 31.5003C8.4494 31.3518 8.36773 31.2183 8.25149 31.1193C7.20823 30.2307 6.78875 28.5138 7.10077 26.4083C7.30553 25.0256 8.55454 24.4066 9.70157 24.4067C10.8486 24.4068 12.0974 25.0256 12.3023 26.4083C12.62 28.5521 12.2004 30.2825 11.1512 31.1558C11.0291 31.2574 10.9441 31.3966 10.9095 31.5516C10.3027 34.2696 12.89 35.3375 14.969 36.1956C15.7167 36.5041 16.4228 36.7955 17.0055 37.1415C17.017 37.1484 17.0287 37.1548 17.0405 37.1609C17.2704 37.2799 17.4714 37.4478 17.6293 37.6528C17.7873 37.8579 17.8984 38.095 17.9547 38.3477C17.9593 39.0265 17.9628 39.6384 17.9651 40.0817H1.44089C1.44313 39.6384 1.44637 39.0265 1.45131 38.3476ZM17.1863 16.3797C16.4302 16.6916 15.6487 17.0142 14.98 17.4089C14.5527 17.6334 14.1818 17.9516 13.895 18.3398C13.6081 18.728 13.4128 19.176 13.3237 19.6504C13.3156 19.6931 13.3113 19.7365 13.311 19.78C13.3013 21.1778 13.2965 22.3105 13.2965 22.3105C13.2961 22.4051 13.3144 22.4989 13.3503 22.5865C13.3863 22.674 13.4391 22.7536 13.5059 22.8207C13.5727 22.8878 13.6521 22.941 13.7395 22.9773C13.8269 23.0136 13.9206 23.0323 14.0152 23.0323H31.9843C32.0789 23.0323 32.1726 23.0136 32.26 22.9773C32.3474 22.941 32.4268 22.8878 32.4936 22.8207C32.5604 22.7536 32.6132 22.674 32.6492 22.5865C32.6851 22.4989 32.7034 22.4051 32.703 22.3105C32.703 22.3105 32.6982 21.1778 32.6885 19.78C32.6883 19.7365 32.684 19.6931 32.6759 19.6504C32.5867 19.176 32.3914 18.728 32.1046 18.3398C31.8178 17.9516 31.4469 17.6333 31.0197 17.4088C30.3513 17.0143 29.5701 16.6919 28.8144 16.38C26.53 15.4372 25.4203 14.8305 25.5721 13.5917C26.8676 12.3565 27.395 10.2336 27.0212 7.71087C26.7396 5.81004 25.0853 4.48242 22.9984 4.48242C20.9116 4.48242 19.2573 5.81004 18.9757 7.71087C18.6073 10.1958 19.1341 12.3049 20.4222 13.5507C20.6038 14.8168 19.4905 15.4288 17.1863 16.3797ZM21.7815 13.0135C21.7463 12.865 21.6646 12.7316 21.5484 12.6326C20.5051 11.7439 20.0857 10.0271 20.3976 7.92155C20.6025 6.53877 21.8515 5.91992 22.9984 5.91992C24.1454 5.91992 25.3944 6.53877 25.5992 7.92155C25.9168 10.0653 25.4973 11.7958 24.4481 12.669C24.326 12.7706 24.241 12.9098 24.2064 13.0648C23.5996 15.7829 26.187 16.8508 28.266 17.7088C29.0137 18.0173 29.7197 18.3087 30.3025 18.6547C30.314 18.6616 30.3256 18.668 30.3373 18.6741C30.5672 18.7931 30.7682 18.961 30.9262 19.166C31.0842 19.3711 31.1952 19.6083 31.2516 19.8609C31.2562 20.5397 31.2597 21.1516 31.262 21.5949H14.7378C14.7401 21.1517 14.7436 20.5398 14.7482 19.8609C14.8045 19.6083 14.9156 19.3711 15.0736 19.166C15.2315 18.961 15.4325 18.7931 15.6624 18.6741C15.6744 18.6682 15.686 18.6617 15.6973 18.6547C16.2802 18.3086 17.0196 18.0035 17.7346 17.7085C19.8292 16.8441 22.436 15.7683 21.7815 13.0135ZM16.9881 33.7483C16.883 33.5893 16.8453 33.395 16.8834 33.2083C16.9215 33.0215 17.0322 32.8575 17.1912 32.7524L22.2811 29.3869V24.7124C22.2811 24.618 22.2997 24.5245 22.3358 24.4373C22.372 24.3501 22.4249 24.2709 22.4917 24.2041C22.5584 24.1374 22.6376 24.0844 22.7248 24.0483C22.812 24.0122 22.9055 23.9936 22.9999 23.9936C23.0943 23.9936 23.1877 24.0122 23.2749 24.0483C23.3621 24.0844 23.4414 24.1374 23.5081 24.2041C23.5749 24.2709 23.6278 24.3501 23.6639 24.4373C23.7 24.5245 23.7186 24.618 23.7186 24.7124V29.3869L28.8086 32.7524C28.8873 32.8044 28.955 32.8715 29.0078 32.9497C29.0606 33.0279 29.0975 33.1158 29.1164 33.2083C29.1353 33.3008 29.1357 33.3961 29.1178 33.4887C29.0998 33.5814 29.0638 33.6696 29.0117 33.7483C28.9597 33.8271 28.8926 33.8948 28.8144 33.9476C28.7362 34.0004 28.6483 34.0373 28.5558 34.0562C28.4633 34.0751 28.3681 34.0755 28.2754 34.0576C28.1827 34.0396 28.0945 34.0036 28.0158 33.9515L22.9999 30.6349L17.984 33.9515C17.825 34.0566 17.6307 34.0943 17.444 34.0562C17.2572 34.0181 17.0932 33.9073 16.9881 33.7483Z" fill="#4C99D3"/>
</g>
<defs>
<clipPath id="clip0_1856_1028">
<rect width="46" height="46" fill="white"/>
</clipPath>
</defs>
</svg>
