<svg width="46" height="46" viewBox="0 0 46 46" fill="none" xmlns="http://www.w3.org/2000/svg">
<path d="M38.6819 21.1882C37.6364 20.1427 36.2425 19.5852 34.7788 19.5155C34.7788 19.4458 34.7788 19.4458 34.7788 19.3761C34.7788 16.5882 32.6879 14.2882 29.9698 14.0094C28.9243 12.0579 26.8334 10.873 24.6031 10.873C22.2334 10.873 20.0728 12.267 19.0273 14.3579C18.4001 14.1488 17.7728 14.0094 17.1455 14.0094C14.5667 14.0094 12.3364 15.8912 11.8485 18.4003C8.43339 18.5397 5.78491 21.3276 5.71521 24.7427C5.71521 28.2276 8.50309 31.1549 12.0576 31.1549H13.8001V42.6549C13.8001 44.1882 15.0546 45.373 16.5182 45.373H29.6213C31.1546 45.373 32.3395 44.1185 32.3395 42.6549V31.0852H34.5698C37.7758 31.0852 40.3546 28.5064 40.3546 25.3003C40.3546 23.767 39.7273 22.3033 38.6819 21.1882ZM29.5516 43.9094H16.4485C15.7516 43.9094 15.1243 43.2821 15.1243 42.5852V40.9124H16.6576C17.0758 40.9124 17.3546 40.6337 17.3546 40.2155C17.3546 39.7973 17.0758 39.5185 16.6576 39.5185H15.1243V32.967H16.6576C17.0758 32.967 17.3546 32.6882 17.3546 32.27C17.3546 31.8518 17.0758 31.573 16.6576 31.573H15.1243V29.9003C15.1243 29.2034 15.7516 28.5761 16.4485 28.5761H29.5516C30.2485 28.5761 30.8758 29.2034 30.8758 29.9003V31.573H29.3425C28.9243 31.573 28.6455 31.8518 28.6455 32.27C28.6455 32.6882 28.9243 32.967 29.3425 32.967H30.8758V39.5185H29.3425C28.9243 39.5185 28.6455 39.7973 28.6455 40.2155C28.6455 40.6337 28.9243 40.9124 29.3425 40.9124H30.8758V42.5852C30.8758 43.2821 30.2485 43.9094 29.5516 43.9094ZM28.0182 27.1821H23.0001H18.0516V24.5337C18.0516 21.8852 20.2122 19.7246 22.8607 19.7246H23.1395C25.7879 19.7246 27.9485 21.8852 27.9485 24.5337V27.1821H28.0182ZM34.5001 29.6912H32.2001C32.1304 28.2973 30.9455 27.1124 29.4819 27.1124H29.3425V24.3943C29.3425 20.9791 26.5546 18.1912 23.1395 18.1912H22.8607C19.4455 18.1912 16.6576 20.9791 16.6576 24.3943V27.1821H16.5182C15.0546 27.1821 13.8698 28.2973 13.8001 29.7609H12.0576C9.33945 29.7609 7.10915 27.5306 7.10915 24.7427C7.10915 22.0246 9.33945 19.7943 12.0576 19.7943C12.4061 19.7943 12.6152 19.864 12.894 19.6549C13.0334 19.5155 13.1031 19.3761 13.1031 19.167C13.2425 17.0761 14.9849 15.4033 17.0758 15.4033C17.7728 15.4033 18.4001 15.6124 19.0273 15.8912C19.2364 15.9609 19.4455 16.0306 19.6546 15.9609C19.8637 15.8912 20.0031 15.7518 20.0728 15.5427C20.7001 13.5912 22.5819 12.267 24.6031 12.267C26.4152 12.267 28.0879 13.3821 28.9243 14.9852C29.0637 15.1943 29.2728 15.4033 29.5516 15.4033C31.7122 15.473 33.4546 17.2155 33.4546 19.3761C33.4546 20.073 33.2455 20.3518 33.594 20.7003C33.8728 20.9791 34.1516 20.9094 34.6395 20.9094C35.8243 20.9094 36.9395 21.3973 37.7758 22.2337C38.6122 23.07 39.0304 24.1852 39.0304 25.37C38.891 27.7397 36.9395 29.6912 34.5001 29.6912Z" fill="#4C99D3"/>
<path d="M23 32.1309C21.5364 32.1309 20.2819 33.3157 20.2819 34.849C20.2819 35.6157 20.6303 36.3127 21.1879 36.7309L20.491 39.5187C20.4213 39.7278 20.491 39.9369 20.6303 40.146C20.7697 40.2854 20.9788 40.4248 21.1879 40.4248H24.7425C24.9516 40.4248 25.1606 40.3551 25.3 40.146C25.4394 40.0066 25.5091 39.7975 25.4394 39.5884L24.8819 36.8703C25.4394 36.3824 25.7879 35.6157 25.7879 34.9187C25.7182 33.3157 24.4637 32.1309 23 32.1309ZM23.697 35.8945C23.4182 36.0339 23.3485 36.3127 23.3485 36.6612L23.8364 38.9612H22.0243L22.5819 36.5218C22.6516 36.1733 22.5122 35.8248 22.1637 35.6854C21.8152 35.546 21.6061 35.1975 21.6061 34.7793C21.6061 34.0824 22.1637 33.4551 22.9303 33.4551C23.697 33.4551 24.2546 34.0127 24.2546 34.7793C24.3243 35.2672 24.0455 35.6854 23.697 35.8945Z" fill="#4C99D3"/>
<path d="M16.7273 5.36696C18.8182 3.27605 21.6061 2.09121 24.6031 2.09121C27.6001 2.09121 30.3879 3.27605 32.5485 5.36696C32.8273 5.64575 33.2455 5.64575 33.5243 5.36696C33.8031 5.08817 33.8031 4.66999 33.5243 4.39121C31.1546 2.02151 28.0182 0.697266 24.6031 0.697266C21.2576 0.697266 18.1213 2.02151 15.6819 4.39121C15.4031 4.66999 15.4031 5.08817 15.6819 5.36696C15.9607 5.64575 16.4485 5.64575 16.7273 5.36696Z" fill="#4C99D3"/>
<path d="M30.7364 7.31883C31.0152 7.04005 31.0152 6.62186 30.7364 6.34308C29.1333 4.74005 26.903 3.83398 24.603 3.83398C22.303 3.83398 20.0727 4.74005 18.4697 6.34308C18.1909 6.62186 18.1909 7.04005 18.4697 7.31883C18.7485 7.59762 19.1667 7.59762 19.4455 7.31883C20.8394 5.92489 22.6515 5.15823 24.603 5.15823C26.5546 5.15823 28.3667 5.92489 29.7606 7.31883C30.0394 7.59762 30.4576 7.59762 30.7364 7.31883Z" fill="#4C99D3"/>
<path d="M24.6031 6.90039C23.3486 6.90039 22.1637 7.38827 21.2577 8.29433C20.9789 8.57312 20.9789 8.9913 21.2577 9.27009C21.5365 9.54888 21.9546 9.54888 22.2334 9.27009C22.8607 8.64282 23.6971 8.29433 24.6031 8.29433C25.5092 8.29433 26.3456 8.64282 26.9728 9.27009C27.2516 9.54888 27.6698 9.54888 27.9486 9.27009C28.2274 8.9913 28.2274 8.57312 27.9486 8.29433C27.1122 7.38827 25.9274 6.90039 24.6031 6.90039Z" fill="#4C99D3"/>
</svg>
