<svg width="46" height="46" viewBox="0 0 46 46" fill="none" xmlns="http://www.w3.org/2000/svg">
<path d="M39.6545 12.9432C40.2924 12.2839 40.7221 11.4513 40.8899 10.5494C41.0577 9.64748 40.9563 8.7161 40.5983 7.87144C40.2402 7.02678 39.6414 6.30623 38.8765 5.79967C38.1116 5.2931 37.2146 5.02295 36.2971 5.02289C35.3797 5.02284 34.4826 5.29289 33.7177 5.79936C32.9527 6.30584 32.3538 7.02632 31.9957 7.87093C31.6376 8.71555 31.536 9.64692 31.7037 10.5489C31.8715 11.4508 32.301 12.2834 32.9388 12.9428C32.4893 12.9507 32.0429 13.0199 31.6121 13.1487C30.4314 12.0874 28.9001 11.5 27.3125 11.4995H26.7905C27.6698 10.7286 28.2932 9.70795 28.5775 8.57363C28.8618 7.43932 28.7935 6.24528 28.3816 5.1508C27.9698 4.05632 27.2341 3.11342 26.2725 2.44788C25.311 1.78233 24.1694 1.42578 23 1.42578C21.8306 1.42578 20.689 1.78233 19.7275 2.44788C18.7659 3.11342 18.0302 4.05632 17.6184 5.1508C17.2065 6.24528 17.1382 7.43932 17.4225 8.57363C17.7068 9.70795 18.3302 10.7286 19.2095 11.4995H18.6875C17.0999 11.5 15.5686 12.0874 14.3879 13.1487C13.9571 13.0199 13.5107 12.9507 13.0612 12.9428C13.699 12.2834 14.1286 11.4508 14.2963 10.5489C14.464 9.64692 14.3624 8.71555 14.0043 7.87093C13.6462 7.02632 13.0473 6.30584 12.2823 5.79936C11.5174 5.29289 10.6203 5.02284 9.70286 5.02289C8.78544 5.02295 7.88835 5.2931 7.12348 5.79967C6.3586 6.30623 5.75979 7.02678 5.40175 7.87144C5.0437 8.7161 4.94227 9.64748 5.11009 10.5494C5.27792 11.4513 5.70758 12.2839 6.34548 12.9432C5.03392 12.9762 3.78703 13.5198 2.87032 14.4584C1.95361 15.3969 1.43951 16.6563 1.4375 17.9683V23.7183C1.4375 23.9089 1.51323 24.0917 1.64802 24.2265C1.78281 24.3613 1.96563 24.437 2.15625 24.437C2.34687 24.437 2.52969 24.3613 2.66448 24.2265C2.79927 24.0917 2.875 23.9089 2.875 23.7183V17.9683C2.87612 17.0155 3.2551 16.102 3.92882 15.4283C4.60254 14.7546 5.51597 14.3756 6.46875 14.3745H12.9375C13.0595 14.3745 13.174 14.3965 13.2923 14.4079C12.5915 15.463 12.218 16.7016 12.2188 17.9683V23.7183C12.2188 23.9089 12.2945 24.0917 12.4293 24.2265C12.5641 24.3613 12.7469 24.437 12.9375 24.437C13.1281 24.437 13.3109 24.3613 13.4457 24.2265C13.5805 24.0917 13.6562 23.9089 13.6562 23.7183V17.9683C13.6578 16.6344 14.1884 15.3555 15.1316 14.4123C16.0748 13.4691 17.3536 12.9386 18.6875 12.937H20.3456L21.1814 15.1652L20.6627 18.2781C20.6462 18.3716 20.6484 18.4675 20.6691 18.5601C20.6899 18.6528 20.7288 18.7404 20.7836 18.8179C20.8384 18.8954 20.9081 18.9613 20.9885 19.0118C21.0689 19.0623 21.1586 19.0963 21.2522 19.1119C21.3459 19.1275 21.4417 19.1245 21.5341 19.1028C21.6266 19.0812 21.7139 19.0415 21.7909 18.986C21.8679 18.9304 21.9331 18.8602 21.9828 18.7793C22.0326 18.6984 22.0657 18.6084 22.0805 18.5147L22.5308 15.812H23.4693L23.8781 18.2655C23.9109 18.4522 24.0161 18.6183 24.1709 18.7278C24.3256 18.8373 24.5173 18.8812 24.7042 18.85C24.8912 18.8188 25.0583 18.715 25.1691 18.5613C25.2799 18.4075 25.3255 18.2162 25.2959 18.029L24.8186 15.1652L25.6544 12.937H27.3125C28.6464 12.9386 29.9252 13.4691 30.8684 14.4123C31.8116 15.3555 32.3422 16.6344 32.3438 17.9683V23.7183C32.3438 23.9089 32.4195 24.0917 32.5543 24.2265C32.6891 24.3613 32.8719 24.437 33.0625 24.437C33.2531 24.437 33.4359 24.3613 33.5707 24.2265C33.7055 24.0917 33.7812 23.9089 33.7812 23.7183V17.9683C33.782 16.7016 33.4085 15.463 32.7077 14.4079C32.826 14.3965 32.9405 14.3745 33.0625 14.3745H39.5312C40.484 14.3756 41.3975 14.7546 42.0712 15.4283C42.7449 16.102 43.1239 17.0155 43.125 17.9683V23.7183C43.125 23.9089 43.2007 24.0917 43.3355 24.2265C43.4703 24.3613 43.6531 24.437 43.8438 24.437C44.0344 24.437 44.2172 24.3613 44.352 24.2265C44.4868 24.0917 44.5625 23.9089 44.5625 23.7183V17.9683C44.5605 16.6563 44.0464 15.3969 43.1297 14.4584C42.213 13.5198 40.9661 12.9762 39.6545 12.9432ZM9.70312 12.937C9.06343 12.937 8.43809 12.7473 7.9062 12.3919C7.37431 12.0365 6.95975 11.5314 6.71495 10.9404C6.47015 10.3494 6.4061 9.69904 6.5309 9.07164C6.6557 8.44423 6.96374 7.86792 7.41608 7.41558C7.86841 6.96325 8.44472 6.6552 9.07213 6.5304C9.69954 6.40561 10.3499 6.46966 10.9409 6.71446C11.5319 6.95926 12.037 7.37382 12.3924 7.90571C12.7478 8.4376 12.9375 9.06293 12.9375 9.70263C12.9366 10.5602 12.5955 11.3823 11.9891 11.9886C11.3828 12.595 10.5606 12.9361 9.70312 12.937ZM23.5799 14.3745H22.4201L21.881 12.937H24.119L23.5799 14.3745ZM23 11.4995C22.1471 11.4995 21.3133 11.2466 20.6041 10.7727C19.8949 10.2989 19.3422 9.62534 19.0158 8.83733C18.6894 8.04932 18.604 7.18222 18.7704 6.34568C18.9368 5.50914 19.3475 4.74072 19.9506 4.13761C20.5537 3.5345 21.3221 3.12377 22.1587 2.95737C22.9952 2.79097 23.8623 2.87637 24.6503 3.20278C25.4383 3.52918 26.1119 4.08192 26.5857 4.79111C27.0596 5.5003 27.3125 6.33407 27.3125 7.18701C27.3113 8.33037 26.8565 9.42654 26.048 10.235C25.2395 11.0435 24.1434 11.4983 23 11.4995ZM36.2969 12.937C35.6572 12.937 35.0318 12.7473 34.5 12.3919C33.9681 12.0365 33.5535 11.5314 33.3087 10.9404C33.0639 10.3494 32.9998 9.69904 33.1246 9.07164C33.2494 8.44423 33.5575 7.86792 34.0098 7.41558C34.4622 6.96325 35.0385 6.6552 35.6659 6.5304C36.2933 6.40561 36.9436 6.46966 37.5346 6.71446C38.1256 6.95926 38.6308 7.37382 38.9862 7.90571C39.3416 8.4376 39.5312 9.06293 39.5312 9.70263C39.5303 10.5602 39.1893 11.3823 38.5829 11.9886C37.9765 12.595 37.1544 12.9361 36.2969 12.937ZM6.46875 19.4058V23.7183C6.46875 23.9089 6.39302 24.0917 6.25823 24.2265C6.12344 24.3613 5.94062 24.437 5.75 24.437C5.55938 24.437 5.37656 24.3613 5.24177 24.2265C5.10698 24.0917 5.03125 23.9089 5.03125 23.7183V19.4058C5.03125 19.2151 5.10698 19.0323 5.24177 18.8975C5.37656 18.7627 5.55938 18.687 5.75 18.687C5.94062 18.687 6.12344 18.7627 6.25823 18.8975C6.39302 19.0323 6.46875 19.2151 6.46875 19.4058ZM40.9688 19.4058V23.7183C40.9688 23.9089 40.893 24.0917 40.7582 24.2265C40.6234 24.3613 40.4406 24.437 40.25 24.437C40.0594 24.437 39.8766 24.3613 39.7418 24.2265C39.607 24.0917 39.5312 23.9089 39.5312 23.7183V19.4058C39.5312 19.2151 39.607 19.0323 39.7418 18.8975C39.8766 18.7627 40.0594 18.687 40.25 18.687C40.4406 18.687 40.6234 18.7627 40.7582 18.8975C40.893 19.0323 40.9688 19.2151 40.9688 19.4058ZM16.5312 24.437C16.4369 24.437 16.3434 24.4185 16.2562 24.3823C16.169 24.3462 16.0897 24.2933 16.023 24.2265C15.9562 24.1598 15.9033 24.0806 15.8672 23.9933C15.8311 23.9061 15.8125 23.8127 15.8125 23.7183V19.4058C15.8125 19.2151 15.8882 19.0323 16.023 18.8975C16.1578 18.7627 16.3406 18.687 16.5312 18.687C16.7219 18.687 16.9047 18.7627 17.0395 18.8975C17.1743 19.0323 17.25 19.2151 17.25 19.4058V23.7183C17.25 23.8127 17.2314 23.9061 17.1953 23.9933C17.1592 24.0806 17.1063 24.1598 17.0395 24.2265C16.9728 24.2933 16.8935 24.3462 16.8063 24.3823C16.7191 24.4185 16.6256 24.437 16.5312 24.437ZM29.4688 24.437C29.3744 24.437 29.2809 24.4185 29.1937 24.3823C29.1065 24.3462 29.0272 24.2933 28.9605 24.2265C28.8937 24.1598 28.8408 24.0806 28.8047 23.9933C28.7685 23.9061 28.75 23.8127 28.75 23.7183V19.4058C28.75 19.2151 28.8257 19.0323 28.9605 18.8975C29.0953 18.7627 29.2781 18.687 29.4688 18.687C29.6594 18.687 29.8422 18.7627 29.977 18.8975C30.1118 19.0323 30.1875 19.2151 30.1875 19.4058V23.7183C30.1875 23.8127 30.169 23.9061 30.1328 23.9933C30.0967 24.0806 30.0438 24.1598 29.977 24.2265C29.9103 24.2933 29.831 24.3462 29.7438 24.3823C29.6566 24.4185 29.5631 24.437 29.4688 24.437ZM36.6099 30.6489V38.0933C36.6099 41.5505 33.6226 44.2648 33.4956 44.3788C33.3536 44.5061 33.167 44.5717 32.9766 44.5613C32.7863 44.5509 32.6079 44.4653 32.4806 44.3234C32.3534 44.1814 32.2877 43.9948 32.2981 43.8044C32.3085 43.6141 32.3941 43.4356 32.5361 43.3084C32.562 43.2849 35.1724 40.9009 35.1724 38.0933V30.6489C35.183 30.369 35.0907 30.095 34.913 29.8786C34.7353 29.6622 34.4845 29.5183 34.208 29.4742C34.0577 29.4583 33.9057 29.4741 33.7619 29.5208C33.6181 29.5674 33.4857 29.6437 33.3733 29.7448C33.2609 29.8459 33.171 29.9695 33.1095 30.1076C33.048 30.2457 33.0162 30.3952 33.0162 30.5464V32.3433C33.0162 32.5339 32.9405 32.7167 32.8057 32.8515C32.6709 32.9863 32.4881 33.062 32.2974 33.062C32.1068 33.062 31.924 32.9863 31.7892 32.8515C31.6544 32.7167 31.5787 32.5339 31.5787 32.3433V30.5464C31.5787 30.2604 31.4651 29.9862 31.2629 29.784C31.0607 29.5818 30.7865 29.4683 30.5006 29.4683C30.2146 29.4683 29.9404 29.5818 29.7382 29.784C29.536 29.9862 29.4224 30.2604 29.4224 30.5464V32.3433C29.4224 32.5339 29.3467 32.7167 29.2119 32.8515C29.0771 32.9863 28.8943 33.062 28.7037 33.062C28.5131 33.062 28.3302 32.9863 28.1954 32.8515C28.0607 32.7167 27.9849 32.5339 27.9849 32.3433V30.5464C27.9849 30.2604 27.8713 29.9862 27.6692 29.784C27.467 29.5818 27.1927 29.4683 26.9068 29.4683C26.6209 29.4683 26.3466 29.5818 26.1445 29.784C25.9423 29.9862 25.8287 30.2604 25.8287 30.5464V32.3433C25.8287 32.5339 25.753 32.7167 25.6182 32.8515C25.4834 32.9863 25.3006 33.062 25.1099 33.062C24.9193 33.062 24.7365 32.9863 24.6017 32.8515C24.4669 32.7167 24.3912 32.5339 24.3912 32.3433V22.7426C24.4017 22.4628 24.3095 22.1888 24.1318 21.9724C23.9541 21.7559 23.7033 21.6121 23.4268 21.568C23.2764 21.552 23.1244 21.5679 22.9806 21.6145C22.8368 21.6611 22.7044 21.7375 22.592 21.8386C22.4796 21.9397 22.3898 22.0633 22.3282 22.2014C22.2667 22.3395 22.2349 22.489 22.2349 22.6401V34.4995C22.2349 34.6518 22.1866 34.8001 22.0968 34.9231C22.0071 35.0461 21.8806 35.1375 21.7356 35.1839C21.5906 35.2304 21.4346 35.2296 21.29 35.1816C21.1455 35.1337 21.02 35.041 20.9315 34.9171L18.1976 31.0896C17.9977 30.8107 17.7343 30.5834 17.4292 30.4264C17.1241 30.2695 16.786 30.1874 16.4428 30.187C16.3372 30.187 16.2332 30.2137 16.1405 30.2646C16.0479 30.3154 15.9695 30.3888 15.9127 30.4779C15.8559 30.567 15.8225 30.669 15.8155 30.7745C15.8086 30.8799 15.8283 30.9854 15.8729 31.0812L19.998 39.9379C20.7778 41.8713 23.2618 43.1933 23.2871 43.2066C23.456 43.295 23.5829 43.4468 23.6398 43.6287C23.6968 43.8105 23.6792 44.0076 23.5909 44.1765C23.5025 44.3454 23.3507 44.4723 23.1688 44.5292C22.9869 44.5862 22.7899 44.5686 22.621 44.4803C22.5002 44.4171 19.6442 42.9045 18.6798 40.5099L14.5701 31.6884C14.4234 31.3735 14.3585 31.0268 14.3813 30.6802C14.4041 30.3336 14.5139 29.9983 14.7005 29.7054C14.8872 29.4124 15.1447 29.1713 15.4492 29.0042C15.7538 28.8372 16.0955 28.7495 16.4428 28.7495C17.0147 28.7502 17.5781 28.887 18.0866 29.1486C18.5951 29.4102 19.034 29.7891 19.367 30.254L20.7975 32.2566V22.6401C20.7975 22.2881 20.8714 21.94 21.0144 21.6184C21.1574 21.2967 21.3663 21.0086 21.6276 20.7727C21.8889 20.5369 22.1968 20.3585 22.5314 20.249C22.866 20.1396 23.2198 20.1016 23.57 20.1375C24.2002 20.2196 24.7784 20.5303 25.1948 21.0105C25.6111 21.4907 25.8367 22.1071 25.8287 22.7426V28.2736C26.3017 28.049 26.8331 27.9778 27.3485 28.0699C27.864 28.1621 28.3378 28.4129 28.7037 28.7874C28.9376 28.548 29.217 28.3577 29.5255 28.2277C29.834 28.0978 30.1653 28.0308 30.5001 28.0308C30.8348 28.0307 31.1662 28.0975 31.4747 28.2273C31.7832 28.3572 32.0627 28.5473 32.2967 28.7867C32.3325 28.7505 32.369 28.7151 32.4069 28.6807C32.6685 28.4446 32.9767 28.266 33.3116 28.1562C33.6465 28.0465 34.0006 28.0082 34.3512 28.0437C34.9815 28.1259 35.5596 28.4365 35.976 28.9167C36.3924 29.397 36.6179 30.0133 36.6099 30.6489Z" fill="#4C99D3"/>
</svg>
