<svg width="70" height="70" viewBox="0 0 70 70" fill="none" xmlns="http://www.w3.org/2000/svg">
<g clip-path="url(#clip0_1863_176)">
<mask id="path-1-inside-1_1863_176" fill="white">
<path d="M1.54694 36.4474L10.4934 39.8687C11.0897 40.096 11.7518 40.0775 12.3345 39.8172C12.9171 39.5569 13.3727 39.0761 13.6013 38.4803L13.7637 38.0557C13.8466 38.1011 13.9291 38.1471 14.012 38.1924C14.4962 39.127 15.075 40.0095 15.7394 40.8259C15.4376 41.3324 15.2754 41.91 15.2693 42.4996C15.2633 43.0893 15.4136 43.67 15.705 44.1827C15.9964 44.6954 16.4184 45.1217 16.9281 45.4182C17.4378 45.7147 18.017 45.8709 18.6067 45.8708C18.6258 45.8708 18.6451 45.8697 18.6644 45.8693C18.7546 46.6853 19.1427 47.4392 19.7545 47.9867C20.3662 48.5342 21.1585 48.8366 21.9794 48.8361C21.9991 48.8361 22.0187 48.8348 22.0382 48.8346C22.1275 49.6499 22.5146 50.4035 23.1254 50.951C23.7361 51.4984 24.5274 51.8012 25.3476 51.8011C25.3685 51.8011 25.3896 51.7995 25.4106 51.799C25.4822 52.442 25.7389 53.0503 26.1498 53.5501C26.5606 54.0498 27.1078 54.4194 27.7248 54.6139C28.3418 54.8084 29.002 54.8194 29.6252 54.6456C30.2483 54.4719 30.8076 54.1208 31.2349 53.635L31.8312 52.9569L35.0791 55.7129C35.6796 56.2244 36.4431 56.5047 37.2319 56.5033C37.3249 56.5033 37.4183 56.4994 37.5122 56.4918C38.3188 56.4273 39.0744 56.0711 39.6375 55.4899C40.2006 54.9087 40.5326 54.1423 40.5715 53.334C41.3534 53.3069 42.1007 53.0054 42.6825 52.4824C43.2643 51.9593 43.6433 51.2481 43.7531 50.4736C43.8444 50.4811 43.936 50.4853 44.0275 50.4853C44.8136 50.4869 45.5749 50.2106 46.177 49.7053C46.7791 49.1999 47.1832 48.498 47.3179 47.7236C47.4597 47.7428 47.6026 47.7529 47.7457 47.7539C47.8387 47.7539 47.9321 47.7501 48.026 47.7425C48.5601 47.7016 49.0762 47.5314 49.5299 47.2467C49.9836 46.9619 50.3613 46.5711 50.6304 46.108C50.8994 45.6448 51.0519 45.1232 51.0745 44.588C51.0972 44.0528 50.9893 43.5202 50.7604 43.0359C51.9714 42.1922 53.1949 40.9674 54.4725 39.3202C54.4796 39.3111 54.4864 39.3019 54.493 39.2928C54.9318 38.7008 55.5157 38.2318 56.1884 37.931L56.3988 38.481C56.5116 38.7763 56.6815 39.0464 56.8988 39.276C57.116 39.5056 57.3764 39.6901 57.665 39.819C57.9536 39.948 58.2648 40.0188 58.5808 40.0274C58.8967 40.0361 59.2113 39.9824 59.5065 39.8694L68.4531 36.4481C69.0489 36.2195 69.5296 35.7639 69.7899 35.1812C70.0502 34.5986 70.0687 33.9365 69.8415 33.3402L62.8451 15.0445C62.6165 14.4488 62.1609 13.968 61.5783 13.7077C60.9957 13.4474 60.3336 13.4289 59.7373 13.6562L50.791 17.0773C50.1952 17.3058 49.7143 17.7614 49.454 18.3441C49.1937 18.9267 49.1752 19.5888 49.4025 20.1852L49.5135 20.4751C48.8892 20.6918 48.1706 20.9434 47.3632 21.2279C43.7128 20.1931 40.175 19.601 35.9487 19.3162C34.8258 19.2275 33.7119 19.5745 32.838 20.2852L30.1531 22.418C28.6197 22.3696 26.7343 22.3103 24.4968 22.2403L20.5269 20.37L20.5976 20.1852C20.8248 19.5888 20.8062 18.9268 20.5459 18.3441C20.2855 17.7615 19.8047 17.306 19.209 17.0774L10.2625 13.6562C9.66623 13.429 9.0042 13.4476 8.42163 13.7078C7.83905 13.9681 7.38349 14.4488 7.15487 15.0445L0.158559 33.3397C-0.0686622 33.936 -0.0500977 34.598 0.21018 35.1806C0.470458 35.7632 0.951196 36.2188 1.54694 36.4474V36.4474ZM17.8481 43.3979C17.6189 43.196 17.4793 42.9115 17.4597 42.6067C17.4402 42.302 17.5423 42.0019 17.7437 41.7724L19.5611 39.7054C19.7637 39.4792 20.0473 39.3421 20.3505 39.3239C20.6536 39.3057 20.9516 39.408 21.1797 39.6084C21.4078 39.8089 21.5475 40.0913 21.5685 40.3942C21.5894 40.6971 21.4899 40.9961 21.2916 41.226L19.4732 43.2936C19.2705 43.5214 18.9862 43.66 18.6819 43.6795C18.3777 43.699 18.078 43.5977 17.8479 43.3977L17.8481 43.3979ZM21.2208 46.3637C20.9917 46.1618 20.8521 45.8774 20.8324 45.5728C20.8128 45.2682 20.9147 44.9682 21.1159 44.7386L23.9282 41.5404C24.1305 41.3131 24.4145 41.1751 24.7182 41.1566C25.0219 41.138 25.3206 41.2403 25.5491 41.4412C25.7776 41.6421 25.9173 41.9253 25.9378 42.2289C25.9582 42.5324 25.8577 42.8317 25.6582 43.0615L24.8855 43.9403L24.8846 43.9414L22.8459 46.2597C22.644 46.4887 22.3595 46.6282 22.0548 46.6476C21.7502 46.6671 21.4502 46.565 21.2208 46.3637V46.3637ZM24.5935 49.3294C24.3644 49.1274 24.2248 48.8429 24.2052 48.5381C24.1857 48.2334 24.2878 47.9333 24.4892 47.7038L26.5279 45.385C26.7304 45.1584 27.0143 45.0209 27.3177 45.0026C27.6211 44.9844 27.9194 45.0868 28.1476 45.2875C28.3759 45.4882 28.5155 45.7711 28.5361 46.0743C28.5567 46.3775 28.4566 46.6767 28.2577 46.9064L27.1898 48.121L26.2191 49.2248C26.0172 49.4539 25.7326 49.5936 25.4279 49.6132C25.1232 49.6328 24.8231 49.5307 24.5935 49.3294V49.3294ZM29.5918 52.1905C29.389 52.4159 29.1055 52.5523 28.8027 52.57C28.5 52.5877 28.2025 52.4854 27.9748 52.2851C27.7471 52.0849 27.6075 51.8029 27.5864 51.5004C27.5652 51.1979 27.6642 50.8993 27.8619 50.6693L28.8326 49.5657C29.0349 49.3385 29.3189 49.2005 29.6226 49.182C29.9263 49.1634 30.225 49.2657 30.4535 49.4666C30.682 49.6675 30.8217 49.9507 30.8421 50.2542C30.8626 50.5578 30.7621 50.8571 30.5626 51.0869L29.5918 52.1905ZM51.4511 19.2363C51.4625 19.2099 51.479 19.1861 51.4998 19.1662C51.5206 19.1463 51.5452 19.1308 51.5721 19.1205L60.5187 15.6993C60.543 15.6901 60.5687 15.6855 60.5947 15.6856C60.6393 15.6856 60.683 15.699 60.7199 15.724C60.7569 15.7491 60.7854 15.7847 60.8019 15.8262L67.7988 34.1209C67.8187 34.1753 67.8167 34.2354 67.793 34.2883C67.7694 34.3412 67.726 34.3828 67.6722 34.4042L58.7256 37.8254C58.6712 37.8454 58.6112 37.8434 58.5582 37.8198C58.5053 37.7962 58.4637 37.7528 58.4423 37.699L51.4456 19.4038C51.4353 19.3769 51.4304 19.3483 51.4314 19.3195C51.4323 19.2908 51.439 19.2625 51.4511 19.2363V19.2363ZM34.1987 21.998C34.6459 21.6265 35.222 21.4471 35.8011 21.4989C39.9953 21.782 43.4776 22.3765 47.0923 23.4266C47.3118 23.4903 47.5458 23.4837 47.7613 23.4076C48.7288 23.0658 49.5769 22.7691 50.295 22.52L55.4056 35.8843C54.3445 36.339 53.4226 37.0664 52.7335 37.9926C51.5529 39.5127 50.4206 40.6357 49.3565 41.3444L36.707 29.4238C36.3855 29.1208 36.0038 28.889 35.5868 28.7434C35.1697 28.5978 34.7266 28.5418 34.2865 28.5788C33.8463 28.6159 33.4188 28.7453 33.032 28.9587C32.6452 29.172 32.3076 29.4644 32.0414 29.8169C31.7073 30.2638 31.4543 30.7659 31.2938 31.3003C31.2807 31.3429 31.2703 31.3863 31.2625 31.4303C30.8145 33.9596 29.7204 35.4895 28.1821 35.7369C28.0772 35.7537 27.9754 35.7857 27.8798 35.8319C27.7544 35.8926 27.6163 35.9223 27.477 35.9187C27.3377 35.915 27.2013 35.8781 27.0793 35.811C26.9572 35.7439 26.8529 35.6486 26.7752 35.533C26.6975 35.4174 26.6485 35.2848 26.6325 35.1464L26.7282 28.3827C26.7255 28.2401 26.7568 28.0989 26.8197 27.9709C26.8826 27.8429 26.9752 27.7318 27.0897 27.6469L34.1987 21.998ZM23.7695 24.3163C23.9049 24.3801 24.0519 24.4154 24.2015 24.42C25.4019 24.4576 26.5026 24.4921 27.5037 24.5237L25.7289 25.9338C25.3614 26.221 25.0637 26.5877 24.858 27.0064C24.6523 27.425 24.544 27.8848 24.5413 28.3512L24.4449 35.1717C24.4443 35.2033 24.4452 35.2347 24.4476 35.2662C24.4826 35.7504 24.6324 36.2194 24.8844 36.6344C25.1365 37.0493 25.4837 37.3984 25.8973 37.6527C26.3109 37.9069 26.7791 38.0592 27.2632 38.0968C27.7472 38.1344 28.2333 38.0563 28.6812 37.8689C29.9293 37.6228 32.5534 36.5457 33.4038 31.8835C33.4895 31.6145 33.6191 31.3616 33.7873 31.1348C33.8683 31.0276 33.971 30.9386 34.0888 30.8736C34.2065 30.8087 34.3366 30.7693 34.4705 30.7581C34.6045 30.7468 34.7394 30.7638 34.8663 30.8081C34.9932 30.8524 35.1094 30.923 35.2072 31.0152L48.4553 43.5002C48.9576 43.9735 49.0332 44.6878 48.6312 45.1618C48.4326 45.3932 48.1508 45.537 47.8468 45.5619C47.5429 45.5868 47.2414 45.4909 47.0077 45.2949L46.2954 44.6908L46.2932 44.6934C46.2593 44.6622 46.2248 44.6313 46.19 44.6012L40.6962 39.9409C40.4747 39.756 40.1891 39.6661 39.9016 39.6909C39.6141 39.7156 39.348 39.853 39.1614 40.073C38.9747 40.293 38.8825 40.5779 38.9049 40.8656C38.9274 41.1532 39.0625 41.4204 39.281 41.6088L44.7754 46.2693C44.892 46.3668 44.9882 46.4863 45.0584 46.6211C45.1286 46.7559 45.1714 46.9033 45.1844 47.0547C45.1974 47.2062 45.1803 47.3587 45.1341 47.5034C45.0879 47.6482 45.0135 47.7824 44.9151 47.8983C44.8168 48.0142 44.6965 48.1095 44.5612 48.1787C44.4259 48.2479 44.2782 48.2897 44.1267 48.3015C43.9752 48.3134 43.8228 48.2952 43.6784 48.2479C43.5339 48.2006 43.4003 48.1252 43.2851 48.026L42.6183 47.4604L42.6156 47.4582L42.6099 47.453L37.3137 42.9603C37.092 42.7768 36.8069 42.6881 36.5202 42.7133C36.2335 42.7386 35.9684 42.8758 35.7822 43.0953C35.596 43.3147 35.5038 43.5987 35.5256 43.8857C35.5474 44.1727 35.6814 44.4395 35.8986 44.6283L41.1947 49.1209C41.31 49.2187 41.405 49.3383 41.4741 49.4729C41.5433 49.6074 41.5852 49.7543 41.5976 49.905C41.61 50.0558 41.5925 50.2075 41.5463 50.3515C41.5 50.4955 41.4258 50.629 41.328 50.7444C41.2301 50.8597 41.1105 50.9547 40.976 51.0238C40.8414 51.093 40.6946 51.1349 40.5438 51.1473C40.3931 51.1597 40.2414 51.1422 40.0973 51.096C39.9533 51.0497 39.8198 50.9755 39.7045 50.8777L39.4008 50.6201L39.3997 50.619L34.5273 46.4859C34.3056 46.3024 34.0206 46.2136 33.7339 46.2389C33.4472 46.2642 33.182 46.4014 32.9959 46.6209C32.8097 46.8403 32.7175 47.1243 32.7393 47.4113C32.7611 47.6982 32.8951 47.965 33.1123 48.1538L37.7808 52.1143L37.9848 52.2873C38.2135 52.4861 38.3547 52.7671 38.3776 53.0693C38.4006 53.3715 38.3035 53.6706 38.1074 53.9017C37.9114 54.1328 37.6321 54.2774 37.3302 54.304C37.0283 54.3306 36.728 54.2371 36.4946 54.0438L32.9574 51.0438C33.0238 50.7381 33.0473 50.4246 33.0271 50.1123C32.9838 49.4202 32.7256 48.7589 32.2886 48.2205C31.8516 47.6821 31.2574 47.2934 30.589 47.1088C30.7228 46.6663 30.7632 46.2008 30.7075 45.7419C30.6518 45.283 30.5013 44.8406 30.2656 44.443C30.0298 44.0453 29.714 43.701 29.3381 43.4319C28.9622 43.1629 28.5344 42.9749 28.082 42.8799C28.1814 42.3157 28.1341 41.7353 27.9445 41.1947C27.7549 40.654 27.4294 40.1712 26.9993 39.7927L26.2769 40.6139L26.9992 39.7925C26.5309 39.3817 25.9572 39.1098 25.3426 39.0076C24.7281 38.9054 24.0972 38.977 23.5212 39.2142C23.308 38.6859 22.9632 38.221 22.5195 37.8637C22.0757 37.5064 21.5479 37.2686 20.9863 37.1731C20.4247 37.0775 19.848 37.1273 19.311 37.3178C18.7741 37.5082 18.2949 37.8329 17.919 38.261L17.1717 39.1107C16.6496 38.4161 16.1922 37.6751 15.8053 36.897C15.7046 36.698 15.5455 36.5347 15.3492 36.4287C15.084 36.2854 14.8186 36.1403 14.553 35.9933L19.7439 22.419L23.7695 24.3163ZM2.20114 34.121L9.19799 15.8259C9.21448 15.7844 9.24306 15.7488 9.28002 15.7237C9.31697 15.6987 9.36061 15.6853 9.40526 15.6853C9.43122 15.6852 9.45698 15.6899 9.48127 15.699L18.4279 19.1203C18.4817 19.1417 18.5251 19.1833 18.5487 19.2362C18.5723 19.2891 18.5743 19.3491 18.5543 19.4035L11.5582 37.6988C11.5369 37.7528 11.4953 37.7962 11.4423 37.8199C11.3894 37.8436 11.3293 37.8456 11.2749 37.8256L2.32842 34.4043C2.27445 34.383 2.23094 34.3415 2.20716 34.2886C2.18338 34.2356 2.18122 34.1755 2.20114 34.121V34.121ZM35 0C35.1436 0 35.2858 0.0282907 35.4185 0.0832568C35.5512 0.138223 35.6718 0.218788 35.7734 0.320352C35.8749 0.421916 35.9555 0.54249 36.0105 0.67519C36.0654 0.80789 36.0937 0.950117 36.0937 1.09375V11.9492C36.0937 12.2393 35.9785 12.5175 35.7734 12.7226C35.5682 12.9277 35.29 13.043 35 13.043C34.7099 13.043 34.4317 12.9277 34.2266 12.7226C34.0214 12.5175 33.9062 12.2393 33.9062 11.9492V1.09375C33.9062 0.803669 34.0214 0.52547 34.2266 0.320352C34.4317 0.115234 34.7099 0 35 0V0ZM52.5028 4.68412C52.754 4.82917 52.9373 5.06806 53.0124 5.34825C53.0875 5.62844 53.0482 5.92697 52.9031 6.17818L47.4742 15.5814C47.3281 15.8306 47.0894 16.0119 46.8102 16.0857C46.531 16.1595 46.2339 16.1199 45.9837 15.9755C45.7336 15.8311 45.5508 15.5936 45.4751 15.3148C45.3994 15.0361 45.4371 14.7388 45.5798 14.4877L51.0086 5.08443C51.0805 4.96003 51.1761 4.85099 51.29 4.76355C51.404 4.6761 51.5341 4.61196 51.6728 4.57479C51.8116 4.53762 51.9563 4.52814 52.0987 4.5469C52.2411 4.56566 52.3784 4.61229 52.5028 4.68412V4.68412ZM56.3915 48.6134C56.1403 48.4683 55.957 48.2294 55.8819 47.9492C55.8068 47.669 55.8461 47.3705 55.9911 47.1192C56.1362 46.868 56.3751 46.6847 56.6553 46.6096C56.9355 46.5345 57.234 46.5738 57.4853 46.7188L64.9154 51.0087C65.1666 51.1537 65.3499 51.3926 65.425 51.6728C65.5001 51.953 65.4608 52.2516 65.3158 52.5028C65.1707 52.754 64.9318 52.9374 64.6516 53.0124C64.3714 53.0875 64.0729 53.0482 63.8216 52.9032L56.3915 48.6134ZM52.9031 63.8217C52.9761 63.9461 53.0237 64.0838 53.0433 64.2267C53.0628 64.3696 53.0539 64.5149 53.017 64.6544C52.9801 64.7939 52.916 64.9246 52.8284 65.0392C52.7408 65.1538 52.6314 65.2499 52.5065 65.322C52.3816 65.3942 52.2436 65.4409 52.1006 65.4595C51.9575 65.4781 51.8122 65.4682 51.673 65.4304C51.5338 65.3926 51.4035 65.3276 51.2895 65.2393C51.1755 65.1509 51.0801 65.0408 51.0088 64.9154L46.7189 57.4853C46.646 57.3609 46.5984 57.2232 46.5788 57.0803C46.5593 56.9374 46.5682 56.792 46.6051 56.6526C46.642 56.5131 46.706 56.3824 46.7937 56.2678C46.8813 56.1532 46.9907 56.0571 47.1156 55.9849C47.2405 55.9128 47.3785 55.8661 47.5215 55.8475C47.6646 55.8289 47.8099 55.8388 47.9491 55.8766C48.0883 55.9144 48.2186 55.9794 48.3326 56.0677C48.4466 56.1561 48.542 56.2662 48.6133 56.3916L52.9031 63.8217ZM33.9062 68.9062V60.3281C33.9062 60.038 34.0214 59.7598 34.2266 59.5547C34.4317 59.3496 34.7099 59.2344 35 59.2344C35.29 59.2344 35.5682 59.3496 35.7734 59.5547C35.9785 59.7598 36.0937 60.038 36.0937 60.3281V68.9062C36.0937 69.1963 35.9785 69.4745 35.7734 69.6796C35.5682 69.8848 35.29 70 35 70C34.7099 70 34.4317 69.8848 34.2266 69.6796C34.0214 69.4745 33.9062 69.1963 33.9062 68.9062ZM18.043 65.4626C17.8511 65.4624 17.6626 65.4117 17.4965 65.3157C17.3303 65.2196 17.1924 65.0815 17.0965 64.9153C17.0007 64.749 16.9502 64.5605 16.9502 64.3686C16.9503 64.1767 17.0008 63.9882 17.0968 63.822L21.3866 56.3917C21.4584 56.2673 21.554 56.1583 21.668 56.0708C21.7819 55.9834 21.912 55.9192 22.0507 55.8821C22.1895 55.8449 22.3342 55.8354 22.4766 55.8541C22.619 55.8729 22.7563 55.9195 22.8807 55.9913C23.0051 56.0631 23.1142 56.1588 23.2016 56.2727C23.2891 56.3867 23.3532 56.5167 23.3904 56.6555C23.4276 56.7942 23.437 56.9389 23.4183 57.0813C23.3995 57.2237 23.3529 57.3611 23.2811 57.4854L18.9913 64.9157C18.8952 65.0821 18.757 65.2203 18.5905 65.3163C18.424 65.4123 18.2352 65.4628 18.043 65.4626V65.4626ZM13.6084 48.6134L6.17829 52.9032C5.92721 53.0459 5.62986 53.0836 5.35112 53.0079C5.07239 52.9322 4.8349 52.7494 4.69049 52.4993C4.54607 52.2491 4.50645 51.952 4.58028 51.6728C4.6541 51.3936 4.83537 51.1549 5.08454 51.0088L12.5147 46.719C12.6391 46.646 12.7767 46.5984 12.9196 46.5789C13.0626 46.5593 13.2079 46.5683 13.3474 46.6051C13.4868 46.642 13.6176 46.7061 13.7322 46.7937C13.8468 46.8813 13.9429 46.9907 14.015 47.1157C14.0871 47.2406 14.1338 47.3785 14.1524 47.5216C14.171 47.6646 14.1611 47.8099 14.1234 47.9491C14.0856 48.0883 14.0206 48.2187 13.9322 48.3327C13.8439 48.4467 13.7338 48.5421 13.6084 48.6134ZM18.9912 5.08457L24.4201 14.4877C24.4919 14.6121 24.5386 14.7494 24.5573 14.8918C24.576 15.0342 24.5666 15.1789 24.5294 15.3177C24.4922 15.4564 24.4281 15.5865 24.3406 15.7004C24.2532 15.8144 24.1441 15.91 24.0197 15.9818C23.8953 16.0536 23.758 16.1002 23.6156 16.119C23.4732 16.1377 23.3285 16.1282 23.1898 16.0911C23.051 16.0539 22.921 15.9897 22.807 15.9023C22.693 15.8149 22.5974 15.7058 22.5256 15.5814L17.0968 6.17832C17.0238 6.05388 16.9762 5.91625 16.9567 5.77333C16.9371 5.63042 16.9461 5.48505 16.9829 5.3456C17.0198 5.20615 17.0839 5.07536 17.1715 4.96078C17.2591 4.8462 17.3685 4.75008 17.4935 4.67795C17.6184 4.60583 17.7563 4.55913 17.8994 4.54054C18.0424 4.52194 18.1877 4.53183 18.3269 4.56962C18.4661 4.60741 18.5965 4.67237 18.7105 4.76075C18.8245 4.84912 18.9199 4.95918 18.9912 5.08457Z"/>
</mask>
<path d="M1.54694 36.4474L10.4934 39.8687C11.0897 40.096 11.7518 40.0775 12.3345 39.8172C12.9171 39.5569 13.3727 39.0761 13.6013 38.4803L13.7637 38.0557C13.8466 38.1011 13.9291 38.1471 14.012 38.1924C14.4962 39.127 15.075 40.0095 15.7394 40.8259C15.4376 41.3324 15.2754 41.91 15.2693 42.4996C15.2633 43.0893 15.4136 43.67 15.705 44.1827C15.9964 44.6954 16.4184 45.1217 16.9281 45.4182C17.4378 45.7147 18.017 45.8709 18.6067 45.8708C18.6258 45.8708 18.6451 45.8697 18.6644 45.8693C18.7546 46.6853 19.1427 47.4392 19.7545 47.9867C20.3662 48.5342 21.1585 48.8366 21.9794 48.8361C21.9991 48.8361 22.0187 48.8348 22.0382 48.8346C22.1275 49.6499 22.5146 50.4035 23.1254 50.951C23.7361 51.4984 24.5274 51.8012 25.3476 51.8011C25.3685 51.8011 25.3896 51.7995 25.4106 51.799C25.4822 52.442 25.7389 53.0503 26.1498 53.5501C26.5606 54.0498 27.1078 54.4194 27.7248 54.6139C28.3418 54.8084 29.002 54.8194 29.6252 54.6456C30.2483 54.4719 30.8076 54.1208 31.2349 53.635L31.8312 52.9569L35.0791 55.7129C35.6796 56.2244 36.4431 56.5047 37.2319 56.5033C37.3249 56.5033 37.4183 56.4994 37.5122 56.4918C38.3188 56.4273 39.0744 56.0711 39.6375 55.4899C40.2006 54.9087 40.5326 54.1423 40.5715 53.334C41.3534 53.3069 42.1007 53.0054 42.6825 52.4824C43.2643 51.9593 43.6433 51.2481 43.7531 50.4736C43.8444 50.4811 43.936 50.4853 44.0275 50.4853C44.8136 50.4869 45.5749 50.2106 46.177 49.7053C46.7791 49.1999 47.1832 48.498 47.3179 47.7236C47.4597 47.7428 47.6026 47.7529 47.7457 47.7539C47.8387 47.7539 47.9321 47.7501 48.026 47.7425C48.5601 47.7016 49.0762 47.5314 49.5299 47.2467C49.9836 46.9619 50.3613 46.5711 50.6304 46.108C50.8994 45.6448 51.0519 45.1232 51.0745 44.588C51.0972 44.0528 50.9893 43.5202 50.7604 43.0359C51.9714 42.1922 53.1949 40.9674 54.4725 39.3202C54.4796 39.3111 54.4864 39.3019 54.493 39.2928C54.9318 38.7008 55.5157 38.2318 56.1884 37.931L56.3988 38.481C56.5116 38.7763 56.6815 39.0464 56.8988 39.276C57.116 39.5056 57.3764 39.6901 57.665 39.819C57.9536 39.948 58.2648 40.0188 58.5808 40.0274C58.8967 40.0361 59.2113 39.9824 59.5065 39.8694L68.4531 36.4481C69.0489 36.2195 69.5296 35.7639 69.7899 35.1812C70.0502 34.5986 70.0687 33.9365 69.8415 33.3402L62.8451 15.0445C62.6165 14.4488 62.1609 13.968 61.5783 13.7077C60.9957 13.4474 60.3336 13.4289 59.7373 13.6562L50.791 17.0773C50.1952 17.3058 49.7143 17.7614 49.454 18.3441C49.1937 18.9267 49.1752 19.5888 49.4025 20.1852L49.5135 20.4751C48.8892 20.6918 48.1706 20.9434 47.3632 21.2279C43.7128 20.1931 40.175 19.601 35.9487 19.3162C34.8258 19.2275 33.7119 19.5745 32.838 20.2852L30.1531 22.418C28.6197 22.3696 26.7343 22.3103 24.4968 22.2403L20.5269 20.37L20.5976 20.1852C20.8248 19.5888 20.8062 18.9268 20.5459 18.3441C20.2855 17.7615 19.8047 17.306 19.209 17.0774L10.2625 13.6562C9.66623 13.429 9.0042 13.4476 8.42163 13.7078C7.83905 13.9681 7.38349 14.4488 7.15487 15.0445L0.158559 33.3397C-0.0686622 33.936 -0.0500977 34.598 0.21018 35.1806C0.470458 35.7632 0.951196 36.2188 1.54694 36.4474V36.4474ZM17.8481 43.3979C17.6189 43.196 17.4793 42.9115 17.4597 42.6067C17.4402 42.302 17.5423 42.0019 17.7437 41.7724L19.5611 39.7054C19.7637 39.4792 20.0473 39.3421 20.3505 39.3239C20.6536 39.3057 20.9516 39.408 21.1797 39.6084C21.4078 39.8089 21.5475 40.0913 21.5685 40.3942C21.5894 40.6971 21.4899 40.9961 21.2916 41.226L19.4732 43.2936C19.2705 43.5214 18.9862 43.66 18.6819 43.6795C18.3777 43.699 18.078 43.5977 17.8479 43.3977L17.8481 43.3979ZM21.2208 46.3637C20.9917 46.1618 20.8521 45.8774 20.8324 45.5728C20.8128 45.2682 20.9147 44.9682 21.1159 44.7386L23.9282 41.5404C24.1305 41.3131 24.4145 41.1751 24.7182 41.1566C25.0219 41.138 25.3206 41.2403 25.5491 41.4412C25.7776 41.6421 25.9173 41.9253 25.9378 42.2289C25.9582 42.5324 25.8577 42.8317 25.6582 43.0615L24.8855 43.9403L24.8846 43.9414L22.8459 46.2597C22.644 46.4887 22.3595 46.6282 22.0548 46.6476C21.7502 46.6671 21.4502 46.565 21.2208 46.3637V46.3637ZM24.5935 49.3294C24.3644 49.1274 24.2248 48.8429 24.2052 48.5381C24.1857 48.2334 24.2878 47.9333 24.4892 47.7038L26.5279 45.385C26.7304 45.1584 27.0143 45.0209 27.3177 45.0026C27.6211 44.9844 27.9194 45.0868 28.1476 45.2875C28.3759 45.4882 28.5155 45.7711 28.5361 46.0743C28.5567 46.3775 28.4566 46.6767 28.2577 46.9064L27.1898 48.121L26.2191 49.2248C26.0172 49.4539 25.7326 49.5936 25.4279 49.6132C25.1232 49.6328 24.8231 49.5307 24.5935 49.3294V49.3294ZM29.5918 52.1905C29.389 52.4159 29.1055 52.5523 28.8027 52.57C28.5 52.5877 28.2025 52.4854 27.9748 52.2851C27.7471 52.0849 27.6075 51.8029 27.5864 51.5004C27.5652 51.1979 27.6642 50.8993 27.8619 50.6693L28.8326 49.5657C29.0349 49.3385 29.3189 49.2005 29.6226 49.182C29.9263 49.1634 30.225 49.2657 30.4535 49.4666C30.682 49.6675 30.8217 49.9507 30.8421 50.2542C30.8626 50.5578 30.7621 50.8571 30.5626 51.0869L29.5918 52.1905ZM51.4511 19.2363C51.4625 19.2099 51.479 19.1861 51.4998 19.1662C51.5206 19.1463 51.5452 19.1308 51.5721 19.1205L60.5187 15.6993C60.543 15.6901 60.5687 15.6855 60.5947 15.6856C60.6393 15.6856 60.683 15.699 60.7199 15.724C60.7569 15.7491 60.7854 15.7847 60.8019 15.8262L67.7988 34.1209C67.8187 34.1753 67.8167 34.2354 67.793 34.2883C67.7694 34.3412 67.726 34.3828 67.6722 34.4042L58.7256 37.8254C58.6712 37.8454 58.6112 37.8434 58.5582 37.8198C58.5053 37.7962 58.4637 37.7528 58.4423 37.699L51.4456 19.4038C51.4353 19.3769 51.4304 19.3483 51.4314 19.3195C51.4323 19.2908 51.439 19.2625 51.4511 19.2363V19.2363ZM34.1987 21.998C34.6459 21.6265 35.222 21.4471 35.8011 21.4989C39.9953 21.782 43.4776 22.3765 47.0923 23.4266C47.3118 23.4903 47.5458 23.4837 47.7613 23.4076C48.7288 23.0658 49.5769 22.7691 50.295 22.52L55.4056 35.8843C54.3445 36.339 53.4226 37.0664 52.7335 37.9926C51.5529 39.5127 50.4206 40.6357 49.3565 41.3444L36.707 29.4238C36.3855 29.1208 36.0038 28.889 35.5868 28.7434C35.1697 28.5978 34.7266 28.5418 34.2865 28.5788C33.8463 28.6159 33.4188 28.7453 33.032 28.9587C32.6452 29.172 32.3076 29.4644 32.0414 29.8169C31.7073 30.2638 31.4543 30.7659 31.2938 31.3003C31.2807 31.3429 31.2703 31.3863 31.2625 31.4303C30.8145 33.9596 29.7204 35.4895 28.1821 35.7369C28.0772 35.7537 27.9754 35.7857 27.8798 35.8319C27.7544 35.8926 27.6163 35.9223 27.477 35.9187C27.3377 35.915 27.2013 35.8781 27.0793 35.811C26.9572 35.7439 26.8529 35.6486 26.7752 35.533C26.6975 35.4174 26.6485 35.2848 26.6325 35.1464L26.7282 28.3827C26.7255 28.2401 26.7568 28.0989 26.8197 27.9709C26.8826 27.8429 26.9752 27.7318 27.0897 27.6469L34.1987 21.998ZM23.7695 24.3163C23.9049 24.3801 24.0519 24.4154 24.2015 24.42C25.4019 24.4576 26.5026 24.4921 27.5037 24.5237L25.7289 25.9338C25.3614 26.221 25.0637 26.5877 24.858 27.0064C24.6523 27.425 24.544 27.8848 24.5413 28.3512L24.4449 35.1717C24.4443 35.2033 24.4452 35.2347 24.4476 35.2662C24.4826 35.7504 24.6324 36.2194 24.8844 36.6344C25.1365 37.0493 25.4837 37.3984 25.8973 37.6527C26.3109 37.9069 26.7791 38.0592 27.2632 38.0968C27.7472 38.1344 28.2333 38.0563 28.6812 37.8689C29.9293 37.6228 32.5534 36.5457 33.4038 31.8835C33.4895 31.6145 33.6191 31.3616 33.7873 31.1348C33.8683 31.0276 33.971 30.9386 34.0888 30.8736C34.2065 30.8087 34.3366 30.7693 34.4705 30.7581C34.6045 30.7468 34.7394 30.7638 34.8663 30.8081C34.9932 30.8524 35.1094 30.923 35.2072 31.0152L48.4553 43.5002C48.9576 43.9735 49.0332 44.6878 48.6312 45.1618C48.4326 45.3932 48.1508 45.537 47.8468 45.5619C47.5429 45.5868 47.2414 45.4909 47.0077 45.2949L46.2954 44.6908L46.2932 44.6934C46.2593 44.6622 46.2248 44.6313 46.19 44.6012L40.6962 39.9409C40.4747 39.756 40.1891 39.6661 39.9016 39.6909C39.6141 39.7156 39.348 39.853 39.1614 40.073C38.9747 40.293 38.8825 40.5779 38.9049 40.8656C38.9274 41.1532 39.0625 41.4204 39.281 41.6088L44.7754 46.2693C44.892 46.3668 44.9882 46.4863 45.0584 46.6211C45.1286 46.7559 45.1714 46.9033 45.1844 47.0547C45.1974 47.2062 45.1803 47.3587 45.1341 47.5034C45.0879 47.6482 45.0135 47.7824 44.9151 47.8983C44.8168 48.0142 44.6965 48.1095 44.5612 48.1787C44.4259 48.2479 44.2782 48.2897 44.1267 48.3015C43.9752 48.3134 43.8228 48.2952 43.6784 48.2479C43.5339 48.2006 43.4003 48.1252 43.2851 48.026L42.6183 47.4604L42.6156 47.4582L42.6099 47.453L37.3137 42.9603C37.092 42.7768 36.8069 42.6881 36.5202 42.7133C36.2335 42.7386 35.9684 42.8758 35.7822 43.0953C35.596 43.3147 35.5038 43.5987 35.5256 43.8857C35.5474 44.1727 35.6814 44.4395 35.8986 44.6283L41.1947 49.1209C41.31 49.2187 41.405 49.3383 41.4741 49.4729C41.5433 49.6074 41.5852 49.7543 41.5976 49.905C41.61 50.0558 41.5925 50.2075 41.5463 50.3515C41.5 50.4955 41.4258 50.629 41.328 50.7444C41.2301 50.8597 41.1105 50.9547 40.976 51.0238C40.8414 51.093 40.6946 51.1349 40.5438 51.1473C40.3931 51.1597 40.2414 51.1422 40.0973 51.096C39.9533 51.0497 39.8198 50.9755 39.7045 50.8777L39.4008 50.6201L39.3997 50.619L34.5273 46.4859C34.3056 46.3024 34.0206 46.2136 33.7339 46.2389C33.4472 46.2642 33.182 46.4014 32.9959 46.6209C32.8097 46.8403 32.7175 47.1243 32.7393 47.4113C32.7611 47.6982 32.8951 47.965 33.1123 48.1538L37.7808 52.1143L37.9848 52.2873C38.2135 52.4861 38.3547 52.7671 38.3776 53.0693C38.4006 53.3715 38.3035 53.6706 38.1074 53.9017C37.9114 54.1328 37.6321 54.2774 37.3302 54.304C37.0283 54.3306 36.728 54.2371 36.4946 54.0438L32.9574 51.0438C33.0238 50.7381 33.0473 50.4246 33.0271 50.1123C32.9838 49.4202 32.7256 48.7589 32.2886 48.2205C31.8516 47.6821 31.2574 47.2934 30.589 47.1088C30.7228 46.6663 30.7632 46.2008 30.7075 45.7419C30.6518 45.283 30.5013 44.8406 30.2656 44.443C30.0298 44.0453 29.714 43.701 29.3381 43.4319C28.9622 43.1629 28.5344 42.9749 28.082 42.8799C28.1814 42.3157 28.1341 41.7353 27.9445 41.1947C27.7549 40.654 27.4294 40.1712 26.9993 39.7927L26.2769 40.6139L26.9992 39.7925C26.5309 39.3817 25.9572 39.1098 25.3426 39.0076C24.7281 38.9054 24.0972 38.977 23.5212 39.2142C23.308 38.6859 22.9632 38.221 22.5195 37.8637C22.0757 37.5064 21.5479 37.2686 20.9863 37.1731C20.4247 37.0775 19.848 37.1273 19.311 37.3178C18.7741 37.5082 18.2949 37.8329 17.919 38.261L17.1717 39.1107C16.6496 38.4161 16.1922 37.6751 15.8053 36.897C15.7046 36.698 15.5455 36.5347 15.3492 36.4287C15.084 36.2854 14.8186 36.1403 14.553 35.9933L19.7439 22.419L23.7695 24.3163ZM2.20114 34.121L9.19799 15.8259C9.21448 15.7844 9.24306 15.7488 9.28002 15.7237C9.31697 15.6987 9.36061 15.6853 9.40526 15.6853C9.43122 15.6852 9.45698 15.6899 9.48127 15.699L18.4279 19.1203C18.4817 19.1417 18.5251 19.1833 18.5487 19.2362C18.5723 19.2891 18.5743 19.3491 18.5543 19.4035L11.5582 37.6988C11.5369 37.7528 11.4953 37.7962 11.4423 37.8199C11.3894 37.8436 11.3293 37.8456 11.2749 37.8256L2.32842 34.4043C2.27445 34.383 2.23094 34.3415 2.20716 34.2886C2.18338 34.2356 2.18122 34.1755 2.20114 34.121V34.121ZM35 0C35.1436 0 35.2858 0.0282907 35.4185 0.0832568C35.5512 0.138223 35.6718 0.218788 35.7734 0.320352C35.8749 0.421916 35.9555 0.54249 36.0105 0.67519C36.0654 0.80789 36.0937 0.950117 36.0937 1.09375V11.9492C36.0937 12.2393 35.9785 12.5175 35.7734 12.7226C35.5682 12.9277 35.29 13.043 35 13.043C34.7099 13.043 34.4317 12.9277 34.2266 12.7226C34.0214 12.5175 33.9062 12.2393 33.9062 11.9492V1.09375C33.9062 0.803669 34.0214 0.52547 34.2266 0.320352C34.4317 0.115234 34.7099 0 35 0V0ZM52.5028 4.68412C52.754 4.82917 52.9373 5.06806 53.0124 5.34825C53.0875 5.62844 53.0482 5.92697 52.9031 6.17818L47.4742 15.5814C47.3281 15.8306 47.0894 16.0119 46.8102 16.0857C46.531 16.1595 46.2339 16.1199 45.9837 15.9755C45.7336 15.8311 45.5508 15.5936 45.4751 15.3148C45.3994 15.0361 45.4371 14.7388 45.5798 14.4877L51.0086 5.08443C51.0805 4.96003 51.1761 4.85099 51.29 4.76355C51.404 4.6761 51.5341 4.61196 51.6728 4.57479C51.8116 4.53762 51.9563 4.52814 52.0987 4.5469C52.2411 4.56566 52.3784 4.61229 52.5028 4.68412V4.68412ZM56.3915 48.6134C56.1403 48.4683 55.957 48.2294 55.8819 47.9492C55.8068 47.669 55.8461 47.3705 55.9911 47.1192C56.1362 46.868 56.3751 46.6847 56.6553 46.6096C56.9355 46.5345 57.234 46.5738 57.4853 46.7188L64.9154 51.0087C65.1666 51.1537 65.3499 51.3926 65.425 51.6728C65.5001 51.953 65.4608 52.2516 65.3158 52.5028C65.1707 52.754 64.9318 52.9374 64.6516 53.0124C64.3714 53.0875 64.0729 53.0482 63.8216 52.9032L56.3915 48.6134ZM52.9031 63.8217C52.9761 63.9461 53.0237 64.0838 53.0433 64.2267C53.0628 64.3696 53.0539 64.5149 53.017 64.6544C52.9801 64.7939 52.916 64.9246 52.8284 65.0392C52.7408 65.1538 52.6314 65.2499 52.5065 65.322C52.3816 65.3942 52.2436 65.4409 52.1006 65.4595C51.9575 65.4781 51.8122 65.4682 51.673 65.4304C51.5338 65.3926 51.4035 65.3276 51.2895 65.2393C51.1755 65.1509 51.0801 65.0408 51.0088 64.9154L46.7189 57.4853C46.646 57.3609 46.5984 57.2232 46.5788 57.0803C46.5593 56.9374 46.5682 56.792 46.6051 56.6526C46.642 56.5131 46.706 56.3824 46.7937 56.2678C46.8813 56.1532 46.9907 56.0571 47.1156 55.9849C47.2405 55.9128 47.3785 55.8661 47.5215 55.8475C47.6646 55.8289 47.8099 55.8388 47.9491 55.8766C48.0883 55.9144 48.2186 55.9794 48.3326 56.0677C48.4466 56.1561 48.542 56.2662 48.6133 56.3916L52.9031 63.8217ZM33.9062 68.9062V60.3281C33.9062 60.038 34.0214 59.7598 34.2266 59.5547C34.4317 59.3496 34.7099 59.2344 35 59.2344C35.29 59.2344 35.5682 59.3496 35.7734 59.5547C35.9785 59.7598 36.0937 60.038 36.0937 60.3281V68.9062C36.0937 69.1963 35.9785 69.4745 35.7734 69.6796C35.5682 69.8848 35.29 70 35 70C34.7099 70 34.4317 69.8848 34.2266 69.6796C34.0214 69.4745 33.9062 69.1963 33.9062 68.9062ZM18.043 65.4626C17.8511 65.4624 17.6626 65.4117 17.4965 65.3157C17.3303 65.2196 17.1924 65.0815 17.0965 64.9153C17.0007 64.749 16.9502 64.5605 16.9502 64.3686C16.9503 64.1767 17.0008 63.9882 17.0968 63.822L21.3866 56.3917C21.4584 56.2673 21.554 56.1583 21.668 56.0708C21.7819 55.9834 21.912 55.9192 22.0507 55.8821C22.1895 55.8449 22.3342 55.8354 22.4766 55.8541C22.619 55.8729 22.7563 55.9195 22.8807 55.9913C23.0051 56.0631 23.1142 56.1588 23.2016 56.2727C23.2891 56.3867 23.3532 56.5167 23.3904 56.6555C23.4276 56.7942 23.437 56.9389 23.4183 57.0813C23.3995 57.2237 23.3529 57.3611 23.2811 57.4854L18.9913 64.9157C18.8952 65.0821 18.757 65.2203 18.5905 65.3163C18.424 65.4123 18.2352 65.4628 18.043 65.4626V65.4626ZM13.6084 48.6134L6.17829 52.9032C5.92721 53.0459 5.62986 53.0836 5.35112 53.0079C5.07239 52.9322 4.8349 52.7494 4.69049 52.4993C4.54607 52.2491 4.50645 51.952 4.58028 51.6728C4.6541 51.3936 4.83537 51.1549 5.08454 51.0088L12.5147 46.719C12.6391 46.646 12.7767 46.5984 12.9196 46.5789C13.0626 46.5593 13.2079 46.5683 13.3474 46.6051C13.4868 46.642 13.6176 46.7061 13.7322 46.7937C13.8468 46.8813 13.9429 46.9907 14.015 47.1157C14.0871 47.2406 14.1338 47.3785 14.1524 47.5216C14.171 47.6646 14.1611 47.8099 14.1234 47.9491C14.0856 48.0883 14.0206 48.2187 13.9322 48.3327C13.8439 48.4467 13.7338 48.5421 13.6084 48.6134ZM18.9912 5.08457L24.4201 14.4877C24.4919 14.6121 24.5386 14.7494 24.5573 14.8918C24.576 15.0342 24.5666 15.1789 24.5294 15.3177C24.4922 15.4564 24.4281 15.5865 24.3406 15.7004C24.2532 15.8144 24.1441 15.91 24.0197 15.9818C23.8953 16.0536 23.758 16.1002 23.6156 16.119C23.4732 16.1377 23.3285 16.1282 23.1898 16.0911C23.051 16.0539 22.921 15.9897 22.807 15.9023C22.693 15.8149 22.5974 15.7058 22.5256 15.5814L17.0968 6.17832C17.0238 6.05388 16.9762 5.91625 16.9567 5.77333C16.9371 5.63042 16.9461 5.48505 16.9829 5.3456C17.0198 5.20615 17.0839 5.07536 17.1715 4.96078C17.2591 4.8462 17.3685 4.75008 17.4935 4.67795C17.6184 4.60583 17.7563 4.55913 17.8994 4.54054C18.0424 4.52194 18.1877 4.53183 18.3269 4.56962C18.4661 4.60741 18.5965 4.67237 18.7105 4.76075C18.8245 4.84912 18.9199 4.95918 18.9912 5.08457Z" fill="#222222" stroke="black" stroke-width="2" mask="url(#path-1-inside-1_1863_176)"/>
</g>
<defs>
<clipPath id="clip0_1863_176">
<rect width="70" height="70" fill="white"/>
</clipPath>
</defs>
</svg>
