<svg width="46" height="46" viewBox="0 0 46 46" fill="none" xmlns="http://www.w3.org/2000/svg">
<path d="M43.125 38.0928V17.9678C43.1239 17.0151 42.7449 16.1016 42.0712 15.4279C41.3974 14.7542 40.484 14.3752 39.5312 14.3741H33.0625C33.0625 13.8022 32.8353 13.2538 32.4309 12.8494C32.0266 12.445 31.4781 12.2178 30.9062 12.2178H30.2464L30.9508 10.5855C31.5525 9.19011 31.5831 7.61441 31.0362 6.19662C30.4893 4.77882 29.4084 3.63191 28.0255 3.00202L26.0188 2.08849C24.8316 1.56165 23.5262 1.35797 22.235 1.49808C20.9438 1.63818 19.7125 2.1171 18.6659 2.8863L17.5332 3.73658C16.397 4.03212 15.4211 4.75965 14.8134 5.76417C14.424 6.40938 14.2046 7.14282 14.1757 7.89588C14.1468 8.64894 14.3093 9.39704 14.6481 10.0702L15.7227 12.2178H15.0938C14.5219 12.2178 13.9734 12.445 13.5691 12.8494C13.1647 13.2538 12.9375 13.8022 12.9375 14.3741H6.46875C5.51598 14.3752 4.60256 14.7542 3.92885 15.4279C3.25513 16.1016 2.87614 17.0151 2.875 17.9678V38.0928C2.30313 38.0928 1.75468 38.32 1.3503 38.7244C0.945926 39.1288 0.71875 39.6772 0.71875 40.2491V41.6866C0.719891 42.6394 1.09888 43.5528 1.7726 44.2265C2.44631 44.9002 3.35973 45.2792 4.3125 45.2803H41.6875C42.6403 45.2792 43.5537 44.9002 44.2274 44.2265C44.9011 43.5528 45.2801 42.6394 45.2812 41.6866V40.2491C45.2812 39.6772 45.0541 39.1288 44.6497 38.7244C44.2453 38.32 43.6969 38.0928 43.125 38.0928ZM39.5312 15.8116C40.1031 15.8116 40.6516 16.0388 41.0559 16.4431C41.4603 16.8475 41.6875 17.396 41.6875 17.9678V38.0928H40.25V17.9678C40.25 17.7772 40.1743 17.5944 40.0395 17.4596C39.9047 17.3248 39.7219 17.2491 39.5312 17.2491H29.8562C29.9308 17.0129 29.9929 16.773 30.0423 16.5303H30.9062C31.2078 16.5294 31.5057 16.4649 31.7807 16.341C32.0556 16.2172 32.3014 16.0368 32.5019 15.8116H39.5312ZM30.1875 33.0616V38.0928H15.8125V33.0616H14.375V38.0928H10.0625V28.7318C10.0596 28.2673 10.2079 27.8144 10.485 27.4415C10.762 27.0687 11.1529 26.796 11.5985 26.6647L15.911 25.371L18.7802 30.5345C18.8369 30.6365 18.9175 30.7232 19.0152 30.787C19.1129 30.8509 19.2247 30.89 19.3408 30.901H19.4084C19.5139 30.9011 19.6181 30.8779 19.7136 30.8332C19.8091 30.7885 19.8936 30.7233 19.9611 30.6423L22.2812 27.8593V33.0616H23.7188V27.8593L26.041 30.6466C26.1085 30.7276 26.193 30.7928 26.2886 30.8375C26.3841 30.8822 26.4883 30.9054 26.5938 30.9053H26.6613C26.7776 30.8943 26.8894 30.855 26.9871 30.791C27.0847 30.727 27.1654 30.6402 27.2219 30.538L30.0897 25.3753L34.4022 26.669C34.8469 26.8004 35.2369 27.0726 35.5137 27.4445C35.7906 27.8165 35.9393 28.2682 35.9375 28.7318V38.0928H31.625V33.0616H30.1875ZM19.4062 21.3079V22.3903L15.6939 23.0091C15.5803 23.028 15.473 23.0739 15.3809 23.143C15.2887 23.212 15.2146 23.3022 15.1645 23.4059C15.1145 23.5096 15.0902 23.6238 15.0935 23.7388C15.0968 23.8539 15.1277 23.9665 15.1836 24.0671L15.1944 24.0865L11.1852 25.2897C10.4433 25.5089 9.79256 25.963 9.33088 26.5837C8.86919 27.2044 8.62148 27.9582 8.625 28.7318V38.0928H7.1875V18.6866H16.785C17.416 19.7733 18.3195 20.6768 19.4062 21.3079ZM28.75 15.0928C28.75 16.6178 28.1442 18.0804 27.0659 19.1587C25.9875 20.237 24.525 20.8428 23 20.8428C21.475 20.8428 20.0125 20.237 18.9341 19.1587C17.8558 18.0804 17.25 16.6178 17.25 15.0928V12.3875L18.2261 10.4346L18.6875 10.7803C19.9316 11.7134 21.4448 12.2178 23 12.2178C24.5552 12.2178 26.0684 11.7134 27.3125 10.7803L27.7732 10.4346L28.75 12.3875V15.0928ZM19.5126 23.83C19.6467 24.3907 19.9137 24.9109 20.2911 25.3468C20.6686 25.7826 21.1453 26.1212 21.6811 26.3341L19.5248 28.9216L16.9373 24.2598L19.5126 23.83ZM26.4845 23.83L29.0612 24.2612L26.4737 28.923L24.3175 26.3355C24.8535 26.1224 25.3305 25.7835 25.7081 25.3475C26.0858 24.9114 26.353 24.3909 26.4874 23.83H26.4845ZM25.1562 22.9991C25.1562 23.571 24.9291 24.1194 24.5247 24.5238C24.1203 24.9282 23.5719 25.1553 23 25.1553C22.4281 25.1553 21.8797 24.9282 21.4753 24.5238C21.0709 24.1194 20.8438 23.571 20.8438 22.9991V21.949C22.2473 22.3908 23.7527 22.3908 25.1562 21.949V22.9991ZM34.8148 25.2897L30.8042 24.0858L30.815 24.0664C30.8707 23.9658 30.9015 23.8533 30.9047 23.7383C30.908 23.6233 30.8836 23.5092 30.8336 23.4057C30.7836 23.3021 30.7094 23.212 30.6174 23.143C30.5254 23.074 30.4181 23.0281 30.3047 23.0091L26.5938 22.3903V21.3079C27.6805 20.6768 28.584 19.7733 29.215 18.6866H38.8125V38.0928H37.375V28.7318C37.3785 27.9582 37.1308 27.2044 36.6691 26.5837C36.2074 25.963 35.5567 25.5089 34.8148 25.2897ZM31.625 14.3741C31.625 14.5647 31.5493 14.7475 31.4145 14.8823C31.2797 15.0171 31.0969 15.0928 30.9062 15.0928H30.1875V13.6553H30.9062C31.0969 13.6553 31.2797 13.7311 31.4145 13.8658C31.5493 14.0006 31.625 14.1835 31.625 14.3741ZM16.0475 6.50592C16.319 6.05698 16.7013 5.68543 17.1579 5.42701C17.6145 5.16858 18.1298 5.03198 18.6544 5.03033C19.2082 5.02969 19.7536 5.16613 20.2418 5.42749C20.73 5.68885 21.146 6.067 21.4525 6.5282L21.6782 6.86674L22.8742 6.06892L22.6485 5.73039C22.0099 4.7731 21.0476 4.07802 19.9381 3.77252C20.7536 3.26982 21.6791 2.97294 22.6348 2.90746C23.5906 2.84197 24.5479 3.00984 25.4243 3.39661L27.4304 4.31158C28.4708 4.78574 29.2839 5.64876 29.6953 6.71551C30.1068 7.78226 30.0837 8.96777 29.6312 10.0177L29.4156 10.5108L28.6781 9.02155C28.6312 8.92675 28.5638 8.8435 28.481 8.77772C28.3981 8.71195 28.3017 8.66527 28.1988 8.64104C28.0958 8.6168 27.9887 8.6156 27.8852 8.63752C27.7817 8.65944 27.6843 8.70393 27.6 8.76783L26.45 9.63033C25.4547 10.3768 24.2441 10.7803 23 10.7803C21.7559 10.7803 20.5453 10.3768 19.55 9.63033L18.4 8.76783C18.3157 8.70393 18.2183 8.65944 18.1148 8.63752C18.0113 8.6156 17.9042 8.6168 17.8012 8.64104C17.6983 8.66527 17.6019 8.71195 17.519 8.77772C17.4362 8.8435 17.3688 8.92675 17.3219 9.02155L16.5312 10.6157L15.9383 9.4298C15.7079 8.97294 15.597 8.46511 15.6161 7.95378C15.6352 7.44246 15.7837 6.94432 16.0475 6.50592ZM15.0938 13.6553H15.8125V15.0928H15.0938C14.9031 15.0928 14.7203 15.0171 14.5855 14.8823C14.4507 14.7475 14.375 14.5647 14.375 14.3741C14.375 14.1835 14.4507 14.0006 14.5855 13.8658C14.7203 13.7311 14.9031 13.6553 15.0938 13.6553ZM4.3125 17.9678C4.3125 17.396 4.53968 16.8475 4.94405 16.4431C5.34843 16.0388 5.89688 15.8116 6.46875 15.8116H13.4981C13.6986 16.0368 13.9444 16.2172 14.2193 16.341C14.4943 16.4649 14.7922 16.5294 15.0938 16.5303H15.9563C16.0057 16.773 16.0678 17.0129 16.1424 17.2491H6.46875C6.27813 17.2491 6.09531 17.3248 5.96052 17.4596C5.82573 17.5944 5.75 17.7772 5.75 17.9678V38.0928H4.3125V17.9678ZM43.8438 41.6866C43.8438 42.2585 43.6166 42.8069 43.2122 43.2113C42.8078 43.6157 42.2594 43.8428 41.6875 43.8428H4.3125C3.74063 43.8428 3.19218 43.6157 2.7878 43.2113C2.38343 42.8069 2.15625 42.2585 2.15625 41.6866V40.2491C2.15625 40.0585 2.23198 39.8756 2.36677 39.7408C2.50156 39.6061 2.68438 39.5303 2.875 39.5303H43.125C43.3156 39.5303 43.4984 39.6061 43.6332 39.7408C43.768 39.8756 43.8438 40.0585 43.8438 40.2491V41.6866Z" fill="#4C99D3"/>
</svg>
