<svg width="46" height="46" viewBox="0 0 46 46" fill="none" xmlns="http://www.w3.org/2000/svg">
<g clip-path="url(#clip0_1856_1001)">
<path d="M39.5312 26.5254H37.375V24.3691C37.375 22.3875 35.7628 20.7754 33.7812 20.7754H30.1875V18.6191C30.1875 18.2224 29.8655 17.9004 29.4688 17.9004H23.7188V16.3608C24.955 16.0395 25.875 14.9233 25.875 13.5879C25.875 12.0023 24.5856 10.7129 23 10.7129C21.4144 10.7129 20.125 12.0023 20.125 13.5879C20.125 14.9233 21.045 16.0395 22.2812 16.3608V17.9004H16.5312C16.1345 17.9004 15.8125 18.2224 15.8125 18.6191V20.7754H12.2188C10.2372 20.7754 8.625 22.3875 8.625 24.3691V26.5254H6.46875C5.27994 26.5254 4.3125 27.4928 4.3125 28.6816V37.3066C4.3125 38.4955 5.27994 39.4629 6.46875 39.4629H8.625V41.6191C8.625 43.6007 10.2372 45.2129 12.2188 45.2129H33.7812C35.7628 45.2129 37.375 43.6007 37.375 41.6191V39.4629H39.5312C40.7201 39.4629 41.6875 38.4955 41.6875 37.3066V28.6816C41.6875 27.4928 40.7201 26.5254 39.5312 26.5254ZM21.5625 13.5879C21.5625 12.7951 22.2072 12.1504 23 12.1504C23.7928 12.1504 24.4375 12.7951 24.4375 13.5879C24.4375 14.3807 23.7928 15.0254 23 15.0254C22.2072 15.0254 21.5625 14.3807 21.5625 13.5879ZM6.46875 38.0254C6.07272 38.0254 5.75 37.7027 5.75 37.3066V28.6816C5.75 28.2856 6.07272 27.9629 6.46875 27.9629H8.625V38.0254H6.46875ZM17.25 19.3379H28.75V20.7754H17.25V19.3379ZM35.9375 41.6191C35.9375 42.808 34.9701 43.7754 33.7812 43.7754H12.2188C11.0299 43.7754 10.0625 42.808 10.0625 41.6191V24.3691C10.0625 23.1803 11.0299 22.2129 12.2188 22.2129H33.7812C34.9701 22.2129 35.9375 23.1803 35.9375 24.3691V41.6191ZM40.25 37.3066C40.25 37.7027 39.9273 38.0254 39.5312 38.0254H37.375V27.9629H39.5312C39.9273 27.9629 40.25 28.2856 40.25 28.6816V37.3066Z" fill="#4C99D3"/>
<path d="M29.4688 33.7129H16.5312C16.1345 33.7129 15.8125 34.0349 15.8125 34.4316V35.1504C15.8125 39.1136 19.0368 42.3379 23 42.3379C26.9632 42.3379 30.1875 39.1136 30.1875 35.1504V34.4316C30.1875 34.0349 29.8655 33.7129 29.4688 33.7129ZM23 40.9004C19.8296 40.9004 17.25 38.3208 17.25 35.1504H28.75C28.75 38.3208 26.1704 40.9004 23 40.9004Z" fill="#4C99D3"/>
<path d="M18.6875 29.4004C18.6875 27.8148 17.3981 26.5254 15.8125 26.5254C14.2269 26.5254 12.9375 27.8148 12.9375 29.4004C12.9375 30.986 14.2269 32.2754 15.8125 32.2754C17.3981 32.2754 18.6875 30.986 18.6875 29.4004ZM14.375 29.4004C14.375 28.6076 15.0197 27.9629 15.8125 27.9629C16.6053 27.9629 17.25 28.6076 17.25 29.4004C17.25 30.1932 16.6053 30.8379 15.8125 30.8379C15.0197 30.8379 14.375 30.1932 14.375 29.4004Z" fill="#4C99D3"/>
<path d="M30.1875 26.5254C28.6019 26.5254 27.3125 27.8148 27.3125 29.4004C27.3125 30.986 28.6019 32.2754 30.1875 32.2754C31.7731 32.2754 33.0625 30.986 33.0625 29.4004C33.0625 27.8148 31.7731 26.5254 30.1875 26.5254ZM30.1875 30.8379C29.3947 30.8379 28.75 30.1932 28.75 29.4004C28.75 28.6076 29.3947 27.9629 30.1875 27.9629C30.9803 27.9629 31.625 28.6076 31.625 29.4004C31.625 30.1932 30.9803 30.8379 30.1875 30.8379Z" fill="#4C99D3"/>
<path d="M11.7106 16.2523C11.8479 16.3896 12.0319 16.4629 12.2188 16.4629C12.3115 16.4629 12.4049 16.4449 12.494 16.4083C12.7621 16.2969 12.9375 16.0352 12.9375 15.7441V13.5879H17.25C18.4388 13.5879 19.4062 12.6205 19.4062 11.4316V2.80664C19.4062 1.61783 18.4388 0.650391 17.25 0.650391H2.875C1.68619 0.650391 0.71875 1.61783 0.71875 2.80664V11.4316C0.71875 12.6205 1.68619 13.5879 2.875 13.5879H9.04619L11.7106 16.2523ZM2.15625 11.4316V2.80664C2.15625 2.41061 2.47897 2.08789 2.875 2.08789H17.25C17.646 2.08789 17.9688 2.41061 17.9688 2.80664V11.4316C17.9688 11.8277 17.646 12.1504 17.25 12.1504H12.2188C11.822 12.1504 11.5 12.4724 11.5 12.8691V14.0091L9.85191 12.361C9.71678 12.2259 9.53422 12.1504 9.34375 12.1504H2.875C2.47897 12.1504 2.15625 11.8284 2.15625 11.4316Z" fill="#4C99D3"/>
<path d="M43.125 3.52539H28.75C27.5612 3.52539 26.5938 4.49283 26.5938 5.68164V14.3066C26.5938 15.4955 27.5612 16.4629 28.75 16.4629H33.0625V18.6191C33.0625 18.9095 33.2379 19.1719 33.506 19.2833C33.5951 19.3199 33.6885 19.3379 33.7812 19.3379C33.9681 19.3379 34.1521 19.2646 34.2894 19.1273L36.9538 16.4629H43.125C44.3138 16.4629 45.2812 15.4955 45.2812 14.3066V5.68164C45.2812 4.49283 44.3138 3.52539 43.125 3.52539ZM43.8438 14.3066C43.8438 14.7027 43.521 15.0254 43.125 15.0254H36.6562C36.4658 15.0254 36.2825 15.1009 36.1481 15.236L34.5 16.8841V15.7441C34.5 15.3474 34.178 15.0254 33.7812 15.0254H28.75C28.354 15.0254 28.0312 14.7027 28.0312 14.3066V5.68164C28.0312 5.28561 28.354 4.96289 28.75 4.96289H43.125C43.521 4.96289 43.8438 5.28561 43.8438 5.68164V14.3066Z" fill="#4C99D3"/>
<path d="M3.59375 3.52539H16.5312V4.96289H3.59375V3.52539Z" fill="#4C99D3"/>
<path d="M3.59375 9.27539H16.5312V10.7129H3.59375V9.27539Z" fill="#4C99D3"/>
<path d="M5.03125 6.40039H15.0938V7.83789H5.03125V6.40039Z" fill="#4C99D3"/>
<path d="M29.4688 6.40039H42.4062V7.83789H29.4688V6.40039Z" fill="#4C99D3"/>
<path d="M29.4688 12.1504H42.4062V13.5879H29.4688V12.1504Z" fill="#4C99D3"/>
<path d="M30.9062 9.27539H40.9688V10.7129H30.9062V9.27539Z" fill="#4C99D3"/>
</g>
<defs>
<clipPath id="clip0_1856_1001">
<rect width="46" height="46" fill="white"/>
</clipPath>
</defs>
</svg>
